  0
SECTION
  2
HEADER
  9
$ACADVER
  1
AC1015
  9
$ACADMAINTVER
 70
     6
  9
$DWGCODEPAGE
  3
ANSI_1252
  9
$INSBASE
 10
0.0
 20
0.0
 30
0.0
  9
$EXTMIN
 10
-218.0
 20
128.3762418213
 30
0.0
  9
$EXTMAX
 10
-85.0
 20
373.305382828
 30
0.0
  9
$LIMMIN
 10
0.0
 20
0.0
  9
$LIMMAX
 10
420.0
 20
297.0
  9
$ORTHOMODE
 70
     0
  9
$REGENMODE
 70
     1
  9
$FILLMODE
 70
     1
  9
$QTEXTMODE
 70
     0
  9
$MIRRTEXT
 70
     1
  9
$LTSCALE
 40
1.0
  9
$ATTMODE
 70
     1
  9
$TEXTSIZE
 40
3.175
  9
$TRACEWID
 40
1.0
  9
$TEXTSTYLE
  7
Standard
  9
$CLAYER
  8
0
  9
$CELTYPE
  6
ByLayer
  9
$CECOLOR
 62
   256
  9
$CELTSCALE
 40
1.0
  9
$DISPSILH
 70
     0
  9
$DIMSCALE
 40
1.0
  9
$DIMASZ
 40
3.302
  9
$DIMEXO
 40
1.27
  9
$DIMDLI
 40
3.75
  9
$DIMRND
 40
0.0
  9
$DIMDLE
 40
0.0
  9
$DIMEXE
 40
3.175
  9
$DIMTP
 40
0.0
  9
$DIMTM
 40
0.0
  9
$DIMTXT
 40
3.175
  9
$DIMCEN
 40
2.5
  9
$DIMTSZ
 40
0.0
  9
$DIMTOL
 70
     0
  9
$DIMLIM
 70
     0
  9
$DIMTIH
 70
     1
  9
$DIMTOH
 70
     1
  9
$DIMSE1
 70
     0
  9
$DIMSE2
 70
     0
  9
$DIMTAD
 70
     0
  9
$DIMZIN
 70
     0
  9
$DIMBLK
  1

  9
$DIMASO
 70
     1
  9
$DIMSHO
 70
     1
  9
$DIMPOST
  1

  9
$DIMAPOST
  1

  9
$DIMALT
 70
     0
  9
$DIMALTD
 70
     3
  9
$DIMALTF
 40
0.0393700787
  9
$DIMLFAC
 40
1.0
  9
$DIMTOFL
 70
     1
  9
$DIMTVP
 40
0.0
  9
$DIMTIX
 70
     0
  9
$DIMSOXD
 70
     0
  9
$DIMSAH
 70
     0
  9
$DIMBLK1
  1

  9
$DIMBLK2
  1

  9
$DIMSTYLE
  2
ISO-25
  9
$DIMCLRD
 70
     0
  9
$DIMCLRE
 70
     0
  9
$DIMCLRT
 70
     0
  9
$DIMTFAC
 40
1.0
  9
$DIMGAP
 40
1.524
  9
$DIMJUST
 70
     0
  9
$DIMSD1
 70
     0
  9
$DIMSD2
 70
     0
  9
$DIMTOLJ
 70
     0
  9
$DIMTZIN
 70
     0
  9
$DIMALTZ
 70
     0
  9
$DIMALTTZ
 70
     0
  9
$DIMUPT
 70
     0
  9
$DIMDEC
 70
     2
  9
$DIMTDEC
 70
     2
  9
$DIMALTU
 70
     2
  9
$DIMALTTD
 70
     3
  9
$DIMTXSTY
  7
Standard
  9
$DIMAUNIT
 70
     0
  9
$DIMADEC
 70
     2
  9
$DIMALTRND
 40
0.0
  9
$DIMAZIN
 70
     0
  9
$DIMDSEP
 70
    44
  9
$DIMATFIT
 70
     3
  9
$DIMFRAC
 70
     0
  9
$DIMLDRBLK
  1

  9
$DIMLUNIT
 70
     2
  9
$DIMLWD
 70
    -2
  9
$DIMLWE
 70
    -2
  9
$DIMTMOVE
 70
     0
  9
$LUNITS
 70
     2
  9
$LUPREC
 70
     2
  9
$SKETCHINC
 40
1.0
  9
$FILLETRAD
 40
10.0
  9
$AUNITS
 70
     0
  9
$AUPREC
 70
     2
  9
$MENU
  1
.
  9
$ELEVATION
 40
0.0
  9
$PELEVATION
 40
0.0
  9
$THICKNESS
 40
0.0
  9
$LIMCHECK
 70
     0
  9
$CHAMFERA
 40
0.0
  9
$CHAMFERB
 40
0.0
  9
$CHAMFERC
 40
0.0
  9
$CHAMFERD
 40
0.0
  9
$SKPOLY
 70
     0
  9
$TDCREATE
 40
2457686.499172766
  9
$TDUCREATE
 40
2457686.790839433
  9
$TDUPDATE
 40
2457686.499197176
  9
$TDUUPDATE
 40
2457686.790863843
  9
$TDINDWG
 40
0.0000000116
  9
$TDUSRTIMER
 40
0.0000000116
  9
$USRTIMER
 70
     1
  9
$ANGBASE
 50
0.0
  9
$ANGDIR
 70
     0
  9
$PDMODE
 70
     0
  9
$PDSIZE
 40
-1.0
  9
$PLINEWID
 40
0.0
  9
$SPLFRAME
 70
     0
  9
$SPLINETYPE
 70
     6
  9
$SPLINESEGS
 70
     8
  9
$HANDSEED
  5
D6
  9
$SURFTAB1
 70
     6
  9
$SURFTAB2
 70
     6
  9
$SURFTYPE
 70
     6
  9
$SURFU
 70
     6
  9
$SURFV
 70
     6
  9
$UCSBASE
  2

  9
$UCSNAME
  2

  9
$UCSORG
 10
0.0
 20
0.0
 30
0.0
  9
$UCSXDIR
 10
1.0
 20
0.0
 30
0.0
  9
$UCSYDIR
 10
0.0
 20
1.0
 30
0.0
  9
$UCSORTHOREF
  2

  9
$UCSORTHOVIEW
 70
     0
  9
$UCSORGTOP
 10
0.0
 20
0.0
 30
0.0
  9
$UCSORGBOTTOM
 10
0.0
 20
0.0
 30
0.0
  9
$UCSORGLEFT
 10
0.0
 20
0.0
 30
0.0
  9
$UCSORGRIGHT
 10
0.0
 20
0.0
 30
0.0
  9
$UCSORGFRONT
 10
0.0
 20
0.0
 30
0.0
  9
$UCSORGBACK
 10
0.0
 20
0.0
 30
0.0
  9
$PUCSBASE
  2

  9
$PUCSNAME
  2

  9
$PUCSORG
 10
0.0
 20
0.0
 30
0.0
  9
$PUCSXDIR
 10
1.0
 20
0.0
 30
0.0
  9
$PUCSYDIR
 10
0.0
 20
1.0
 30
0.0
  9
$PUCSORTHOREF
  2

  9
$PUCSORTHOVIEW
 70
     0
  9
$PUCSORGTOP
 10
0.0
 20
0.0
 30
0.0
  9
$PUCSORGBOTTOM
 10
0.0
 20
0.0
 30
0.0
  9
$PUCSORGLEFT
 10
0.0
 20
0.0
 30
0.0
  9
$PUCSORGRIGHT
 10
0.0
 20
0.0
 30
0.0
  9
$PUCSORGFRONT
 10
0.0
 20
0.0
 30
0.0
  9
$PUCSORGBACK
 10
0.0
 20
0.0
 30
0.0
  9
$USERI1
 70
     0
  9
$USERI2
 70
     0
  9
$USERI3
 70
     0
  9
$USERI4
 70
     0
  9
$USERI5
 70
     0
  9
$USERR1
 40
0.0
  9
$USERR2
 40
0.0
  9
$USERR3
 40
0.0
  9
$USERR4
 40
0.0
  9
$USERR5
 40
0.0
  9
$WORLDVIEW
 70
     1
  9
$SHADEDGE
 70
     3
  9
$SHADEDIF
 70
    70
  9
$TILEMODE
 70
     1
  9
$MAXACTVP
 70
    64
  9
$PINSBASE
 10
0.0
 20
0.0
 30
0.0
  9
$PLIMCHECK
 70
     0
  9
$PEXTMIN
 10
1.0000000000E+20
 20
1.0000000000E+20
 30
1.0000000000E+20
  9
$PEXTMAX
 10
-1.0000000000E+20
 20
-1.0000000000E+20
 30
-1.0000000000E+20
  9
$PLIMMIN
 10
0.0
 20
0.0
  9
$PLIMMAX
 10
420.0
 20
297.0
  9
$UNITMODE
 70
     0
  9
$VISRETAIN
 70
     1
  9
$PLINEGEN
 70
     0
  9
$PSLTSCALE
 70
     1
  9
$TREEDEPTH
 70
  3020
  9
$CMLSTYLE
  2
Standard
  9
$CMLJUST
 70
     0
  9
$CMLSCALE
 40
20.0
  9
$PROXYGRAPHICS
 70
     1
  9
$MEASUREMENT
 70
     1
  9
$CELWEIGHT
370
    -1
  9
$ENDCAPS
280
     0
  9
$JOINSTYLE
280
     0
  9
$LWDISPLAY
290
     1
  9
$INSUNITS
 70
     4
  9
$HYPERLINKBASE
  1

  9
$STYLESHEET
  1

  9
$XEDIT
290
     1
  9
$CEPSNTYPE
380
     0
  9
$PSTYLEMODE
290
     1
  9
$FINGERPRINTGUID
  2
{79B000D7-9ECA-4DA9-8DFF-8B71BA47B545}
  9
$VERSIONGUID
  2
{FAEB1C32-E019-11D5-929B-00C0DF256EC4}
  9
$EXTNAMES
290
     1
  9
$PSVPSCALE
 40
0.0
  9
$OLESTARTUP
290
     0
  0
ENDSEC
  0
SECTION
  2
CLASSES
  0
CLASS
  1
ACDBDICTIONARYWDFLT
  2
AcDbDictionaryWithDefault
  3
ObjectDBX Classes
 90
        0
280
     0
281
     0
  0
CLASS
  1
VISUALSTYLE
  2
AcDbVisualStyle
  3
ObjectDBX Classes
 90
     4095
280
     0
281
     0
  0
CLASS
  1
MATERIAL
  2
AcDbMaterial
  3
ObjectDBX Classes
 90
     1153
280
     0
281
     0
  0
CLASS
  1
SCALE
  2
AcDbScale
  3
ObjectDBX Classes
 90
     1153
280
     0
281
     0
  0
CLASS
  1
TABLESTYLE
  2
AcDbTableStyle
  3
ObjectDBX Classes
 90
     4095
280
     0
281
     0
  0
CLASS
  1
MLEADERSTYLE
  2
AcDbMLeaderStyle
  3
ACDB_MLEADERSTYLE_CLASS
 90
     4095
280
     0
281
     0
  0
CLASS
  1
SUN
  2
AcDbSun
  3
SCENEOE
 90
     1153
280
     0
281
     0
  0
CLASS
  1
ACDBPLACEHOLDER
  2
AcDbPlaceHolder
  3
ObjectDBX Classes
 90
        0
280
     0
281
     0
  0
CLASS
  1
LAYOUT
  2
AcDbLayout
  3
ObjectDBX Classes
 90
        0
280
     0
281
     0
  0
ENDSEC
  0
SECTION
  2
TABLES
  0
TABLE
  2
VPORT
  5
8
330
0
100
AcDbSymbolTable
 70
     1
  0
VPORT
  5
29
330
8
100
AcDbSymbolTableRecord
100
AcDbViewportTableRecord
  2
*Active
 70
     0
 10
0.0
 20
0.0
 11
1.0
 21
1.0
 12
-151.5
 22
250.8408123247
 13
0.0
 23
0.0
 14
10.0
 24
10.0
 15
10.0
 25
10.0
 16
0.0
 26
0.0
 36
1.0
 17
0.0
 27
0.0
 37
0.0
 40
249.8277238269
 41
0.5430141936
 42
50.0
 43
0.0
 44
0.0
 50
0.0
 51
0.0
 71
     0
 72
   100
 73
     1
 74
     3
 75
     0
 76
     0
 77
     0
 78
     0
281
     0
 65
     1
110
0.0
120
0.0
130
0.0
111
1.0
121
0.0
131
0.0
112
0.0
122
1.0
132
0.0
 79
     0
146
0.0
  0
ENDTAB
  0
TABLE
  2
LTYPE
  5
5
330
0
100
AcDbSymbolTable
 70
     6
  0
LTYPE
  5
14
330
5
100
AcDbSymbolTableRecord
100
AcDbLinetypeTableRecord
  2
ByBlock
 70
     0
  3

 72
    65
 73
     0
 40
0.0
  0
LTYPE
  5
15
330
5
100
AcDbSymbolTableRecord
100
AcDbLinetypeTableRecord
  2
ByLayer
 70
     0
  3

 72
    65
 73
     0
 40
0.0
  0
LTYPE
  5
16
330
5
100
AcDbSymbolTableRecord
100
AcDbLinetypeTableRecord
  2
Continuous
 70
     0
  3
Solid line
 72
    65
 73
     0
 40
0.0
  0
LTYPE
  5
6E
330
5
100
AcDbSymbolTableRecord
100
AcDbLinetypeTableRecord
  2
HIDDEN
 70
     0
  3
Hidden __ __ __ __ __ __ __ __ __ __ __ __ __ __
 72
    65
 73
     2
 40
1.905
 49
1.27
 74
     0
 49
-0.635
 74
     0
  0
LTYPE
  5
6F
330
5
100
AcDbSymbolTableRecord
100
AcDbLinetypeTableRecord
  2
PHANTOM
 70
     0
  3
Phantom ______  __  __  ______  __  __  ______
 72
    65
 73
     6
 40
12.7
 49
6.35
 74
     0
 49
-1.27
 74
     0
 49
1.27
 74
     0
 49
-1.27
 74
     0
 49
1.27
 74
     0
 49
-1.27
 74
     0
  0
LTYPE
  5
70
330
5
100
AcDbSymbolTableRecord
100
AcDbLinetypeTableRecord
  2
CENTER
 70
     0
  3
Center ____ _ ____ _ ____ _ ____ _ ____ _ ____
 72
    65
 73
     4
 40
10.16
 49
6.35
 74
     0
 49
-1.27
 74
     0
 49
1.27
 74
     0
 49
-1.27
 74
     0
  0
LTYPE
  5
71
330
5
100
AcDbSymbolTableRecord
100
AcDbLinetypeTableRecord
  2
CENTERX2
 70
     0
  3
Center (2x) ________  __  ________  __  _____
 72
    65
 73
     4
 40
20.32
 49
12.7
 74
     0
 49
-2.54
 74
     0
 49
2.54
 74
     0
 49
-2.54
 74
     0
  0
LTYPE
  5
72
330
5
100
AcDbSymbolTableRecord
100
AcDbLinetypeTableRecord
  2
DOT2
 70
     0
  3
Dot (.5x) ........................................
 72
    65
 73
     2
 40
0.635
 49
0.0
 74
     0
 49
-0.635
 74
     0
  0
ENDTAB
  0
TABLE
  2
LAYER
  5
2
330
0
100
AcDbSymbolTable
 70
     1
  0
LAYER
  5
10
330
2
100
AcDbSymbolTableRecord
100
AcDbLayerTableRecord
  2
0
 70
     0
 62
     7
  6
Continuous
370
    -3
390
F
  0
ENDTAB
  0
TABLE
  2
STYLE
  5
3
330
0
100
AcDbSymbolTable
 70
     1
  0
STYLE
  5
11
330
3
100
AcDbSymbolTableRecord
100
AcDbTextStyleTableRecord
  2
Standard
 70
     0
 40
0.0
 41
1.0
 50
0.0
 71
     0
 42
3.175
  3
txt
  4

  0
ENDTAB
  0
TABLE
  2
VIEW
  5
6
330
0
100
AcDbSymbolTable
 70
     0
  0
ENDTAB
  0
TABLE
  2
UCS
  5
7
330
0
100
AcDbSymbolTable
 70
     0
  0
ENDTAB
  0
TABLE
  2
APPID
  5
9
330
0
100
AcDbSymbolTable
 70
     1
  0
APPID
  5
12
330
9
100
AcDbSymbolTableRecord
100
AcDbRegAppTableRecord
  2
ACAD
 70
     0
  0
ENDTAB
  0
TABLE
  2
DIMSTYLE
  5
A
330
0
100
AcDbSymbolTable
 70
     1
100
AcDbDimStyleTable
  0
DIMSTYLE
105
27
330
A
100
AcDbSymbolTableRecord
100
AcDbDimStyleTableRecord
  2
ISO-25
 70
     0
 41
2.5
 42
0.625
 43
3.75
 44
1.25
 73
     0
 74
     0
 77
     1
 78
     8
140
2.5
141
2.5
143
0.0393700787
147
0.625
171
     3
172
     1
178
     0
271
     2
272
     2
274
     3
278
    44
283
     0
284
     8
340
11
  0
ENDTAB
  0
TABLE
  2
BLOCK_RECORD
  5
1
330
0
100
AcDbSymbolTable
 70
     1
  0
BLOCK_RECORD
  5
1F
330
1
100
AcDbSymbolTableRecord
100
AcDbBlockTableRecord
  2
*Model_Space
340
22
  0
BLOCK_RECORD
  5
1B
330
1
100
AcDbSymbolTableRecord
100
AcDbBlockTableRecord
  2
*Paper_Space
340
1E
  0
BLOCK_RECORD
  5
23
330
1
100
AcDbSymbolTableRecord
100
AcDbBlockTableRecord
  2
*Paper_Space0
340
26
  0
ENDTAB
  0
ENDSEC
  0
SECTION
  2
BLOCKS
  0
BLOCK
  5
20
330
1F
100
AcDbEntity
  8
0
100
AcDbBlockBegin
  2
*Model_Space
 70
     0
 10
0.0
 20
0.0
 30
0.0
  3
*Model_Space
  1

  0
ENDBLK
  5
21
330
1F
100
AcDbEntity
  8
0
100
AcDbBlockEnd
  0
BLOCK
  5
1C
330
1B
100
AcDbEntity
 67
     1
  8
0
100
AcDbBlockBegin
  2
*Paper_Space
 70
     0
 10
0.0
 20
0.0
 30
0.0
  3
*Paper_Space
  1

  0
ENDBLK
  5
1D
330
1B
100
AcDbEntity
 67
     1
  8
0
100
AcDbBlockEnd
  0
BLOCK
  5
24
330
23
100
AcDbEntity
  8
0
100
AcDbBlockBegin
  2
*Paper_Space0
 70
     0
 10
0.0
 20
0.0
 30
0.0
  3
*Paper_Space0
  1

  0
ENDBLK
  5
25
330
23
100
AcDbEntity
  8
0
100
AcDbBlockEnd
  0
ENDSEC
  0
SECTION
  2
ENTITIES
  0
CIRCLE
  5
73
330
1F
100
AcDbEntity
  8
0
  6
Continuous
 62
     7
370
    15
100
AcDbCircle
 10
-90.5
 20
317.005382828
 30
0.0
 40
2.749999999999943
  0
CIRCLE
  5
74
330
1F
100
AcDbEntity
  8
0
  6
Continuous
 62
     7
370
    15
100
AcDbCircle
 10
-90.5
 20
334.005382828
 30
0.0
 40
2.749999999999886
  0
CIRCLE
  5
75
330
1F
100
AcDbEntity
  8
0
  6
Continuous
 62
     7
370
    15
100
AcDbCircle
 10
-90.5
 20
351.005382828
 30
0.0
 40
2.749999999999943
  0
CIRCLE
  5
76
330
1F
100
AcDbEntity
  8
0
  6
Continuous
 62
     7
370
    15
100
AcDbCircle
 10
-171.6841941877
 20
146.8762418213
 30
0.0
 40
2.75
  0
CIRCLE
  5
77
330
1F
100
AcDbEntity
  8
0
  6
Continuous
 62
     7
370
    15
100
AcDbCircle
 10
-90.5
 20
300.005382828
 30
0.0
 40
2.75
  0
CIRCLE
  5
78
330
1F
100
AcDbEntity
  8
0
  6
Continuous
 62
     7
370
    15
100
AcDbCircle
 10
-90.5
 20
283.005382828
 30
0.0
 40
2.75
  0
CIRCLE
  5
79
330
1F
100
AcDbEntity
  8
0
  6
Continuous
 62
     7
370
    15
100
AcDbCircle
 10
-90.5
 20
266.005382828
 30
0.0
 40
2.75
  0
CIRCLE
  5
7A
330
1F
100
AcDbEntity
  8
0
  6
Continuous
 62
     7
370
    15
100
AcDbCircle
 10
-103.9289321881
 20
247.3302784187
 30
0.0
 40
2.600000000000364
  0
CIRCLE
  5
7B
330
1F
100
AcDbEntity
  8
0
  6
Continuous
 62
     7
370
    15
100
AcDbCircle
 10
-109.375
 20
367.305382828
 30
0.0
 40
2.749999999999943
  0
CIRCLE
  5
7C
330
1F
100
AcDbEntity
  8
0
  6
Continuous
 62
     7
370
    15
100
AcDbCircle
 10
-126.225
 20
367.305382828
 30
0.0
 40
2.749999999999943
  0
CIRCLE
  5
7D
330
1F
100
AcDbEntity
  8
0
  6
Continuous
 62
     7
370
    15
100
AcDbCircle
 10
-143.075
 20
367.305382828
 30
0.0
 40
2.749999999999886
  0
CIRCLE
  5
7E
330
1F
100
AcDbEntity
  8
0
  6
Continuous
 62
     7
370
    15
100
AcDbCircle
 10
-159.925
 20
367.305382828
 30
0.0
 40
2.749999999999886
  0
CIRCLE
  5
7F
330
1F
100
AcDbEntity
  8
0
  6
Continuous
 62
     7
370
    15
100
AcDbCircle
 10
-176.775
 20
367.305382828
 30
0.0
 40
2.749999999999886
  0
CIRCLE
  5
80
330
1F
100
AcDbEntity
  8
0
  6
Continuous
 62
     7
370
    15
100
AcDbCircle
 10
-193.625
 20
367.305382828
 30
0.0
 40
2.749999999999886
  0
CIRCLE
  5
81
330
1F
100
AcDbEntity
  8
0
  6
Continuous
 62
     7
370
    15
100
AcDbCircle
 10
-131.3158058123
 20
146.8762418213
 30
0.0
 40
2.75
  0
CIRCLE
  5
82
330
1F
100
AcDbEntity
  8
0
  6
Continuous
 62
     7
370
    15
100
AcDbCircle
 10
-151.5
 20
146.8762418213
 30
0.0
 40
2.75
  0
CIRCLE
  5
83
330
1F
100
AcDbEntity
  8
0
  6
Continuous
 62
     7
370
    15
100
AcDbCircle
 10
-199.0710678119
 20
231.0802784187
 30
0.0
 40
2.75
  0
CIRCLE
  5
84
330
1F
100
AcDbEntity
  8
0
  6
Continuous
 62
     7
370
    15
100
AcDbCircle
 10
-103.9289321881
 20
166.0802784187
 30
0.0
 40
2.750000000000028
  0
CIRCLE
  5
85
330
1F
100
AcDbEntity
  8
0
  6
Continuous
 62
     7
370
    15
100
AcDbCircle
 10
-212.5
 20
334.005382828
 30
0.0
 40
2.750000000000057
  0
CIRCLE
  5
86
330
1F
100
AcDbEntity
  8
0
  6
Continuous
 62
     7
370
    15
100
AcDbCircle
 10
-212.5
 20
317.005382828
 30
0.0
 40
2.75
  0
CIRCLE
  5
87
330
1F
100
AcDbEntity
  8
0
  6
Continuous
 62
     7
370
    15
100
AcDbCircle
 10
-212.5
 20
300.005382828
 30
0.0
 40
2.749999999999943
  0
CIRCLE
  5
88
330
1F
100
AcDbEntity
  8
0
  6
Continuous
 62
     7
370
    15
100
AcDbCircle
 10
-212.5
 20
283.005382828
 30
0.0
 40
2.75
  0
CIRCLE
  5
89
330
1F
100
AcDbEntity
  8
0
  6
Continuous
 62
     7
370
    15
100
AcDbCircle
 10
-212.5
 20
266.005382828
 30
0.0
 40
2.75
  0
CIRCLE
  5
8A
330
1F
100
AcDbEntity
  8
0
  6
Continuous
 62
     7
370
    15
100
AcDbCircle
 10
-199.0710678119
 20
247.3302784187
 30
0.0
 40
2.600000000000364
  0
CIRCLE
  5
8B
330
1F
100
AcDbEntity
  8
0
  6
Continuous
 62
     7
370
    15
100
AcDbCircle
 10
-199.0710678119
 20
214.8302784187
 30
0.0
 40
2.750000000000028
  0
CIRCLE
  5
8C
330
1F
100
AcDbEntity
  8
0
  6
Continuous
 62
     7
370
    15
100
AcDbCircle
 10
-199.0710678119
 20
198.5802784187
 30
0.0
 40
2.75
  0
CIRCLE
  5
8D
330
1F
100
AcDbEntity
  8
0
  6
Continuous
 62
     7
370
    15
100
AcDbCircle
 10
-199.0710678119
 20
182.3302784187
 30
0.0
 40
2.750000000000028
  0
CIRCLE
  5
8E
330
1F
100
AcDbEntity
  8
0
  6
Continuous
 62
     7
370
    15
100
AcDbCircle
 10
-199.0710678119
 20
166.0802784187
 30
0.0
 40
2.75
  0
CIRCLE
  5
8F
330
1F
100
AcDbEntity
  8
0
  6
Continuous
 62
     7
370
    15
100
AcDbCircle
 10
-103.9289321881
 20
182.3302784187
 30
0.0
 40
2.75
  0
CIRCLE
  5
90
330
1F
100
AcDbEntity
  8
0
  6
Continuous
 62
     7
370
    15
100
AcDbCircle
 10
-103.9289321881
 20
198.5802784187
 30
0.0
 40
2.750000000000028
  0
CIRCLE
  5
91
330
1F
100
AcDbEntity
  8
0
  6
Continuous
 62
     7
370
    15
100
AcDbCircle
 10
-103.9289321881
 20
214.8302784187
 30
0.0
 40
2.75
  0
CIRCLE
  5
92
330
1F
100
AcDbEntity
  8
0
  6
Continuous
 62
     7
370
    15
100
AcDbCircle
 10
-103.9289321881
 20
231.0802784187
 30
0.0
 40
2.750000000000028
  0
CIRCLE
  5
93
330
1F
100
AcDbEntity
  8
0
  6
Continuous
 62
     7
370
    15
100
AcDbCircle
 10
-212.5
 20
351.005382828
 30
0.0
 40
2.75
  0
LINE
  5
94
330
1F
100
AcDbEntity
  8
0
  6
Continuous
 62
     7
370
    15
100
AcDbLine
 10
-85.0
 20
357.305382828
 30
0.0
 11
-85.0
 21
237.371430755
 31
0.0
  0
ARC
  5
95
330
1F
100
AcDbEntity
  8
0
  6
Continuous
 62
     7
370
    15
100
AcDbCircle
 10
-101.0
 20
357.305382828
 30
0.0
 40
15.99999999999996
100
AcDbArc
 50
360.0
 51
90.0
  0
LINE
  5
96
330
1F
100
AcDbEntity
  8
0
  6
Continuous
 62
     7
370
    15
100
AcDbLine
 10
-202.0
 20
373.305382828
 30
0.0
 11
-101.0
 21
373.305382828
 31
0.0
  0
ARC
  5
97
330
1F
100
AcDbEntity
  8
0
  6
Continuous
 62
     7
370
    15
100
AcDbCircle
 10
-202.0
 20
357.305382828
 30
0.0
 40
15.99999999999991
100
AcDbArc
 50
90.0
 51
180.0
  0
LINE
  5
98
330
1F
100
AcDbEntity
  8
0
  6
Continuous
 62
     7
370
    15
100
AcDbLine
 10
-218.0
 20
237.371430755
 30
0.0
 11
-218.0
 21
357.305382828
 31
0.0
  0
ARC
  5
99
330
1F
100
AcDbEntity
  8
0
  6
Continuous
 62
     7
370
    15
100
AcDbCircle
 10
-212.0
 20
237.371430755
 30
0.0
 40
6.000000000000054
100
AcDbArc
 50
180.0
 51
311.8103148958
  0
LINE
  5
9A
330
1F
100
AcDbEntity
  8
0
  6
Continuous
 62
     7
370
    15
100
AcDbLine
 10
-208.0
 20
156.8762418213
 30
0.0
 11
-208.0
 21
232.8992948
 31
0.0
  0
ARC
  5
9B
330
1F
100
AcDbEntity
  8
0
  6
Continuous
 62
     7
370
    15
100
AcDbCircle
 10
-192.0
 20
156.8762418213
 30
0.0
 40
16.00000000000003
100
AcDbArc
 50
180.0
 51
270.0
  0
LINE
  5
9C
330
1F
100
AcDbEntity
  8
0
  6
Continuous
 62
     7
370
    15
100
AcDbLine
 10
-137.4564000811
 20
140.8762418213
 30
0.0
 11
-192.0
 21
140.8762418213
 31
0.0
  0
LINE
  5
9D
330
1F
100
AcDbEntity
  8
0
  6
Continuous
 62
     7
370
    15
100
AcDbLine
 10
-133.0
 20
128.3762418213
 30
0.0
 11
-137.4564000811
 21
140.8762418213
 31
0.0
  0
LINE
  5
9E
330
1F
100
AcDbEntity
  8
0
  6
Continuous
 62
     7
370
    15
100
AcDbLine
 10
-131.0
 20
128.3762418213
 30
0.0
 11
-133.0
 21
128.3762418213
 31
0.0
  0
LINE
  5
9F
330
1F
100
AcDbEntity
  8
0
  6
Continuous
 62
     7
370
    15
100
AcDbLine
 10
-131.0
 20
128.3762418213
 30
0.0
 11
-131.0
 21
137.3762418213
 31
0.0
  0
LINE
  5
A0
330
1F
100
AcDbEntity
  8
0
  6
Continuous
 62
     7
370
    15
100
AcDbLine
 10
-122.0
 20
137.3762418213
 30
0.0
 11
-131.0
 21
137.3762418213
 31
0.0
  0
LINE
  5
A1
330
1F
100
AcDbEntity
  8
0
  6
Continuous
 62
     7
370
    15
100
AcDbLine
 10
-122.0
 20
128.3762418213
 30
0.0
 11
-122.0
 21
137.3762418213
 31
0.0
  0
LINE
  5
A2
330
1F
100
AcDbEntity
  8
0
  6
Continuous
 62
     7
370
    15
100
AcDbLine
 10
-113.0
 20
128.3762418213
 30
0.0
 11
-122.0
 21
128.3762418213
 31
0.0
  0
LINE
  5
A3
330
1F
100
AcDbEntity
  8
0
  6
Continuous
 62
     7
370
    15
100
AcDbLine
 10
-113.0
 20
140.8762418213
 30
0.0
 11
-113.0
 21
128.3762418213
 31
0.0
  0
LINE
  5
A4
330
1F
100
AcDbEntity
  8
0
  6
Continuous
 62
     7
370
    15
100
AcDbLine
 10
-111.0
 20
140.8762418213
 30
0.0
 11
-113.0
 21
140.8762418213
 31
0.0
  0
ARC
  5
A5
330
1F
100
AcDbEntity
  8
0
  6
Continuous
 62
     7
370
    15
100
AcDbCircle
 10
-111.0
 20
156.8762418213
 30
0.0
 40
16.00000000000006
100
AcDbArc
 50
270.0
 51
0.0
  0
LINE
  5
A6
330
1F
100
AcDbEntity
  8
0
  6
Continuous
 62
     7
370
    15
100
AcDbLine
 10
-95.0
 20
232.8992948
 30
0.0
 11
-95.0
 21
156.8762418213
 31
0.0
  0
ARC
  5
A7
330
1F
100
AcDbEntity
  8
0
  6
Continuous
 62
     7
370
    15
100
AcDbCircle
 10
-91.0
 20
237.371430755
 30
0.0
 40
6.000000000005035
100
AcDbArc
 50
228.1896851043
 51
0.0
  0
ARC
  5
A8
330
1F
100
AcDbEntity
  8
0
  6
Continuous
 62
     7
370
    15
100
AcDbCircle
 10
-199.9
 20
355.205382828
 30
0.0
 40
7.60000000000003
100
AcDbArc
 50
267.4236359428
 51
2.5763640572
  0
SPLINE
  5
A9
330
1F
100
AcDbEntity
  8
0
  6
Continuous
 62
     7
370
    15
100
AcDbSpline
210
0.0
220
0.0
230
1.0
 70
     8
 71
     3
 72
    20
 73
    16
 74
     0
 42
0.000000001
 43
0.00000001
 40
0.0000114151154724
 40
0.0000114151154724
 40
0.0000114151154724
 40
0.0000114151154724
 40
0.0010053465779559
 40
0.0010053465779559
 40
0.0010053465779559
 40
0.0020106352077394
 40
0.0020106352077394
 40
0.0020106352077394
 40
0.0030168636015802
 40
0.0030168636015802
 40
0.0030168636015802
 40
0.0040253583125113
 40
0.0040253583125113
 40
0.0040253583125113
 40
0.0048421035474917
 40
0.0048421035474917
 40
0.0048421035474917
 40
0.0048421035474917
 10
-189.3113757856615
 20
358.6891089660986
 30
0.0
 10
-189.6426868926572
 20
358.6891089660986
 30
0.0
 10
-189.978466020417
 20
358.6325594351626
 30
0.0
 10
-190.2915116449756
 20
358.5240721706409
 30
0.0
 10
-190.6081419593292
 20
358.4143426169463
 30
0.0
 10
-190.9101794451163
 20
358.2484472888374
 30
0.0
 10
-191.1727117957186
 20
358.0401876052477
 30
0.0
 10
-191.4354938710291
 20
357.8317298219246
 30
0.0
 10
-191.6659293789688
 20
357.5751046398026
 30
0.0
 10
-191.8451190955259
 20
357.2915555047084
 30
0.0
 10
-192.0247086379885
 20
357.0073736866016
 30
0.0
 10
-192.1577684786891
 20
356.6883380314117
 30
0.0
 10
-192.2334227987749
 20
356.360789358148
 30
0.0
 10
-192.2947225007042
 20
356.0953896292812
 30
0.0
 10
-192.3199261297459
 20
355.8191212014641
 30
0.0
 10
-192.3076820940057
 20
355.5470095458373
 30
0.0
  0
LINE
  5
AA
330
1F
100
AcDbEntity
  8
0
  6
Continuous
 62
     7
370
    15
100
AcDbLine
 10
-113.6886242143
 20
358.6891089661
 30
0.0
 11
-189.3113757857
 21
358.6891089661
 31
0.0
  0
SPLINE
  5
AB
330
1F
100
AcDbEntity
  8
0
  6
Continuous
 62
     7
370
    15
100
AcDbSpline
210
0.0
220
0.0
230
1.0
 70
     8
 71
     3
 72
    23
 73
    19
 74
     0
 42
0.000000001
 43
0.00000001
 40
0.0015304535615249
 40
0.0015304535615249
 40
0.0015304535615249
 40
0.0015304535615249
 40
0.0020231577057497
 40
0.0020231577057497
 40
0.0020231577057497
 40
0.003035321879976
 40
0.003035321879976
 40
0.003035321879976
 40
0.0040467714629709
 40
0.0040467714629709
 40
0.0040467714629709
 40
0.00505620652419
 40
0.00505620652419
 40
0.00505620652419
 40
0.0060632204077596
 40
0.0060632204077596
 40
0.0060632204077596
 40
0.0063574863596141
 40
0.0063574863596141
 40
0.0063574863596141
 40
0.0063574863596141
 10
-110.6923179059936
 20
355.5470095458373
 30
0.0
 10
-110.6849076065128
 20
355.7116961657719
 30
0.0
 10
-110.6910721239688
 20
355.8775461554735
 30
0.0
 10
-110.710690247603
 20
356.041227933778
 30
0.0
 10
-110.7508400289357
 20
356.3762134670328
 30
0.0
 10
-110.8493865955103
 20
356.7089002736877
 30
0.0
 10
-110.9982356637031
 20
357.0116729067462
 30
0.0
 10
-111.1469769052714
 20
357.3142262105783
 30
0.0
 10
-111.3500724984482
 20
357.5952721729568
 30
0.0
 10
-111.5907412366211
 20
357.8313675288393
 30
0.0
 10
-111.8309333308255
 20
358.0669952983279
 30
0.0
 10
-112.1152036178993
 20
358.2643634608714
 30
0.0
 10
-112.4199677306558
 20
358.4069521120616
 30
0.0
 10
-112.7240117874719
 20
358.5492038738314
 30
0.0
 10
-113.056859682966
 20
358.6408634530294
 30
0.0
 10
-113.3908701767991
 20
358.6742601927085
 30
0.0
 10
-113.4897518108837
 20
358.684147080257
 30
0.0
 10
-113.5892495289061
 20
358.6891089660988
 30
0.0
 10
-113.6886242143377
 20
358.6891089660988
 30
0.0
  0
ARC
  5
AC
330
1F
100
AcDbEntity
  8
0
  6
Continuous
 62
     7
370
    15
100
AcDbCircle
 10
-103.1
 20
355.205382828
 30
0.0
 40
7.600000000000025
100
AcDbArc
 50
177.4236359428
 51
272.5763640572
  0
SPLINE
  5
AD
330
1F
100
AcDbEntity
  8
0
  6
Continuous
 62
     7
370
    15
100
AcDbSpline
210
0.0
220
0.0
230
1.0
 70
     8
 71
     3
 72
    23
 73
    19
 74
     0
 42
0.000000001
 43
0.00000001
 40
0.0004553063407001
 40
0.0004553063407001
 40
0.0004553063407001
 40
0.0004553063407001
 40
0.0010050695483731
 40
0.0010050695483731
 40
0.0010050695483731
 40
0.0020101144351672
 40
0.0020101144351672
 40
0.0020101144351672
 40
0.0030156264044914
 40
0.0030156264044914
 40
0.0030156264044914
 40
0.0040230565518146
 40
0.0040230565518146
 40
0.0040230565518146
 40
0.0050329061073709
 40
0.0050329061073709
 40
0.0050329061073709
 40
0.0052843122036218
 40
0.0052843122036218
 40
0.0052843122036218
 40
0.0052843122036218
 10
-99.61627386192183
 20
344.6167586136829
 30
0.0
 10
-99.61627386192183
 20
344.8005500457639
 30
0.0
 10
-99.63334877974332
 20
344.9851161483602
 30
0.0
 10
-99.6670646767319
 20
345.1657885834372
 30
0.0
 10
-99.72852280017656
 20
345.4951225122297
 30
0.0
 10
-99.84769204900493
 20
345.8183749672833
 30
0.0
 10
-100.0146436027371
 20
346.1088317046775
 30
0.0
 10
-100.1816766745722
 20
346.3994302645445
 30
0.0
 10
-100.4011231597884
 20
346.665200528149
 30
0.0
 10
-100.6547834869991
 20
346.8842986990287
 30
0.0
 10
-100.9089255177371
 20
347.1038129395513
 30
0.0
 10
-101.2043912235718
 20
347.2825199617081
 30
0.0
 10
-101.5167659111014
 20
347.4057949720335
 30
0.0
 10
-101.8298802243686
 20
347.52936186699
 30
0.0
 10
-102.1685972030789
 20
347.6006381768682
 30
0.0
 10
-102.5049541325048
 20
347.61380505688
 30
0.0
 10
-102.5893628944968
 20
347.6171092850492
 30
0.0
 10
-102.6739852578974
 20
347.6168620764818
 30
0.0
 10
-102.7583732821832
 20
347.6130649220269
 30
0.0
  0
LINE
  5
AE
330
1F
100
AcDbEntity
  8
0
  6
Continuous
 62
     7
370
    15
100
AcDbLine
 10
-99.6162738619
 20
299.3739005503
 30
0.0
 11
-99.6162738619
 21
344.6167586137
 31
0.0
  0
SPLINE
  5
AF
330
1F
100
AcDbEntity
  8
0
  6
Continuous
 62
     7
370
    15
100
AcDbSpline
210
0.0
220
0.0
230
1.0
 70
     8
 71
     3
 72
    23
 73
    19
 74
     0
 42
0.000000001
 43
0.00000001
 40
0.0009989909470637
 40
0.0009989909470637
 40
0.0009989909470637
 40
0.0009989909470637
 40
0.0010119903343661
 40
0.0010119903343661
 40
0.0010119903343661
 40
0.0020239734218398
 40
0.0020239734218398
 40
0.0020239734218398
 40
0.0030359607522047
 40
0.0030359607522047
 40
0.0030359607522047
 40
0.0040464668997701
 40
0.0040464668997701
 40
0.0040464668997701
 40
0.0050546106968682
 40
0.0050546106968682
 40
0.0050546106968682
 40
0.0058277636338298
 40
0.0058277636338298
 40
0.0058277636338298
 40
0.0058277636338298
 10
-102.7583732821832
 20
296.3775942419101
 30
0.0
 10
-102.7539838420811
 20
296.3773967330553
 30
0.0
 10
-102.7495939596668
 20
296.3772088205361
 30
0.0
 10
-102.7452036978913
 20
296.3770305070488
 30
0.0
 10
-102.4081539558342
 20
296.3633410010506
 30
0.0
 10
-102.0640888380369
 20
296.4076353595316
 30
0.0
 10
-101.7415098176543
 20
296.5062898414582
 30
0.0
 10
-101.4189387421904
 20
296.6049418935868
 30
0.0
 10
-101.1089392827609
 20
296.7606882860522
 30
0.0
 10
-100.8373109491625
 20
296.9606942222182
 30
0.0
 10
-100.566081007249
 20
297.1604068137951
 30
0.0
 10
-100.3256111787871
 20
297.4097848666875
 30
0.0
 10
-100.1360028183576
 20
297.6881721334221
 30
0.0
 10
-99.94683286111636
 20
297.9659157267182
 30
0.0
 10
-99.80306267703479
 20
298.2802216168453
 30
0.0
 10
-99.71673206305032
 20
298.6049889203547
 30
0.0
 10
-99.65032766707655
 20
298.854795745839
 30
0.0
 10
-99.61627386192185
 20
299.115418454427
 30
0.0
 10
-99.61627386192187
 20
299.3739005502541
 30
0.0
  0
ARC
  5
B0
330
1F
100
AcDbEntity
  8
0
  6
Continuous
 62
     7
370
    15
100
AcDbCircle
 10
-103.1
 20
288.7852763359
 30
0.0
 40
7.600000000000025
100
AcDbArc
 50
87.4236359428
 51
213.0398811509
  0
SPLINE
  5
B1
330
1F
100
AcDbEntity
  8
0
  6
Continuous
 62
     7
370
    15
100
AcDbSpline
210
0.0
220
0.0
230
1.0
 70
     8
 71
     3
 72
    14
 73
    10
 74
     0
 42
0.000000001
 43
0.00000001
 40
0.0000000000000008
 40
0.0000000000000008
 40
0.0000000000000008
 40
0.0000000000000008
 40
0.0016834242367461
 40
0.0016834242367461
 40
0.0016834242367461
 40
0.0033665583985017
 40
0.0033665583985017
 40
0.0033665583985017
 40
0.0047652643677011
 40
0.0047652643677011
 40
0.0047652643677011
 40
0.0047652643677011
 10
-109.009593000715
 20
280.05218187527
 30
0.0
 10
-108.8027574804342
 20
280.5738127333398
 30
0.0
 10
-108.6833822752093
 20
281.1384318369278
 30
0.0
 10
-108.6610479720553
 20
281.6991286029636
 30
0.0
 10
-108.6387159827787
 20
282.2597672797207
 30
0.0
 10
-108.7127501721738
 20
282.8319278946259
 30
0.0
 10
-108.8767938726454
 20
283.3684948596513
 30
0.0
 10
-109.0137143512452
 20
283.8163450693262
 30
0.0
 10
-109.2156787722644
 20
284.2490014123431
 30
0.0
 10
-109.4710136123517
 20
284.6415840752352
 30
0.0
  0
ARC
  5
B2
330
1F
100
AcDbEntity
  8
0
  6
Continuous
 62
     7
370
    15
100
AcDbCircle
 10
-101.0
 20
276.8762418213
 30
0.0
 40
8.61627386192068
100
AcDbArc
 50
158.3708307361
 51
180.0
  0
LINE
  5
B3
330
1F
100
AcDbEntity
  8
0
  6
Continuous
 62
     7
370
    15
100
AcDbLine
 10
-109.6162738619
 20
169.5651987587
 30
0.0
 11
-109.6162738619
 21
276.8762418213
 31
0.0
  0
SPLINE
  5
B4
330
1F
100
AcDbEntity
  8
0
  6
Continuous
 62
     7
370
    15
100
AcDbSpline
210
0.0
220
0.0
230
1.0
 70
     8
 71
     3
 72
    23
 73
    19
 74
     0
 42
0.000000001
 43
0.00000001
 40
0.000998839363948
 40
0.000998839363948
 40
0.000998839363948
 40
0.000998839363948
 40
0.0010118374532216
 40
0.0010118374532216
 40
0.0010118374532216
 40
0.0020237725991451
 40
0.0020237725991451
 40
0.0020237725991451
 40
0.0030357640931041
 40
0.0030357640931041
 40
0.0030357640931041
 40
0.0040462745698516
 40
0.0040462745698516
 40
0.0040462745698516
 40
0.0050544228523806
 40
0.0050544228523806
 40
0.0050544228523806
 40
0.0058255777375261
 40
0.0058255777375261
 40
0.0058255777375261
 40
0.0058255777375261
 10
-112.7563272523368
 20
166.568791183003
 30
0.0
 10
-112.7519381355069
 20
166.5685966910736
 30
0.0
 10
-112.7475485830078
 20
166.568411793784
 30
0.0
 10
-112.7431586577729
 20
166.5682364937865
 30
0.0
 10
-112.4061166075521
 20
166.5547776152414
 30
0.0
 10
-112.0620996712413
 20
166.5993014058638
 30
0.0
 10
-111.7396025673558
 20
166.6981654691739
 30
0.0
 10
-111.4170972683396
 20
166.7970320447668
 30
0.0
 10
-111.107201558446
 20
166.9529845646207
 30
0.0
 10
-110.8357063845715
 20
167.1531710732218
 30
0.0
 10
-110.5646093614868
 20
167.3530640060094
 30
0.0
 10
-110.3243054743443
 20
167.6026019189291
 30
0.0
 10
-110.1348823205779
 20
167.881115202851
 30
0.0
 10
-109.9458971111256
 20
168.1589845670267
 30
0.0
 10
-109.8023359813987
 20
168.473386024846
 30
0.0
 10
-109.7162213633335
 20
168.7982106936977
 30
0.0
 10
-109.6501516866113
 20
169.0474257671034
 30
0.0
 10
-109.616273861922
 20
169.307374487199
 30
0.0
 10
-109.616273861922
 20
169.5651987587383
 30
0.0
  0
ARC
  5
B5
330
1F
100
AcDbEntity
  8
0
  6
Continuous
 62
     7
370
    15
100
AcDbCircle
 10
-113.0927706945
 20
158.9762418213
 30
0.0
 40
7.599999999999987
100
AcDbArc
 50
87.4627511751
 51
182.5763640572
  0
SPLINE
  5
B6
330
1F
100
AcDbEntity
  8
0
  6
Continuous
 62
     7
370
    15
100
AcDbSpline
210
0.0
220
0.0
230
1.0
 70
     8
 71
     3
 72
    20
 73
    16
 74
     0
 42
0.000000001
 43
0.00000001
 40
0.0000114151154724
 40
0.0000114151154724
 40
0.0000114151154724
 40
0.0000114151154724
 40
0.0010053465779559
 40
0.0010053465779559
 40
0.0010053465779559
 40
0.0020106352077394
 40
0.0020106352077394
 40
0.0020106352077394
 40
0.0030168636015802
 40
0.0030168636015802
 40
0.0030168636015802
 40
0.0040253583125114
 40
0.0040253583125114
 40
0.0040253583125114
 40
0.0048421035474918
 40
0.0048421035474918
 40
0.0048421035474918
 40
0.0048421035474918
 10
-123.6813949088801
 20
155.4925156832022
 30
0.0
 10
-123.3500838018844
 20
155.4925156832022
 30
0.0
 10
-123.0143046741246
 20
155.5490652141381
 30
0.0
 10
-122.701259049566
 20
155.6575524786598
 30
0.0
 10
-122.3846287352124
 20
155.7672820323544
 30
0.0
 10
-122.0825912494254
 20
155.9331773604634
 30
0.0
 10
-121.820058898823
 20
156.1414370440531
 30
0.0
 10
-121.5572768235127
 20
156.3498948273763
 30
0.0
 10
-121.3268413155729
 20
156.6065200094982
 30
0.0
 10
-121.1476515990158
 20
156.8900691445924
 30
0.0
 10
-120.9680620565532
 20
157.1742509626992
 30
0.0
 10
-120.8350022158525
 20
157.4932866178892
 30
0.0
 10
-120.7593478957667
 20
157.8208352911528
 30
0.0
 10
-120.6980481938375
 20
158.0862350200196
 30
0.0
 10
-120.6728445647958
 20
158.3625034478367
 30
0.0
 10
-120.6850886005359
 20
158.6346151034635
 30
0.0
  0
LINE
  5
B7
330
1F
100
AcDbEntity
  8
0
  6
Continuous
 62
     7
370
    15
100
AcDbLine
 10
-179.3186050911
 20
155.4925156832
 30
0.0
 11
-123.6813949089
 21
155.4925156832
 31
0.0
  0
SPLINE
  5
B8
330
1F
100
AcDbEntity
  8
0
  6
Continuous
 62
     7
370
    15
100
AcDbSpline
210
0.0
220
0.0
230
1.0
 70
     8
 71
     3
 72
    23
 73
    19
 74
     0
 42
0.000000001
 43
0.00000001
 40
0.000502772795643
 40
0.000502772795643
 40
0.000502772795643
 40
0.000502772795643
 40
0.001012150229994
 40
0.001012150229994
 40
0.001012150229994
 40
0.002024315910342
 40
0.002024315910342
 40
0.002024315910342
 40
0.0030357412919138
 40
0.0030357412919138
 40
0.0030357412919138
 40
0.0040451371515156
 40
0.0040451371515156
 40
0.0040451371515156
 40
0.005052114272206
 40
0.005052114272206
 40
0.005052114272206
 40
0.0053300048750718
 40
0.0053300048750718
 40
0.0053300048750718
 40
0.0053300048750718
 10
-182.3149113994634
 20
158.6346151034635
 30
0.0
 10
-182.3225705943398
 20
158.4643970280819
 30
0.0
 10
-182.3157220166598
 20
158.2929162346118
 30
0.0
 10
-182.2945095987318
 20
158.1238514843578
 30
0.0
 10
-182.2525077034938
 20
157.7890928560537
 30
0.0
 10
-182.1521215754728
 20
157.4569556847549
 30
0.0
 10
-182.0015975056082
 20
157.1550119767248
 30
0.0
 10
-181.8511862309249
 20
156.8532945301511
 30
0.0
 10
-181.6465411675775
 20
156.573384834523
 30
0.0
 10
-181.4045729956858
 20
156.3386331084161
 30
0.0
 10
-181.1630875249782
 20
156.1043496874392
 30
0.0
 10
-180.8777383143275
 20
155.9085683437724
 30
0.0
 10
-180.5722002723611
 20
155.7676766874585
 30
0.0
 10
-180.2673833157112
 20
155.6271175426183
 30
0.0
 10
-179.9340449027556
 20
155.5373073156624
 30
0.0
 10
-179.599866637322
 20
155.5057615208351
 30
0.0
 10
-179.5064242878686
 20
155.4969407401651
 30
0.0
 10
-179.412462849685
 20
155.4925156832022
 30
0.0
 10
-179.3186050911193
 20
155.4925156832022
 30
0.0
  0
ARC
  5
B9
330
1F
100
AcDbEntity
  8
0
  6
Continuous
 62
     7
370
    15
100
AcDbCircle
 10
-189.9072293055
 20
158.9762418213
 30
0.0
 40
7.60000000000003
100
AcDbArc
 50
357.4236359428
 51
92.5372488249
  0
SPLINE
  5
BA
330
1F
100
AcDbEntity
  8
0
  6
Continuous
 62
     7
370
    15
100
AcDbSpline
210
0.0
220
0.0
230
1.0
 70
     8
 71
     3
 72
    20
 73
    16
 74
     0
 42
0.000000001
 43
0.00000001
 40
0.0001332529754165
 40
0.0001332529754165
 40
0.0001332529754165
 40
0.0001332529754165
 40
0.0010052423407121
 40
0.0010052423407121
 40
0.0010052423407121
 40
0.002010435389688
 40
0.002010435389688
 40
0.002010435389688
 40
0.0030164462106984
 40
0.0030164462106984
 40
0.0030164462106984
 40
0.0040246473346257
 40
0.0040246473346257
 40
0.0040246473346257
 40
0.0049622517708044
 40
0.0049622517708044
 40
0.0049622517708044
 40
0.0049622517708044
 10
-193.3837261380781
 20
169.5651987587383
 30
0.0
 10
-193.3837261380781
 20
169.2744620242358
 30
0.0
 10
-193.340452181152
 20
168.9806902065487
 30
0.0
 10
-193.2566342720756
 20
168.7022976655078
 30
0.0
 10
-193.1600347447153
 20
168.3814522974772
 30
0.0
 10
-193.00671794266
 20
168.0728747845424
 30
0.0
 10
-192.8094445851411
 20
167.802030841863
 30
0.0
 10
-192.6120070857831
 20
167.5309615427371
 30
0.0
 10
-192.3651203589118
 20
167.2902269570265
 30
0.0
 10
-192.089231551669
 20
167.0995820066098
 30
0.0
 10
-191.8127469792808
 20
166.9085253699863
 30
0.0
 10
-191.4995382895392
 20
166.7625147220623
 30
0.0
 10
-191.1754694460876
 20
166.6734880863263
 30
0.0
 10
-190.8740818583129
 20
166.5906923361814
 30
0.0
 10
-190.5559197151839
 20
166.5549547968874
 30
0.0
 10
-190.2436727476631
 20
166.568791183003
 30
0.0
  0
LINE
  5
BB
330
1F
100
AcDbEntity
  8
0
  6
Continuous
 62
     7
370
    15
100
AcDbLine
 10
-193.3837261381
 20
276.8762418213
 30
0.0
 11
-193.3837261381
 21
169.5651987587
 31
0.0
  0
ARC
  5
BC
330
1F
100
AcDbEntity
  8
0
  6
Continuous
 62
     7
370
    15
100
AcDbCircle
 10
-202.0
 20
276.8762418213
 30
0.0
 40
8.616273861921995
100
AcDbArc
 50
360.0
 51
21.6291692639
  0
SPLINE
  5
BD
330
1F
100
AcDbEntity
  8
0
  6
Continuous
 62
     7
370
    15
100
AcDbSpline
210
0.0
220
0.0
230
1.0
 70
     8
 71
     3
 72
    14
 73
    10
 74
     0
 42
0.000000001
 43
0.00000001
 40
0.0
 40
0.0
 40
0.0
 40
0.0
 40
0.0016895046454581
 40
0.0016895046454581
 40
0.0016895046454581
 40
0.0033791830090664
 40
0.0033791830090664
 40
0.0033791830090664
 40
0.0047653159908319
 40
0.0047653159908319
 40
0.0047653159908319
 40
0.0047653159908319
 10
-193.5289863876479
 20
284.6415840752349
 30
0.0
 10
-193.8360384632518
 20
284.1694850798688
 30
0.0
 10
-194.0659097159787
 20
283.6379210565846
 30
0.0
 10
-194.1994819447025
 20
283.0908224381692
 30
0.0
 10
-194.3330618184875
 20
282.5436925063402
 30
0.0
 10
-194.3739985181591
 20
281.9658958210161
 30
0.0
 10
-194.3186078019586
 20
281.40542582758
 30
0.0
 10
-194.2729578889359
 20
280.9435179807931
 30
0.0
 10
-194.1614946913896
 20
280.483658149348
 30
0.0
 10
-193.9904069992848
 20
280.0521818752697
 30
0.0
  0
ARC
  5
BE
330
1F
100
AcDbEntity
  8
0
  6
Continuous
 62
     7
370
    15
100
AcDbCircle
 10
-199.9
 20
288.7852763359
 30
0.0
 40
7.600000000000008
100
AcDbArc
 50
326.9601188491
 51
92.5763640572
  0
SPLINE
  5
BF
330
1F
100
AcDbEntity
  8
0
  6
Continuous
 62
     7
370
    15
100
AcDbSpline
210
0.0
220
0.0
230
1.0
 70
     8
 71
     3
 72
    20
 73
    16
 74
     0
 42
0.000000001
 43
0.00000001
 40
0.0001329268617101
 40
0.0001329268617101
 40
0.0001329268617101
 40
0.0001329268617101
 40
0.0010052408858978
 40
0.0010052408858978
 40
0.0010052408858978
 40
0.0020104326019038
 40
0.0020104326019038
 40
0.0020104326019038
 40
0.0030164403753731
 40
0.0030164403753731
 40
0.0030164403753731
 40
0.0040246374111512
 40
0.0040246374111512
 40
0.0040246374111512
 40
0.0049639487720137
 40
0.0049639487720137
 40
0.0049639487720137
 40
0.0049639487720137
 10
-203.3837261380777
 20
299.3739005502541
 30
0.0
 10
-203.3837261380777
 20
299.0830559276026
 30
0.0
 10
-203.3404193888878
 20
298.7891728655586
 30
0.0
 10
-203.256539854313
 20
298.5106862084189
 30
0.0
 10
-203.1599052964775
 20
298.1898518700762
 30
0.0
 10
-203.0065548269257
 20
297.8812915791772
 30
0.0
 10
-202.8092519003333
 20
297.610469745519
 30
0.0
 10
-202.6117851376687
 20
297.3394230272822
 30
0.0
 10
-202.364872588836
 20
297.0987164049349
 30
0.0
 10
-202.0889635564033
 20
296.9081025238921
 30
0.0
 10
-201.812458986261
 20
296.7170772110337
 30
0.0
 10
-201.4992354411822
 20
296.5711017676252
 30
0.0
 10
-201.1751580932014
 20
296.4821112063954
 30
0.0
 10
-200.8732137177116
 20
296.3991982857534
 30
0.0
 10
-200.5544315298392
 20
296.3635191619974
 30
0.0
 10
-200.2416267178162
 20
296.3775942419101
 30
0.0
  0
LINE
  5
C0
330
1F
100
AcDbEntity
  8
0
  6
Continuous
 62
     7
370
    15
100
AcDbLine
 10
-203.3837261381
 20
344.6167586137
 30
0.0
 11
-203.3837261381
 21
299.3739005503
 31
0.0
  0
SPLINE
  5
C1
330
1F
100
AcDbEntity
  8
0
  6
Continuous
 62
     7
370
    15
100
AcDbSpline
210
0.0
220
0.0
230
1.0
 70
     8
 71
     3
 72
    23
 73
    19
 74
     0
 42
0.000000001
 43
0.00000001
 40
0.0009989909425252
 40
0.0009989909425252
 40
0.0009989909425252
 40
0.0009989909425252
 40
0.0010120026752083
 40
0.0010120026752083
 40
0.0010120026752083
 40
0.0020239981040642
 40
0.0020239981040642
 40
0.0020239981040642
 40
0.0030359850613303
 40
0.0030359850613303
 40
0.0030359850613303
 40
0.0040464908002927
 40
0.0040464908002927
 40
0.0040464908002927
 40
0.0050546341801132
 40
0.0050546341801132
 40
0.0050546341801132
 40
0.0058294388747266
 40
0.0058294388747266
 40
0.0058294388747266
 40
0.0058294388747266
 10
-200.2416267178162
 20
347.6130649220268
 30
0.0
 10
-200.2460203265229
 20
347.6132626184537
 30
0.0
 10
-200.2504143783924
 20
347.6134507003096
 30
0.0
 10
-200.2548088102941
 20
347.6136291648907
 30
0.0
 10
-200.5918627194654
 20
347.6273174381539
 30
0.0
 10
-200.9359319908428
 20
347.5830203663857
 30
0.0
 10
-201.2585141249614
 20
347.4843619999891
 30
0.0
 10
-201.5810843753911
 20
347.3857072680942
 30
0.0
 10
-201.8910825353428
 20
347.2299582996209
 30
0.0
 10
-202.1627091998157
 20
347.0299501054516
 30
0.0
 10
-202.4339374656068
 20
346.8302352661378
 30
0.0
 10
-202.6744052057092
 20
346.5808552234921
 30
0.0
 10
-202.8640112384065
 20
346.3024663918717
 30
0.0
 10
-203.0531788716066
 20
346.0247212397906
 30
0.0
 10
-203.1969464299531
 20
345.7104141715209
 30
0.0
 10
-203.2832743364416
 20
345.3856461689154
 30
0.0
 10
-203.3496745386202
 20
345.1358467481797
 30
0.0
 10
-203.3837261380777
 20
344.8752324758996
 30
0.0
 10
-203.3837261380777
 20
344.6167586136828
 30
0.0
  0
CIRCLE
  5
C2
330
1F
100
AcDbEntity
  8
0
  6
Continuous
 62
     7
370
    15
100
AcDbCircle
 10
-90.5
 20
249.005382828
 30
0.0
 40
2.750000000000028
  0
CIRCLE
  5
C3
330
1F
100
AcDbEntity
  8
0
  6
Continuous
 62
     7
370
    15
100
AcDbCircle
 10
-187.4710678119
 20
146.8762418213
 30
0.0
 40
2.750000000000028
  0
CIRCLE
  5
C4
330
1F
100
AcDbEntity
  8
0
  6
Continuous
 62
     7
370
    15
100
AcDbCircle
 10
-201.5
 20
276.8762418213
 30
0.0
 40
2.600000000000307
  0
CIRCLE
  5
C5
330
1F
100
AcDbEntity
  8
0
  6
Continuous
 62
     7
370
    15
100
AcDbCircle
 10
-212.5
 20
249.005382828
 30
0.0
 40
2.750000000000028
  0
CIRCLE
  5
C6
330
1F
100
AcDbEntity
  8
0
  6
Continuous
 62
     7
370
    15
100
AcDbCircle
 10
-94.0753787975
 20
364.2300040305
 30
0.0
 40
2.75
  0
CIRCLE
  5
C7
330
1F
100
AcDbEntity
  8
0
  6
Continuous
 62
     7
370
    15
100
AcDbCircle
 10
-199.0710678119
 20
149.8051740094
 30
0.0
 40
2.75
  0
CIRCLE
  5
C8
330
1F
100
AcDbEntity
  8
0
  6
Continuous
 62
     7
370
    15
100
AcDbCircle
 10
-103.9289321881
 20
149.8051740094
 30
0.0
 40
2.75000000000216
  0
CIRCLE
  5
C9
330
1F
100
AcDbEntity
  8
0
  6
Continuous
 62
     7
370
    15
100
AcDbCircle
 10
-208.9246212025
 20
364.2300040305
 30
0.0
 40
2.75
  0
CIRCLE
  5
CA
330
1F
100
AcDbEntity
  8
0
  6
Continuous
 62
     7
370
    15
100
AcDbCircle
 10
-212.5
 20
237.371430755
 30
0.0
 40
2.75
  0
CIRCLE
  5
CB
330
1F
100
AcDbEntity
  8
0
  6
Continuous
 62
     7
370
    15
100
AcDbCircle
 10
-90.5
 20
237.371430755
 30
0.0
 40
2.75
  0
CIRCLE
  5
CC
330
1F
100
AcDbEntity
  8
0
  6
Continuous
 62
     7
370
    15
100
AcDbCircle
 10
-101.5
 20
276.8762418213
 30
0.0
 40
2.600000000000421
  0
CIRCLE
  5
CD
330
1F
100
AcDbEntity
  8
0
  6
Continuous
 62
     7
370
    15
100
AcDbCircle
 10
-201.5
 20
263.605382828
 30
0.0
 40
2.75
  0
CIRCLE
  5
CE
330
1F
100
AcDbEntity
  8
0
  6
Continuous
 62
     7
370
    15
100
AcDbCircle
 10
-101.5
 20
263.605382828
 30
0.0
 40
2.750000000000057
  0
CIRCLE
  5
CF
330
1F
100
AcDbEntity
  8
0
  6
Continuous
 62
     7
370
    15
100
AcDbCircle
 10
-115.5289321881
 20
146.8762418213
 30
0.0
 40
2.750000000000028
  0
CIRCLE
  5
D0
330
1F
100
AcDbEntity
  8
0
  6
Continuous
 62
     7
370
    15
100
AcDbCircle
 10
-113.0927706945
 20
158.9762418213
 30
0.0
 40
2.099999999990871
  0
CIRCLE
  5
D1
330
1F
100
AcDbEntity
  8
0
  6
Continuous
 62
     7
370
    15
100
AcDbCircle
 10
-189.9072293054
 20
158.9762418213
 30
0.0
 40
2.099999999990871
  0
CIRCLE
  5
D2
330
1F
100
AcDbEntity
  8
0
  6
Continuous
 62
     7
370
    15
100
AcDbCircle
 10
-199.9
 20
288.7852763359
 30
0.0
 40
2.099999999990871
  0
CIRCLE
  5
D3
330
1F
100
AcDbEntity
  8
0
  6
Continuous
 62
     7
370
    15
100
AcDbCircle
 10
-199.9
 20
355.205382828
 30
0.0
 40
2.099999999990814
  0
CIRCLE
  5
D4
330
1F
100
AcDbEntity
  8
0
  6
Continuous
 62
     7
370
    15
100
AcDbCircle
 10
-103.1
 20
355.205382828
 30
0.0
 40
2.099999999990814
  0
CIRCLE
  5
D5
330
1F
100
AcDbEntity
  8
0
  6
Continuous
 62
     7
370
    15
100
AcDbCircle
 10
-103.1
 20
288.7852763359
 30
0.0
 40
2.099999999990871
  0
ENDSEC
  0
SECTION
  2
OBJECTS
  0
DICTIONARY
  5
C
330
0
100
AcDbDictionary
281
     1
  3
ACAD_GROUP
350
D
  3
ACAD_LAYOUT
350
1A
  3
ACAD_MLINESTYLE
350
17
  3
ACAD_PLOTSETTINGS
350
19
  3
ACAD_PLOTSTYLENAME
350
E
  3
ACAD_SCALELIST
350
47
  0
DICTIONARY
  5
D
102
{ACAD_REACTORS
330
C
102
}
330
C
100
AcDbDictionary
281
     1
  0
DICTIONARY
  5
1A
102
{ACAD_REACTORS
330
C
102
}
330
C
100
AcDbDictionary
281
     1
  3
Layout1
350
1E
  3
Layout2
350
26
  3
Model
350
22
  0
DICTIONARY
  5
17
102
{ACAD_REACTORS
330
C
102
}
330
C
100
AcDbDictionary
281
     1
  3
Standard
350
18
  0
DICTIONARY
  5
19
102
{ACAD_REACTORS
330
C
102
}
330
C
100
AcDbDictionary
281
     1
  0
ACDBDICTIONARYWDFLT
  5
E
102
{ACAD_REACTORS
330
C
102
}
330
C
100
AcDbDictionary
281
     1
  3
Normal
350
F
100
AcDbDictionaryWithDefault
340
F
  0
DICTIONARY
  5
47
102
{ACAD_REACTORS
330
C
102
}
330
C
100
AcDbDictionary
281
     1
  3
A0
350
48
  3
A1
350
49
  3
A2
350
4A
  3
A3
350
4B
  3
A4
350
4C
  3
A5
350
4D
  3
A6
350
4E
  3
A7
350
4F
  3
A8
350
50
  3
A9
350
51
  3
B0
350
52
  3
B1
350
53
  3
B2
350
54
  3
B3
350
55
  3
B4
350
56
  3
B5
350
57
  3
B6
350
58
  3
B7
350
59
  3
B8
350
5A
  3
B9
350
5B
  3
C0
350
5C
  3
C1
350
5D
  3
C2
350
5E
  3
C3
350
5F
  3
C4
350
60
  3
C5
350
61
  3
C6
350
62
  3
C7
350
63
  3
C8
350
64
  3
C9
350
65
  3
D0
350
66
  3
D1
350
67
  3
D2
350
68
  0
LAYOUT
  5
1E
102
{ACAD_REACTORS
330
1A
102
}
330
1A
100
AcDbPlotSettings
  1

  2
none_device
  4

  6

 40
0.0
 41
0.0
 42
0.0
 43
0.0
 44
0.0
 45
0.0
 46
0.0
 47
0.0
 48
0.0
 49
0.0
140
0.0
141
0.0
142
1.0
143
1.0
 70
   688
 72
     1
 73
     0
 74
     5
  7

 75
    16
147
1.0
148
0.0
149
0.0
100
AcDbLayout
  1
Layout1
 70
     1
 71
     1
 10
0.0
 20
0.0
 11
420.0
 21
297.0
 12
0.0
 22
0.0
 32
0.0
 14
1.0000000000E+20
 24
1.0000000000E+20
 34
1.0000000000E+20
 15
-1.0000000000E+20
 25
-1.0000000000E+20
 35
-1.0000000000E+20
146
0.0
 13
0.0
 23
0.0
 33
0.0
 16
1.0
 26
0.0
 36
0.0
 17
0.0
 27
1.0
 37
0.0
 76
     0
330
1B
  0
LAYOUT
  5
26
102
{ACAD_REACTORS
330
1A
102
}
330
1A
100
AcDbPlotSettings
  1

  2
none_device
  4

  6

 40
0.0
 41
0.0
 42
0.0
 43
0.0
 44
0.0
 45
0.0
 46
0.0
 47
0.0
 48
0.0
 49
0.0
140
0.0
141
0.0
142
1.0
143
1.0
 70
   688
 72
     1
 73
     0
 74
     5
  7

 75
    16
147
1.0
148
0.0
149
0.0
100
AcDbLayout
  1
Layout2
 70
     1
 71
     2
 10
0.0
 20
0.0
 11
0.0
 21
0.0
 12
0.0
 22
0.0
 32
0.0
 14
0.0
 24
0.0
 34
0.0
 15
0.0
 25
0.0
 35
0.0
146
0.0
 13
0.0
 23
0.0
 33
0.0
 16
1.0
 26
0.0
 36
0.0
 17
0.0
 27
1.0
 37
0.0
 76
     0
330
23
  0
LAYOUT
  5
22
102
{ACAD_REACTORS
330
1A
102
}
330
1A
100
AcDbPlotSettings
  1

  2
none_device
  4
ANSI_A_(11.00_x_8.50_Inches)
  6

 40
6.35
 41
19.05
 42
6.35000508
 43
19.05000254
 44
279.4
 45
215.9
 46
265.5586900104
 47
-129.9999077765
 48
0.0
 49
0.0
140
0.0
141
0.0
142
0.0343568755
143
1.0
 70
  1696
 72
     0
 73
     0
 74
     0
  7

 75
     0
147
0.0179189148
148
-1300.4909072572
149
0.0
100
AcDbLayout
  1
Model
 70
     1
 71
     0
 10
0.0
 20
0.0
 11
420.0
 21
297.0
 12
0.0
 22
0.0
 32
0.0
 14
-218.0
 24
128.3762418213
 34
0.0
 15
-85.0
 25
373.305382828
 35
0.0
146
0.0
 13
0.0
 23
0.0
 33
0.0
 16
1.0
 26
0.0
 36
0.0
 17
0.0
 27
1.0
 37
0.0
 76
     0
330
1F
331
29
  0
MLINESTYLE
  5
18
102
{ACAD_REACTORS
330
17
102
}
330
17
100
AcDbMlineStyle
  2
Standard
 70
     0
  3

 62
   256
 51
90.0
 52
90.0
 71
     2
 49
0.5
 62
   256
  6
BYLAYER
 49
-0.5
 62
   256
  6
BYLAYER
  0
ACDBPLACEHOLDER
  5
F
102
{ACAD_REACTORS
330
E
102
}
330
E
  0
SCALE
  5
48
102
{ACAD_REACTORS
330
47
102
}
330
47
100
AcDbScale
 70
     0
300
1:1
140
1.0
141
1.0
290
     1
  0
SCALE
  5
49
102
{ACAD_REACTORS
330
47
102
}
330
47
100
AcDbScale
 70
     0
300
1:2
140
1.0
141
2.0
290
     0
  0
SCALE
  5
4A
102
{ACAD_REACTORS
330
47
102
}
330
47
100
AcDbScale
 70
     0
300
1:4
140
1.0
141
4.0
290
     0
  0
SCALE
  5
4B
102
{ACAD_REACTORS
330
47
102
}
330
47
100
AcDbScale
 70
     0
300
1:5
140
1.0
141
5.0
290
     0
  0
SCALE
  5
4C
102
{ACAD_REACTORS
330
47
102
}
330
47
100
AcDbScale
 70
     0
300
1:8
140
1.0
141
8.0
290
     0
  0
SCALE
  5
4D
102
{ACAD_REACTORS
330
47
102
}
330
47
100
AcDbScale
 70
     0
300
1:10
140
1.0
141
10.0
290
     0
  0
SCALE
  5
4E
102
{ACAD_REACTORS
330
47
102
}
330
47
100
AcDbScale
 70
     0
300
1:16
140
1.0
141
16.0
290
     0
  0
SCALE
  5
4F
102
{ACAD_REACTORS
330
47
102
}
330
47
100
AcDbScale
 70
     0
300
1:20
140
1.0
141
20.0
290
     0
  0
SCALE
  5
50
102
{ACAD_REACTORS
330
47
102
}
330
47
100
AcDbScale
 70
     0
300
1:30
140
1.0
141
30.0
290
     0
  0
SCALE
  5
51
102
{ACAD_REACTORS
330
47
102
}
330
47
100
AcDbScale
 70
     0
300
1:40
140
1.0
141
40.0
290
     0
  0
SCALE
  5
52
102
{ACAD_REACTORS
330
47
102
}
330
47
100
AcDbScale
 70
     0
300
1:50
140
1.0
141
50.0
290
     0
  0
SCALE
  5
53
102
{ACAD_REACTORS
330
47
102
}
330
47
100
AcDbScale
 70
     0
300
1:100
140
1.0
141
100.0
290
     0
  0
SCALE
  5
54
102
{ACAD_REACTORS
330
47
102
}
330
47
100
AcDbScale
 70
     0
300
2:1
140
2.0
141
1.0
290
     0
  0
SCALE
  5
55
102
{ACAD_REACTORS
330
47
102
}
330
47
100
AcDbScale
 70
     0
300
4:1
140
4.0
141
1.0
290
     0
  0
SCALE
  5
56
102
{ACAD_REACTORS
330
47
102
}
330
47
100
AcDbScale
 70
     0
300
8:1
140
8.0
141
1.0
290
     0
  0
SCALE
  5
57
102
{ACAD_REACTORS
330
47
102
}
330
47
100
AcDbScale
 70
     0
300
10:1
140
10.0
141
1.0
290
     0
  0
SCALE
  5
58
102
{ACAD_REACTORS
330
47
102
}
330
47
100
AcDbScale
 70
     0
300
100:1
140
100.0
141
1.0
290
     0
  0
SCALE
  5
59
102
{ACAD_REACTORS
330
47
102
}
330
47
100
AcDbScale
 70
     0
300
1/128" = 1'-0"
140
0.0078125
141
12.0
290
     0
  0
SCALE
  5
5A
102
{ACAD_REACTORS
330
47
102
}
330
47
100
AcDbScale
 70
     0
300
1/64" = 1'-0"
140
0.015625
141
12.0
290
     0
  0
SCALE
  5
5B
102
{ACAD_REACTORS
330
47
102
}
330
47
100
AcDbScale
 70
     0
300
1/32" = 1'-0"
140
0.03125
141
12.0
290
     0
  0
SCALE
  5
5C
102
{ACAD_REACTORS
330
47
102
}
330
47
100
AcDbScale
 70
     0
300
1/16" = 1'-0"
140
0.0625
141
12.0
290
     0
  0
SCALE
  5
5D
102
{ACAD_REACTORS
330
47
102
}
330
47
100
AcDbScale
 70
     0
300
3/32" = 1'-0"
140
0.09375
141
12.0
290
     0
  0
SCALE
  5
5E
102
{ACAD_REACTORS
330
47
102
}
330
47
100
AcDbScale
 70
     0
300
1/8" = 1'-0"
140
0.125
141
12.0
290
     0
  0
SCALE
  5
5F
102
{ACAD_REACTORS
330
47
102
}
330
47
100
AcDbScale
 70
     0
300
3/16" = 1'-0"
140
0.1875
141
12.0
290
     0
  0
SCALE
  5
60
102
{ACAD_REACTORS
330
47
102
}
330
47
100
AcDbScale
 70
     0
300
1/4" = 1'-0"
140
0.25
141
12.0
290
     0
  0
SCALE
  5
61
102
{ACAD_REACTORS
330
47
102
}
330
47
100
AcDbScale
 70
     0
300
3/8" = 1'-0"
140
0.375
141
12.0
290
     0
  0
SCALE
  5
62
102
{ACAD_REACTORS
330
47
102
}
330
47
100
AcDbScale
 70
     0
300
1/2" = 1'-0"
140
0.5
141
12.0
290
     0
  0
SCALE
  5
63
102
{ACAD_REACTORS
330
47
102
}
330
47
100
AcDbScale
 70
     0
300
3/4" = 1'-0"
140
0.75
141
12.0
290
     0
  0
SCALE
  5
64
102
{ACAD_REACTORS
330
47
102
}
330
47
100
AcDbScale
 70
     0
300
1" = 1'-0"
140
1.0
141
12.0
290
     0
  0
SCALE
  5
65
102
{ACAD_REACTORS
330
47
102
}
330
47
100
AcDbScale
 70
     0
300
1-1/2" = 1'-0"
140
1.5
141
12.0
290
     0
  0
SCALE
  5
66
102
{ACAD_REACTORS
330
47
102
}
330
47
100
AcDbScale
 70
     0
300
3" = 1'-0"
140
3.0
141
12.0
290
     0
  0
SCALE
  5
67
102
{ACAD_REACTORS
330
47
102
}
330
47
100
AcDbScale
 70
     0
300
6" = 1'-0"
140
6.0
141
12.0
290
     0
  0
SCALE
  5
68
102
{ACAD_REACTORS
330
47
102
}
330
47
100
AcDbScale
 70
     0
300
1'-0" = 1'-0"
140
12.0
141
12.0
290
     0
  0
ENDSEC
  0
EOF
