  0
SECTION
  2
HEADER
  9
$ACADVER
  1
AC1015
  9
$ACADMAINTVER
 70
     6
  9
$DWGCODEPAGE
  3
ANSI_1252
  9
$INSBASE
 10
0.0
 20
0.0
 30
0.0
  9
$EXTMIN
 10
85.0
 20
128.4194847135
 30
0.0
  9
$EXTMAX
 10
218.0
 20
373.305382828
 30
0.0
  9
$LIMMIN
 10
0.0
 20
0.0
  9
$LIMMAX
 10
420.0
 20
297.0
  9
$ORTHOMODE
 70
     0
  9
$REGENMODE
 70
     1
  9
$FILLMODE
 70
     1
  9
$QTEXTMODE
 70
     0
  9
$MIRRTEXT
 70
     1
  9
$LTSCALE
 40
1.0
  9
$ATTMODE
 70
     1
  9
$TEXTSIZE
 40
3.175
  9
$TRACEWID
 40
1.0
  9
$TEXTSTYLE
  7
Standard
  9
$CLAYER
  8
0
  9
$CELTYPE
  6
ByLayer
  9
$CECOLOR
 62
   256
  9
$CELTSCALE
 40
1.0
  9
$DISPSILH
 70
     0
  9
$DIMSCALE
 40
1.0
  9
$DIMASZ
 40
3.302
  9
$DIMEXO
 40
1.27
  9
$DIMDLI
 40
3.75
  9
$DIMRND
 40
0.0
  9
$DIMDLE
 40
0.0
  9
$DIMEXE
 40
3.175
  9
$DIMTP
 40
0.0
  9
$DIMTM
 40
0.0
  9
$DIMTXT
 40
3.175
  9
$DIMCEN
 40
2.5
  9
$DIMTSZ
 40
0.0
  9
$DIMTOL
 70
     0
  9
$DIMLIM
 70
     0
  9
$DIMTIH
 70
     1
  9
$DIMTOH
 70
     1
  9
$DIMSE1
 70
     0
  9
$DIMSE2
 70
     0
  9
$DIMTAD
 70
     0
  9
$DIMZIN
 70
     0
  9
$DIMBLK
  1

  9
$DIMASO
 70
     1
  9
$DIMSHO
 70
     1
  9
$DIMPOST
  1

  9
$DIMAPOST
  1

  9
$DIMALT
 70
     0
  9
$DIMALTD
 70
     3
  9
$DIMALTF
 40
0.0393700787
  9
$DIMLFAC
 40
1.0
  9
$DIMTOFL
 70
     1
  9
$DIMTVP
 40
0.0
  9
$DIMTIX
 70
     0
  9
$DIMSOXD
 70
     0
  9
$DIMSAH
 70
     0
  9
$DIMBLK1
  1

  9
$DIMBLK2
  1

  9
$DIMSTYLE
  2
ISO-25
  9
$DIMCLRD
 70
     0
  9
$DIMCLRE
 70
     0
  9
$DIMCLRT
 70
     0
  9
$DIMTFAC
 40
1.0
  9
$DIMGAP
 40
1.524
  9
$DIMJUST
 70
     0
  9
$DIMSD1
 70
     0
  9
$DIMSD2
 70
     0
  9
$DIMTOLJ
 70
     0
  9
$DIMTZIN
 70
     0
  9
$DIMALTZ
 70
     0
  9
$DIMALTTZ
 70
     0
  9
$DIMUPT
 70
     0
  9
$DIMDEC
 70
     2
  9
$DIMTDEC
 70
     2
  9
$DIMALTU
 70
     2
  9
$DIMALTTD
 70
     3
  9
$DIMTXSTY
  7
Standard
  9
$DIMAUNIT
 70
     0
  9
$DIMADEC
 70
     2
  9
$DIMALTRND
 40
0.0
  9
$DIMAZIN
 70
     0
  9
$DIMDSEP
 70
    44
  9
$DIMATFIT
 70
     3
  9
$DIMFRAC
 70
     0
  9
$DIMLDRBLK
  1

  9
$DIMLUNIT
 70
     2
  9
$DIMLWD
 70
    -2
  9
$DIMLWE
 70
    -2
  9
$DIMTMOVE
 70
     0
  9
$LUNITS
 70
     2
  9
$LUPREC
 70
     2
  9
$SKETCHINC
 40
1.0
  9
$FILLETRAD
 40
10.0
  9
$AUNITS
 70
     0
  9
$AUPREC
 70
     2
  9
$MENU
  1
.
  9
$ELEVATION
 40
0.0
  9
$PELEVATION
 40
0.0
  9
$THICKNESS
 40
0.0
  9
$LIMCHECK
 70
     0
  9
$CHAMFERA
 40
0.0
  9
$CHAMFERB
 40
0.0
  9
$CHAMFERC
 40
0.0
  9
$CHAMFERD
 40
0.0
  9
$SKPOLY
 70
     0
  9
$TDCREATE
 40
2457686.499346308
  9
$TDUCREATE
 40
2457686.791012974
  9
$TDUPDATE
 40
2457686.499370579
  9
$TDUUPDATE
 40
2457686.791037245
  9
$TDINDWG
 40
0.0000000116
  9
$TDUSRTIMER
 40
0.0000000116
  9
$USRTIMER
 70
     1
  9
$ANGBASE
 50
0.0
  9
$ANGDIR
 70
     0
  9
$PDMODE
 70
     0
  9
$PDSIZE
 40
-1.0
  9
$PLINEWID
 40
0.0
  9
$SPLFRAME
 70
     0
  9
$SPLINETYPE
 70
     6
  9
$SPLINESEGS
 70
     8
  9
$HANDSEED
  5
D6
  9
$SURFTAB1
 70
     6
  9
$SURFTAB2
 70
     6
  9
$SURFTYPE
 70
     6
  9
$SURFU
 70
     6
  9
$SURFV
 70
     6
  9
$UCSBASE
  2

  9
$UCSNAME
  2

  9
$UCSORG
 10
0.0
 20
0.0
 30
0.0
  9
$UCSXDIR
 10
1.0
 20
0.0
 30
0.0
  9
$UCSYDIR
 10
0.0
 20
1.0
 30
0.0
  9
$UCSORTHOREF
  2

  9
$UCSORTHOVIEW
 70
     0
  9
$UCSORGTOP
 10
0.0
 20
0.0
 30
0.0
  9
$UCSORGBOTTOM
 10
0.0
 20
0.0
 30
0.0
  9
$UCSORGLEFT
 10
0.0
 20
0.0
 30
0.0
  9
$UCSORGRIGHT
 10
0.0
 20
0.0
 30
0.0
  9
$UCSORGFRONT
 10
0.0
 20
0.0
 30
0.0
  9
$UCSORGBACK
 10
0.0
 20
0.0
 30
0.0
  9
$PUCSBASE
  2

  9
$PUCSNAME
  2

  9
$PUCSORG
 10
0.0
 20
0.0
 30
0.0
  9
$PUCSXDIR
 10
1.0
 20
0.0
 30
0.0
  9
$PUCSYDIR
 10
0.0
 20
1.0
 30
0.0
  9
$PUCSORTHOREF
  2

  9
$PUCSORTHOVIEW
 70
     0
  9
$PUCSORGTOP
 10
0.0
 20
0.0
 30
0.0
  9
$PUCSORGBOTTOM
 10
0.0
 20
0.0
 30
0.0
  9
$PUCSORGLEFT
 10
0.0
 20
0.0
 30
0.0
  9
$PUCSORGRIGHT
 10
0.0
 20
0.0
 30
0.0
  9
$PUCSORGFRONT
 10
0.0
 20
0.0
 30
0.0
  9
$PUCSORGBACK
 10
0.0
 20
0.0
 30
0.0
  9
$USERI1
 70
     0
  9
$USERI2
 70
     0
  9
$USERI3
 70
     0
  9
$USERI4
 70
     0
  9
$USERI5
 70
     0
  9
$USERR1
 40
0.0
  9
$USERR2
 40
0.0
  9
$USERR3
 40
0.0
  9
$USERR4
 40
0.0
  9
$USERR5
 40
0.0
  9
$WORLDVIEW
 70
     1
  9
$SHADEDGE
 70
     3
  9
$SHADEDIF
 70
    70
  9
$TILEMODE
 70
     1
  9
$MAXACTVP
 70
    64
  9
$PINSBASE
 10
0.0
 20
0.0
 30
0.0
  9
$PLIMCHECK
 70
     0
  9
$PEXTMIN
 10
1.0000000000E+20
 20
1.0000000000E+20
 30
1.0000000000E+20
  9
$PEXTMAX
 10
-1.0000000000E+20
 20
-1.0000000000E+20
 30
-1.0000000000E+20
  9
$PLIMMIN
 10
0.0
 20
0.0
  9
$PLIMMAX
 10
420.0
 20
297.0
  9
$UNITMODE
 70
     0
  9
$VISRETAIN
 70
     1
  9
$PLINEGEN
 70
     0
  9
$PSLTSCALE
 70
     1
  9
$TREEDEPTH
 70
  3020
  9
$CMLSTYLE
  2
Standard
  9
$CMLJUST
 70
     0
  9
$CMLSCALE
 40
20.0
  9
$PROXYGRAPHICS
 70
     1
  9
$MEASUREMENT
 70
     1
  9
$CELWEIGHT
370
    -1
  9
$ENDCAPS
280
     0
  9
$JOINSTYLE
280
     0
  9
$LWDISPLAY
290
     1
  9
$INSUNITS
 70
     4
  9
$HYPERLINKBASE
  1

  9
$STYLESHEET
  1

  9
$XEDIT
290
     1
  9
$CEPSNTYPE
380
     0
  9
$PSTYLEMODE
290
     1
  9
$FINGERPRINTGUID
  2
{8A0C151C-DD50-43C6-8356-075F369D094C}
  9
$VERSIONGUID
  2
{FAEB1C32-E019-11D5-929B-00C0DF256EC4}
  9
$EXTNAMES
290
     1
  9
$PSVPSCALE
 40
0.0
  9
$OLESTARTUP
290
     0
  0
ENDSEC
  0
SECTION
  2
CLASSES
  0
CLASS
  1
ACDBDICTIONARYWDFLT
  2
AcDbDictionaryWithDefault
  3
ObjectDBX Classes
 90
        0
280
     0
281
     0
  0
CLASS
  1
VISUALSTYLE
  2
AcDbVisualStyle
  3
ObjectDBX Classes
 90
     4095
280
     0
281
     0
  0
CLASS
  1
MATERIAL
  2
AcDbMaterial
  3
ObjectDBX Classes
 90
     1153
280
     0
281
     0
  0
CLASS
  1
SCALE
  2
AcDbScale
  3
ObjectDBX Classes
 90
     1153
280
     0
281
     0
  0
CLASS
  1
TABLESTYLE
  2
AcDbTableStyle
  3
ObjectDBX Classes
 90
     4095
280
     0
281
     0
  0
CLASS
  1
MLEADERSTYLE
  2
AcDbMLeaderStyle
  3
ACDB_MLEADERSTYLE_CLASS
 90
     4095
280
     0
281
     0
  0
CLASS
  1
SUN
  2
AcDbSun
  3
SCENEOE
 90
     1153
280
     0
281
     0
  0
CLASS
  1
ACDBPLACEHOLDER
  2
AcDbPlaceHolder
  3
ObjectDBX Classes
 90
        0
280
     0
281
     0
  0
CLASS
  1
LAYOUT
  2
AcDbLayout
  3
ObjectDBX Classes
 90
        0
280
     0
281
     0
  0
ENDSEC
  0
SECTION
  2
TABLES
  0
TABLE
  2
VPORT
  5
8
330
0
100
AcDbSymbolTable
 70
     1
  0
VPORT
  5
29
330
8
100
AcDbSymbolTableRecord
100
AcDbViewportTableRecord
  2
*Active
 70
     0
 10
0.0
 20
0.0
 11
1.0
 21
1.0
 12
151.5
 22
250.8624337708
 13
0.0
 23
0.0
 14
10.0
 24
10.0
 15
10.0
 25
10.0
 16
0.0
 26
0.0
 36
1.0
 17
0.0
 27
0.0
 37
0.0
 40
249.7836160768
 41
0.5431100812
 42
50.0
 43
0.0
 44
0.0
 50
0.0
 51
0.0
 71
     0
 72
   100
 73
     1
 74
     3
 75
     0
 76
     0
 77
     0
 78
     0
281
     0
 65
     1
110
0.0
120
0.0
130
0.0
111
1.0
121
0.0
131
0.0
112
0.0
122
1.0
132
0.0
 79
     0
146
0.0
  0
ENDTAB
  0
TABLE
  2
LTYPE
  5
5
330
0
100
AcDbSymbolTable
 70
     6
  0
LTYPE
  5
14
330
5
100
AcDbSymbolTableRecord
100
AcDbLinetypeTableRecord
  2
ByBlock
 70
     0
  3

 72
    65
 73
     0
 40
0.0
  0
LTYPE
  5
15
330
5
100
AcDbSymbolTableRecord
100
AcDbLinetypeTableRecord
  2
ByLayer
 70
     0
  3

 72
    65
 73
     0
 40
0.0
  0
LTYPE
  5
16
330
5
100
AcDbSymbolTableRecord
100
AcDbLinetypeTableRecord
  2
Continuous
 70
     0
  3
Solid line
 72
    65
 73
     0
 40
0.0
  0
LTYPE
  5
6E
330
5
100
AcDbSymbolTableRecord
100
AcDbLinetypeTableRecord
  2
HIDDEN
 70
     0
  3
Hidden __ __ __ __ __ __ __ __ __ __ __ __ __ __
 72
    65
 73
     2
 40
1.905
 49
1.27
 74
     0
 49
-0.635
 74
     0
  0
LTYPE
  5
6F
330
5
100
AcDbSymbolTableRecord
100
AcDbLinetypeTableRecord
  2
PHANTOM
 70
     0
  3
Phantom ______  __  __  ______  __  __  ______
 72
    65
 73
     6
 40
12.7
 49
6.35
 74
     0
 49
-1.27
 74
     0
 49
1.27
 74
     0
 49
-1.27
 74
     0
 49
1.27
 74
     0
 49
-1.27
 74
     0
  0
LTYPE
  5
70
330
5
100
AcDbSymbolTableRecord
100
AcDbLinetypeTableRecord
  2
CENTER
 70
     0
  3
Center ____ _ ____ _ ____ _ ____ _ ____ _ ____
 72
    65
 73
     4
 40
10.16
 49
6.35
 74
     0
 49
-1.27
 74
     0
 49
1.27
 74
     0
 49
-1.27
 74
     0
  0
LTYPE
  5
71
330
5
100
AcDbSymbolTableRecord
100
AcDbLinetypeTableRecord
  2
CENTERX2
 70
     0
  3
Center (2x) ________  __  ________  __  _____
 72
    65
 73
     4
 40
20.32
 49
12.7
 74
     0
 49
-2.54
 74
     0
 49
2.54
 74
     0
 49
-2.54
 74
     0
  0
LTYPE
  5
72
330
5
100
AcDbSymbolTableRecord
100
AcDbLinetypeTableRecord
  2
DOT2
 70
     0
  3
Dot (.5x) ........................................
 72
    65
 73
     2
 40
0.635
 49
0.0
 74
     0
 49
-0.635
 74
     0
  0
ENDTAB
  0
TABLE
  2
LAYER
  5
2
330
0
100
AcDbSymbolTable
 70
     1
  0
LAYER
  5
10
330
2
100
AcDbSymbolTableRecord
100
AcDbLayerTableRecord
  2
0
 70
     0
 62
     7
  6
Continuous
370
    -3
390
F
  0
ENDTAB
  0
TABLE
  2
STYLE
  5
3
330
0
100
AcDbSymbolTable
 70
     1
  0
STYLE
  5
11
330
3
100
AcDbSymbolTableRecord
100
AcDbTextStyleTableRecord
  2
Standard
 70
     0
 40
0.0
 41
1.0
 50
0.0
 71
     0
 42
3.175
  3
txt
  4

  0
ENDTAB
  0
TABLE
  2
VIEW
  5
6
330
0
100
AcDbSymbolTable
 70
     0
  0
ENDTAB
  0
TABLE
  2
UCS
  5
7
330
0
100
AcDbSymbolTable
 70
     0
  0
ENDTAB
  0
TABLE
  2
APPID
  5
9
330
0
100
AcDbSymbolTable
 70
     1
  0
APPID
  5
12
330
9
100
AcDbSymbolTableRecord
100
AcDbRegAppTableRecord
  2
ACAD
 70
     0
  0
ENDTAB
  0
TABLE
  2
DIMSTYLE
  5
A
330
0
100
AcDbSymbolTable
 70
     1
100
AcDbDimStyleTable
  0
DIMSTYLE
105
27
330
A
100
AcDbSymbolTableRecord
100
AcDbDimStyleTableRecord
  2
ISO-25
 70
     0
 41
2.5
 42
0.625
 43
3.75
 44
1.25
 73
     0
 74
     0
 77
     1
 78
     8
140
2.5
141
2.5
143
0.0393700787
147
0.625
171
     3
172
     1
178
     0
271
     2
272
     2
274
     3
278
    44
283
     0
284
     8
340
11
  0
ENDTAB
  0
TABLE
  2
BLOCK_RECORD
  5
1
330
0
100
AcDbSymbolTable
 70
     1
  0
BLOCK_RECORD
  5
1F
330
1
100
AcDbSymbolTableRecord
100
AcDbBlockTableRecord
  2
*Model_Space
340
22
  0
BLOCK_RECORD
  5
1B
330
1
100
AcDbSymbolTableRecord
100
AcDbBlockTableRecord
  2
*Paper_Space
340
1E
  0
BLOCK_RECORD
  5
23
330
1
100
AcDbSymbolTableRecord
100
AcDbBlockTableRecord
  2
*Paper_Space0
340
26
  0
ENDTAB
  0
ENDSEC
  0
SECTION
  2
BLOCKS
  0
BLOCK
  5
20
330
1F
100
AcDbEntity
  8
0
100
AcDbBlockBegin
  2
*Model_Space
 70
     0
 10
0.0
 20
0.0
 30
0.0
  3
*Model_Space
  1

  0
ENDBLK
  5
21
330
1F
100
AcDbEntity
  8
0
100
AcDbBlockEnd
  0
BLOCK
  5
1C
330
1B
100
AcDbEntity
 67
     1
  8
0
100
AcDbBlockBegin
  2
*Paper_Space
 70
     0
 10
0.0
 20
0.0
 30
0.0
  3
*Paper_Space
  1

  0
ENDBLK
  5
1D
330
1B
100
AcDbEntity
 67
     1
  8
0
100
AcDbBlockEnd
  0
BLOCK
  5
24
330
23
100
AcDbEntity
  8
0
100
AcDbBlockBegin
  2
*Paper_Space0
 70
     0
 10
0.0
 20
0.0
 30
0.0
  3
*Paper_Space0
  1

  0
ENDBLK
  5
25
330
23
100
AcDbEntity
  8
0
100
AcDbBlockEnd
  0
ENDSEC
  0
SECTION
  2
ENTITIES
  0
CIRCLE
  5
73
330
1F
100
AcDbEntity
  8
0
  6
Continuous
 62
     7
370
    15
100
AcDbCircle
 10
90.5
 20
317.005382828
 30
0.0
 40
2.749999999999943
  0
CIRCLE
  5
74
330
1F
100
AcDbEntity
  8
0
  6
Continuous
 62
     7
370
    15
100
AcDbCircle
 10
90.5
 20
334.005382828
 30
0.0
 40
2.749999999999886
  0
CIRCLE
  5
75
330
1F
100
AcDbEntity
  8
0
  6
Continuous
 62
     7
370
    15
100
AcDbCircle
 10
90.5
 20
351.005382828
 30
0.0
 40
2.749999999999943
  0
CIRCLE
  5
76
330
1F
100
AcDbEntity
  8
0
  6
Continuous
 62
     7
370
    15
100
AcDbCircle
 10
171.6841941877
 20
146.8762418213
 30
0.0
 40
2.75
  0
CIRCLE
  5
77
330
1F
100
AcDbEntity
  8
0
  6
Continuous
 62
     7
370
    15
100
AcDbCircle
 10
90.5
 20
300.005382828
 30
0.0
 40
2.75
  0
CIRCLE
  5
78
330
1F
100
AcDbEntity
  8
0
  6
Continuous
 62
     7
370
    15
100
AcDbCircle
 10
90.5
 20
283.005382828
 30
0.0
 40
2.75
  0
CIRCLE
  5
79
330
1F
100
AcDbEntity
  8
0
  6
Continuous
 62
     7
370
    15
100
AcDbCircle
 10
90.5
 20
266.005382828
 30
0.0
 40
2.75
  0
CIRCLE
  5
7A
330
1F
100
AcDbEntity
  8
0
  6
Continuous
 62
     7
370
    15
100
AcDbCircle
 10
103.9289321881
 20
247.3302784187
 30
0.0
 40
2.600000000000364
  0
CIRCLE
  5
7B
330
1F
100
AcDbEntity
  8
0
  6
Continuous
 62
     7
370
    15
100
AcDbCircle
 10
109.375
 20
367.305382828
 30
0.0
 40
2.749999999999943
  0
CIRCLE
  5
7C
330
1F
100
AcDbEntity
  8
0
  6
Continuous
 62
     7
370
    15
100
AcDbCircle
 10
126.225
 20
367.305382828
 30
0.0
 40
2.749999999999943
  0
CIRCLE
  5
7D
330
1F
100
AcDbEntity
  8
0
  6
Continuous
 62
     7
370
    15
100
AcDbCircle
 10
143.075
 20
367.305382828
 30
0.0
 40
2.749999999999886
  0
CIRCLE
  5
7E
330
1F
100
AcDbEntity
  8
0
  6
Continuous
 62
     7
370
    15
100
AcDbCircle
 10
159.925
 20
367.305382828
 30
0.0
 40
2.749999999999886
  0
CIRCLE
  5
7F
330
1F
100
AcDbEntity
  8
0
  6
Continuous
 62
     7
370
    15
100
AcDbCircle
 10
176.775
 20
367.305382828
 30
0.0
 40
2.749999999999886
  0
CIRCLE
  5
80
330
1F
100
AcDbEntity
  8
0
  6
Continuous
 62
     7
370
    15
100
AcDbCircle
 10
193.625
 20
367.305382828
 30
0.0
 40
2.749999999999886
  0
CIRCLE
  5
81
330
1F
100
AcDbEntity
  8
0
  6
Continuous
 62
     7
370
    15
100
AcDbCircle
 10
131.3158058123
 20
146.8762418213
 30
0.0
 40
2.75
  0
CIRCLE
  5
82
330
1F
100
AcDbEntity
  8
0
  6
Continuous
 62
     7
370
    15
100
AcDbCircle
 10
151.5
 20
146.8762418213
 30
0.0
 40
2.75
  0
CIRCLE
  5
83
330
1F
100
AcDbEntity
  8
0
  6
Continuous
 62
     7
370
    15
100
AcDbCircle
 10
199.0710678119
 20
231.0802784187
 30
0.0
 40
2.75
  0
CIRCLE
  5
84
330
1F
100
AcDbEntity
  8
0
  6
Continuous
 62
     7
370
    15
100
AcDbCircle
 10
103.9289321881
 20
166.0802784187
 30
0.0
 40
2.750000000000028
  0
CIRCLE
  5
85
330
1F
100
AcDbEntity
  8
0
  6
Continuous
 62
     7
370
    15
100
AcDbCircle
 10
212.5
 20
334.005382828
 30
0.0
 40
2.750000000000057
  0
CIRCLE
  5
86
330
1F
100
AcDbEntity
  8
0
  6
Continuous
 62
     7
370
    15
100
AcDbCircle
 10
212.5
 20
317.005382828
 30
0.0
 40
2.75
  0
CIRCLE
  5
87
330
1F
100
AcDbEntity
  8
0
  6
Continuous
 62
     7
370
    15
100
AcDbCircle
 10
212.5
 20
300.005382828
 30
0.0
 40
2.749999999999943
  0
CIRCLE
  5
88
330
1F
100
AcDbEntity
  8
0
  6
Continuous
 62
     7
370
    15
100
AcDbCircle
 10
212.5
 20
283.005382828
 30
0.0
 40
2.75
  0
CIRCLE
  5
89
330
1F
100
AcDbEntity
  8
0
  6
Continuous
 62
     7
370
    15
100
AcDbCircle
 10
212.5
 20
266.005382828
 30
0.0
 40
2.75
  0
CIRCLE
  5
8A
330
1F
100
AcDbEntity
  8
0
  6
Continuous
 62
     7
370
    15
100
AcDbCircle
 10
199.0710678119
 20
247.3302784187
 30
0.0
 40
2.600000000000364
  0
CIRCLE
  5
8B
330
1F
100
AcDbEntity
  8
0
  6
Continuous
 62
     7
370
    15
100
AcDbCircle
 10
199.0710678119
 20
214.8302784187
 30
0.0
 40
2.750000000000028
  0
CIRCLE
  5
8C
330
1F
100
AcDbEntity
  8
0
  6
Continuous
 62
     7
370
    15
100
AcDbCircle
 10
199.0710678119
 20
198.5802784187
 30
0.0
 40
2.75
  0
CIRCLE
  5
8D
330
1F
100
AcDbEntity
  8
0
  6
Continuous
 62
     7
370
    15
100
AcDbCircle
 10
199.0710678119
 20
182.3302784187
 30
0.0
 40
2.750000000000028
  0
CIRCLE
  5
8E
330
1F
100
AcDbEntity
  8
0
  6
Continuous
 62
     7
370
    15
100
AcDbCircle
 10
199.0710678119
 20
166.0802784187
 30
0.0
 40
2.75
  0
CIRCLE
  5
8F
330
1F
100
AcDbEntity
  8
0
  6
Continuous
 62
     7
370
    15
100
AcDbCircle
 10
103.9289321881
 20
182.3302784187
 30
0.0
 40
2.75
  0
CIRCLE
  5
90
330
1F
100
AcDbEntity
  8
0
  6
Continuous
 62
     7
370
    15
100
AcDbCircle
 10
103.9289321881
 20
198.5802784187
 30
0.0
 40
2.750000000000028
  0
CIRCLE
  5
91
330
1F
100
AcDbEntity
  8
0
  6
Continuous
 62
     7
370
    15
100
AcDbCircle
 10
103.9289321881
 20
214.8302784187
 30
0.0
 40
2.75
  0
CIRCLE
  5
92
330
1F
100
AcDbEntity
  8
0
  6
Continuous
 62
     7
370
    15
100
AcDbCircle
 10
103.9289321881
 20
231.0802784187
 30
0.0
 40
2.750000000000028
  0
CIRCLE
  5
93
330
1F
100
AcDbEntity
  8
0
  6
Continuous
 62
     7
370
    15
100
AcDbCircle
 10
212.5
 20
351.005382828
 30
0.0
 40
2.75
  0
CIRCLE
  5
94
330
1F
100
AcDbEntity
  8
0
  6
Continuous
 62
     7
370
    15
100
AcDbCircle
 10
115.5289321881
 20
146.8762418213
 30
0.0
 40
2.75
  0
CIRCLE
  5
95
330
1F
100
AcDbEntity
  8
0
  6
Continuous
 62
     7
370
    15
100
AcDbCircle
 10
101.5
 20
263.605382828
 30
0.0
 40
2.750000000000057
  0
CIRCLE
  5
96
330
1F
100
AcDbEntity
  8
0
  6
Continuous
 62
     7
370
    15
100
AcDbCircle
 10
201.5
 20
263.605382828
 30
0.0
 40
2.750000000000057
  0
CIRCLE
  5
97
330
1F
100
AcDbEntity
  8
0
  6
Continuous
 62
     7
370
    15
100
AcDbCircle
 10
103.9289321881
 20
149.8051740094
 30
0.0
 40
2.75
  0
CIRCLE
  5
98
330
1F
100
AcDbEntity
  8
0
  6
Continuous
 62
     7
370
    15
100
AcDbCircle
 10
208.9246212025
 20
364.2300040305
 30
0.0
 40
2.75
  0
CIRCLE
  5
99
330
1F
100
AcDbEntity
  8
0
  6
Continuous
 62
     7
370
    15
100
AcDbCircle
 10
101.5
 20
276.8762418213
 30
0.0
 40
2.600000000006787
  0
CIRCLE
  5
9A
330
1F
100
AcDbEntity
  8
0
  6
Continuous
 62
     7
370
    15
100
AcDbCircle
 10
212.5
 20
237.371430755
 30
0.0
 40
2.75
  0
CIRCLE
  5
9B
330
1F
100
AcDbEntity
  8
0
  6
Continuous
 62
     7
370
    15
100
AcDbCircle
 10
90.5
 20
237.371430755
 30
0.0
 40
2.750000000000028
  0
CIRCLE
  5
9C
330
1F
100
AcDbEntity
  8
0
  6
Continuous
 62
     7
370
    15
100
AcDbCircle
 10
201.5
 20
276.8762418213
 30
0.0
 40
2.599999999993429
  0
CIRCLE
  5
9D
330
1F
100
AcDbEntity
  8
0
  6
Continuous
 62
     7
370
    15
100
AcDbCircle
 10
94.0753787975
 20
364.2300040305
 30
0.0
 40
2.75
  0
CIRCLE
  5
9E
330
1F
100
AcDbEntity
  8
0
  6
Continuous
 62
     7
370
    15
100
AcDbCircle
 10
199.0710678119
 20
149.8051740094
 30
0.0
 40
2.75
  0
CIRCLE
  5
9F
330
1F
100
AcDbEntity
  8
0
  6
Continuous
 62
     7
370
    15
100
AcDbCircle
 10
212.5
 20
249.005382828
 30
0.0
 40
2.749999999999972
  0
CIRCLE
  5
A0
330
1F
100
AcDbEntity
  8
0
  6
Continuous
 62
     7
370
    15
100
AcDbCircle
 10
90.5
 20
249.005382828
 30
0.0
 40
2.750000000000057
  0
CIRCLE
  5
A1
330
1F
100
AcDbEntity
  8
0
  6
Continuous
 62
     7
370
    15
100
AcDbCircle
 10
187.4710678119
 20
146.8762418213
 30
0.0
 40
2.750000000000028
  0
LINE
  5
A2
330
1F
100
AcDbEntity
  8
0
  6
Continuous
 62
     7
370
    15
100
AcDbLine
 10
203.3837261381
 20
299.3739005503
 30
0.0
 11
203.3837261381
 21
344.6167586137
 31
0.0
  0
SPLINE
  5
A3
330
1F
100
AcDbEntity
  8
0
  6
Continuous
 62
     7
370
    15
100
AcDbSpline
210
0.0
220
0.0
230
1.0
 70
     8
 71
     3
 72
    23
 73
    19
 74
     0
 42
0.000000001
 43
0.00000001
 40
0.0009989909470637
 40
0.0009989909470637
 40
0.0009989909470637
 40
0.0009989909470637
 40
0.0010119903343661
 40
0.0010119903343661
 40
0.0010119903343661
 40
0.0020239734218397
 40
0.0020239734218397
 40
0.0020239734218397
 40
0.0030359607522046
 40
0.0030359607522046
 40
0.0030359607522046
 40
0.0040464668997701
 40
0.0040464668997701
 40
0.0040464668997701
 40
0.0050546106968682
 40
0.0050546106968682
 40
0.0050546106968682
 40
0.0058277636338298
 40
0.0058277636338298
 40
0.0058277636338298
 40
0.0058277636338298
 10
200.2416267178162
 20
296.3775942419099
 30
0.0
 10
200.2460161579183
 20
296.3773967330551
 30
0.0
 10
200.2504060403326
 20
296.3772088205362
 30
0.0
 10
200.2547963021081
 20
296.3770305070488
 30
0.0
 10
200.5918460441652
 20
296.3633410010506
 30
0.0
 10
200.9359111619625
 20
296.4076353595316
 30
0.0
 10
201.2584901823451
 20
296.5062898414582
 30
0.0
 10
201.581061257809
 20
296.6049418935868
 30
0.0
 10
201.8910607172384
 20
296.7606882860523
 30
0.0
 10
202.1626890508369
 20
296.9606942222182
 30
0.0
 10
202.4339189927504
 20
297.1604068137951
 30
0.0
 10
202.6743888212123
 20
297.4097848666876
 30
0.0
 10
202.8639971816419
 20
297.6881721334221
 30
0.0
 10
203.0531671388831
 20
297.9659157267183
 30
0.0
 10
203.1969373229647
 20
298.2802216168453
 30
0.0
 10
203.2832679369492
 20
298.6049889203547
 30
0.0
 10
203.3496723329229
 20
298.854795745839
 30
0.0
 10
203.3837261380776
 20
299.115418454427
 30
0.0
 10
203.3837261380776
 20
299.3739005502541
 30
0.0
  0
ARC
  5
A4
330
1F
100
AcDbEntity
  8
0
  6
Continuous
 62
     7
370
    15
100
AcDbCircle
 10
199.9
 20
288.7852763359
 30
0.0
 40
7.600000000000024
100
AcDbArc
 50
87.4236359428
 51
213.0398811509
  0
SPLINE
  5
A5
330
1F
100
AcDbEntity
  8
0
  6
Continuous
 62
     7
370
    15
100
AcDbSpline
210
0.0
220
0.0
230
1.0
 70
     8
 71
     3
 72
    14
 73
    10
 74
     0
 42
0.000000001
 43
0.00000001
 40
0.0000000000000006
 40
0.0000000000000006
 40
0.0000000000000006
 40
0.0000000000000006
 40
0.0016834242367459
 40
0.0016834242367459
 40
0.0016834242367459
 40
0.0033665583985015
 40
0.0033665583985015
 40
0.0033665583985015
 40
0.0047652643677012
 40
0.0047652643677012
 40
0.0047652643677012
 40
0.0047652643677012
 10
193.9904069992848
 20
280.0521818752697
 30
0.0
 10
194.1972425195656
 20
280.5738127333395
 30
0.0
 10
194.3166177247905
 20
281.1384318369274
 30
0.0
 10
194.3389520279445
 20
281.6991286029632
 30
0.0
 10
194.3612840172211
 20
282.2597672797202
 30
0.0
 10
194.287249827826
 20
282.8319278946254
 30
0.0
 10
194.1232061273543
 20
283.3684948596508
 30
0.0
 10
193.9862856487546
 20
283.8163450693258
 30
0.0
 10
193.7843212277352
 20
284.2490014123428
 30
0.0
 10
193.5289863876479
 20
284.641584075235
 30
0.0
  0
ARC
  5
A6
330
1F
100
AcDbEntity
  8
0
  6
Continuous
 62
     7
370
    15
100
AcDbCircle
 10
202.0
 20
276.8762418213
 30
0.0
 40
8.616273861921911
100
AcDbArc
 50
158.3708307361
 51
180.0
  0
LINE
  5
A7
330
1F
100
AcDbEntity
  8
0
  6
Continuous
 62
     7
370
    15
100
AcDbLine
 10
193.3837261381
 20
169.5651987587
 30
0.0
 11
193.3837261381
 21
276.8762418213
 31
0.0
  0
SPLINE
  5
A8
330
1F
100
AcDbEntity
  8
0
  6
Continuous
 62
     7
370
    15
100
AcDbSpline
210
0.0
220
0.0
230
1.0
 70
     8
 71
     3
 72
    23
 73
    19
 74
     0
 42
0.000000001
 43
0.00000001
 40
0.0009988393639481
 40
0.0009988393639481
 40
0.0009988393639481
 40
0.0009988393639481
 40
0.0010118374532216
 40
0.0010118374532216
 40
0.0010118374532216
 40
0.0020237725991451
 40
0.0020237725991451
 40
0.0020237725991451
 40
0.0030357640931041
 40
0.0030357640931041
 40
0.0030357640931041
 40
0.0040462745698516
 40
0.0040462745698516
 40
0.0040462745698516
 40
0.0050544228523806
 40
0.0050544228523806
 40
0.0050544228523806
 40
0.0058255777375263
 40
0.0058255777375263
 40
0.0058255777375263
 40
0.0058255777375263
 10
190.2436727476632
 20
166.568791183003
 30
0.0
 10
190.2480618644931
 20
166.5685966910736
 30
0.0
 10
190.2524514169921
 20
166.568411793784
 30
0.0
 10
190.256841342227
 20
166.5682364937866
 30
0.0
 10
190.5938833924478
 20
166.5547776152414
 30
0.0
 10
190.9379003287586
 20
166.5993014058637
 30
0.0
 10
191.2603974326441
 20
166.6981654691738
 30
0.0
 10
191.5829027316604
 20
166.7970320447667
 30
0.0
 10
191.892798441554
 20
166.9529845646205
 30
0.0
 10
192.1642936154285
 20
167.1531710732216
 30
0.0
 10
192.4353906385132
 20
167.3530640060092
 30
0.0
 10
192.6756945256557
 20
167.6026019189289
 30
0.0
 10
192.8651176794221
 20
167.8811152028509
 30
0.0
 10
193.0541028888744
 20
168.1589845670266
 30
0.0
 10
193.1976640186013
 20
168.4733860248458
 30
0.0
 10
193.2837786366666
 20
168.7982106936975
 30
0.0
 10
193.3498483133889
 20
169.0474257671032
 30
0.0
 10
193.3837261380781
 20
169.3073744871989
 30
0.0
 10
193.3837261380781
 20
169.5651987587383
 30
0.0
  0
ARC
  5
A9
330
1F
100
AcDbEntity
  8
0
  6
Continuous
 62
     7
370
    15
100
AcDbCircle
 10
189.9072293055
 20
158.9762418213
 30
0.0
 40
7.600000000000031
100
AcDbArc
 50
87.4627511751
 51
182.5763640572
  0
SPLINE
  5
AA
330
1F
100
AcDbEntity
  8
0
  6
Continuous
 62
     7
370
    15
100
AcDbSpline
210
0.0
220
0.0
230
1.0
 70
     8
 71
     3
 72
    20
 73
    16
 74
     0
 42
0.000000001
 43
0.00000001
 40
0.0000114151154725
 40
0.0000114151154725
 40
0.0000114151154725
 40
0.0000114151154725
 40
0.0010053465779559
 40
0.0010053465779559
 40
0.0010053465779559
 40
0.0020106352077394
 40
0.0020106352077394
 40
0.0020106352077394
 40
0.0030168636015803
 40
0.0030168636015803
 40
0.0030168636015803
 40
0.0040253583125114
 40
0.0040253583125114
 40
0.0040253583125114
 40
0.0048421035474918
 40
0.0048421035474918
 40
0.0048421035474918
 40
0.0048421035474918
 10
179.3186050911194
 20
155.4925156832022
 30
0.0
 10
179.649916198115
 20
155.4925156832022
 30
0.0
 10
179.9856953258748
 20
155.5490652141381
 30
0.0
 10
180.2987409504334
 20
155.6575524786598
 30
0.0
 10
180.615371264787
 20
155.7672820323544
 30
0.0
 10
180.917408750574
 20
155.9331773604634
 30
0.0
 10
181.1799411011764
 20
156.1414370440531
 30
0.0
 10
181.4427231764868
 20
156.3498948273762
 30
0.0
 10
181.6731586844266
 20
156.6065200094983
 30
0.0
 10
181.8523484009836
 20
156.8900691445924
 30
0.0
 10
182.0319379434462
 20
157.1742509626993
 30
0.0
 10
182.1649977841469
 20
157.4932866178892
 30
0.0
 10
182.2406521042328
 20
157.8208352911529
 30
0.0
 10
182.301951806162
 20
158.0862350200196
 30
0.0
 10
182.3271554352037
 20
158.3625034478367
 30
0.0
 10
182.3149113994635
 20
158.6346151034635
 30
0.0
  0
LINE
  5
AB
330
1F
100
AcDbEntity
  8
0
  6
Continuous
 62
     7
370
    15
100
AcDbLine
 10
123.6813949089
 20
155.4925156832
 30
0.0
 11
179.3186050911
 21
155.4925156832
 31
0.0
  0
SPLINE
  5
AC
330
1F
100
AcDbEntity
  8
0
  6
Continuous
 62
     7
370
    15
100
AcDbSpline
210
0.0
220
0.0
230
1.0
 70
     8
 71
     3
 72
    23
 73
    19
 74
     0
 42
0.000000001
 43
0.00000001
 40
0.000502772795643
 40
0.000502772795643
 40
0.000502772795643
 40
0.000502772795643
 40
0.001012150229994
 40
0.001012150229994
 40
0.001012150229994
 40
0.0020243159103419
 40
0.0020243159103419
 40
0.0020243159103419
 40
0.0030357412919138
 40
0.0030357412919138
 40
0.0030357412919138
 40
0.0040451371515155
 40
0.0040451371515155
 40
0.0040451371515155
 40
0.0050521142722061
 40
0.0050521142722061
 40
0.0050521142722061
 40
0.0053300048750718
 40
0.0053300048750718
 40
0.0053300048750718
 40
0.0053300048750718
 10
120.685088600536
 20
158.6346151034635
 30
0.0
 10
120.6774294056596
 20
158.4643970280819
 30
0.0
 10
120.6842779833395
 20
158.2929162346118
 30
0.0
 10
120.7054904012675
 20
158.1238514843578
 30
0.0
 10
120.7474922965056
 20
157.7890928560537
 30
0.0
 10
120.8478784245265
 20
157.456955684755
 30
0.0
 10
120.9984024943911
 20
157.1550119767249
 30
0.0
 10
121.1488137690744
 20
156.8532945301512
 30
0.0
 10
121.3534588324218
 20
156.573384834523
 30
0.0
 10
121.5954270043135
 20
156.3386331084162
 30
0.0
 10
121.836912475021
 20
156.1043496874392
 30
0.0
 10
122.1222616856718
 20
155.9085683437724
 30
0.0
 10
122.4277997276382
 20
155.7676766874586
 30
0.0
 10
122.7326166842881
 20
155.6271175426183
 30
0.0
 10
123.0659550972438
 20
155.5373073156625
 30
0.0
 10
123.4001333626775
 20
155.5057615208351
 30
0.0
 10
123.4935757121308
 20
155.4969407401652
 30
0.0
 10
123.5875371503143
 20
155.4925156832022
 30
0.0
 10
123.6813949088801
 20
155.4925156832022
 30
0.0
  0
ARC
  5
AD
330
1F
100
AcDbEntity
  8
0
  6
Continuous
 62
     7
370
    15
100
AcDbCircle
 10
113.0927706945
 20
158.9762418213
 30
0.0
 40
7.599999999999988
100
AcDbArc
 50
357.4236359428
 51
92.5372488249
  0
SPLINE
  5
AE
330
1F
100
AcDbEntity
  8
0
  6
Continuous
 62
     7
370
    15
100
AcDbSpline
210
0.0
220
0.0
230
1.0
 70
     8
 71
     3
 72
    20
 73
    16
 74
     0
 42
0.000000001
 43
0.00000001
 40
0.0001332529754165
 40
0.0001332529754165
 40
0.0001332529754165
 40
0.0001332529754165
 40
0.0010052423407121
 40
0.0010052423407121
 40
0.0010052423407121
 40
0.002010435389688
 40
0.002010435389688
 40
0.002010435389688
 40
0.0030164462106984
 40
0.0030164462106984
 40
0.0030164462106984
 40
0.0040246473346257
 40
0.0040246473346257
 40
0.0040246473346257
 40
0.0049622517708042
 40
0.0049622517708042
 40
0.0049622517708042
 40
0.0049622517708042
 10
109.616273861922
 20
169.5651987587383
 30
0.0
 10
109.616273861922
 20
169.2744620242358
 30
0.0
 10
109.659547818848
 20
168.9806902065487
 30
0.0
 10
109.7433657279244
 20
168.7022976655078
 30
0.0
 10
109.8399652552848
 20
168.3814522974772
 30
0.0
 10
109.99328205734
 20
168.0728747845424
 30
0.0
 10
110.1905554148589
 20
167.802030841863
 30
0.0
 10
110.3879929142169
 20
167.5309615427371
 30
0.0
 10
110.6348796410882
 20
167.2902269570265
 30
0.0
 10
110.9107684483311
 20
167.0995820066098
 30
0.0
 10
111.1872530207192
 20
166.9085253699863
 30
0.0
 10
111.5004617104609
 20
166.7625147220624
 30
0.0
 10
111.8245305539125
 20
166.6734880863264
 30
0.0
 10
112.1259181416871
 20
166.5906923361815
 30
0.0
 10
112.444080284816
 20
166.5549547968874
 30
0.0
 10
112.7563272523368
 20
166.568791183003
 30
0.0
  0
LINE
  5
AF
330
1F
100
AcDbEntity
  8
0
  6
Continuous
 62
     7
370
    15
100
AcDbLine
 10
109.6162738619
 20
276.8762418213
 30
0.0
 11
109.6162738619
 21
169.5651987587
 31
0.0
  0
ARC
  5
B0
330
1F
100
AcDbEntity
  8
0
  6
Continuous
 62
     7
370
    15
100
AcDbCircle
 10
101.0
 20
276.8762418213
 30
0.0
 40
8.616273861921927
100
AcDbArc
 50
0.0
 51
21.6291692639
  0
SPLINE
  5
B1
330
1F
100
AcDbEntity
  8
0
  6
Continuous
 62
     7
370
    15
100
AcDbSpline
210
0.0
220
0.0
230
1.0
 70
     8
 71
     3
 72
    14
 73
    10
 74
     0
 42
0.000000001
 43
0.00000001
 40
0.0
 40
0.0
 40
0.0
 40
0.0
 40
0.0016895046454581
 40
0.0016895046454581
 40
0.0016895046454581
 40
0.0033791830090663
 40
0.0033791830090663
 40
0.0033791830090663
 40
0.0047653159908319
 40
0.0047653159908319
 40
0.0047653159908319
 40
0.0047653159908319
 10
109.4710136123517
 20
284.6415840752352
 30
0.0
 10
109.1639615367477
 20
284.1694850798692
 30
0.0
 10
108.9340902840209
 20
283.6379210565849
 30
0.0
 10
108.8005180552971
 20
283.0908224381695
 30
0.0
 10
108.6669381815122
 20
282.5436925063406
 30
0.0
 10
108.6260014818406
 20
281.9658958210165
 30
0.0
 10
108.6813921980412
 20
281.4054258275803
 30
0.0
 10
108.7270421110638
 20
280.9435179807935
 30
0.0
 10
108.8385053086102
 20
280.4836581493483
 30
0.0
 10
109.009593000715
 20
280.05218187527
 30
0.0
  0
ARC
  5
B2
330
1F
100
AcDbEntity
  8
0
  6
Continuous
 62
     7
370
    15
100
AcDbCircle
 10
103.1
 20
288.7852763359
 30
0.0
 40
7.600000000000019
100
AcDbArc
 50
326.9601188491
 51
92.5763640572
  0
SPLINE
  5
B3
330
1F
100
AcDbEntity
  8
0
  6
Continuous
 62
     7
370
    15
100
AcDbSpline
210
0.0
220
0.0
230
1.0
 70
     8
 71
     3
 72
    20
 73
    16
 74
     0
 42
0.000000001
 43
0.00000001
 40
0.00013292686171
 40
0.00013292686171
 40
0.00013292686171
 40
0.00013292686171
 40
0.0010052408858978
 40
0.0010052408858978
 40
0.0010052408858978
 40
0.0020104326019038
 40
0.0020104326019038
 40
0.0020104326019038
 40
0.0030164403753732
 40
0.0030164403753732
 40
0.0030164403753732
 40
0.0040246374111511
 40
0.0040246374111511
 40
0.0040246374111511
 40
0.0049639487720137
 40
0.0049639487720137
 40
0.0049639487720137
 40
0.0049639487720137
 10
99.61627386192175
 20
299.3739005502541
 30
0.0
 10
99.61627386192175
 20
299.0830559276026
 30
0.0
 10
99.65958061111151
 20
298.7891728655586
 30
0.0
 10
99.74346014568629
 20
298.5106862084189
 30
0.0
 10
99.84009470352186
 20
298.1898518700761
 30
0.0
 10
99.99344517307375
 20
297.8812915791772
 30
0.0
 10
100.1907480996662
 20
297.610469745519
 30
0.0
 10
100.3882148623307
 20
297.3394230272822
 30
0.0
 10
100.6351274111635
 20
297.0987164049349
 30
0.0
 10
100.9110364435962
 20
296.9081025238921
 30
0.0
 10
101.1875410137385
 20
296.7170772110338
 30
0.0
 10
101.5007645588172
 20
296.5711017676252
 30
0.0
 10
101.824841906798
 20
296.4821112063954
 30
0.0
 10
102.1267862822877
 20
296.3991982857534
 30
0.0
 10
102.4455684701601
 20
296.3635191619975
 30
0.0
 10
102.7583732821832
 20
296.3775942419101
 30
0.0
  0
LINE
  5
B4
330
1F
100
AcDbEntity
  8
0
  6
Continuous
 62
     7
370
    15
100
AcDbLine
 10
99.6162738619
 20
344.6167586137
 30
0.0
 11
99.6162738619
 21
299.3739005503
 31
0.0
  0
SPLINE
  5
B5
330
1F
100
AcDbEntity
  8
0
  6
Continuous
 62
     7
370
    15
100
AcDbSpline
210
0.0
220
0.0
230
1.0
 70
     8
 71
     3
 72
    23
 73
    19
 74
     0
 42
0.000000001
 43
0.00000001
 40
0.0009989909425253
 40
0.0009989909425253
 40
0.0009989909425253
 40
0.0009989909425253
 40
0.0010120026752083
 40
0.0010120026752083
 40
0.0010120026752083
 40
0.0020239981040642
 40
0.0020239981040642
 40
0.0020239981040642
 40
0.0030359850613301
 40
0.0030359850613301
 40
0.0030359850613301
 40
0.0040464908002925
 40
0.0040464908002925
 40
0.0040464908002925
 40
0.005054634180113
 40
0.005054634180113
 40
0.005054634180113
 40
0.0058294388747265
 40
0.0058294388747265
 40
0.0058294388747265
 40
0.0058294388747265
 10
102.7583732821832
 20
347.6130649220269
 30
0.0
 10
102.7539796734765
 20
347.6132626184539
 30
0.0
 10
102.749585621607
 20
347.6134507003096
 30
0.0
 10
102.7451911897054
 20
347.6136291648907
 30
0.0
 10
102.4081372805341
 20
347.627317438154
 30
0.0
 10
102.0640680091566
 20
347.5830203663859
 30
0.0
 10
101.741485875038
 20
347.4843619999892
 30
0.0
 10
101.4189156246083
 20
347.3857072680944
 30
0.0
 10
101.1089174646567
 20
347.2299582996212
 30
0.0
 10
100.8372908001838
 20
347.0299501054519
 30
0.0
 10
100.5660625343927
 20
346.8302352661381
 30
0.0
 10
100.3255947942903
 20
346.5808552234922
 30
0.0
 10
100.135988761593
 20
346.3024663918719
 30
0.0
 10
99.94682112839286
 20
346.0247212397908
 30
0.0
 10
99.8030535700462
 20
345.7104141715212
 30
0.0
 10
99.7167256635577
 20
345.3856461689156
 30
0.0
 10
99.65032546137905
 20
345.1358467481798
 30
0.0
 10
99.61627386192175
 20
344.8752324758997
 30
0.0
 10
99.61627386192175
 20
344.6167586136828
 30
0.0
  0
ARC
  5
B6
330
1F
100
AcDbEntity
  8
0
  6
Continuous
 62
     7
370
    15
100
AcDbCircle
 10
103.1
 20
355.205382828
 30
0.0
 40
7.599999999999996
100
AcDbArc
 50
267.4236359428
 51
2.5763640572
  0
SPLINE
  5
B7
330
1F
100
AcDbEntity
  8
0
  6
Continuous
 62
     7
370
    15
100
AcDbSpline
210
0.0
220
0.0
230
1.0
 70
     8
 71
     3
 72
    20
 73
    16
 74
     0
 42
0.000000001
 43
0.00000001
 40
0.0000114151154725
 40
0.0000114151154725
 40
0.0000114151154725
 40
0.0000114151154725
 40
0.0010053465779559
 40
0.0010053465779559
 40
0.0010053465779559
 40
0.0020106352077394
 40
0.0020106352077394
 40
0.0020106352077394
 40
0.0030168636015801
 40
0.0030168636015801
 40
0.0030168636015801
 40
0.0040253583125113
 40
0.0040253583125113
 40
0.0040253583125113
 40
0.0048421035474917
 40
0.0048421035474917
 40
0.0048421035474917
 40
0.0048421035474917
 10
113.6886242143378
 20
358.6891089660987
 30
0.0
 10
113.3573131073421
 20
358.6891089660987
 30
0.0
 10
113.0215339795824
 20
358.6325594351626
 30
0.0
 10
112.7084883550238
 20
358.5240721706409
 30
0.0
 10
112.3918580406701
 20
358.4143426169463
 30
0.0
 10
112.0898205548831
 20
358.2484472888373
 30
0.0
 10
111.8272882042808
 20
358.0401876052476
 30
0.0
 10
111.5645061289704
 20
357.8317298219245
 30
0.0
 10
111.3340706210305
 20
357.5751046398026
 30
0.0
 10
111.1548809044735
 20
357.2915555047085
 30
0.0
 10
110.9752913620109
 20
357.0073736866016
 30
0.0
 10
110.8422315213102
 20
356.6883380314117
 30
0.0
 10
110.7665772012244
 20
356.3607893581479
 30
0.0
 10
110.7052774992952
 20
356.0953896292812
 30
0.0
 10
110.6800738702534
 20
355.8191212014641
 30
0.0
 10
110.6923179059936
 20
355.5470095458373
 30
0.0
  0
LINE
  5
B8
330
1F
100
AcDbEntity
  8
0
  6
Continuous
 62
     7
370
    15
100
AcDbLine
 10
189.3113757857
 20
358.6891089661
 30
0.0
 11
113.6886242143
 21
358.6891089661
 31
0.0
  0
SPLINE
  5
B9
330
1F
100
AcDbEntity
  8
0
  6
Continuous
 62
     7
370
    15
100
AcDbSpline
210
0.0
220
0.0
230
1.0
 70
     8
 71
     3
 72
    23
 73
    19
 74
     0
 42
0.000000001
 43
0.00000001
 40
0.0015304535615249
 40
0.0015304535615249
 40
0.0015304535615249
 40
0.0015304535615249
 40
0.0020231577057497
 40
0.0020231577057497
 40
0.0020231577057497
 40
0.0030353218799759
 40
0.0030353218799759
 40
0.0030353218799759
 40
0.004046771462971
 40
0.004046771462971
 40
0.004046771462971
 40
0.0050562065241899
 40
0.0050562065241899
 40
0.0050562065241899
 40
0.0060632204077595
 40
0.0060632204077595
 40
0.0060632204077595
 40
0.006357486359614
 40
0.006357486359614
 40
0.006357486359614
 40
0.006357486359614
 10
192.3076820940058
 20
355.5470095458373
 30
0.0
 10
192.3150923934866
 20
355.711696165772
 30
0.0
 10
192.3089278760306
 20
355.8775461554735
 30
0.0
 10
192.2893097523963
 20
356.041227933778
 30
0.0
 10
192.2491599710637
 20
356.3762134670328
 30
0.0
 10
192.150613404489
 20
356.7089002736876
 30
0.0
 10
192.0017643362963
 20
357.011672906746
 30
0.0
 10
191.8530230947279
 20
357.3142262105782
 30
0.0
 10
191.6499275015512
 20
357.5952721729568
 30
0.0
 10
191.4092587633782
 20
357.8313675288394
 30
0.0
 10
191.1690666691738
 20
358.0669952983279
 30
0.0
 10
190.8847963821001
 20
358.2643634608714
 30
0.0
 10
190.5800322693437
 20
358.4069521120615
 30
0.0
 10
190.2759882125276
 20
358.5492038738314
 30
0.0
 10
189.9431403170334
 20
358.6408634530293
 30
0.0
 10
189.6091298232003
 20
358.6742601927084
 30
0.0
 10
189.5102481891157
 20
358.684147080257
 30
0.0
 10
189.4107504710933
 20
358.6891089660987
 30
0.0
 10
189.3113757856617
 20
358.6891089660987
 30
0.0
  0
ARC
  5
BA
330
1F
100
AcDbEntity
  8
0
  6
Continuous
 62
     7
370
    15
100
AcDbCircle
 10
199.9
 20
355.205382828
 30
0.0
 40
7.600000000000025
100
AcDbArc
 50
177.4236359428
 51
272.5763640572
  0
SPLINE
  5
BB
330
1F
100
AcDbEntity
  8
0
  6
Continuous
 62
     7
370
    15
100
AcDbSpline
210
0.0
220
0.0
230
1.0
 70
     8
 71
     3
 72
    23
 73
    19
 74
     0
 42
0.000000001
 43
0.00000001
 40
0.0004553063407
 40
0.0004553063407
 40
0.0004553063407
 40
0.0004553063407
 40
0.0010050695483731
 40
0.0010050695483731
 40
0.0010050695483731
 40
0.0020101144351674
 40
0.0020101144351674
 40
0.0020101144351674
 40
0.0030156264044915
 40
0.0030156264044915
 40
0.0030156264044915
 40
0.0040230565518147
 40
0.0040230565518147
 40
0.0040230565518147
 40
0.005032906107371
 40
0.005032906107371
 40
0.005032906107371
 40
0.0052843122036218
 40
0.0052843122036218
 40
0.0052843122036218
 40
0.0052843122036218
 10
203.3837261380776
 20
344.6167586136828
 30
0.0
 10
203.3837261380776
 20
344.8005500457639
 30
0.0
 10
203.3666512202561
 20
344.9851161483602
 30
0.0
 10
203.3329353232675
 20
345.1657885834373
 30
0.0
 10
203.2714771998228
 20
345.4951225122298
 30
0.0
 10
203.1523079509944
 20
345.8183749672834
 30
0.0
 10
202.9853563972622
 20
346.1088317046776
 30
0.0
 10
202.8183233254271
 20
346.3994302645445
 30
0.0
 10
202.5988768402109
 20
346.665200528149
 30
0.0
 10
202.3452165130003
 20
346.8842986990287
 30
0.0
 10
202.0910744822622
 20
347.1038129395513
 30
0.0
 10
201.7956087764275
 20
347.2825199617081
 30
0.0
 10
201.483234088898
 20
347.4057949720334
 30
0.0
 10
201.1701197756307
 20
347.52936186699
 30
0.0
 10
200.8314027969204
 20
347.6006381768682
 30
0.0
 10
200.4950458674945
 20
347.61380505688
 30
0.0
 10
200.4106371055026
 20
347.6171092850493
 30
0.0
 10
200.326014742102
 20
347.6168620764818
 30
0.0
 10
200.2416267178162
 20
347.6130649220269
 30
0.0
  0
CIRCLE
  5
BC
330
1F
100
AcDbEntity
  8
0
  6
Continuous
 62
     7
370
    15
100
AcDbCircle
 10
103.1
 20
288.7852763359
 30
0.0
 40
2.100000000005082
  0
CIRCLE
  5
BD
330
1F
100
AcDbEntity
  8
0
  6
Continuous
 62
     7
370
    15
100
AcDbCircle
 10
103.1
 20
355.205382828
 30
0.0
 40
2.100000000005139
  0
CIRCLE
  5
BE
330
1F
100
AcDbEntity
  8
0
  6
Continuous
 62
     7
370
    15
100
AcDbCircle
 10
199.9
 20
355.205382828
 30
0.0
 40
2.100000000005139
  0
CIRCLE
  5
BF
330
1F
100
AcDbEntity
  8
0
  6
Continuous
 62
     7
370
    15
100
AcDbCircle
 10
199.9
 20
288.7852763359
 30
0.0
 40
2.100000000005082
  0
CIRCLE
  5
C0
330
1F
100
AcDbEntity
  8
0
  6
Continuous
 62
     7
370
    15
100
AcDbCircle
 10
189.9072293055
 20
158.9762418213
 30
0.0
 40
2.100000000005139
  0
CIRCLE
  5
C1
330
1F
100
AcDbEntity
  8
0
  6
Continuous
 62
     7
370
    15
100
AcDbCircle
 10
113.0927706945
 20
158.9762418213
 30
0.0
 40
2.100000000005167
  0
LINE
  5
C2
330
1F
100
AcDbEntity
  8
0
  6
Continuous
 62
     7
370
    15
100
AcDbLine
 10
85.0
 20
237.371430755
 30
0.0
 11
85.0
 21
357.305382828
 31
0.0
  0
ARC
  5
C3
330
1F
100
AcDbEntity
  8
0
  6
Continuous
 62
     7
370
    15
100
AcDbCircle
 10
91.0
 20
237.371430755
 30
0.0
 40
5.999999999999872
100
AcDbArc
 50
180.0
 51
311.8103148958
  0
LINE
  5
C4
330
1F
100
AcDbEntity
  8
0
  6
Continuous
 62
     7
370
    15
100
AcDbLine
 10
95.0
 20
156.8762418213
 30
0.0
 11
95.0
 21
232.8992948
 31
0.0
  0
ARC
  5
C5
330
1F
100
AcDbEntity
  8
0
  6
Continuous
 62
     7
370
    15
100
AcDbCircle
 10
111.0
 20
156.8762418213
 30
0.0
 40
16.00000000000009
100
AcDbArc
 50
180.0
 51
270.0
  0
LINE
  5
C6
330
1F
100
AcDbEntity
  8
0
  6
Continuous
 62
     7
370
    15
100
AcDbLine
 10
113.0059221533
 20
140.8762418213
 30
0.0
 11
111.0
 21
140.8762418213
 31
0.0
  0
LINE
  5
C7
330
1F
100
AcDbEntity
  8
0
  6
Continuous
 62
     7
370
    15
100
AcDbLine
 10
113.0106888856
 20
128.4194847135
 30
0.0
 11
113.0059221533
 21
140.8762418213
 31
0.0
  0
LINE
  5
C8
330
1F
100
AcDbEntity
  8
0
  6
Continuous
 62
     7
370
    15
100
AcDbLine
 10
122.0
 20
128.4229245847
 30
0.0
 11
113.0106888856
 21
128.4194847135
 31
0.0
  0
LINE
  5
C9
330
1F
100
AcDbEntity
  8
0
  6
Continuous
 62
     7
370
    15
100
AcDbLine
 10
122.0
 20
137.3762418213
 30
0.0
 11
122.0
 21
128.4229245847
 31
0.0
  0
LINE
  5
CA
330
1F
100
AcDbEntity
  8
0
  6
Continuous
 62
     7
370
    15
100
AcDbLine
 10
131.0
 20
137.3762418213
 30
0.0
 11
122.0
 21
137.3762418213
 31
0.0
  0
LINE
  5
CB
330
1F
100
AcDbEntity
  8
0
  6
Continuous
 62
     7
370
    15
100
AcDbLine
 10
131.0
 20
137.3762418213
 30
0.0
 11
131.0
 21
128.4263685461
 31
0.0
  0
LINE
  5
CC
330
1F
100
AcDbEntity
  8
0
  6
Continuous
 62
     7
370
    15
100
AcDbLine
 10
133.0106874213
 20
128.4271379605
 30
0.0
 11
131.0
 21
128.4263685461
 31
0.0
  0
LINE
  5
CD
330
1F
100
AcDbEntity
  8
0
  6
Continuous
 62
     7
370
    15
100
AcDbLine
 10
137.4435738631
 20
140.8762418213
 30
0.0
 11
133.0106874213
 21
128.4271379605
 31
0.0
  0
LINE
  5
CE
330
1F
100
AcDbEntity
  8
0
  6
Continuous
 62
     7
370
    15
100
AcDbLine
 10
192.0
 20
140.8762418213
 30
0.0
 11
137.4435738631
 21
140.8762418213
 31
0.0
  0
ARC
  5
CF
330
1F
100
AcDbEntity
  8
0
  6
Continuous
 62
     7
370
    15
100
AcDbCircle
 10
192.0
 20
156.8762418213
 30
0.0
 40
16.00000000000006
100
AcDbArc
 50
270.0
 51
0.0
  0
LINE
  5
D0
330
1F
100
AcDbEntity
  8
0
  6
Continuous
 62
     7
370
    15
100
AcDbLine
 10
208.0
 20
232.8992948
 30
0.0
 11
208.0
 21
156.8762418213
 31
0.0
  0
ARC
  5
D1
330
1F
100
AcDbEntity
  8
0
  6
Continuous
 62
     7
370
    15
100
AcDbCircle
 10
212.0
 20
237.371430755
 30
0.0
 40
6.000000000004906
100
AcDbArc
 50
228.1896851043
 51
0.0
  0
LINE
  5
D2
330
1F
100
AcDbEntity
  8
0
  6
Continuous
 62
     7
370
    15
100
AcDbLine
 10
218.0
 20
357.305382828
 30
0.0
 11
218.0
 21
237.371430755
 31
0.0
  0
ARC
  5
D3
330
1F
100
AcDbEntity
  8
0
  6
Continuous
 62
     7
370
    15
100
AcDbCircle
 10
202.0
 20
357.305382828
 30
0.0
 40
15.99999999999991
100
AcDbArc
 50
360.0
 51
90.0
  0
LINE
  5
D4
330
1F
100
AcDbEntity
  8
0
  6
Continuous
 62
     7
370
    15
100
AcDbLine
 10
101.0
 20
373.305382828
 30
0.0
 11
202.0
 21
373.305382828
 31
0.0
  0
ARC
  5
D5
330
1F
100
AcDbEntity
  8
0
  6
Continuous
 62
     7
370
    15
100
AcDbCircle
 10
101.0
 20
357.305382828
 30
0.0
 40
15.99999999999999
100
AcDbArc
 50
90.0
 51
180.0
  0
ENDSEC
  0
SECTION
  2
OBJECTS
  0
DICTIONARY
  5
C
330
0
100
AcDbDictionary
281
     1
  3
ACAD_GROUP
350
D
  3
ACAD_LAYOUT
350
1A
  3
ACAD_MLINESTYLE
350
17
  3
ACAD_PLOTSETTINGS
350
19
  3
ACAD_PLOTSTYLENAME
350
E
  3
ACAD_SCALELIST
350
47
  0
DICTIONARY
  5
D
102
{ACAD_REACTORS
330
C
102
}
330
C
100
AcDbDictionary
281
     1
  0
DICTIONARY
  5
1A
102
{ACAD_REACTORS
330
C
102
}
330
C
100
AcDbDictionary
281
     1
  3
Layout1
350
1E
  3
Layout2
350
26
  3
Model
350
22
  0
DICTIONARY
  5
17
102
{ACAD_REACTORS
330
C
102
}
330
C
100
AcDbDictionary
281
     1
  3
Standard
350
18
  0
DICTIONARY
  5
19
102
{ACAD_REACTORS
330
C
102
}
330
C
100
AcDbDictionary
281
     1
  0
ACDBDICTIONARYWDFLT
  5
E
102
{ACAD_REACTORS
330
C
102
}
330
C
100
AcDbDictionary
281
     1
  3
Normal
350
F
100
AcDbDictionaryWithDefault
340
F
  0
DICTIONARY
  5
47
102
{ACAD_REACTORS
330
C
102
}
330
C
100
AcDbDictionary
281
     1
  3
A0
350
48
  3
A1
350
49
  3
A2
350
4A
  3
A3
350
4B
  3
A4
350
4C
  3
A5
350
4D
  3
A6
350
4E
  3
A7
350
4F
  3
A8
350
50
  3
A9
350
51
  3
B0
350
52
  3
B1
350
53
  3
B2
350
54
  3
B3
350
55
  3
B4
350
56
  3
B5
350
57
  3
B6
350
58
  3
B7
350
59
  3
B8
350
5A
  3
B9
350
5B
  3
C0
350
5C
  3
C1
350
5D
  3
C2
350
5E
  3
C3
350
5F
  3
C4
350
60
  3
C5
350
61
  3
C6
350
62
  3
C7
350
63
  3
C8
350
64
  3
C9
350
65
  3
D0
350
66
  3
D1
350
67
  3
D2
350
68
  0
LAYOUT
  5
1E
102
{ACAD_REACTORS
330
1A
102
}
330
1A
100
AcDbPlotSettings
  1

  2
none_device
  4

  6

 40
0.0
 41
0.0
 42
0.0
 43
0.0
 44
0.0
 45
0.0
 46
0.0
 47
0.0
 48
0.0
 49
0.0
140
0.0
141
0.0
142
1.0
143
1.0
 70
   688
 72
     1
 73
     0
 74
     5
  7

 75
    16
147
1.0
148
0.0
149
0.0
100
AcDbLayout
  1
Layout1
 70
     1
 71
     1
 10
0.0
 20
0.0
 11
420.0
 21
297.0
 12
0.0
 22
0.0
 32
0.0
 14
1.0000000000E+20
 24
1.0000000000E+20
 34
1.0000000000E+20
 15
-1.0000000000E+20
 25
-1.0000000000E+20
 35
-1.0000000000E+20
146
0.0
 13
0.0
 23
0.0
 33
0.0
 16
1.0
 26
0.0
 36
0.0
 17
0.0
 27
1.0
 37
0.0
 76
     0
330
1B
  0
LAYOUT
  5
26
102
{ACAD_REACTORS
330
1A
102
}
330
1A
100
AcDbPlotSettings
  1

  2
none_device
  4

  6

 40
0.0
 41
0.0
 42
0.0
 43
0.0
 44
0.0
 45
0.0
 46
0.0
 47
0.0
 48
0.0
 49
0.0
140
0.0
141
0.0
142
1.0
143
1.0
 70
   688
 72
     1
 73
     0
 74
     5
  7

 75
    16
147
1.0
148
0.0
149
0.0
100
AcDbLayout
  1
Layout2
 70
     1
 71
     2
 10
0.0
 20
0.0
 11
0.0
 21
0.0
 12
0.0
 22
0.0
 32
0.0
 14
0.0
 24
0.0
 34
0.0
 15
0.0
 25
0.0
 35
0.0
146
0.0
 13
0.0
 23
0.0
 33
0.0
 16
1.0
 26
0.0
 36
0.0
 17
0.0
 27
1.0
 37
0.0
 76
     0
330
23
  0
LAYOUT
  5
22
102
{ACAD_REACTORS
330
1A
102
}
330
1A
100
AcDbPlotSettings
  1

  2
none_device
  4
ANSI_A_(11.00_x_8.50_Inches)
  6

 40
6.35
 41
19.05
 42
6.35000508
 43
19.05000254
 44
279.4
 45
215.9
 46
1.117958991
 47
-130.0574335658
 48
0.0
 49
0.0
140
0.0
141
0.0
142
0.0343629424
143
1.0
 70
  1696
 72
     0
 73
     0
 74
     0
  7

 75
     0
147
0.0179189148
148
-1300.4909072572
149
0.0
100
AcDbLayout
  1
Model
 70
     1
 71
     0
 10
0.0
 20
0.0
 11
420.0
 21
297.0
 12
0.0
 22
0.0
 32
0.0
 14
85.0
 24
128.4194847135
 34
0.0
 15
218.0
 25
373.305382828
 35
0.0
146
0.0
 13
0.0
 23
0.0
 33
0.0
 16
1.0
 26
0.0
 36
0.0
 17
0.0
 27
1.0
 37
0.0
 76
     0
330
1F
331
29
  0
MLINESTYLE
  5
18
102
{ACAD_REACTORS
330
17
102
}
330
17
100
AcDbMlineStyle
  2
Standard
 70
     0
  3

 62
   256
 51
90.0
 52
90.0
 71
     2
 49
0.5
 62
   256
  6
BYLAYER
 49
-0.5
 62
   256
  6
BYLAYER
  0
ACDBPLACEHOLDER
  5
F
102
{ACAD_REACTORS
330
E
102
}
330
E
  0
SCALE
  5
48
102
{ACAD_REACTORS
330
47
102
}
330
47
100
AcDbScale
 70
     0
300
1:1
140
1.0
141
1.0
290
     1
  0
SCALE
  5
49
102
{ACAD_REACTORS
330
47
102
}
330
47
100
AcDbScale
 70
     0
300
1:2
140
1.0
141
2.0
290
     0
  0
SCALE
  5
4A
102
{ACAD_REACTORS
330
47
102
}
330
47
100
AcDbScale
 70
     0
300
1:4
140
1.0
141
4.0
290
     0
  0
SCALE
  5
4B
102
{ACAD_REACTORS
330
47
102
}
330
47
100
AcDbScale
 70
     0
300
1:5
140
1.0
141
5.0
290
     0
  0
SCALE
  5
4C
102
{ACAD_REACTORS
330
47
102
}
330
47
100
AcDbScale
 70
     0
300
1:8
140
1.0
141
8.0
290
     0
  0
SCALE
  5
4D
102
{ACAD_REACTORS
330
47
102
}
330
47
100
AcDbScale
 70
     0
300
1:10
140
1.0
141
10.0
290
     0
  0
SCALE
  5
4E
102
{ACAD_REACTORS
330
47
102
}
330
47
100
AcDbScale
 70
     0
300
1:16
140
1.0
141
16.0
290
     0
  0
SCALE
  5
4F
102
{ACAD_REACTORS
330
47
102
}
330
47
100
AcDbScale
 70
     0
300
1:20
140
1.0
141
20.0
290
     0
  0
SCALE
  5
50
102
{ACAD_REACTORS
330
47
102
}
330
47
100
AcDbScale
 70
     0
300
1:30
140
1.0
141
30.0
290
     0
  0
SCALE
  5
51
102
{ACAD_REACTORS
330
47
102
}
330
47
100
AcDbScale
 70
     0
300
1:40
140
1.0
141
40.0
290
     0
  0
SCALE
  5
52
102
{ACAD_REACTORS
330
47
102
}
330
47
100
AcDbScale
 70
     0
300
1:50
140
1.0
141
50.0
290
     0
  0
SCALE
  5
53
102
{ACAD_REACTORS
330
47
102
}
330
47
100
AcDbScale
 70
     0
300
1:100
140
1.0
141
100.0
290
     0
  0
SCALE
  5
54
102
{ACAD_REACTORS
330
47
102
}
330
47
100
AcDbScale
 70
     0
300
2:1
140
2.0
141
1.0
290
     0
  0
SCALE
  5
55
102
{ACAD_REACTORS
330
47
102
}
330
47
100
AcDbScale
 70
     0
300
4:1
140
4.0
141
1.0
290
     0
  0
SCALE
  5
56
102
{ACAD_REACTORS
330
47
102
}
330
47
100
AcDbScale
 70
     0
300
8:1
140
8.0
141
1.0
290
     0
  0
SCALE
  5
57
102
{ACAD_REACTORS
330
47
102
}
330
47
100
AcDbScale
 70
     0
300
10:1
140
10.0
141
1.0
290
     0
  0
SCALE
  5
58
102
{ACAD_REACTORS
330
47
102
}
330
47
100
AcDbScale
 70
     0
300
100:1
140
100.0
141
1.0
290
     0
  0
SCALE
  5
59
102
{ACAD_REACTORS
330
47
102
}
330
47
100
AcDbScale
 70
     0
300
1/128" = 1'-0"
140
0.0078125
141
12.0
290
     0
  0
SCALE
  5
5A
102
{ACAD_REACTORS
330
47
102
}
330
47
100
AcDbScale
 70
     0
300
1/64" = 1'-0"
140
0.015625
141
12.0
290
     0
  0
SCALE
  5
5B
102
{ACAD_REACTORS
330
47
102
}
330
47
100
AcDbScale
 70
     0
300
1/32" = 1'-0"
140
0.03125
141
12.0
290
     0
  0
SCALE
  5
5C
102
{ACAD_REACTORS
330
47
102
}
330
47
100
AcDbScale
 70
     0
300
1/16" = 1'-0"
140
0.0625
141
12.0
290
     0
  0
SCALE
  5
5D
102
{ACAD_REACTORS
330
47
102
}
330
47
100
AcDbScale
 70
     0
300
3/32" = 1'-0"
140
0.09375
141
12.0
290
     0
  0
SCALE
  5
5E
102
{ACAD_REACTORS
330
47
102
}
330
47
100
AcDbScale
 70
     0
300
1/8" = 1'-0"
140
0.125
141
12.0
290
     0
  0
SCALE
  5
5F
102
{ACAD_REACTORS
330
47
102
}
330
47
100
AcDbScale
 70
     0
300
3/16" = 1'-0"
140
0.1875
141
12.0
290
     0
  0
SCALE
  5
60
102
{ACAD_REACTORS
330
47
102
}
330
47
100
AcDbScale
 70
     0
300
1/4" = 1'-0"
140
0.25
141
12.0
290
     0
  0
SCALE
  5
61
102
{ACAD_REACTORS
330
47
102
}
330
47
100
AcDbScale
 70
     0
300
3/8" = 1'-0"
140
0.375
141
12.0
290
     0
  0
SCALE
  5
62
102
{ACAD_REACTORS
330
47
102
}
330
47
100
AcDbScale
 70
     0
300
1/2" = 1'-0"
140
0.5
141
12.0
290
     0
  0
SCALE
  5
63
102
{ACAD_REACTORS
330
47
102
}
330
47
100
AcDbScale
 70
     0
300
3/4" = 1'-0"
140
0.75
141
12.0
290
     0
  0
SCALE
  5
64
102
{ACAD_REACTORS
330
47
102
}
330
47
100
AcDbScale
 70
     0
300
1" = 1'-0"
140
1.0
141
12.0
290
     0
  0
SCALE
  5
65
102
{ACAD_REACTORS
330
47
102
}
330
47
100
AcDbScale
 70
     0
300
1-1/2" = 1'-0"
140
1.5
141
12.0
290
     0
  0
SCALE
  5
66
102
{ACAD_REACTORS
330
47
102
}
330
47
100
AcDbScale
 70
     0
300
3" = 1'-0"
140
3.0
141
12.0
290
     0
  0
SCALE
  5
67
102
{ACAD_REACTORS
330
47
102
}
330
47
100
AcDbScale
 70
     0
300
6" = 1'-0"
140
6.0
141
12.0
290
     0
  0
SCALE
  5
68
102
{ACAD_REACTORS
330
47
102
}
330
47
100
AcDbScale
 70
     0
300
1'-0" = 1'-0"
140
12.0
141
12.0
290
     0
  0
ENDSEC
  0
EOF
