G75*
%MOIN*%
%OFA0B0*%
%FSLAX25Y25*%
%IPPOS*%
%LPD*%
%AMOC8*
5,1,8,0,0,1.08239X$1,22.5*
%
%ADD10C,0.00800*%
%ADD11C,0.05800*%
%ADD12C,0.23000*%
%ADD13C,0.09449*%
%ADD14C,0.13055*%
%ADD15C,0.01000*%
%ADD16C,0.03562*%
D10*
X0001500Y0001500D02*
X0276500Y0001500D01*
X0276500Y0236500D01*
X0001500Y0236500D01*
X0001500Y0001500D01*
D11*
X0081500Y0106500D03*
X0091500Y0106500D03*
X0101500Y0106500D03*
X0111500Y0106500D03*
X0121500Y0106500D03*
X0131500Y0106500D03*
X0141500Y0106500D03*
X0151500Y0106500D03*
X0161500Y0106500D03*
X0171500Y0106500D03*
X0181500Y0106500D03*
X0191500Y0106500D03*
X0201500Y0106500D03*
X0211500Y0106500D03*
X0211500Y0166500D03*
X0201500Y0166500D03*
X0191500Y0166500D03*
X0181500Y0166500D03*
X0171500Y0166500D03*
X0161500Y0166500D03*
X0151500Y0166500D03*
X0141500Y0166500D03*
X0131500Y0166500D03*
X0121500Y0166500D03*
X0111500Y0166500D03*
X0101500Y0166500D03*
X0091500Y0166500D03*
X0081500Y0166500D03*
X0081500Y0156500D03*
X0081500Y0146500D03*
X0081500Y0136500D03*
X0081500Y0116500D03*
D12*
X0021500Y0021500D03*
X0021500Y0216500D03*
X0256500Y0216500D03*
X0256500Y0021500D03*
D13*
X0251724Y0056657D02*
X0242276Y0056657D01*
X0242276Y0076343D02*
X0251724Y0076343D01*
X0086343Y0036224D02*
X0086343Y0026776D01*
X0066657Y0026776D02*
X0066657Y0036224D01*
X0036224Y0071972D02*
X0026776Y0071972D01*
X0026776Y0091657D02*
X0036224Y0091657D01*
X0036224Y0111343D02*
X0026776Y0111343D01*
X0026776Y0146972D02*
X0036224Y0146972D01*
X0036224Y0166657D02*
X0026776Y0166657D01*
X0026776Y0186343D02*
X0036224Y0186343D01*
D14*
X0153665Y0084571D03*
X0155240Y0051500D03*
X0186736Y0051500D03*
X0153665Y0018429D03*
X0116264Y0051500D03*
D15*
X0108630Y0048430D02*
X0003600Y0048430D01*
X0003600Y0047432D02*
X0109044Y0047432D01*
X0109289Y0046839D02*
X0111603Y0044525D01*
X0114627Y0043272D01*
X0117900Y0043272D01*
X0120924Y0044525D01*
X0123239Y0046839D01*
X0124491Y0049863D01*
X0124491Y0053137D01*
X0123239Y0056161D01*
X0120924Y0058475D01*
X0117900Y0059728D01*
X0114627Y0059728D01*
X0111603Y0058475D01*
X0109289Y0056161D01*
X0108036Y0053137D01*
X0108036Y0049863D01*
X0109289Y0046839D01*
X0109695Y0046433D02*
X0003600Y0046433D01*
X0003600Y0045434D02*
X0110694Y0045434D01*
X0111818Y0044436D02*
X0003600Y0044436D01*
X0003600Y0043437D02*
X0114229Y0043437D01*
X0118299Y0043437D02*
X0153205Y0043437D01*
X0153604Y0043272D02*
X0156877Y0043272D01*
X0159901Y0044525D01*
X0162215Y0046839D01*
X0163468Y0049863D01*
X0163468Y0053137D01*
X0162215Y0056161D01*
X0159901Y0058475D01*
X0156877Y0059728D01*
X0153604Y0059728D01*
X0150580Y0058475D01*
X0148265Y0056161D01*
X0147013Y0053137D01*
X0147013Y0049863D01*
X0148265Y0046839D01*
X0150580Y0044525D01*
X0153604Y0043272D01*
X0150795Y0044436D02*
X0120709Y0044436D01*
X0121834Y0045434D02*
X0149670Y0045434D01*
X0148672Y0046433D02*
X0122832Y0046433D01*
X0123484Y0047432D02*
X0148020Y0047432D01*
X0147606Y0048430D02*
X0123898Y0048430D01*
X0124311Y0049429D02*
X0147193Y0049429D01*
X0147013Y0050427D02*
X0124491Y0050427D01*
X0124491Y0051426D02*
X0147013Y0051426D01*
X0147013Y0052424D02*
X0124491Y0052424D01*
X0124373Y0053423D02*
X0147131Y0053423D01*
X0147545Y0054421D02*
X0123959Y0054421D01*
X0123546Y0055420D02*
X0147958Y0055420D01*
X0148523Y0056418D02*
X0122981Y0056418D01*
X0121983Y0057417D02*
X0149521Y0057417D01*
X0150520Y0058415D02*
X0120984Y0058415D01*
X0118658Y0059414D02*
X0152846Y0059414D01*
X0157635Y0059414D02*
X0184342Y0059414D01*
X0185100Y0059728D02*
X0182076Y0058475D01*
X0179761Y0056161D01*
X0178509Y0053137D01*
X0178509Y0049863D01*
X0179761Y0046839D01*
X0182076Y0044525D01*
X0185100Y0043272D01*
X0188373Y0043272D01*
X0191397Y0044525D01*
X0193711Y0046839D01*
X0194964Y0049863D01*
X0194964Y0053137D01*
X0193711Y0056161D01*
X0191397Y0058475D01*
X0188373Y0059728D01*
X0185100Y0059728D01*
X0182016Y0058415D02*
X0159961Y0058415D01*
X0160959Y0057417D02*
X0181017Y0057417D01*
X0180019Y0056418D02*
X0161958Y0056418D01*
X0162522Y0055420D02*
X0179454Y0055420D01*
X0179041Y0054421D02*
X0162936Y0054421D01*
X0163349Y0053423D02*
X0178627Y0053423D01*
X0178509Y0052424D02*
X0163468Y0052424D01*
X0163468Y0051426D02*
X0178509Y0051426D01*
X0178509Y0050427D02*
X0163468Y0050427D01*
X0163288Y0049429D02*
X0178689Y0049429D01*
X0179102Y0048430D02*
X0162874Y0048430D01*
X0162460Y0047432D02*
X0179516Y0047432D01*
X0180168Y0046433D02*
X0161809Y0046433D01*
X0160810Y0045434D02*
X0181166Y0045434D01*
X0182291Y0044436D02*
X0159686Y0044436D01*
X0157275Y0043437D02*
X0184701Y0043437D01*
X0188771Y0043437D02*
X0274400Y0043437D01*
X0274400Y0042439D02*
X0088127Y0042439D01*
X0087620Y0042649D02*
X0085065Y0042649D01*
X0082703Y0041671D01*
X0080896Y0039864D01*
X0079918Y0037502D01*
X0079918Y0025498D01*
X0080896Y0023136D01*
X0082703Y0021329D01*
X0085065Y0020351D01*
X0087620Y0020351D01*
X0089982Y0021329D01*
X0091789Y0023136D01*
X0092767Y0025498D01*
X0092767Y0037502D01*
X0091789Y0039864D01*
X0089982Y0041671D01*
X0087620Y0042649D01*
X0090212Y0041440D02*
X0274400Y0041440D01*
X0274400Y0040442D02*
X0091210Y0040442D01*
X0091963Y0039443D02*
X0274400Y0039443D01*
X0274400Y0038445D02*
X0092376Y0038445D01*
X0092767Y0037446D02*
X0274400Y0037446D01*
X0274400Y0036448D02*
X0092767Y0036448D01*
X0092767Y0035449D02*
X0274400Y0035449D01*
X0274400Y0034451D02*
X0257637Y0034451D01*
X0257139Y0034500D02*
X0257000Y0034500D01*
X0257000Y0022000D01*
X0269500Y0022000D01*
X0269500Y0022139D01*
X0269375Y0023410D01*
X0269126Y0024663D01*
X0268755Y0025885D01*
X0268266Y0027065D01*
X0267664Y0028191D01*
X0266954Y0029253D01*
X0266144Y0030241D01*
X0265241Y0031144D01*
X0264253Y0031954D01*
X0263191Y0032664D01*
X0262065Y0033266D01*
X0260885Y0033755D01*
X0259663Y0034126D01*
X0258410Y0034375D01*
X0257139Y0034500D01*
X0257000Y0034451D02*
X0256000Y0034451D01*
X0256000Y0034500D02*
X0255861Y0034500D01*
X0254590Y0034375D01*
X0253337Y0034126D01*
X0252115Y0033755D01*
X0250935Y0033266D01*
X0249809Y0032664D01*
X0248747Y0031954D01*
X0247759Y0031144D01*
X0246856Y0030241D01*
X0246046Y0029253D01*
X0245336Y0028191D01*
X0244734Y0027065D01*
X0244245Y0025885D01*
X0243874Y0024663D01*
X0243625Y0023410D01*
X0243500Y0022139D01*
X0243500Y0022000D01*
X0256000Y0022000D01*
X0256000Y0034500D01*
X0255363Y0034451D02*
X0092767Y0034451D01*
X0092767Y0033452D02*
X0251385Y0033452D01*
X0249494Y0032454D02*
X0092767Y0032454D01*
X0092767Y0031455D02*
X0248139Y0031455D01*
X0247072Y0030457D02*
X0092767Y0030457D01*
X0092767Y0029458D02*
X0246214Y0029458D01*
X0245515Y0028460D02*
X0092767Y0028460D01*
X0092767Y0027461D02*
X0244946Y0027461D01*
X0244485Y0026463D02*
X0155770Y0026463D01*
X0155302Y0026657D02*
X0158326Y0025404D01*
X0160640Y0023090D01*
X0161893Y0020066D01*
X0161893Y0016793D01*
X0160640Y0013769D01*
X0158326Y0011454D01*
X0155302Y0010202D01*
X0152029Y0010202D01*
X0149005Y0011454D01*
X0146690Y0013769D01*
X0145438Y0016793D01*
X0145438Y0020066D01*
X0146690Y0023090D01*
X0149005Y0025404D01*
X0152029Y0026657D01*
X0155302Y0026657D01*
X0158181Y0025464D02*
X0244118Y0025464D01*
X0243835Y0024466D02*
X0159264Y0024466D01*
X0160263Y0023467D02*
X0243637Y0023467D01*
X0243533Y0022469D02*
X0160898Y0022469D01*
X0161311Y0021470D02*
X0256000Y0021470D01*
X0256000Y0021000D02*
X0256000Y0022000D01*
X0257000Y0022000D01*
X0257000Y0021000D01*
X0269500Y0021000D01*
X0269500Y0020861D01*
X0269375Y0019590D01*
X0269126Y0018337D01*
X0268755Y0017115D01*
X0268266Y0015935D01*
X0267664Y0014809D01*
X0266954Y0013747D01*
X0266144Y0012759D01*
X0265241Y0011856D01*
X0264253Y0011046D01*
X0263191Y0010336D01*
X0262065Y0009734D01*
X0260885Y0009245D01*
X0259663Y0008874D01*
X0258410Y0008625D01*
X0257139Y0008500D01*
X0257000Y0008500D01*
X0257000Y0021000D01*
X0256000Y0021000D01*
X0256000Y0008500D01*
X0255861Y0008500D01*
X0254590Y0008625D01*
X0253337Y0008874D01*
X0252115Y0009245D01*
X0250935Y0009734D01*
X0249809Y0010336D01*
X0248747Y0011046D01*
X0247759Y0011856D01*
X0246856Y0012759D01*
X0246046Y0013747D01*
X0245336Y0014809D01*
X0244734Y0015935D01*
X0244245Y0017115D01*
X0243874Y0018337D01*
X0243625Y0019590D01*
X0243500Y0020861D01*
X0243500Y0021000D01*
X0256000Y0021000D01*
X0256000Y0020472D02*
X0257000Y0020472D01*
X0257000Y0021470D02*
X0274400Y0021470D01*
X0274400Y0020472D02*
X0269462Y0020472D01*
X0269352Y0019473D02*
X0274400Y0019473D01*
X0274400Y0018475D02*
X0269153Y0018475D01*
X0268864Y0017476D02*
X0274400Y0017476D01*
X0274400Y0016478D02*
X0268491Y0016478D01*
X0268022Y0015479D02*
X0274400Y0015479D01*
X0274400Y0014481D02*
X0267445Y0014481D01*
X0266737Y0013482D02*
X0274400Y0013482D01*
X0274400Y0012484D02*
X0265868Y0012484D01*
X0264789Y0011485D02*
X0274400Y0011485D01*
X0274400Y0010487D02*
X0263417Y0010487D01*
X0261471Y0009488D02*
X0274400Y0009488D01*
X0274400Y0008490D02*
X0003600Y0008490D01*
X0003600Y0009488D02*
X0016529Y0009488D01*
X0017115Y0009245D02*
X0015935Y0009734D01*
X0014809Y0010336D01*
X0013747Y0011046D01*
X0012759Y0011856D01*
X0011856Y0012759D01*
X0011046Y0013747D01*
X0010336Y0014809D01*
X0009734Y0015935D01*
X0009245Y0017115D01*
X0008874Y0018337D01*
X0008625Y0019590D01*
X0008500Y0020861D01*
X0008500Y0021000D01*
X0021000Y0021000D01*
X0022000Y0021000D01*
X0022000Y0022000D01*
X0034500Y0022000D01*
X0034500Y0022139D01*
X0034375Y0023410D01*
X0034126Y0024663D01*
X0033755Y0025885D01*
X0033266Y0027065D01*
X0032664Y0028191D01*
X0031954Y0029253D01*
X0031144Y0030241D01*
X0030241Y0031144D01*
X0029253Y0031954D01*
X0028191Y0032664D01*
X0027065Y0033266D01*
X0025885Y0033755D01*
X0024663Y0034126D01*
X0023410Y0034375D01*
X0022139Y0034500D01*
X0022000Y0034500D01*
X0022000Y0022000D01*
X0021000Y0022000D01*
X0021000Y0034500D01*
X0020861Y0034500D01*
X0019590Y0034375D01*
X0018337Y0034126D01*
X0017115Y0033755D01*
X0015935Y0033266D01*
X0014809Y0032664D01*
X0013747Y0031954D01*
X0012759Y0031144D01*
X0011856Y0030241D01*
X0011046Y0029253D01*
X0010336Y0028191D01*
X0009734Y0027065D01*
X0009245Y0025885D01*
X0008874Y0024663D01*
X0008625Y0023410D01*
X0008500Y0022139D01*
X0008500Y0022000D01*
X0021000Y0022000D01*
X0021000Y0021000D01*
X0021000Y0008500D01*
X0020861Y0008500D01*
X0019590Y0008625D01*
X0018337Y0008874D01*
X0017115Y0009245D01*
X0014583Y0010487D02*
X0003600Y0010487D01*
X0003600Y0011485D02*
X0013211Y0011485D01*
X0012132Y0012484D02*
X0003600Y0012484D01*
X0003600Y0013482D02*
X0011263Y0013482D01*
X0010555Y0014481D02*
X0003600Y0014481D01*
X0003600Y0015479D02*
X0009978Y0015479D01*
X0009509Y0016478D02*
X0003600Y0016478D01*
X0003600Y0017476D02*
X0009136Y0017476D01*
X0008847Y0018475D02*
X0003600Y0018475D01*
X0003600Y0019473D02*
X0008648Y0019473D01*
X0008538Y0020472D02*
X0003600Y0020472D01*
X0003600Y0021470D02*
X0021000Y0021470D01*
X0021000Y0020472D02*
X0022000Y0020472D01*
X0022000Y0021000D02*
X0022000Y0008500D01*
X0022139Y0008500D01*
X0023410Y0008625D01*
X0024663Y0008874D01*
X0025885Y0009245D01*
X0027065Y0009734D01*
X0028191Y0010336D01*
X0029253Y0011046D01*
X0030241Y0011856D01*
X0031144Y0012759D01*
X0031954Y0013747D01*
X0032664Y0014809D01*
X0033266Y0015935D01*
X0033755Y0017115D01*
X0034126Y0018337D01*
X0034375Y0019590D01*
X0034500Y0020861D01*
X0034500Y0021000D01*
X0022000Y0021000D01*
X0022000Y0021470D02*
X0063370Y0021470D01*
X0063395Y0021452D02*
X0064268Y0021007D01*
X0065200Y0020704D01*
X0066157Y0020553D01*
X0066157Y0031000D01*
X0060433Y0031000D01*
X0060433Y0026286D01*
X0060586Y0025318D01*
X0060889Y0024386D01*
X0061334Y0023513D01*
X0061910Y0022721D01*
X0062603Y0022028D01*
X0063395Y0021452D01*
X0062162Y0022469D02*
X0034467Y0022469D01*
X0034363Y0023467D02*
X0061367Y0023467D01*
X0060863Y0024466D02*
X0034165Y0024466D01*
X0033882Y0025464D02*
X0060563Y0025464D01*
X0060433Y0026463D02*
X0033515Y0026463D01*
X0033054Y0027461D02*
X0060433Y0027461D01*
X0060433Y0028460D02*
X0032485Y0028460D01*
X0031786Y0029458D02*
X0060433Y0029458D01*
X0060433Y0030457D02*
X0030928Y0030457D01*
X0029861Y0031455D02*
X0066157Y0031455D01*
X0066157Y0031000D02*
X0066157Y0032000D01*
X0060433Y0032000D01*
X0060433Y0036714D01*
X0060586Y0037682D01*
X0060889Y0038614D01*
X0061334Y0039487D01*
X0061910Y0040279D01*
X0062603Y0040972D01*
X0063395Y0041548D01*
X0064268Y0041993D01*
X0065200Y0042296D01*
X0066157Y0042447D01*
X0066157Y0032000D01*
X0067157Y0032000D01*
X0067157Y0042447D01*
X0068115Y0042296D01*
X0069047Y0041993D01*
X0069920Y0041548D01*
X0070712Y0040972D01*
X0071405Y0040279D01*
X0071981Y0039487D01*
X0072426Y0038614D01*
X0072729Y0037682D01*
X0072882Y0036714D01*
X0072882Y0032000D01*
X0067158Y0032000D01*
X0067158Y0031000D01*
X0072882Y0031000D01*
X0072882Y0026286D01*
X0072729Y0025318D01*
X0072426Y0024386D01*
X0071981Y0023513D01*
X0071405Y0022721D01*
X0070712Y0022028D01*
X0069920Y0021452D01*
X0069047Y0021007D01*
X0068115Y0020704D01*
X0067157Y0020553D01*
X0067157Y0031000D01*
X0066157Y0031000D01*
X0066157Y0030457D02*
X0067157Y0030457D01*
X0067158Y0031455D02*
X0079918Y0031455D01*
X0079918Y0030457D02*
X0072882Y0030457D01*
X0072882Y0029458D02*
X0079918Y0029458D01*
X0079918Y0028460D02*
X0072882Y0028460D01*
X0072882Y0027461D02*
X0079918Y0027461D01*
X0079918Y0026463D02*
X0072882Y0026463D01*
X0072752Y0025464D02*
X0079932Y0025464D01*
X0080346Y0024466D02*
X0072452Y0024466D01*
X0071948Y0023467D02*
X0080759Y0023467D01*
X0081564Y0022469D02*
X0071153Y0022469D01*
X0069945Y0021470D02*
X0082562Y0021470D01*
X0084774Y0020472D02*
X0034462Y0020472D01*
X0034352Y0019473D02*
X0145438Y0019473D01*
X0145438Y0018475D02*
X0034153Y0018475D01*
X0033864Y0017476D02*
X0145438Y0017476D01*
X0145568Y0016478D02*
X0033491Y0016478D01*
X0033022Y0015479D02*
X0145982Y0015479D01*
X0146395Y0014481D02*
X0032445Y0014481D01*
X0031737Y0013482D02*
X0146977Y0013482D01*
X0147975Y0012484D02*
X0030868Y0012484D01*
X0029789Y0011485D02*
X0148974Y0011485D01*
X0151341Y0010487D02*
X0028417Y0010487D01*
X0026471Y0009488D02*
X0251529Y0009488D01*
X0249583Y0010487D02*
X0155990Y0010487D01*
X0158357Y0011485D02*
X0248211Y0011485D01*
X0247132Y0012484D02*
X0159355Y0012484D01*
X0160354Y0013482D02*
X0246263Y0013482D01*
X0245555Y0014481D02*
X0160935Y0014481D01*
X0161349Y0015479D02*
X0244978Y0015479D01*
X0244509Y0016478D02*
X0161762Y0016478D01*
X0161893Y0017476D02*
X0244136Y0017476D01*
X0243847Y0018475D02*
X0161893Y0018475D01*
X0161893Y0019473D02*
X0243648Y0019473D01*
X0243538Y0020472D02*
X0161725Y0020472D01*
X0151561Y0026463D02*
X0092767Y0026463D01*
X0092753Y0025464D02*
X0149150Y0025464D01*
X0148066Y0024466D02*
X0092339Y0024466D01*
X0091926Y0023467D02*
X0147068Y0023467D01*
X0146433Y0022469D02*
X0091121Y0022469D01*
X0090123Y0021470D02*
X0146020Y0021470D01*
X0145606Y0020472D02*
X0087911Y0020472D01*
X0079918Y0032454D02*
X0072882Y0032454D01*
X0072882Y0033452D02*
X0079918Y0033452D01*
X0079918Y0034451D02*
X0072882Y0034451D01*
X0072882Y0035449D02*
X0079918Y0035449D01*
X0079918Y0036448D02*
X0072882Y0036448D01*
X0072766Y0037446D02*
X0079918Y0037446D01*
X0080309Y0038445D02*
X0072481Y0038445D01*
X0072003Y0039443D02*
X0080722Y0039443D01*
X0081475Y0040442D02*
X0071243Y0040442D01*
X0070068Y0041440D02*
X0082473Y0041440D01*
X0084558Y0042439D02*
X0067209Y0042439D01*
X0067157Y0042439D02*
X0066157Y0042439D01*
X0066106Y0042439D02*
X0003600Y0042439D01*
X0003600Y0041440D02*
X0063247Y0041440D01*
X0062072Y0040442D02*
X0003600Y0040442D01*
X0003600Y0039443D02*
X0061312Y0039443D01*
X0060834Y0038445D02*
X0003600Y0038445D01*
X0003600Y0037446D02*
X0060549Y0037446D01*
X0060433Y0036448D02*
X0003600Y0036448D01*
X0003600Y0035449D02*
X0060433Y0035449D01*
X0060433Y0034451D02*
X0022637Y0034451D01*
X0022000Y0034451D02*
X0021000Y0034451D01*
X0020363Y0034451D02*
X0003600Y0034451D01*
X0003600Y0033452D02*
X0016385Y0033452D01*
X0014494Y0032454D02*
X0003600Y0032454D01*
X0003600Y0031455D02*
X0013139Y0031455D01*
X0012072Y0030457D02*
X0003600Y0030457D01*
X0003600Y0029458D02*
X0011214Y0029458D01*
X0010515Y0028460D02*
X0003600Y0028460D01*
X0003600Y0027461D02*
X0009946Y0027461D01*
X0009485Y0026463D02*
X0003600Y0026463D01*
X0003600Y0025464D02*
X0009118Y0025464D01*
X0008835Y0024466D02*
X0003600Y0024466D01*
X0003600Y0023467D02*
X0008637Y0023467D01*
X0008533Y0022469D02*
X0003600Y0022469D01*
X0003600Y0007491D02*
X0274400Y0007491D01*
X0274400Y0006493D02*
X0003600Y0006493D01*
X0003600Y0005494D02*
X0274400Y0005494D01*
X0274400Y0004496D02*
X0003600Y0004496D01*
X0003600Y0003600D02*
X0003600Y0234400D01*
X0274400Y0234400D01*
X0274400Y0003600D01*
X0003600Y0003600D01*
X0021000Y0009488D02*
X0022000Y0009488D01*
X0022000Y0010487D02*
X0021000Y0010487D01*
X0021000Y0011485D02*
X0022000Y0011485D01*
X0022000Y0012484D02*
X0021000Y0012484D01*
X0021000Y0013482D02*
X0022000Y0013482D01*
X0022000Y0014481D02*
X0021000Y0014481D01*
X0021000Y0015479D02*
X0022000Y0015479D01*
X0022000Y0016478D02*
X0021000Y0016478D01*
X0021000Y0017476D02*
X0022000Y0017476D01*
X0022000Y0018475D02*
X0021000Y0018475D01*
X0021000Y0019473D02*
X0022000Y0019473D01*
X0022000Y0022469D02*
X0021000Y0022469D01*
X0021000Y0023467D02*
X0022000Y0023467D01*
X0022000Y0024466D02*
X0021000Y0024466D01*
X0021000Y0025464D02*
X0022000Y0025464D01*
X0022000Y0026463D02*
X0021000Y0026463D01*
X0021000Y0027461D02*
X0022000Y0027461D01*
X0022000Y0028460D02*
X0021000Y0028460D01*
X0021000Y0029458D02*
X0022000Y0029458D01*
X0022000Y0030457D02*
X0021000Y0030457D01*
X0021000Y0031455D02*
X0022000Y0031455D01*
X0022000Y0032454D02*
X0021000Y0032454D01*
X0021000Y0033452D02*
X0022000Y0033452D01*
X0026615Y0033452D02*
X0060433Y0033452D01*
X0060433Y0032454D02*
X0028506Y0032454D01*
X0003600Y0049429D02*
X0108216Y0049429D01*
X0108036Y0050427D02*
X0003600Y0050427D01*
X0003600Y0051426D02*
X0108036Y0051426D01*
X0108036Y0052424D02*
X0003600Y0052424D01*
X0003600Y0053423D02*
X0108155Y0053423D01*
X0108568Y0054421D02*
X0003600Y0054421D01*
X0003600Y0055420D02*
X0108982Y0055420D01*
X0109546Y0056418D02*
X0003600Y0056418D01*
X0003600Y0057417D02*
X0110545Y0057417D01*
X0111543Y0058415D02*
X0003600Y0058415D01*
X0003600Y0059414D02*
X0113869Y0059414D01*
X0146690Y0079910D02*
X0149005Y0077596D01*
X0152029Y0076343D01*
X0155302Y0076343D01*
X0158326Y0077596D01*
X0160640Y0079910D01*
X0161893Y0082934D01*
X0161893Y0086207D01*
X0160640Y0089231D01*
X0158326Y0091546D01*
X0155302Y0092798D01*
X0152029Y0092798D01*
X0149005Y0091546D01*
X0146690Y0089231D01*
X0145438Y0086207D01*
X0145438Y0082934D01*
X0146690Y0079910D01*
X0146495Y0080382D02*
X0003600Y0080382D01*
X0003600Y0079384D02*
X0147217Y0079384D01*
X0148215Y0078385D02*
X0037530Y0078385D01*
X0037502Y0078397D02*
X0039864Y0077419D01*
X0041671Y0075612D01*
X0042649Y0073250D01*
X0042649Y0070695D01*
X0041671Y0068333D01*
X0039864Y0066526D01*
X0037502Y0065548D01*
X0025498Y0065548D01*
X0023136Y0066526D01*
X0021329Y0068333D01*
X0020351Y0070695D01*
X0020351Y0073250D01*
X0021329Y0075612D01*
X0023136Y0077419D01*
X0025498Y0078397D01*
X0037502Y0078397D01*
X0039895Y0077387D02*
X0149509Y0077387D01*
X0151920Y0076388D02*
X0040894Y0076388D01*
X0041763Y0075390D02*
X0235851Y0075390D01*
X0235851Y0075065D02*
X0236829Y0072703D01*
X0238636Y0070896D01*
X0240998Y0069918D01*
X0253002Y0069918D01*
X0255364Y0070896D01*
X0257171Y0072703D01*
X0258149Y0075065D01*
X0258149Y0077620D01*
X0257171Y0079982D01*
X0255364Y0081789D01*
X0253002Y0082767D01*
X0240998Y0082767D01*
X0238636Y0081789D01*
X0236829Y0079982D01*
X0235851Y0077620D01*
X0235851Y0075065D01*
X0236130Y0074391D02*
X0042176Y0074391D01*
X0042590Y0073393D02*
X0236544Y0073393D01*
X0237138Y0072394D02*
X0042649Y0072394D01*
X0042649Y0071396D02*
X0238137Y0071396D01*
X0239841Y0070397D02*
X0042526Y0070397D01*
X0042112Y0069399D02*
X0274400Y0069399D01*
X0274400Y0070397D02*
X0254159Y0070397D01*
X0255863Y0071396D02*
X0274400Y0071396D01*
X0274400Y0072394D02*
X0256862Y0072394D01*
X0257456Y0073393D02*
X0274400Y0073393D01*
X0274400Y0074391D02*
X0257870Y0074391D01*
X0258149Y0075390D02*
X0274400Y0075390D01*
X0274400Y0076388D02*
X0258149Y0076388D01*
X0258149Y0077387D02*
X0274400Y0077387D01*
X0274400Y0078385D02*
X0257832Y0078385D01*
X0257418Y0079384D02*
X0274400Y0079384D01*
X0274400Y0080382D02*
X0256770Y0080382D01*
X0255771Y0081381D02*
X0274400Y0081381D01*
X0274400Y0082379D02*
X0253938Y0082379D01*
X0240062Y0082379D02*
X0161663Y0082379D01*
X0161893Y0083378D02*
X0274400Y0083378D01*
X0274400Y0084376D02*
X0161893Y0084376D01*
X0161893Y0085375D02*
X0274400Y0085375D01*
X0274400Y0086373D02*
X0161824Y0086373D01*
X0161411Y0087372D02*
X0274400Y0087372D01*
X0274400Y0088370D02*
X0160997Y0088370D01*
X0160503Y0089369D02*
X0274400Y0089369D01*
X0274400Y0090368D02*
X0159504Y0090368D01*
X0158506Y0091366D02*
X0274400Y0091366D01*
X0274400Y0092365D02*
X0156349Y0092365D01*
X0150981Y0092365D02*
X0042649Y0092365D01*
X0042649Y0092935D02*
X0042649Y0090380D01*
X0041671Y0088018D01*
X0039864Y0086211D01*
X0037502Y0085233D01*
X0025498Y0085233D01*
X0023136Y0086211D01*
X0021329Y0088018D01*
X0020351Y0090380D01*
X0020351Y0092935D01*
X0021329Y0095297D01*
X0023136Y0097104D01*
X0025498Y0098082D01*
X0037502Y0098082D01*
X0039864Y0097104D01*
X0041671Y0095297D01*
X0042649Y0092935D01*
X0042472Y0093363D02*
X0274400Y0093363D01*
X0274400Y0094362D02*
X0042058Y0094362D01*
X0041607Y0095360D02*
X0274400Y0095360D01*
X0274400Y0096359D02*
X0040609Y0096359D01*
X0039252Y0097357D02*
X0274400Y0097357D01*
X0274400Y0098356D02*
X0003600Y0098356D01*
X0003600Y0099354D02*
X0274400Y0099354D01*
X0274400Y0100353D02*
X0003600Y0100353D01*
X0003600Y0101351D02*
X0274400Y0101351D01*
X0274400Y0102350D02*
X0213501Y0102350D01*
X0214106Y0102600D02*
X0212415Y0101900D01*
X0210585Y0101900D01*
X0208894Y0102600D01*
X0207600Y0103894D01*
X0206900Y0105585D01*
X0206900Y0107415D01*
X0207600Y0109106D01*
X0208894Y0110400D01*
X0210585Y0111100D01*
X0212415Y0111100D01*
X0214106Y0110400D01*
X0215400Y0109106D01*
X0216100Y0107415D01*
X0216100Y0105585D01*
X0215400Y0103894D01*
X0214106Y0102600D01*
X0214854Y0103348D02*
X0274400Y0103348D01*
X0274400Y0104347D02*
X0215587Y0104347D01*
X0216001Y0105345D02*
X0274400Y0105345D01*
X0274400Y0106344D02*
X0216100Y0106344D01*
X0216100Y0107342D02*
X0274400Y0107342D01*
X0274400Y0108341D02*
X0215717Y0108341D01*
X0215166Y0109339D02*
X0274400Y0109339D01*
X0274400Y0110338D02*
X0214168Y0110338D01*
X0208832Y0110338D02*
X0203660Y0110338D01*
X0203806Y0110263D02*
X0203189Y0110578D01*
X0202530Y0110792D01*
X0201950Y0110884D01*
X0201950Y0106950D01*
X0201050Y0106950D01*
X0201050Y0110884D01*
X0200470Y0110792D01*
X0199811Y0110578D01*
X0199194Y0110263D01*
X0198634Y0109856D01*
X0198144Y0109366D01*
X0197737Y0108806D01*
X0197422Y0108189D01*
X0197208Y0107530D01*
X0197116Y0106950D01*
X0201050Y0106950D01*
X0201050Y0106050D01*
X0197116Y0106050D01*
X0197208Y0105470D01*
X0197422Y0104811D01*
X0197737Y0104194D01*
X0198144Y0103634D01*
X0198634Y0103144D01*
X0199194Y0102737D01*
X0199811Y0102422D01*
X0200470Y0102208D01*
X0201050Y0102116D01*
X0201050Y0106050D01*
X0201950Y0106050D01*
X0201950Y0106950D01*
X0205884Y0106950D01*
X0205792Y0107530D01*
X0205578Y0108189D01*
X0205263Y0108806D01*
X0204856Y0109366D01*
X0204366Y0109856D01*
X0203806Y0110263D01*
X0204876Y0109339D02*
X0207834Y0109339D01*
X0207283Y0108341D02*
X0205500Y0108341D01*
X0205821Y0107342D02*
X0206900Y0107342D01*
X0206900Y0106344D02*
X0201950Y0106344D01*
X0201950Y0106050D02*
X0205884Y0106050D01*
X0205792Y0105470D01*
X0205578Y0104811D01*
X0205263Y0104194D01*
X0204856Y0103634D01*
X0204366Y0103144D01*
X0203806Y0102737D01*
X0203189Y0102422D01*
X0202530Y0102208D01*
X0201950Y0102116D01*
X0201950Y0106050D01*
X0201950Y0105345D02*
X0201050Y0105345D01*
X0201050Y0104347D02*
X0201950Y0104347D01*
X0201950Y0103348D02*
X0201050Y0103348D01*
X0201050Y0102350D02*
X0201950Y0102350D01*
X0202965Y0102350D02*
X0209499Y0102350D01*
X0208146Y0103348D02*
X0204571Y0103348D01*
X0205341Y0104347D02*
X0207413Y0104347D01*
X0206999Y0105345D02*
X0205751Y0105345D01*
X0201950Y0107342D02*
X0201050Y0107342D01*
X0201050Y0106344D02*
X0196100Y0106344D01*
X0196100Y0105585D02*
X0195400Y0103894D01*
X0194106Y0102600D01*
X0192415Y0101900D01*
X0190585Y0101900D01*
X0188894Y0102600D01*
X0187600Y0103894D01*
X0186900Y0105585D01*
X0186900Y0107415D01*
X0187600Y0109106D01*
X0188894Y0110400D01*
X0190585Y0111100D01*
X0192415Y0111100D01*
X0194106Y0110400D01*
X0195400Y0109106D01*
X0196100Y0107415D01*
X0196100Y0105585D01*
X0196001Y0105345D02*
X0197249Y0105345D01*
X0197659Y0104347D02*
X0195587Y0104347D01*
X0194854Y0103348D02*
X0198429Y0103348D01*
X0200035Y0102350D02*
X0193501Y0102350D01*
X0189499Y0102350D02*
X0183501Y0102350D01*
X0184106Y0102600D02*
X0185400Y0103894D01*
X0186100Y0105585D01*
X0186100Y0107415D01*
X0185400Y0109106D01*
X0184106Y0110400D01*
X0182415Y0111100D01*
X0180585Y0111100D01*
X0178894Y0110400D01*
X0177600Y0109106D01*
X0176900Y0107415D01*
X0176900Y0105585D01*
X0177600Y0103894D01*
X0178894Y0102600D01*
X0180585Y0101900D01*
X0182415Y0101900D01*
X0184106Y0102600D01*
X0184854Y0103348D02*
X0188146Y0103348D01*
X0187413Y0104347D02*
X0185587Y0104347D01*
X0186001Y0105345D02*
X0186999Y0105345D01*
X0186900Y0106344D02*
X0186100Y0106344D01*
X0186100Y0107342D02*
X0186900Y0107342D01*
X0187283Y0108341D02*
X0185717Y0108341D01*
X0185166Y0109339D02*
X0187834Y0109339D01*
X0188832Y0110338D02*
X0184168Y0110338D01*
X0178832Y0110338D02*
X0174168Y0110338D01*
X0174106Y0110400D02*
X0172415Y0111100D01*
X0170585Y0111100D01*
X0168894Y0110400D01*
X0167600Y0109106D01*
X0166900Y0107415D01*
X0166900Y0105585D01*
X0167600Y0103894D01*
X0168894Y0102600D01*
X0170585Y0101900D01*
X0172415Y0101900D01*
X0174106Y0102600D01*
X0175400Y0103894D01*
X0176100Y0105585D01*
X0176100Y0107415D01*
X0175400Y0109106D01*
X0174106Y0110400D01*
X0175166Y0109339D02*
X0177834Y0109339D01*
X0177283Y0108341D02*
X0175717Y0108341D01*
X0176100Y0107342D02*
X0176900Y0107342D01*
X0176900Y0106344D02*
X0176100Y0106344D01*
X0176001Y0105345D02*
X0176999Y0105345D01*
X0177413Y0104347D02*
X0175587Y0104347D01*
X0174854Y0103348D02*
X0178146Y0103348D01*
X0179499Y0102350D02*
X0173501Y0102350D01*
X0169499Y0102350D02*
X0163501Y0102350D01*
X0164106Y0102600D02*
X0162415Y0101900D01*
X0160585Y0101900D01*
X0158894Y0102600D01*
X0157600Y0103894D01*
X0156900Y0105585D01*
X0156900Y0107415D01*
X0157600Y0109106D01*
X0158894Y0110400D01*
X0160585Y0111100D01*
X0162415Y0111100D01*
X0164106Y0110400D01*
X0165400Y0109106D01*
X0166100Y0107415D01*
X0166100Y0105585D01*
X0165400Y0103894D01*
X0164106Y0102600D01*
X0164854Y0103348D02*
X0168146Y0103348D01*
X0167413Y0104347D02*
X0165587Y0104347D01*
X0166001Y0105345D02*
X0166999Y0105345D01*
X0166900Y0106344D02*
X0166100Y0106344D01*
X0166100Y0107342D02*
X0166900Y0107342D01*
X0167283Y0108341D02*
X0165717Y0108341D01*
X0165166Y0109339D02*
X0167834Y0109339D01*
X0168832Y0110338D02*
X0164168Y0110338D01*
X0158832Y0110338D02*
X0154168Y0110338D01*
X0154106Y0110400D02*
X0152415Y0111100D01*
X0150585Y0111100D01*
X0148894Y0110400D01*
X0147600Y0109106D01*
X0146900Y0107415D01*
X0146900Y0105585D01*
X0147600Y0103894D01*
X0148894Y0102600D01*
X0150585Y0101900D01*
X0152415Y0101900D01*
X0154106Y0102600D01*
X0155400Y0103894D01*
X0156100Y0105585D01*
X0156100Y0107415D01*
X0155400Y0109106D01*
X0154106Y0110400D01*
X0155166Y0109339D02*
X0157834Y0109339D01*
X0157283Y0108341D02*
X0155717Y0108341D01*
X0156100Y0107342D02*
X0156900Y0107342D01*
X0156900Y0106344D02*
X0156100Y0106344D01*
X0156001Y0105345D02*
X0156999Y0105345D01*
X0157413Y0104347D02*
X0155587Y0104347D01*
X0154854Y0103348D02*
X0158146Y0103348D01*
X0159499Y0102350D02*
X0153501Y0102350D01*
X0149499Y0102350D02*
X0143501Y0102350D01*
X0144106Y0102600D02*
X0145400Y0103894D01*
X0146100Y0105585D01*
X0146100Y0107415D01*
X0145400Y0109106D01*
X0144106Y0110400D01*
X0142415Y0111100D01*
X0140585Y0111100D01*
X0138894Y0110400D01*
X0137600Y0109106D01*
X0136900Y0107415D01*
X0136900Y0105585D01*
X0137600Y0103894D01*
X0138894Y0102600D01*
X0140585Y0101900D01*
X0142415Y0101900D01*
X0144106Y0102600D01*
X0144854Y0103348D02*
X0148146Y0103348D01*
X0147413Y0104347D02*
X0145587Y0104347D01*
X0146001Y0105345D02*
X0146999Y0105345D01*
X0146900Y0106344D02*
X0146100Y0106344D01*
X0146100Y0107342D02*
X0146900Y0107342D01*
X0147283Y0108341D02*
X0145717Y0108341D01*
X0145166Y0109339D02*
X0147834Y0109339D01*
X0148832Y0110338D02*
X0144168Y0110338D01*
X0138832Y0110338D02*
X0134168Y0110338D01*
X0134106Y0110400D02*
X0132415Y0111100D01*
X0130585Y0111100D01*
X0128894Y0110400D01*
X0127600Y0109106D01*
X0126900Y0107415D01*
X0126900Y0105585D01*
X0127600Y0103894D01*
X0128894Y0102600D01*
X0130585Y0101900D01*
X0132415Y0101900D01*
X0134106Y0102600D01*
X0135400Y0103894D01*
X0136100Y0105585D01*
X0136100Y0107415D01*
X0135400Y0109106D01*
X0134106Y0110400D01*
X0135166Y0109339D02*
X0137834Y0109339D01*
X0137283Y0108341D02*
X0135717Y0108341D01*
X0136100Y0107342D02*
X0136900Y0107342D01*
X0136900Y0106344D02*
X0136100Y0106344D01*
X0136001Y0105345D02*
X0136999Y0105345D01*
X0137413Y0104347D02*
X0135587Y0104347D01*
X0134854Y0103348D02*
X0138146Y0103348D01*
X0139499Y0102350D02*
X0133501Y0102350D01*
X0129499Y0102350D02*
X0123501Y0102350D01*
X0124106Y0102600D02*
X0125400Y0103894D01*
X0126100Y0105585D01*
X0126100Y0107415D01*
X0125400Y0109106D01*
X0124106Y0110400D01*
X0122415Y0111100D01*
X0120585Y0111100D01*
X0118894Y0110400D01*
X0117600Y0109106D01*
X0116900Y0107415D01*
X0116900Y0105585D01*
X0117600Y0103894D01*
X0118894Y0102600D01*
X0120585Y0101900D01*
X0122415Y0101900D01*
X0124106Y0102600D01*
X0124854Y0103348D02*
X0128146Y0103348D01*
X0127413Y0104347D02*
X0125587Y0104347D01*
X0126001Y0105345D02*
X0126999Y0105345D01*
X0126900Y0106344D02*
X0126100Y0106344D01*
X0126100Y0107342D02*
X0126900Y0107342D01*
X0127283Y0108341D02*
X0125717Y0108341D01*
X0125166Y0109339D02*
X0127834Y0109339D01*
X0128832Y0110338D02*
X0124168Y0110338D01*
X0118832Y0110338D02*
X0114168Y0110338D01*
X0114106Y0110400D02*
X0112415Y0111100D01*
X0110585Y0111100D01*
X0108894Y0110400D01*
X0107600Y0109106D01*
X0106900Y0107415D01*
X0106900Y0105585D01*
X0107600Y0103894D01*
X0108894Y0102600D01*
X0110585Y0101900D01*
X0112415Y0101900D01*
X0114106Y0102600D01*
X0115400Y0103894D01*
X0116100Y0105585D01*
X0116100Y0107415D01*
X0115400Y0109106D01*
X0114106Y0110400D01*
X0115166Y0109339D02*
X0117834Y0109339D01*
X0117283Y0108341D02*
X0115717Y0108341D01*
X0116100Y0107342D02*
X0116900Y0107342D01*
X0116900Y0106344D02*
X0116100Y0106344D01*
X0116001Y0105345D02*
X0116999Y0105345D01*
X0117413Y0104347D02*
X0115587Y0104347D01*
X0114854Y0103348D02*
X0118146Y0103348D01*
X0119499Y0102350D02*
X0113501Y0102350D01*
X0109499Y0102350D02*
X0103501Y0102350D01*
X0104106Y0102600D02*
X0105400Y0103894D01*
X0106100Y0105585D01*
X0106100Y0107415D01*
X0105400Y0109106D01*
X0104106Y0110400D01*
X0102415Y0111100D01*
X0100585Y0111100D01*
X0098894Y0110400D01*
X0097600Y0109106D01*
X0096900Y0107415D01*
X0096900Y0105585D01*
X0097600Y0103894D01*
X0098894Y0102600D01*
X0100585Y0101900D01*
X0102415Y0101900D01*
X0104106Y0102600D01*
X0104854Y0103348D02*
X0108146Y0103348D01*
X0107413Y0104347D02*
X0105587Y0104347D01*
X0106001Y0105345D02*
X0106999Y0105345D01*
X0106900Y0106344D02*
X0106100Y0106344D01*
X0106100Y0107342D02*
X0106900Y0107342D01*
X0107283Y0108341D02*
X0105717Y0108341D01*
X0105166Y0109339D02*
X0107834Y0109339D01*
X0108832Y0110338D02*
X0104168Y0110338D01*
X0098832Y0110338D02*
X0094168Y0110338D01*
X0094106Y0110400D02*
X0092415Y0111100D01*
X0090585Y0111100D01*
X0088894Y0110400D01*
X0087600Y0109106D01*
X0086900Y0107415D01*
X0086900Y0105585D01*
X0087600Y0103894D01*
X0088894Y0102600D01*
X0090585Y0101900D01*
X0092415Y0101900D01*
X0094106Y0102600D01*
X0095400Y0103894D01*
X0096100Y0105585D01*
X0096100Y0107415D01*
X0095400Y0109106D01*
X0094106Y0110400D01*
X0095166Y0109339D02*
X0097834Y0109339D01*
X0097283Y0108341D02*
X0095717Y0108341D01*
X0096100Y0107342D02*
X0096900Y0107342D01*
X0096900Y0106344D02*
X0096100Y0106344D01*
X0096001Y0105345D02*
X0096999Y0105345D01*
X0097413Y0104347D02*
X0095587Y0104347D01*
X0094854Y0103348D02*
X0098146Y0103348D01*
X0099499Y0102350D02*
X0093501Y0102350D01*
X0089499Y0102350D02*
X0083501Y0102350D01*
X0084106Y0102600D02*
X0085400Y0103894D01*
X0086100Y0105585D01*
X0086100Y0107415D01*
X0085400Y0109106D01*
X0084106Y0110400D01*
X0082415Y0111100D01*
X0080585Y0111100D01*
X0078894Y0110400D01*
X0077600Y0109106D01*
X0076900Y0107415D01*
X0076900Y0105585D01*
X0077600Y0103894D01*
X0078894Y0102600D01*
X0080585Y0101900D01*
X0082415Y0101900D01*
X0084106Y0102600D01*
X0084854Y0103348D02*
X0088146Y0103348D01*
X0087413Y0104347D02*
X0085587Y0104347D01*
X0086001Y0105345D02*
X0086999Y0105345D01*
X0086900Y0106344D02*
X0086100Y0106344D01*
X0086100Y0107342D02*
X0086900Y0107342D01*
X0087283Y0108341D02*
X0085717Y0108341D01*
X0085166Y0109339D02*
X0087834Y0109339D01*
X0088832Y0110338D02*
X0084168Y0110338D01*
X0083465Y0112335D02*
X0274400Y0112335D01*
X0274400Y0113333D02*
X0084839Y0113333D01*
X0085400Y0113894D02*
X0086100Y0115585D01*
X0086100Y0117415D01*
X0085400Y0119106D01*
X0084106Y0120400D01*
X0082415Y0121100D01*
X0080585Y0121100D01*
X0078894Y0120400D01*
X0077600Y0119106D01*
X0076900Y0117415D01*
X0076900Y0115585D01*
X0077600Y0113894D01*
X0078894Y0112600D01*
X0080585Y0111900D01*
X0082415Y0111900D01*
X0084106Y0112600D01*
X0085400Y0113894D01*
X0085581Y0114332D02*
X0274400Y0114332D01*
X0274400Y0115330D02*
X0085994Y0115330D01*
X0086100Y0116329D02*
X0274400Y0116329D01*
X0274400Y0117327D02*
X0086100Y0117327D01*
X0085723Y0118326D02*
X0274400Y0118326D01*
X0274400Y0119324D02*
X0085181Y0119324D01*
X0084183Y0120323D02*
X0274400Y0120323D01*
X0274400Y0121321D02*
X0003600Y0121321D01*
X0003600Y0120323D02*
X0078817Y0120323D01*
X0077819Y0119324D02*
X0003600Y0119324D01*
X0003600Y0118326D02*
X0077277Y0118326D01*
X0076900Y0117327D02*
X0037948Y0117327D01*
X0037682Y0117414D02*
X0036714Y0117567D01*
X0032000Y0117567D01*
X0032000Y0111843D01*
X0031000Y0111843D01*
X0031000Y0117567D01*
X0026286Y0117567D01*
X0025318Y0117414D01*
X0024386Y0117111D01*
X0023513Y0116666D01*
X0022721Y0116090D01*
X0022028Y0115397D01*
X0021452Y0114605D01*
X0021007Y0113732D01*
X0020704Y0112800D01*
X0020553Y0111842D01*
X0031000Y0111842D01*
X0031000Y0110843D01*
X0020553Y0110843D01*
X0020704Y0109885D01*
X0021007Y0108953D01*
X0021452Y0108080D01*
X0022028Y0107288D01*
X0022721Y0106595D01*
X0023513Y0106019D01*
X0024386Y0105574D01*
X0025318Y0105271D01*
X0026286Y0105118D01*
X0031000Y0105118D01*
X0031000Y0110842D01*
X0032000Y0110842D01*
X0032000Y0105118D01*
X0036714Y0105118D01*
X0037682Y0105271D01*
X0038614Y0105574D01*
X0039487Y0106019D01*
X0040279Y0106595D01*
X0040972Y0107288D01*
X0041548Y0108080D01*
X0041993Y0108953D01*
X0042296Y0109885D01*
X0042447Y0110843D01*
X0032000Y0110843D01*
X0032000Y0111842D01*
X0042447Y0111842D01*
X0042296Y0112800D01*
X0041993Y0113732D01*
X0041548Y0114605D01*
X0040972Y0115397D01*
X0040279Y0116090D01*
X0039487Y0116666D01*
X0038614Y0117111D01*
X0037682Y0117414D01*
X0039951Y0116329D02*
X0076900Y0116329D01*
X0077005Y0115330D02*
X0041021Y0115330D01*
X0041687Y0114332D02*
X0077419Y0114332D01*
X0078161Y0113333D02*
X0042122Y0113333D01*
X0042369Y0112335D02*
X0079535Y0112335D01*
X0078832Y0110338D02*
X0042367Y0110338D01*
X0042118Y0109339D02*
X0077834Y0109339D01*
X0077283Y0108341D02*
X0041681Y0108341D01*
X0041012Y0107342D02*
X0076900Y0107342D01*
X0076900Y0106344D02*
X0039934Y0106344D01*
X0037909Y0105345D02*
X0076999Y0105345D01*
X0077413Y0104347D02*
X0003600Y0104347D01*
X0003600Y0105345D02*
X0025091Y0105345D01*
X0023066Y0106344D02*
X0003600Y0106344D01*
X0003600Y0107342D02*
X0021988Y0107342D01*
X0021319Y0108341D02*
X0003600Y0108341D01*
X0003600Y0109339D02*
X0020882Y0109339D01*
X0020633Y0110338D02*
X0003600Y0110338D01*
X0003600Y0111336D02*
X0031000Y0111336D01*
X0031000Y0110338D02*
X0032000Y0110338D01*
X0032000Y0111336D02*
X0274400Y0111336D01*
X0274400Y0122320D02*
X0003600Y0122320D01*
X0003600Y0123318D02*
X0274400Y0123318D01*
X0274400Y0124317D02*
X0003600Y0124317D01*
X0003600Y0125315D02*
X0274400Y0125315D01*
X0274400Y0126314D02*
X0003600Y0126314D01*
X0003600Y0127312D02*
X0274400Y0127312D01*
X0274400Y0128311D02*
X0003600Y0128311D01*
X0003600Y0129309D02*
X0274400Y0129309D01*
X0274400Y0130308D02*
X0003600Y0130308D01*
X0003600Y0131306D02*
X0274400Y0131306D01*
X0274400Y0132305D02*
X0082828Y0132305D01*
X0082530Y0132208D02*
X0083189Y0132422D01*
X0083806Y0132737D01*
X0084366Y0133144D01*
X0084856Y0133634D01*
X0085263Y0134194D01*
X0085578Y0134811D01*
X0085792Y0135470D01*
X0085884Y0136050D01*
X0081950Y0136050D01*
X0081950Y0136950D01*
X0081050Y0136950D01*
X0081050Y0140884D01*
X0080470Y0140792D01*
X0079811Y0140578D01*
X0079194Y0140263D01*
X0078634Y0139856D01*
X0078144Y0139366D01*
X0077737Y0138806D01*
X0077422Y0138189D01*
X0077208Y0137530D01*
X0077116Y0136950D01*
X0081050Y0136950D01*
X0081050Y0136050D01*
X0077116Y0136050D01*
X0077208Y0135470D01*
X0077422Y0134811D01*
X0077737Y0134194D01*
X0078144Y0133634D01*
X0078634Y0133144D01*
X0079194Y0132737D01*
X0079811Y0132422D01*
X0080470Y0132208D01*
X0081050Y0132116D01*
X0081050Y0136050D01*
X0081950Y0136050D01*
X0081950Y0132116D01*
X0082530Y0132208D01*
X0081950Y0132305D02*
X0081050Y0132305D01*
X0080172Y0132305D02*
X0003600Y0132305D01*
X0003600Y0133303D02*
X0078474Y0133303D01*
X0077682Y0134302D02*
X0003600Y0134302D01*
X0003600Y0135301D02*
X0077263Y0135301D01*
X0077171Y0137298D02*
X0003600Y0137298D01*
X0003600Y0138296D02*
X0077477Y0138296D01*
X0078092Y0139295D02*
X0003600Y0139295D01*
X0003600Y0140293D02*
X0079253Y0140293D01*
X0081050Y0140293D02*
X0081950Y0140293D01*
X0081950Y0140884D02*
X0081950Y0136950D01*
X0085884Y0136950D01*
X0085792Y0137530D01*
X0085578Y0138189D01*
X0085263Y0138806D01*
X0084856Y0139366D01*
X0084366Y0139856D01*
X0083806Y0140263D01*
X0083189Y0140578D01*
X0082530Y0140792D01*
X0081950Y0140884D01*
X0082415Y0141900D02*
X0084106Y0142600D01*
X0085400Y0143894D01*
X0086100Y0145585D01*
X0086100Y0147415D01*
X0085400Y0149106D01*
X0084106Y0150400D01*
X0082415Y0151100D01*
X0080585Y0151100D01*
X0078894Y0150400D01*
X0077600Y0149106D01*
X0076900Y0147415D01*
X0076900Y0145585D01*
X0077600Y0143894D01*
X0078894Y0142600D01*
X0080585Y0141900D01*
X0082415Y0141900D01*
X0083357Y0142290D02*
X0274400Y0142290D01*
X0274400Y0141292D02*
X0039297Y0141292D01*
X0039864Y0141526D02*
X0041671Y0143333D01*
X0042649Y0145695D01*
X0042649Y0148250D01*
X0041671Y0150612D01*
X0039864Y0152419D01*
X0037502Y0153397D01*
X0025498Y0153397D01*
X0023136Y0152419D01*
X0021329Y0150612D01*
X0020351Y0148250D01*
X0020351Y0145695D01*
X0021329Y0143333D01*
X0023136Y0141526D01*
X0025498Y0140548D01*
X0037502Y0140548D01*
X0039864Y0141526D01*
X0040628Y0142290D02*
X0079643Y0142290D01*
X0078206Y0143289D02*
X0041626Y0143289D01*
X0042066Y0144287D02*
X0077438Y0144287D01*
X0077024Y0145286D02*
X0042479Y0145286D01*
X0042649Y0146284D02*
X0076900Y0146284D01*
X0076900Y0147283D02*
X0042649Y0147283D01*
X0042636Y0148281D02*
X0077259Y0148281D01*
X0077774Y0149280D02*
X0042222Y0149280D01*
X0041809Y0150278D02*
X0078773Y0150278D01*
X0079679Y0152275D02*
X0040007Y0152275D01*
X0041006Y0151277D02*
X0274400Y0151277D01*
X0274400Y0152275D02*
X0083321Y0152275D01*
X0084106Y0152600D02*
X0082415Y0151900D01*
X0080585Y0151900D01*
X0078894Y0152600D01*
X0077600Y0153894D01*
X0076900Y0155585D01*
X0076900Y0157415D01*
X0077600Y0159106D01*
X0078894Y0160400D01*
X0080585Y0161100D01*
X0082415Y0161100D01*
X0084106Y0160400D01*
X0085400Y0159106D01*
X0086100Y0157415D01*
X0086100Y0155585D01*
X0085400Y0153894D01*
X0084106Y0152600D01*
X0084779Y0153274D02*
X0274400Y0153274D01*
X0274400Y0154272D02*
X0085556Y0154272D01*
X0085970Y0155271D02*
X0274400Y0155271D01*
X0274400Y0156269D02*
X0086100Y0156269D01*
X0086100Y0157268D02*
X0274400Y0157268D01*
X0274400Y0158266D02*
X0085747Y0158266D01*
X0085241Y0159265D02*
X0274400Y0159265D01*
X0274400Y0160263D02*
X0084242Y0160263D01*
X0083285Y0162260D02*
X0089715Y0162260D01*
X0088894Y0162600D02*
X0090585Y0161900D01*
X0092415Y0161900D01*
X0094106Y0162600D01*
X0095400Y0163894D01*
X0096100Y0165585D01*
X0096100Y0167415D01*
X0095400Y0169106D01*
X0094106Y0170400D01*
X0092415Y0171100D01*
X0090585Y0171100D01*
X0088894Y0170400D01*
X0087600Y0169106D01*
X0086900Y0167415D01*
X0086900Y0165585D01*
X0087600Y0163894D01*
X0088894Y0162600D01*
X0088236Y0163259D02*
X0084764Y0163259D01*
X0085400Y0163894D02*
X0086100Y0165585D01*
X0086100Y0167415D01*
X0085400Y0169106D01*
X0084106Y0170400D01*
X0082415Y0171100D01*
X0080585Y0171100D01*
X0078894Y0170400D01*
X0077600Y0169106D01*
X0076900Y0167415D01*
X0076900Y0165585D01*
X0077600Y0163894D01*
X0078894Y0162600D01*
X0080585Y0161900D01*
X0082415Y0161900D01*
X0084106Y0162600D01*
X0085400Y0163894D01*
X0085550Y0164257D02*
X0087450Y0164257D01*
X0087036Y0165256D02*
X0085964Y0165256D01*
X0086100Y0166254D02*
X0086900Y0166254D01*
X0086900Y0167253D02*
X0086100Y0167253D01*
X0085754Y0168251D02*
X0087246Y0168251D01*
X0087745Y0169250D02*
X0085255Y0169250D01*
X0084257Y0170248D02*
X0088743Y0170248D01*
X0094257Y0170248D02*
X0098743Y0170248D01*
X0098894Y0170400D02*
X0097600Y0169106D01*
X0096900Y0167415D01*
X0096900Y0165585D01*
X0097600Y0163894D01*
X0098894Y0162600D01*
X0100585Y0161900D01*
X0102415Y0161900D01*
X0104106Y0162600D01*
X0105400Y0163894D01*
X0106100Y0165585D01*
X0106100Y0167415D01*
X0105400Y0169106D01*
X0104106Y0170400D01*
X0102415Y0171100D01*
X0100585Y0171100D01*
X0098894Y0170400D01*
X0097745Y0169250D02*
X0095255Y0169250D01*
X0095754Y0168251D02*
X0097246Y0168251D01*
X0096900Y0167253D02*
X0096100Y0167253D01*
X0096100Y0166254D02*
X0096900Y0166254D01*
X0097036Y0165256D02*
X0095964Y0165256D01*
X0095550Y0164257D02*
X0097450Y0164257D01*
X0098236Y0163259D02*
X0094764Y0163259D01*
X0093285Y0162260D02*
X0099715Y0162260D01*
X0103285Y0162260D02*
X0109715Y0162260D01*
X0108894Y0162600D02*
X0110585Y0161900D01*
X0112415Y0161900D01*
X0114106Y0162600D01*
X0115400Y0163894D01*
X0116100Y0165585D01*
X0116100Y0167415D01*
X0115400Y0169106D01*
X0114106Y0170400D01*
X0112415Y0171100D01*
X0110585Y0171100D01*
X0108894Y0170400D01*
X0107600Y0169106D01*
X0106900Y0167415D01*
X0106900Y0165585D01*
X0107600Y0163894D01*
X0108894Y0162600D01*
X0108236Y0163259D02*
X0104764Y0163259D01*
X0105550Y0164257D02*
X0107450Y0164257D01*
X0107036Y0165256D02*
X0105964Y0165256D01*
X0106100Y0166254D02*
X0106900Y0166254D01*
X0106900Y0167253D02*
X0106100Y0167253D01*
X0105754Y0168251D02*
X0107246Y0168251D01*
X0107745Y0169250D02*
X0105255Y0169250D01*
X0104257Y0170248D02*
X0108743Y0170248D01*
X0114257Y0170248D02*
X0118743Y0170248D01*
X0118894Y0170400D02*
X0117600Y0169106D01*
X0116900Y0167415D01*
X0116900Y0165585D01*
X0117600Y0163894D01*
X0118894Y0162600D01*
X0120585Y0161900D01*
X0122415Y0161900D01*
X0124106Y0162600D01*
X0125400Y0163894D01*
X0126100Y0165585D01*
X0126100Y0167415D01*
X0125400Y0169106D01*
X0124106Y0170400D01*
X0122415Y0171100D01*
X0120585Y0171100D01*
X0118894Y0170400D01*
X0117745Y0169250D02*
X0115255Y0169250D01*
X0115754Y0168251D02*
X0117246Y0168251D01*
X0116900Y0167253D02*
X0116100Y0167253D01*
X0116100Y0166254D02*
X0116900Y0166254D01*
X0117036Y0165256D02*
X0115964Y0165256D01*
X0115550Y0164257D02*
X0117450Y0164257D01*
X0118236Y0163259D02*
X0114764Y0163259D01*
X0113285Y0162260D02*
X0119715Y0162260D01*
X0123285Y0162260D02*
X0129715Y0162260D01*
X0128894Y0162600D02*
X0130585Y0161900D01*
X0132415Y0161900D01*
X0134106Y0162600D01*
X0135400Y0163894D01*
X0136100Y0165585D01*
X0136100Y0167415D01*
X0135400Y0169106D01*
X0134106Y0170400D01*
X0132415Y0171100D01*
X0130585Y0171100D01*
X0128894Y0170400D01*
X0127600Y0169106D01*
X0126900Y0167415D01*
X0126900Y0165585D01*
X0127600Y0163894D01*
X0128894Y0162600D01*
X0128236Y0163259D02*
X0124764Y0163259D01*
X0125550Y0164257D02*
X0127450Y0164257D01*
X0127036Y0165256D02*
X0125964Y0165256D01*
X0126100Y0166254D02*
X0126900Y0166254D01*
X0126900Y0167253D02*
X0126100Y0167253D01*
X0125754Y0168251D02*
X0127246Y0168251D01*
X0127745Y0169250D02*
X0125255Y0169250D01*
X0124257Y0170248D02*
X0128743Y0170248D01*
X0134257Y0170248D02*
X0138743Y0170248D01*
X0138894Y0170400D02*
X0137600Y0169106D01*
X0136900Y0167415D01*
X0136900Y0165585D01*
X0137600Y0163894D01*
X0138894Y0162600D01*
X0140585Y0161900D01*
X0142415Y0161900D01*
X0144106Y0162600D01*
X0145400Y0163894D01*
X0146100Y0165585D01*
X0146100Y0167415D01*
X0145400Y0169106D01*
X0144106Y0170400D01*
X0142415Y0171100D01*
X0140585Y0171100D01*
X0138894Y0170400D01*
X0137745Y0169250D02*
X0135255Y0169250D01*
X0135754Y0168251D02*
X0137246Y0168251D01*
X0136900Y0167253D02*
X0136100Y0167253D01*
X0136100Y0166254D02*
X0136900Y0166254D01*
X0137036Y0165256D02*
X0135964Y0165256D01*
X0135550Y0164257D02*
X0137450Y0164257D01*
X0138236Y0163259D02*
X0134764Y0163259D01*
X0133285Y0162260D02*
X0139715Y0162260D01*
X0143285Y0162260D02*
X0149715Y0162260D01*
X0148894Y0162600D02*
X0150585Y0161900D01*
X0152415Y0161900D01*
X0154106Y0162600D01*
X0155400Y0163894D01*
X0156100Y0165585D01*
X0156100Y0167415D01*
X0155400Y0169106D01*
X0154106Y0170400D01*
X0152415Y0171100D01*
X0150585Y0171100D01*
X0148894Y0170400D01*
X0147600Y0169106D01*
X0146900Y0167415D01*
X0146900Y0165585D01*
X0147600Y0163894D01*
X0148894Y0162600D01*
X0148236Y0163259D02*
X0144764Y0163259D01*
X0145550Y0164257D02*
X0147450Y0164257D01*
X0147036Y0165256D02*
X0145964Y0165256D01*
X0146100Y0166254D02*
X0146900Y0166254D01*
X0146900Y0167253D02*
X0146100Y0167253D01*
X0145754Y0168251D02*
X0147246Y0168251D01*
X0147745Y0169250D02*
X0145255Y0169250D01*
X0144257Y0170248D02*
X0148743Y0170248D01*
X0154257Y0170248D02*
X0158743Y0170248D01*
X0158894Y0170400D02*
X0157600Y0169106D01*
X0156900Y0167415D01*
X0156900Y0165585D01*
X0157600Y0163894D01*
X0158894Y0162600D01*
X0160585Y0161900D01*
X0162415Y0161900D01*
X0164106Y0162600D01*
X0165400Y0163894D01*
X0166100Y0165585D01*
X0166100Y0167415D01*
X0165400Y0169106D01*
X0164106Y0170400D01*
X0162415Y0171100D01*
X0160585Y0171100D01*
X0158894Y0170400D01*
X0157745Y0169250D02*
X0155255Y0169250D01*
X0155754Y0168251D02*
X0157246Y0168251D01*
X0156900Y0167253D02*
X0156100Y0167253D01*
X0156100Y0166254D02*
X0156900Y0166254D01*
X0157036Y0165256D02*
X0155964Y0165256D01*
X0155550Y0164257D02*
X0157450Y0164257D01*
X0158236Y0163259D02*
X0154764Y0163259D01*
X0153285Y0162260D02*
X0159715Y0162260D01*
X0163285Y0162260D02*
X0169715Y0162260D01*
X0168894Y0162600D02*
X0170585Y0161900D01*
X0172415Y0161900D01*
X0174106Y0162600D01*
X0175400Y0163894D01*
X0176100Y0165585D01*
X0176100Y0167415D01*
X0175400Y0169106D01*
X0174106Y0170400D01*
X0172415Y0171100D01*
X0170585Y0171100D01*
X0168894Y0170400D01*
X0167600Y0169106D01*
X0166900Y0167415D01*
X0166900Y0165585D01*
X0167600Y0163894D01*
X0168894Y0162600D01*
X0168236Y0163259D02*
X0164764Y0163259D01*
X0165550Y0164257D02*
X0167450Y0164257D01*
X0167036Y0165256D02*
X0165964Y0165256D01*
X0166100Y0166254D02*
X0166900Y0166254D01*
X0166900Y0167253D02*
X0166100Y0167253D01*
X0165754Y0168251D02*
X0167246Y0168251D01*
X0167745Y0169250D02*
X0165255Y0169250D01*
X0164257Y0170248D02*
X0168743Y0170248D01*
X0174257Y0170248D02*
X0178743Y0170248D01*
X0178894Y0170400D02*
X0177600Y0169106D01*
X0176900Y0167415D01*
X0176900Y0165585D01*
X0177600Y0163894D01*
X0178894Y0162600D01*
X0180585Y0161900D01*
X0182415Y0161900D01*
X0184106Y0162600D01*
X0185400Y0163894D01*
X0186100Y0165585D01*
X0186100Y0167415D01*
X0185400Y0169106D01*
X0184106Y0170400D01*
X0182415Y0171100D01*
X0180585Y0171100D01*
X0178894Y0170400D01*
X0177745Y0169250D02*
X0175255Y0169250D01*
X0175754Y0168251D02*
X0177246Y0168251D01*
X0176900Y0167253D02*
X0176100Y0167253D01*
X0176100Y0166254D02*
X0176900Y0166254D01*
X0177036Y0165256D02*
X0175964Y0165256D01*
X0175550Y0164257D02*
X0177450Y0164257D01*
X0178236Y0163259D02*
X0174764Y0163259D01*
X0173285Y0162260D02*
X0179715Y0162260D01*
X0183285Y0162260D02*
X0189715Y0162260D01*
X0188894Y0162600D02*
X0190585Y0161900D01*
X0192415Y0161900D01*
X0194106Y0162600D01*
X0195400Y0163894D01*
X0196100Y0165585D01*
X0196100Y0167415D01*
X0195400Y0169106D01*
X0194106Y0170400D01*
X0192415Y0171100D01*
X0190585Y0171100D01*
X0188894Y0170400D01*
X0187600Y0169106D01*
X0186900Y0167415D01*
X0186900Y0165585D01*
X0187600Y0163894D01*
X0188894Y0162600D01*
X0188236Y0163259D02*
X0184764Y0163259D01*
X0185550Y0164257D02*
X0187450Y0164257D01*
X0187036Y0165256D02*
X0185964Y0165256D01*
X0186100Y0166254D02*
X0186900Y0166254D01*
X0186900Y0167253D02*
X0186100Y0167253D01*
X0185754Y0168251D02*
X0187246Y0168251D01*
X0187745Y0169250D02*
X0185255Y0169250D01*
X0184257Y0170248D02*
X0188743Y0170248D01*
X0194257Y0170248D02*
X0198743Y0170248D01*
X0198894Y0170400D02*
X0197600Y0169106D01*
X0196900Y0167415D01*
X0196900Y0165585D01*
X0197600Y0163894D01*
X0198894Y0162600D01*
X0200585Y0161900D01*
X0202415Y0161900D01*
X0204106Y0162600D01*
X0205400Y0163894D01*
X0206100Y0165585D01*
X0206100Y0167415D01*
X0205400Y0169106D01*
X0204106Y0170400D01*
X0202415Y0171100D01*
X0200585Y0171100D01*
X0198894Y0170400D01*
X0197745Y0169250D02*
X0195255Y0169250D01*
X0195754Y0168251D02*
X0197246Y0168251D01*
X0196900Y0167253D02*
X0196100Y0167253D01*
X0196100Y0166254D02*
X0196900Y0166254D01*
X0197036Y0165256D02*
X0195964Y0165256D01*
X0195550Y0164257D02*
X0197450Y0164257D01*
X0198236Y0163259D02*
X0194764Y0163259D01*
X0193285Y0162260D02*
X0199715Y0162260D01*
X0203285Y0162260D02*
X0210310Y0162260D01*
X0210470Y0162208D02*
X0209811Y0162422D01*
X0209194Y0162737D01*
X0208634Y0163144D01*
X0208144Y0163634D01*
X0207737Y0164194D01*
X0207422Y0164811D01*
X0207208Y0165470D01*
X0207116Y0166050D01*
X0211050Y0166050D01*
X0211050Y0166950D01*
X0211050Y0170884D01*
X0210470Y0170792D01*
X0209811Y0170578D01*
X0209194Y0170263D01*
X0208634Y0169856D01*
X0208144Y0169366D01*
X0207737Y0168806D01*
X0207422Y0168189D01*
X0207208Y0167530D01*
X0207116Y0166950D01*
X0211050Y0166950D01*
X0211950Y0166950D01*
X0211950Y0170884D01*
X0212530Y0170792D01*
X0213189Y0170578D01*
X0213806Y0170263D01*
X0214366Y0169856D01*
X0214856Y0169366D01*
X0215263Y0168806D01*
X0215578Y0168189D01*
X0215792Y0167530D01*
X0215884Y0166950D01*
X0211950Y0166950D01*
X0211950Y0166050D01*
X0215884Y0166050D01*
X0215792Y0165470D01*
X0215578Y0164811D01*
X0215263Y0164194D01*
X0214856Y0163634D01*
X0214366Y0163144D01*
X0213806Y0162737D01*
X0213189Y0162422D01*
X0212530Y0162208D01*
X0211950Y0162116D01*
X0211950Y0166050D01*
X0211050Y0166050D01*
X0211050Y0162116D01*
X0210470Y0162208D01*
X0211050Y0162260D02*
X0211950Y0162260D01*
X0212690Y0162260D02*
X0274400Y0162260D01*
X0274400Y0161262D02*
X0039914Y0161262D01*
X0039864Y0161211D02*
X0041671Y0163018D01*
X0042649Y0165380D01*
X0042649Y0167935D01*
X0041671Y0170297D01*
X0039864Y0172104D01*
X0037502Y0173082D01*
X0025498Y0173082D01*
X0023136Y0172104D01*
X0021329Y0170297D01*
X0020351Y0167935D01*
X0020351Y0165380D01*
X0021329Y0163018D01*
X0023136Y0161211D01*
X0025498Y0160233D01*
X0037502Y0160233D01*
X0039864Y0161211D01*
X0040913Y0162260D02*
X0079715Y0162260D01*
X0078236Y0163259D02*
X0041770Y0163259D01*
X0042184Y0164257D02*
X0077450Y0164257D01*
X0077036Y0165256D02*
X0042598Y0165256D01*
X0042649Y0166254D02*
X0076900Y0166254D01*
X0076900Y0167253D02*
X0042649Y0167253D01*
X0042518Y0168251D02*
X0077246Y0168251D01*
X0077745Y0169250D02*
X0042104Y0169250D01*
X0041691Y0170248D02*
X0078743Y0170248D01*
X0078758Y0160263D02*
X0037575Y0160263D01*
X0037800Y0153274D02*
X0078221Y0153274D01*
X0077444Y0154272D02*
X0003600Y0154272D01*
X0003600Y0153274D02*
X0025200Y0153274D01*
X0022993Y0152275D02*
X0003600Y0152275D01*
X0003600Y0151277D02*
X0021994Y0151277D01*
X0021191Y0150278D02*
X0003600Y0150278D01*
X0003600Y0149280D02*
X0020778Y0149280D01*
X0020364Y0148281D02*
X0003600Y0148281D01*
X0003600Y0147283D02*
X0020351Y0147283D01*
X0020351Y0146284D02*
X0003600Y0146284D01*
X0003600Y0145286D02*
X0020521Y0145286D01*
X0020934Y0144287D02*
X0003600Y0144287D01*
X0003600Y0143289D02*
X0021374Y0143289D01*
X0022372Y0142290D02*
X0003600Y0142290D01*
X0003600Y0141292D02*
X0023703Y0141292D01*
X0003600Y0136299D02*
X0081050Y0136299D01*
X0081950Y0136299D02*
X0274400Y0136299D01*
X0274400Y0135301D02*
X0085737Y0135301D01*
X0085318Y0134302D02*
X0274400Y0134302D01*
X0274400Y0133303D02*
X0084526Y0133303D01*
X0081950Y0133303D02*
X0081050Y0133303D01*
X0081050Y0134302D02*
X0081950Y0134302D01*
X0081950Y0135301D02*
X0081050Y0135301D01*
X0081050Y0137298D02*
X0081950Y0137298D01*
X0081950Y0138296D02*
X0081050Y0138296D01*
X0081050Y0139295D02*
X0081950Y0139295D01*
X0083747Y0140293D02*
X0274400Y0140293D01*
X0274400Y0139295D02*
X0084908Y0139295D01*
X0085523Y0138296D02*
X0274400Y0138296D01*
X0274400Y0137298D02*
X0085829Y0137298D01*
X0084794Y0143289D02*
X0274400Y0143289D01*
X0274400Y0144287D02*
X0085562Y0144287D01*
X0085976Y0145286D02*
X0274400Y0145286D01*
X0274400Y0146284D02*
X0086100Y0146284D01*
X0086100Y0147283D02*
X0274400Y0147283D01*
X0274400Y0148281D02*
X0085741Y0148281D01*
X0085226Y0149280D02*
X0274400Y0149280D01*
X0274400Y0150278D02*
X0084227Y0150278D01*
X0077030Y0155271D02*
X0003600Y0155271D01*
X0003600Y0156269D02*
X0076900Y0156269D01*
X0076900Y0157268D02*
X0003600Y0157268D01*
X0003600Y0158266D02*
X0077253Y0158266D01*
X0077759Y0159265D02*
X0003600Y0159265D01*
X0003600Y0160263D02*
X0025425Y0160263D01*
X0023086Y0161262D02*
X0003600Y0161262D01*
X0003600Y0162260D02*
X0022087Y0162260D01*
X0021230Y0163259D02*
X0003600Y0163259D01*
X0003600Y0164257D02*
X0020816Y0164257D01*
X0020402Y0165256D02*
X0003600Y0165256D01*
X0003600Y0166254D02*
X0020351Y0166254D01*
X0020351Y0167253D02*
X0003600Y0167253D01*
X0003600Y0168251D02*
X0020482Y0168251D01*
X0020896Y0169250D02*
X0003600Y0169250D01*
X0003600Y0170248D02*
X0021309Y0170248D01*
X0022280Y0171247D02*
X0003600Y0171247D01*
X0003600Y0172245D02*
X0023478Y0172245D01*
X0025318Y0180271D02*
X0024386Y0180574D01*
X0023513Y0181019D01*
X0022721Y0181595D01*
X0022028Y0182288D01*
X0021452Y0183080D01*
X0021007Y0183953D01*
X0020704Y0184885D01*
X0020553Y0185843D01*
X0031000Y0185843D01*
X0031000Y0186842D01*
X0020553Y0186842D01*
X0020704Y0187800D01*
X0021007Y0188732D01*
X0021452Y0189605D01*
X0022028Y0190397D01*
X0022721Y0191090D01*
X0023513Y0191666D01*
X0024386Y0192111D01*
X0025318Y0192414D01*
X0026286Y0192567D01*
X0031000Y0192567D01*
X0031000Y0186843D01*
X0032000Y0186843D01*
X0032000Y0192567D01*
X0036714Y0192567D01*
X0037682Y0192414D01*
X0038614Y0192111D01*
X0039487Y0191666D01*
X0040279Y0191090D01*
X0040972Y0190397D01*
X0041548Y0189605D01*
X0041993Y0188732D01*
X0042296Y0187800D01*
X0042447Y0186842D01*
X0032000Y0186842D01*
X0032000Y0185843D01*
X0042447Y0185843D01*
X0042296Y0184885D01*
X0041993Y0183953D01*
X0041548Y0183080D01*
X0040972Y0182288D01*
X0040279Y0181595D01*
X0039487Y0181019D01*
X0038614Y0180574D01*
X0037682Y0180271D01*
X0036714Y0180118D01*
X0032000Y0180118D01*
X0032000Y0185842D01*
X0031000Y0185842D01*
X0031000Y0180118D01*
X0026286Y0180118D01*
X0025318Y0180271D01*
X0025557Y0180234D02*
X0003600Y0180234D01*
X0003600Y0181232D02*
X0023220Y0181232D01*
X0022085Y0182231D02*
X0003600Y0182231D01*
X0003600Y0183229D02*
X0021376Y0183229D01*
X0020918Y0184228D02*
X0003600Y0184228D01*
X0003600Y0185226D02*
X0020650Y0185226D01*
X0020613Y0187223D02*
X0003600Y0187223D01*
X0003600Y0186225D02*
X0031000Y0186225D01*
X0031000Y0187223D02*
X0032000Y0187223D01*
X0032000Y0186225D02*
X0274400Y0186225D01*
X0274400Y0187223D02*
X0042387Y0187223D01*
X0042159Y0188222D02*
X0274400Y0188222D01*
X0274400Y0189220D02*
X0041744Y0189220D01*
X0041102Y0190219D02*
X0274400Y0190219D01*
X0274400Y0191217D02*
X0040105Y0191217D01*
X0038291Y0192216D02*
X0274400Y0192216D01*
X0274400Y0193214D02*
X0003600Y0193214D01*
X0003600Y0192216D02*
X0024709Y0192216D01*
X0022895Y0191217D02*
X0003600Y0191217D01*
X0003600Y0190219D02*
X0021898Y0190219D01*
X0021256Y0189220D02*
X0003600Y0189220D01*
X0003600Y0188222D02*
X0020841Y0188222D01*
X0031000Y0188222D02*
X0032000Y0188222D01*
X0032000Y0189220D02*
X0031000Y0189220D01*
X0031000Y0190219D02*
X0032000Y0190219D01*
X0032000Y0191217D02*
X0031000Y0191217D01*
X0031000Y0192216D02*
X0032000Y0192216D01*
X0032000Y0185226D02*
X0031000Y0185226D01*
X0031000Y0184228D02*
X0032000Y0184228D01*
X0032000Y0183229D02*
X0031000Y0183229D01*
X0031000Y0182231D02*
X0032000Y0182231D01*
X0032000Y0181232D02*
X0031000Y0181232D01*
X0031000Y0180234D02*
X0032000Y0180234D01*
X0037443Y0180234D02*
X0274400Y0180234D01*
X0274400Y0181232D02*
X0039780Y0181232D01*
X0040915Y0182231D02*
X0274400Y0182231D01*
X0274400Y0183229D02*
X0041624Y0183229D01*
X0042082Y0184228D02*
X0274400Y0184228D01*
X0274400Y0185226D02*
X0042350Y0185226D01*
X0039522Y0172245D02*
X0274400Y0172245D01*
X0274400Y0171247D02*
X0040720Y0171247D01*
X0003600Y0173244D02*
X0274400Y0173244D01*
X0274400Y0174242D02*
X0003600Y0174242D01*
X0003600Y0175241D02*
X0274400Y0175241D01*
X0274400Y0176239D02*
X0003600Y0176239D01*
X0003600Y0177238D02*
X0274400Y0177238D01*
X0274400Y0178237D02*
X0003600Y0178237D01*
X0003600Y0179235D02*
X0274400Y0179235D01*
X0274400Y0170248D02*
X0213826Y0170248D01*
X0214941Y0169250D02*
X0274400Y0169250D01*
X0274400Y0168251D02*
X0215546Y0168251D01*
X0215836Y0167253D02*
X0274400Y0167253D01*
X0274400Y0166254D02*
X0211950Y0166254D01*
X0211050Y0166254D02*
X0206100Y0166254D01*
X0206100Y0167253D02*
X0207164Y0167253D01*
X0207454Y0168251D02*
X0205754Y0168251D01*
X0205255Y0169250D02*
X0208059Y0169250D01*
X0209174Y0170248D02*
X0204257Y0170248D01*
X0205964Y0165256D02*
X0207278Y0165256D01*
X0207704Y0164257D02*
X0205550Y0164257D01*
X0204764Y0163259D02*
X0208519Y0163259D01*
X0211050Y0163259D02*
X0211950Y0163259D01*
X0211950Y0164257D02*
X0211050Y0164257D01*
X0211050Y0165256D02*
X0211950Y0165256D01*
X0211950Y0167253D02*
X0211050Y0167253D01*
X0211050Y0168251D02*
X0211950Y0168251D01*
X0211950Y0169250D02*
X0211050Y0169250D01*
X0211050Y0170248D02*
X0211950Y0170248D01*
X0215722Y0165256D02*
X0274400Y0165256D01*
X0274400Y0164257D02*
X0215296Y0164257D01*
X0214481Y0163259D02*
X0274400Y0163259D01*
X0274400Y0194213D02*
X0003600Y0194213D01*
X0003600Y0195211D02*
X0274400Y0195211D01*
X0274400Y0196210D02*
X0003600Y0196210D01*
X0003600Y0197208D02*
X0274400Y0197208D01*
X0274400Y0198207D02*
X0003600Y0198207D01*
X0003600Y0199205D02*
X0274400Y0199205D01*
X0274400Y0200204D02*
X0003600Y0200204D01*
X0003600Y0201202D02*
X0274400Y0201202D01*
X0274400Y0202201D02*
X0003600Y0202201D01*
X0003600Y0203199D02*
X0274400Y0203199D01*
X0274400Y0204198D02*
X0260729Y0204198D01*
X0260885Y0204245D02*
X0262065Y0204734D01*
X0263191Y0205336D01*
X0264253Y0206046D01*
X0265241Y0206856D01*
X0266144Y0207759D01*
X0266954Y0208747D01*
X0267664Y0209809D01*
X0268266Y0210935D01*
X0268755Y0212115D01*
X0269126Y0213337D01*
X0269375Y0214590D01*
X0269500Y0215861D01*
X0269500Y0216000D01*
X0257000Y0216000D01*
X0257000Y0217000D01*
X0269500Y0217000D01*
X0269500Y0217139D01*
X0269375Y0218410D01*
X0269126Y0219663D01*
X0268755Y0220885D01*
X0268266Y0222065D01*
X0267664Y0223191D01*
X0266954Y0224253D01*
X0266144Y0225241D01*
X0265241Y0226144D01*
X0264253Y0226954D01*
X0263191Y0227664D01*
X0262065Y0228266D01*
X0260885Y0228755D01*
X0259663Y0229126D01*
X0258410Y0229375D01*
X0257139Y0229500D01*
X0257000Y0229500D01*
X0257000Y0217000D01*
X0256000Y0217000D01*
X0256000Y0229500D01*
X0255861Y0229500D01*
X0254590Y0229375D01*
X0253337Y0229126D01*
X0252115Y0228755D01*
X0250935Y0228266D01*
X0249809Y0227664D01*
X0248747Y0226954D01*
X0247759Y0226144D01*
X0246856Y0225241D01*
X0246046Y0224253D01*
X0245336Y0223191D01*
X0244734Y0222065D01*
X0244245Y0220885D01*
X0243874Y0219663D01*
X0243625Y0218410D01*
X0243500Y0217139D01*
X0243500Y0217000D01*
X0256000Y0217000D01*
X0256000Y0216000D01*
X0257000Y0216000D01*
X0257000Y0203500D01*
X0257139Y0203500D01*
X0258410Y0203625D01*
X0259663Y0203874D01*
X0260885Y0204245D01*
X0262930Y0205196D02*
X0274400Y0205196D01*
X0274400Y0206195D02*
X0264435Y0206195D01*
X0265578Y0207193D02*
X0274400Y0207193D01*
X0274400Y0208192D02*
X0266499Y0208192D01*
X0267251Y0209190D02*
X0274400Y0209190D01*
X0274400Y0210189D02*
X0267867Y0210189D01*
X0268371Y0211187D02*
X0274400Y0211187D01*
X0274400Y0212186D02*
X0268776Y0212186D01*
X0269079Y0213184D02*
X0274400Y0213184D01*
X0274400Y0214183D02*
X0269294Y0214183D01*
X0269433Y0215181D02*
X0274400Y0215181D01*
X0274400Y0216180D02*
X0257000Y0216180D01*
X0257000Y0217178D02*
X0256000Y0217178D01*
X0256000Y0216180D02*
X0022000Y0216180D01*
X0022000Y0216000D02*
X0022000Y0217000D01*
X0034500Y0217000D01*
X0034500Y0217139D01*
X0034375Y0218410D01*
X0034126Y0219663D01*
X0033755Y0220885D01*
X0033266Y0222065D01*
X0032664Y0223191D01*
X0031954Y0224253D01*
X0031144Y0225241D01*
X0030241Y0226144D01*
X0029253Y0226954D01*
X0028191Y0227664D01*
X0027065Y0228266D01*
X0025885Y0228755D01*
X0024663Y0229126D01*
X0023410Y0229375D01*
X0022139Y0229500D01*
X0022000Y0229500D01*
X0022000Y0217000D01*
X0021000Y0217000D01*
X0021000Y0229500D01*
X0020861Y0229500D01*
X0019590Y0229375D01*
X0018337Y0229126D01*
X0017115Y0228755D01*
X0015935Y0228266D01*
X0014809Y0227664D01*
X0013747Y0226954D01*
X0012759Y0226144D01*
X0011856Y0225241D01*
X0011046Y0224253D01*
X0010336Y0223191D01*
X0009734Y0222065D01*
X0009245Y0220885D01*
X0008874Y0219663D01*
X0008625Y0218410D01*
X0008500Y0217139D01*
X0008500Y0217000D01*
X0021000Y0217000D01*
X0021000Y0216000D01*
X0022000Y0216000D01*
X0034500Y0216000D01*
X0034500Y0215861D01*
X0034375Y0214590D01*
X0034126Y0213337D01*
X0033755Y0212115D01*
X0033266Y0210935D01*
X0032664Y0209809D01*
X0031954Y0208747D01*
X0031144Y0207759D01*
X0030241Y0206856D01*
X0029253Y0206046D01*
X0028191Y0205336D01*
X0027065Y0204734D01*
X0025885Y0204245D01*
X0024663Y0203874D01*
X0023410Y0203625D01*
X0022139Y0203500D01*
X0022000Y0203500D01*
X0022000Y0216000D01*
X0022000Y0215181D02*
X0021000Y0215181D01*
X0021000Y0216000D02*
X0021000Y0203500D01*
X0020861Y0203500D01*
X0019590Y0203625D01*
X0018337Y0203874D01*
X0017115Y0204245D01*
X0015935Y0204734D01*
X0014809Y0205336D01*
X0013747Y0206046D01*
X0012759Y0206856D01*
X0011856Y0207759D01*
X0011046Y0208747D01*
X0010336Y0209809D01*
X0009734Y0210935D01*
X0009245Y0212115D01*
X0008874Y0213337D01*
X0008625Y0214590D01*
X0008500Y0215861D01*
X0008500Y0216000D01*
X0021000Y0216000D01*
X0021000Y0216180D02*
X0003600Y0216180D01*
X0003600Y0217178D02*
X0008504Y0217178D01*
X0008602Y0218177D02*
X0003600Y0218177D01*
X0003600Y0219175D02*
X0008778Y0219175D01*
X0009030Y0220174D02*
X0003600Y0220174D01*
X0003600Y0221172D02*
X0009364Y0221172D01*
X0009791Y0222171D02*
X0003600Y0222171D01*
X0003600Y0223170D02*
X0010324Y0223170D01*
X0010989Y0224168D02*
X0003600Y0224168D01*
X0003600Y0225167D02*
X0011795Y0225167D01*
X0012785Y0226165D02*
X0003600Y0226165D01*
X0003600Y0227164D02*
X0014060Y0227164D01*
X0015741Y0228162D02*
X0003600Y0228162D01*
X0003600Y0229161D02*
X0018513Y0229161D01*
X0021000Y0229161D02*
X0022000Y0229161D01*
X0022000Y0228162D02*
X0021000Y0228162D01*
X0021000Y0227164D02*
X0022000Y0227164D01*
X0022000Y0226165D02*
X0021000Y0226165D01*
X0021000Y0225167D02*
X0022000Y0225167D01*
X0022000Y0224168D02*
X0021000Y0224168D01*
X0021000Y0223170D02*
X0022000Y0223170D01*
X0022000Y0222171D02*
X0021000Y0222171D01*
X0021000Y0221172D02*
X0022000Y0221172D01*
X0022000Y0220174D02*
X0021000Y0220174D01*
X0021000Y0219175D02*
X0022000Y0219175D01*
X0022000Y0218177D02*
X0021000Y0218177D01*
X0021000Y0217178D02*
X0022000Y0217178D01*
X0022000Y0214183D02*
X0021000Y0214183D01*
X0021000Y0213184D02*
X0022000Y0213184D01*
X0022000Y0212186D02*
X0021000Y0212186D01*
X0021000Y0211187D02*
X0022000Y0211187D01*
X0022000Y0210189D02*
X0021000Y0210189D01*
X0021000Y0209190D02*
X0022000Y0209190D01*
X0022000Y0208192D02*
X0021000Y0208192D01*
X0021000Y0207193D02*
X0022000Y0207193D01*
X0022000Y0206195D02*
X0021000Y0206195D01*
X0021000Y0205196D02*
X0022000Y0205196D01*
X0022000Y0204198D02*
X0021000Y0204198D01*
X0017271Y0204198D02*
X0003600Y0204198D01*
X0003600Y0205196D02*
X0015070Y0205196D01*
X0013565Y0206195D02*
X0003600Y0206195D01*
X0003600Y0207193D02*
X0012422Y0207193D01*
X0011501Y0208192D02*
X0003600Y0208192D01*
X0003600Y0209190D02*
X0010749Y0209190D01*
X0010133Y0210189D02*
X0003600Y0210189D01*
X0003600Y0211187D02*
X0009629Y0211187D01*
X0009224Y0212186D02*
X0003600Y0212186D01*
X0003600Y0213184D02*
X0008921Y0213184D01*
X0008706Y0214183D02*
X0003600Y0214183D01*
X0003600Y0215181D02*
X0008567Y0215181D01*
X0003600Y0230159D02*
X0274400Y0230159D01*
X0274400Y0229161D02*
X0259487Y0229161D01*
X0257000Y0229161D02*
X0256000Y0229161D01*
X0256000Y0228162D02*
X0257000Y0228162D01*
X0257000Y0227164D02*
X0256000Y0227164D01*
X0256000Y0226165D02*
X0257000Y0226165D01*
X0257000Y0225167D02*
X0256000Y0225167D01*
X0256000Y0224168D02*
X0257000Y0224168D01*
X0257000Y0223170D02*
X0256000Y0223170D01*
X0256000Y0222171D02*
X0257000Y0222171D01*
X0257000Y0221172D02*
X0256000Y0221172D01*
X0256000Y0220174D02*
X0257000Y0220174D01*
X0257000Y0219175D02*
X0256000Y0219175D01*
X0256000Y0218177D02*
X0257000Y0218177D01*
X0256000Y0216000D02*
X0243500Y0216000D01*
X0243500Y0215861D01*
X0243625Y0214590D01*
X0243874Y0213337D01*
X0244245Y0212115D01*
X0244734Y0210935D01*
X0245336Y0209809D01*
X0246046Y0208747D01*
X0246856Y0207759D01*
X0247759Y0206856D01*
X0248747Y0206046D01*
X0249809Y0205336D01*
X0250935Y0204734D01*
X0252115Y0204245D01*
X0253337Y0203874D01*
X0254590Y0203625D01*
X0255861Y0203500D01*
X0256000Y0203500D01*
X0256000Y0216000D01*
X0256000Y0215181D02*
X0257000Y0215181D01*
X0257000Y0214183D02*
X0256000Y0214183D01*
X0256000Y0213184D02*
X0257000Y0213184D01*
X0257000Y0212186D02*
X0256000Y0212186D01*
X0256000Y0211187D02*
X0257000Y0211187D01*
X0257000Y0210189D02*
X0256000Y0210189D01*
X0256000Y0209190D02*
X0257000Y0209190D01*
X0257000Y0208192D02*
X0256000Y0208192D01*
X0256000Y0207193D02*
X0257000Y0207193D01*
X0257000Y0206195D02*
X0256000Y0206195D01*
X0256000Y0205196D02*
X0257000Y0205196D01*
X0257000Y0204198D02*
X0256000Y0204198D01*
X0252271Y0204198D02*
X0025729Y0204198D01*
X0027930Y0205196D02*
X0250070Y0205196D01*
X0248565Y0206195D02*
X0029435Y0206195D01*
X0030578Y0207193D02*
X0247422Y0207193D01*
X0246501Y0208192D02*
X0031499Y0208192D01*
X0032251Y0209190D02*
X0245749Y0209190D01*
X0245133Y0210189D02*
X0032867Y0210189D01*
X0033371Y0211187D02*
X0244629Y0211187D01*
X0244224Y0212186D02*
X0033776Y0212186D01*
X0034079Y0213184D02*
X0243921Y0213184D01*
X0243706Y0214183D02*
X0034294Y0214183D01*
X0034433Y0215181D02*
X0243567Y0215181D01*
X0243504Y0217178D02*
X0034496Y0217178D01*
X0034398Y0218177D02*
X0243602Y0218177D01*
X0243778Y0219175D02*
X0034222Y0219175D01*
X0033970Y0220174D02*
X0244030Y0220174D01*
X0244364Y0221172D02*
X0033636Y0221172D01*
X0033209Y0222171D02*
X0244791Y0222171D01*
X0245324Y0223170D02*
X0032676Y0223170D01*
X0032011Y0224168D02*
X0245989Y0224168D01*
X0246795Y0225167D02*
X0031205Y0225167D01*
X0030215Y0226165D02*
X0247785Y0226165D01*
X0249060Y0227164D02*
X0028940Y0227164D01*
X0027259Y0228162D02*
X0250741Y0228162D01*
X0253513Y0229161D02*
X0024487Y0229161D01*
X0003600Y0231158D02*
X0274400Y0231158D01*
X0274400Y0232156D02*
X0003600Y0232156D01*
X0003600Y0233155D02*
X0274400Y0233155D01*
X0274400Y0234153D02*
X0003600Y0234153D01*
X0003600Y0117327D02*
X0025052Y0117327D01*
X0023049Y0116329D02*
X0003600Y0116329D01*
X0003600Y0115330D02*
X0021979Y0115330D01*
X0021313Y0114332D02*
X0003600Y0114332D01*
X0003600Y0113333D02*
X0020878Y0113333D01*
X0020631Y0112335D02*
X0003600Y0112335D01*
X0003600Y0103348D02*
X0078146Y0103348D01*
X0079499Y0102350D02*
X0003600Y0102350D01*
X0003600Y0097357D02*
X0023748Y0097357D01*
X0022391Y0096359D02*
X0003600Y0096359D01*
X0003600Y0095360D02*
X0021393Y0095360D01*
X0020942Y0094362D02*
X0003600Y0094362D01*
X0003600Y0093363D02*
X0020528Y0093363D01*
X0020351Y0092365D02*
X0003600Y0092365D01*
X0003600Y0091366D02*
X0020351Y0091366D01*
X0020356Y0090368D02*
X0003600Y0090368D01*
X0003600Y0089369D02*
X0020770Y0089369D01*
X0021183Y0088370D02*
X0003600Y0088370D01*
X0003600Y0087372D02*
X0021976Y0087372D01*
X0022974Y0086373D02*
X0003600Y0086373D01*
X0003600Y0085375D02*
X0025155Y0085375D01*
X0025470Y0078385D02*
X0003600Y0078385D01*
X0003600Y0077387D02*
X0023105Y0077387D01*
X0022106Y0076388D02*
X0003600Y0076388D01*
X0003600Y0075390D02*
X0021237Y0075390D01*
X0020824Y0074391D02*
X0003600Y0074391D01*
X0003600Y0073393D02*
X0020410Y0073393D01*
X0020351Y0072394D02*
X0003600Y0072394D01*
X0003600Y0071396D02*
X0020351Y0071396D01*
X0020474Y0070397D02*
X0003600Y0070397D01*
X0003600Y0069399D02*
X0020888Y0069399D01*
X0021301Y0068400D02*
X0003600Y0068400D01*
X0003600Y0067402D02*
X0022261Y0067402D01*
X0023433Y0066403D02*
X0003600Y0066403D01*
X0003600Y0065405D02*
X0274400Y0065405D01*
X0274400Y0066403D02*
X0039567Y0066403D01*
X0040739Y0067402D02*
X0274400Y0067402D01*
X0274400Y0068400D02*
X0041698Y0068400D01*
X0037845Y0085375D02*
X0145438Y0085375D01*
X0145438Y0084376D02*
X0003600Y0084376D01*
X0003600Y0083378D02*
X0145438Y0083378D01*
X0145668Y0082379D02*
X0003600Y0082379D01*
X0003600Y0081381D02*
X0146081Y0081381D01*
X0145507Y0086373D02*
X0040026Y0086373D01*
X0041024Y0087372D02*
X0145920Y0087372D01*
X0146334Y0088370D02*
X0041817Y0088370D01*
X0042230Y0089369D02*
X0146828Y0089369D01*
X0147826Y0090368D02*
X0042644Y0090368D01*
X0042649Y0091366D02*
X0148825Y0091366D01*
X0161249Y0081381D02*
X0238228Y0081381D01*
X0237230Y0080382D02*
X0160836Y0080382D01*
X0160114Y0079384D02*
X0236582Y0079384D01*
X0236168Y0078385D02*
X0159115Y0078385D01*
X0157821Y0077387D02*
X0235851Y0077387D01*
X0235851Y0076388D02*
X0155411Y0076388D01*
X0189131Y0059414D02*
X0236694Y0059414D01*
X0236507Y0059047D02*
X0236204Y0058115D01*
X0236053Y0057157D01*
X0246500Y0057157D01*
X0246500Y0056157D01*
X0247500Y0056157D01*
X0247500Y0050433D01*
X0252214Y0050433D01*
X0253182Y0050586D01*
X0254114Y0050889D01*
X0254987Y0051334D01*
X0255779Y0051910D01*
X0256472Y0052603D01*
X0257048Y0053395D01*
X0257493Y0054268D01*
X0257796Y0055200D01*
X0257947Y0056157D01*
X0247500Y0056157D01*
X0247500Y0057157D01*
X0257947Y0057157D01*
X0257796Y0058115D01*
X0257493Y0059047D01*
X0257048Y0059920D01*
X0256472Y0060712D01*
X0255779Y0061405D01*
X0254987Y0061981D01*
X0254114Y0062426D01*
X0253182Y0062729D01*
X0252214Y0062882D01*
X0247500Y0062882D01*
X0247500Y0057158D01*
X0246500Y0057158D01*
X0246500Y0062882D01*
X0241786Y0062882D01*
X0240818Y0062729D01*
X0239886Y0062426D01*
X0239013Y0061981D01*
X0238221Y0061405D01*
X0237528Y0060712D01*
X0236952Y0059920D01*
X0236507Y0059047D01*
X0236302Y0058415D02*
X0191457Y0058415D01*
X0192455Y0057417D02*
X0236094Y0057417D01*
X0236053Y0056157D02*
X0236204Y0055200D01*
X0236507Y0054268D01*
X0236952Y0053395D01*
X0237528Y0052603D01*
X0238221Y0051910D01*
X0239013Y0051334D01*
X0239886Y0050889D01*
X0240818Y0050586D01*
X0241786Y0050433D01*
X0246500Y0050433D01*
X0246500Y0056157D01*
X0236053Y0056157D01*
X0236170Y0055420D02*
X0194018Y0055420D01*
X0194432Y0054421D02*
X0236457Y0054421D01*
X0236938Y0053423D02*
X0194845Y0053423D01*
X0194964Y0052424D02*
X0237706Y0052424D01*
X0238887Y0051426D02*
X0194964Y0051426D01*
X0194964Y0050427D02*
X0274400Y0050427D01*
X0274400Y0049429D02*
X0194784Y0049429D01*
X0194370Y0048430D02*
X0274400Y0048430D01*
X0274400Y0047432D02*
X0193956Y0047432D01*
X0193305Y0046433D02*
X0274400Y0046433D01*
X0274400Y0045434D02*
X0192306Y0045434D01*
X0191182Y0044436D02*
X0274400Y0044436D01*
X0274400Y0051426D02*
X0255113Y0051426D01*
X0256294Y0052424D02*
X0274400Y0052424D01*
X0274400Y0053423D02*
X0257062Y0053423D01*
X0257542Y0054421D02*
X0274400Y0054421D01*
X0274400Y0055420D02*
X0257830Y0055420D01*
X0257906Y0057417D02*
X0274400Y0057417D01*
X0274400Y0058415D02*
X0257698Y0058415D01*
X0257306Y0059414D02*
X0274400Y0059414D01*
X0274400Y0060412D02*
X0256690Y0060412D01*
X0255772Y0061411D02*
X0274400Y0061411D01*
X0274400Y0062409D02*
X0254146Y0062409D01*
X0247500Y0062409D02*
X0246500Y0062409D01*
X0246500Y0061411D02*
X0247500Y0061411D01*
X0247500Y0060412D02*
X0246500Y0060412D01*
X0246500Y0059414D02*
X0247500Y0059414D01*
X0247500Y0058415D02*
X0246500Y0058415D01*
X0246500Y0057417D02*
X0247500Y0057417D01*
X0247500Y0056418D02*
X0274400Y0056418D01*
X0274400Y0063408D02*
X0003600Y0063408D01*
X0003600Y0064406D02*
X0274400Y0064406D01*
X0247500Y0055420D02*
X0246500Y0055420D01*
X0246500Y0056418D02*
X0193454Y0056418D01*
X0237310Y0060412D02*
X0003600Y0060412D01*
X0003600Y0061411D02*
X0238228Y0061411D01*
X0239854Y0062409D02*
X0003600Y0062409D01*
X0031000Y0105345D02*
X0032000Y0105345D01*
X0032000Y0106344D02*
X0031000Y0106344D01*
X0031000Y0107342D02*
X0032000Y0107342D01*
X0032000Y0108341D02*
X0031000Y0108341D01*
X0031000Y0109339D02*
X0032000Y0109339D01*
X0032000Y0112335D02*
X0031000Y0112335D01*
X0031000Y0113333D02*
X0032000Y0113333D01*
X0032000Y0114332D02*
X0031000Y0114332D01*
X0031000Y0115330D02*
X0032000Y0115330D01*
X0032000Y0116329D02*
X0031000Y0116329D01*
X0031000Y0117327D02*
X0032000Y0117327D01*
X0066157Y0041440D02*
X0067157Y0041440D01*
X0067157Y0040442D02*
X0066157Y0040442D01*
X0066157Y0039443D02*
X0067157Y0039443D01*
X0067157Y0038445D02*
X0066157Y0038445D01*
X0066157Y0037446D02*
X0067157Y0037446D01*
X0067157Y0036448D02*
X0066157Y0036448D01*
X0066157Y0035449D02*
X0067157Y0035449D01*
X0067157Y0034451D02*
X0066157Y0034451D01*
X0066157Y0033452D02*
X0067157Y0033452D01*
X0067157Y0032454D02*
X0066157Y0032454D01*
X0066157Y0029458D02*
X0067157Y0029458D01*
X0067157Y0028460D02*
X0066157Y0028460D01*
X0066157Y0027461D02*
X0067157Y0027461D01*
X0067157Y0026463D02*
X0066157Y0026463D01*
X0066157Y0025464D02*
X0067157Y0025464D01*
X0067157Y0024466D02*
X0066157Y0024466D01*
X0066157Y0023467D02*
X0067157Y0023467D01*
X0067157Y0022469D02*
X0066157Y0022469D01*
X0066157Y0021470D02*
X0067157Y0021470D01*
X0194168Y0110338D02*
X0199340Y0110338D01*
X0198124Y0109339D02*
X0195166Y0109339D01*
X0195717Y0108341D02*
X0197500Y0108341D01*
X0197179Y0107342D02*
X0196100Y0107342D01*
X0201050Y0108341D02*
X0201950Y0108341D01*
X0201950Y0109339D02*
X0201050Y0109339D01*
X0201050Y0110338D02*
X0201950Y0110338D01*
X0246500Y0054421D02*
X0247500Y0054421D01*
X0247500Y0053423D02*
X0246500Y0053423D01*
X0246500Y0052424D02*
X0247500Y0052424D01*
X0247500Y0051426D02*
X0246500Y0051426D01*
X0256000Y0033452D02*
X0257000Y0033452D01*
X0257000Y0032454D02*
X0256000Y0032454D01*
X0256000Y0031455D02*
X0257000Y0031455D01*
X0257000Y0030457D02*
X0256000Y0030457D01*
X0256000Y0029458D02*
X0257000Y0029458D01*
X0257000Y0028460D02*
X0256000Y0028460D01*
X0256000Y0027461D02*
X0257000Y0027461D01*
X0257000Y0026463D02*
X0256000Y0026463D01*
X0256000Y0025464D02*
X0257000Y0025464D01*
X0257000Y0024466D02*
X0256000Y0024466D01*
X0256000Y0023467D02*
X0257000Y0023467D01*
X0257000Y0022469D02*
X0256000Y0022469D01*
X0256000Y0019473D02*
X0257000Y0019473D01*
X0257000Y0018475D02*
X0256000Y0018475D01*
X0256000Y0017476D02*
X0257000Y0017476D01*
X0257000Y0016478D02*
X0256000Y0016478D01*
X0256000Y0015479D02*
X0257000Y0015479D01*
X0257000Y0014481D02*
X0256000Y0014481D01*
X0256000Y0013482D02*
X0257000Y0013482D01*
X0257000Y0012484D02*
X0256000Y0012484D01*
X0256000Y0011485D02*
X0257000Y0011485D01*
X0257000Y0010487D02*
X0256000Y0010487D01*
X0256000Y0009488D02*
X0257000Y0009488D01*
X0269467Y0022469D02*
X0274400Y0022469D01*
X0274400Y0023467D02*
X0269363Y0023467D01*
X0269165Y0024466D02*
X0274400Y0024466D01*
X0274400Y0025464D02*
X0268882Y0025464D01*
X0268515Y0026463D02*
X0274400Y0026463D01*
X0274400Y0027461D02*
X0268054Y0027461D01*
X0267485Y0028460D02*
X0274400Y0028460D01*
X0274400Y0029458D02*
X0266786Y0029458D01*
X0265928Y0030457D02*
X0274400Y0030457D01*
X0274400Y0031455D02*
X0264861Y0031455D01*
X0263506Y0032454D02*
X0274400Y0032454D01*
X0274400Y0033452D02*
X0261615Y0033452D01*
X0269496Y0217178D02*
X0274400Y0217178D01*
X0274400Y0218177D02*
X0269398Y0218177D01*
X0269222Y0219175D02*
X0274400Y0219175D01*
X0274400Y0220174D02*
X0268970Y0220174D01*
X0268636Y0221172D02*
X0274400Y0221172D01*
X0274400Y0222171D02*
X0268209Y0222171D01*
X0267676Y0223170D02*
X0274400Y0223170D01*
X0274400Y0224168D02*
X0267011Y0224168D01*
X0266205Y0225167D02*
X0274400Y0225167D01*
X0274400Y0226165D02*
X0265215Y0226165D01*
X0263940Y0227164D02*
X0274400Y0227164D01*
X0274400Y0228162D02*
X0262259Y0228162D01*
D16*
X0261500Y0196500D03*
X0261500Y0171500D03*
X0226500Y0111500D03*
X0221500Y0091500D03*
X0181500Y0081500D03*
X0136500Y0036500D03*
X0116500Y0016500D03*
X0066500Y0066500D03*
X0046500Y0051500D03*
X0016500Y0051500D03*
X0046500Y0021500D03*
X0066500Y0121500D03*
X0066500Y0141500D03*
X0098500Y0181500D03*
X0118500Y0181500D03*
X0141500Y0181500D03*
X0191500Y0186500D03*
X0123500Y0226500D03*
X0098500Y0226500D03*
X0066500Y0226500D03*
X0046500Y0226500D03*
X0066500Y0201500D03*
X0261500Y0106500D03*
X0226500Y0031500D03*
X0206500Y0016500D03*
M02*
