G75*
%MOIN*%
%OFA0B0*%
%FSLAX25Y25*%
%IPPOS*%
%LPD*%
%AMOC8*
5,1,8,0,0,1.08239X$1,22.5*
%
%ADD10C,0.00800*%
%ADD11C,0.01000*%
%ADD12C,0.00600*%
%ADD13R,0.03000X0.01500*%
%ADD14C,0.01500*%
%ADD15R,0.01500X0.03000*%
%ADD16R,0.03000X0.03400*%
%ADD17R,0.03000X0.01800*%
%ADD18C,0.00400*%
%ADD19R,0.01800X0.03000*%
%ADD20R,1.03550X0.00050*%
%ADD21R,1.04250X0.00050*%
%ADD22R,1.04650X0.00050*%
%ADD23R,1.05000X0.00050*%
%ADD24R,1.05300X0.00050*%
%ADD25R,1.05500X0.00050*%
%ADD26R,1.05750X0.00050*%
%ADD27R,1.05950X0.00050*%
%ADD28R,1.06150X0.00050*%
%ADD29R,1.06300X0.00050*%
%ADD30R,1.06500X0.00050*%
%ADD31R,1.06650X0.00050*%
%ADD32R,1.06800X0.00050*%
%ADD33R,1.06900X0.00050*%
%ADD34R,1.07100X0.00050*%
%ADD35R,1.07200X0.00050*%
%ADD36R,1.07350X0.00050*%
%ADD37R,1.07450X0.00050*%
%ADD38R,1.07500X0.00050*%
%ADD39R,1.07650X0.00050*%
%ADD40R,1.07750X0.00050*%
%ADD41R,1.07850X0.00050*%
%ADD42R,1.07950X0.00050*%
%ADD43R,1.08000X0.00050*%
%ADD44R,1.08100X0.00050*%
%ADD45R,1.08200X0.00050*%
%ADD46R,1.08250X0.00050*%
%ADD47R,1.08350X0.00050*%
%ADD48R,1.08400X0.00050*%
%ADD49R,1.08500X0.00050*%
%ADD50R,0.02400X0.00050*%
%ADD51R,0.03000X0.00050*%
%ADD52R,0.02150X0.00050*%
%ADD53R,0.02750X0.00050*%
%ADD54R,0.02000X0.00050*%
%ADD55R,0.02650X0.00050*%
%ADD56R,0.01950X0.00050*%
%ADD57R,0.02500X0.00050*%
%ADD58R,0.01900X0.00050*%
%ADD59R,0.01800X0.00050*%
%ADD60R,0.02350X0.00050*%
%ADD61R,0.02300X0.00050*%
%ADD62R,0.01750X0.00050*%
%ADD63R,0.02200X0.00050*%
%ADD64R,0.01700X0.00050*%
%ADD65R,0.01650X0.00050*%
%ADD66R,0.02050X0.00050*%
%ADD67R,0.01600X0.00050*%
%ADD68R,0.01550X0.00050*%
%ADD69R,0.01850X0.00050*%
%ADD70R,0.01500X0.00050*%
%ADD71R,0.07000X0.00050*%
%ADD72R,0.02550X0.00050*%
%ADD73R,0.03800X0.00050*%
%ADD74R,0.05700X0.00050*%
%ADD75R,0.03850X0.00050*%
%ADD76R,0.07050X0.00050*%
%ADD77R,0.04000X0.00050*%
%ADD78R,0.05750X0.00050*%
%ADD79R,0.02850X0.00050*%
%ADD80R,0.03950X0.00050*%
%ADD81R,0.03400X0.00050*%
%ADD82R,0.04150X0.00050*%
%ADD83R,0.02950X0.00050*%
%ADD84R,0.03700X0.00050*%
%ADD85R,0.04250X0.00050*%
%ADD86R,0.04300X0.00050*%
%ADD87R,0.04400X0.00050*%
%ADD88R,0.03100X0.00050*%
%ADD89R,0.04350X0.00050*%
%ADD90R,0.04200X0.00050*%
%ADD91R,0.04500X0.00050*%
%ADD92R,0.04450X0.00050*%
%ADD93R,0.04550X0.00050*%
%ADD94R,0.03150X0.00050*%
%ADD95R,0.04650X0.00050*%
%ADD96R,0.03200X0.00050*%
%ADD97R,0.04600X0.00050*%
%ADD98R,0.04800X0.00050*%
%ADD99R,0.04700X0.00050*%
%ADD100R,0.04950X0.00050*%
%ADD101R,0.04750X0.00050*%
%ADD102R,0.03250X0.00050*%
%ADD103R,0.05150X0.00050*%
%ADD104R,0.04850X0.00050*%
%ADD105R,0.03300X0.00050*%
%ADD106R,0.05300X0.00050*%
%ADD107R,0.04900X0.00050*%
%ADD108R,0.05450X0.00050*%
%ADD109R,0.05600X0.00050*%
%ADD110R,0.05000X0.00050*%
%ADD111R,0.03350X0.00050*%
%ADD112R,0.05050X0.00050*%
%ADD113R,0.05850X0.00050*%
%ADD114R,0.05950X0.00050*%
%ADD115R,0.05100X0.00050*%
%ADD116R,0.06050X0.00050*%
%ADD117R,0.06150X0.00050*%
%ADD118R,0.05200X0.00050*%
%ADD119R,0.06300X0.00050*%
%ADD120R,0.05250X0.00050*%
%ADD121R,0.06350X0.00050*%
%ADD122R,0.06450X0.00050*%
%ADD123R,0.06600X0.00050*%
%ADD124R,0.06650X0.00050*%
%ADD125R,0.06750X0.00050*%
%ADD126R,0.05350X0.00050*%
%ADD127R,0.06800X0.00050*%
%ADD128R,0.05400X0.00050*%
%ADD129R,0.06900X0.00050*%
%ADD130R,0.07150X0.00050*%
%ADD131R,0.07200X0.00050*%
%ADD132R,0.05500X0.00050*%
%ADD133R,0.07250X0.00050*%
%ADD134R,0.07300X0.00050*%
%ADD135R,0.07400X0.00050*%
%ADD136R,0.05550X0.00050*%
%ADD137R,0.07450X0.00050*%
%ADD138R,0.02900X0.00050*%
%ADD139R,0.02100X0.00050*%
%ADD140R,0.02600X0.00050*%
%ADD141R,0.02700X0.00050*%
%ADD142R,0.02450X0.00050*%
%ADD143R,0.03450X0.00050*%
%ADD144R,0.03550X0.00050*%
%ADD145R,0.03650X0.00050*%
%ADD146R,0.02250X0.00050*%
%ADD147R,0.03750X0.00050*%
%ADD148R,0.04050X0.00050*%
%ADD149R,0.04100X0.00050*%
%ADD150R,0.07500X0.00050*%
%ADD151R,0.07550X0.00050*%
%ADD152R,0.07350X0.00050*%
%ADD153R,0.05800X0.00050*%
%ADD154R,0.03500X0.00050*%
%ADD155R,0.07100X0.00050*%
%ADD156R,0.06950X0.00050*%
%ADD157R,0.06850X0.00050*%
%ADD158R,0.06700X0.00050*%
%ADD159R,0.06500X0.00050*%
%ADD160R,0.06200X0.00050*%
%ADD161R,0.05900X0.00050*%
%ADD162R,0.05650X0.00050*%
%ADD163R,0.06550X0.00050*%
%ADD164R,0.06400X0.00050*%
%ADD165R,0.06250X0.00050*%
%ADD166R,0.03600X0.00050*%
%ADD167R,0.02800X0.00050*%
%ADD168R,1.08550X0.00050*%
%ADD169R,1.08150X0.00050*%
%ADD170R,1.07900X0.00050*%
%ADD171R,1.07700X0.00050*%
%ADD172R,1.07600X0.00050*%
%ADD173R,1.07400X0.00050*%
%ADD174R,1.07250X0.00050*%
%ADD175R,1.07150X0.00050*%
%ADD176R,1.07000X0.00050*%
%ADD177R,1.06750X0.00050*%
%ADD178R,1.06550X0.00050*%
%ADD179R,1.06450X0.00050*%
%ADD180R,1.06100X0.00050*%
%ADD181R,1.05850X0.00050*%
%ADD182R,1.05650X0.00050*%
%ADD183R,1.05450X0.00050*%
%ADD184R,1.05200X0.00050*%
%ADD185R,1.04850X0.00050*%
%ADD186R,1.04500X0.00050*%
%ADD187R,1.04050X0.00050*%
%ADD188R,1.03050X0.00050*%
D10*
X0001500Y0001500D02*
X0276500Y0001500D01*
X0276500Y0236500D01*
X0001500Y0236500D01*
X0001500Y0001500D01*
X0015201Y0021500D02*
X0015203Y0021658D01*
X0015209Y0021816D01*
X0015219Y0021974D01*
X0015233Y0022132D01*
X0015251Y0022289D01*
X0015272Y0022446D01*
X0015298Y0022602D01*
X0015328Y0022758D01*
X0015361Y0022913D01*
X0015399Y0023066D01*
X0015440Y0023219D01*
X0015485Y0023371D01*
X0015534Y0023522D01*
X0015587Y0023671D01*
X0015643Y0023819D01*
X0015703Y0023965D01*
X0015767Y0024110D01*
X0015835Y0024253D01*
X0015906Y0024395D01*
X0015980Y0024535D01*
X0016058Y0024672D01*
X0016140Y0024808D01*
X0016224Y0024942D01*
X0016313Y0025073D01*
X0016404Y0025202D01*
X0016499Y0025329D01*
X0016596Y0025454D01*
X0016697Y0025576D01*
X0016801Y0025695D01*
X0016908Y0025812D01*
X0017018Y0025926D01*
X0017131Y0026037D01*
X0017246Y0026146D01*
X0017364Y0026251D01*
X0017485Y0026353D01*
X0017608Y0026453D01*
X0017734Y0026549D01*
X0017862Y0026642D01*
X0017992Y0026732D01*
X0018125Y0026818D01*
X0018260Y0026902D01*
X0018396Y0026981D01*
X0018535Y0027058D01*
X0018676Y0027130D01*
X0018818Y0027200D01*
X0018962Y0027265D01*
X0019108Y0027327D01*
X0019255Y0027385D01*
X0019404Y0027440D01*
X0019554Y0027491D01*
X0019705Y0027538D01*
X0019857Y0027581D01*
X0020010Y0027620D01*
X0020165Y0027656D01*
X0020320Y0027687D01*
X0020476Y0027715D01*
X0020632Y0027739D01*
X0020789Y0027759D01*
X0020947Y0027775D01*
X0021104Y0027787D01*
X0021263Y0027795D01*
X0021421Y0027799D01*
X0021579Y0027799D01*
X0021737Y0027795D01*
X0021896Y0027787D01*
X0022053Y0027775D01*
X0022211Y0027759D01*
X0022368Y0027739D01*
X0022524Y0027715D01*
X0022680Y0027687D01*
X0022835Y0027656D01*
X0022990Y0027620D01*
X0023143Y0027581D01*
X0023295Y0027538D01*
X0023446Y0027491D01*
X0023596Y0027440D01*
X0023745Y0027385D01*
X0023892Y0027327D01*
X0024038Y0027265D01*
X0024182Y0027200D01*
X0024324Y0027130D01*
X0024465Y0027058D01*
X0024604Y0026981D01*
X0024740Y0026902D01*
X0024875Y0026818D01*
X0025008Y0026732D01*
X0025138Y0026642D01*
X0025266Y0026549D01*
X0025392Y0026453D01*
X0025515Y0026353D01*
X0025636Y0026251D01*
X0025754Y0026146D01*
X0025869Y0026037D01*
X0025982Y0025926D01*
X0026092Y0025812D01*
X0026199Y0025695D01*
X0026303Y0025576D01*
X0026404Y0025454D01*
X0026501Y0025329D01*
X0026596Y0025202D01*
X0026687Y0025073D01*
X0026776Y0024942D01*
X0026860Y0024808D01*
X0026942Y0024672D01*
X0027020Y0024535D01*
X0027094Y0024395D01*
X0027165Y0024253D01*
X0027233Y0024110D01*
X0027297Y0023965D01*
X0027357Y0023819D01*
X0027413Y0023671D01*
X0027466Y0023522D01*
X0027515Y0023371D01*
X0027560Y0023219D01*
X0027601Y0023066D01*
X0027639Y0022913D01*
X0027672Y0022758D01*
X0027702Y0022602D01*
X0027728Y0022446D01*
X0027749Y0022289D01*
X0027767Y0022132D01*
X0027781Y0021974D01*
X0027791Y0021816D01*
X0027797Y0021658D01*
X0027799Y0021500D01*
X0027797Y0021342D01*
X0027791Y0021184D01*
X0027781Y0021026D01*
X0027767Y0020868D01*
X0027749Y0020711D01*
X0027728Y0020554D01*
X0027702Y0020398D01*
X0027672Y0020242D01*
X0027639Y0020087D01*
X0027601Y0019934D01*
X0027560Y0019781D01*
X0027515Y0019629D01*
X0027466Y0019478D01*
X0027413Y0019329D01*
X0027357Y0019181D01*
X0027297Y0019035D01*
X0027233Y0018890D01*
X0027165Y0018747D01*
X0027094Y0018605D01*
X0027020Y0018465D01*
X0026942Y0018328D01*
X0026860Y0018192D01*
X0026776Y0018058D01*
X0026687Y0017927D01*
X0026596Y0017798D01*
X0026501Y0017671D01*
X0026404Y0017546D01*
X0026303Y0017424D01*
X0026199Y0017305D01*
X0026092Y0017188D01*
X0025982Y0017074D01*
X0025869Y0016963D01*
X0025754Y0016854D01*
X0025636Y0016749D01*
X0025515Y0016647D01*
X0025392Y0016547D01*
X0025266Y0016451D01*
X0025138Y0016358D01*
X0025008Y0016268D01*
X0024875Y0016182D01*
X0024740Y0016098D01*
X0024604Y0016019D01*
X0024465Y0015942D01*
X0024324Y0015870D01*
X0024182Y0015800D01*
X0024038Y0015735D01*
X0023892Y0015673D01*
X0023745Y0015615D01*
X0023596Y0015560D01*
X0023446Y0015509D01*
X0023295Y0015462D01*
X0023143Y0015419D01*
X0022990Y0015380D01*
X0022835Y0015344D01*
X0022680Y0015313D01*
X0022524Y0015285D01*
X0022368Y0015261D01*
X0022211Y0015241D01*
X0022053Y0015225D01*
X0021896Y0015213D01*
X0021737Y0015205D01*
X0021579Y0015201D01*
X0021421Y0015201D01*
X0021263Y0015205D01*
X0021104Y0015213D01*
X0020947Y0015225D01*
X0020789Y0015241D01*
X0020632Y0015261D01*
X0020476Y0015285D01*
X0020320Y0015313D01*
X0020165Y0015344D01*
X0020010Y0015380D01*
X0019857Y0015419D01*
X0019705Y0015462D01*
X0019554Y0015509D01*
X0019404Y0015560D01*
X0019255Y0015615D01*
X0019108Y0015673D01*
X0018962Y0015735D01*
X0018818Y0015800D01*
X0018676Y0015870D01*
X0018535Y0015942D01*
X0018396Y0016019D01*
X0018260Y0016098D01*
X0018125Y0016182D01*
X0017992Y0016268D01*
X0017862Y0016358D01*
X0017734Y0016451D01*
X0017608Y0016547D01*
X0017485Y0016647D01*
X0017364Y0016749D01*
X0017246Y0016854D01*
X0017131Y0016963D01*
X0017018Y0017074D01*
X0016908Y0017188D01*
X0016801Y0017305D01*
X0016697Y0017424D01*
X0016596Y0017546D01*
X0016499Y0017671D01*
X0016404Y0017798D01*
X0016313Y0017927D01*
X0016224Y0018058D01*
X0016140Y0018192D01*
X0016058Y0018328D01*
X0015980Y0018465D01*
X0015906Y0018605D01*
X0015835Y0018747D01*
X0015767Y0018890D01*
X0015703Y0019035D01*
X0015643Y0019181D01*
X0015587Y0019329D01*
X0015534Y0019478D01*
X0015485Y0019629D01*
X0015440Y0019781D01*
X0015399Y0019934D01*
X0015361Y0020087D01*
X0015328Y0020242D01*
X0015298Y0020398D01*
X0015272Y0020554D01*
X0015251Y0020711D01*
X0015233Y0020868D01*
X0015219Y0021026D01*
X0015209Y0021184D01*
X0015203Y0021342D01*
X0015201Y0021500D01*
X0057209Y0022232D02*
X0057209Y0004335D01*
X0095791Y0004335D01*
X0095791Y0022232D01*
X0095791Y0024013D01*
X0095791Y0040130D01*
X0095791Y0042045D01*
X0095791Y0056303D01*
X0057209Y0056303D01*
X0057209Y0042045D01*
X0057209Y0040130D01*
X0057209Y0024013D01*
X0057209Y0022232D01*
X0095791Y0022232D01*
X0096185Y0023429D02*
X0096972Y0023429D01*
X0097957Y0024020D01*
X0098744Y0024020D01*
X0098744Y0006106D01*
X0097760Y0006106D01*
X0096972Y0006697D01*
X0096185Y0006697D01*
X0093035Y0007091D02*
X0093035Y0019689D01*
X0079650Y0019689D01*
X0079650Y0007091D01*
X0093035Y0007091D01*
X0092248Y0010240D02*
X0092248Y0016736D01*
X0080437Y0016736D01*
X0080437Y0011224D01*
X0080437Y0010240D01*
X0092248Y0010240D01*
X0102681Y0011539D02*
X0102681Y0091461D01*
X0102683Y0091569D01*
X0102689Y0091677D01*
X0102699Y0091784D01*
X0102712Y0091891D01*
X0102730Y0091997D01*
X0102752Y0092103D01*
X0102777Y0092208D01*
X0102806Y0092312D01*
X0102839Y0092414D01*
X0102876Y0092516D01*
X0102916Y0092616D01*
X0102960Y0092714D01*
X0103008Y0092811D01*
X0103059Y0092906D01*
X0103113Y0092999D01*
X0103171Y0093090D01*
X0103232Y0093179D01*
X0103297Y0093266D01*
X0103364Y0093350D01*
X0103435Y0093432D01*
X0103508Y0093511D01*
X0103584Y0093587D01*
X0103663Y0093660D01*
X0103745Y0093731D01*
X0103829Y0093798D01*
X0103916Y0093863D01*
X0104005Y0093924D01*
X0104096Y0093982D01*
X0104189Y0094036D01*
X0104284Y0094087D01*
X0104381Y0094135D01*
X0104479Y0094179D01*
X0104579Y0094219D01*
X0104681Y0094256D01*
X0104783Y0094289D01*
X0104887Y0094318D01*
X0104992Y0094343D01*
X0105098Y0094365D01*
X0105204Y0094383D01*
X0105311Y0094396D01*
X0105418Y0094406D01*
X0105526Y0094412D01*
X0105634Y0094414D01*
X0105634Y0094413D02*
X0197366Y0094413D01*
X0197366Y0094414D02*
X0197474Y0094412D01*
X0197582Y0094406D01*
X0197689Y0094396D01*
X0197796Y0094383D01*
X0197902Y0094365D01*
X0198008Y0094343D01*
X0198113Y0094318D01*
X0198217Y0094289D01*
X0198319Y0094256D01*
X0198421Y0094219D01*
X0198521Y0094179D01*
X0198619Y0094135D01*
X0198716Y0094087D01*
X0198811Y0094036D01*
X0198904Y0093982D01*
X0198995Y0093924D01*
X0199084Y0093863D01*
X0199171Y0093798D01*
X0199255Y0093731D01*
X0199337Y0093660D01*
X0199416Y0093587D01*
X0199492Y0093511D01*
X0199565Y0093432D01*
X0199636Y0093350D01*
X0199703Y0093266D01*
X0199768Y0093179D01*
X0199829Y0093090D01*
X0199887Y0092999D01*
X0199941Y0092906D01*
X0199992Y0092811D01*
X0200040Y0092714D01*
X0200084Y0092616D01*
X0200124Y0092516D01*
X0200161Y0092414D01*
X0200194Y0092312D01*
X0200223Y0092208D01*
X0200248Y0092103D01*
X0200270Y0091997D01*
X0200288Y0091891D01*
X0200301Y0091784D01*
X0200311Y0091677D01*
X0200317Y0091569D01*
X0200319Y0091461D01*
X0200319Y0011539D01*
X0200317Y0011431D01*
X0200311Y0011323D01*
X0200301Y0011216D01*
X0200288Y0011109D01*
X0200270Y0011003D01*
X0200248Y0010897D01*
X0200223Y0010792D01*
X0200194Y0010688D01*
X0200161Y0010586D01*
X0200124Y0010484D01*
X0200084Y0010384D01*
X0200040Y0010286D01*
X0199992Y0010189D01*
X0199941Y0010094D01*
X0199887Y0010001D01*
X0199829Y0009910D01*
X0199768Y0009821D01*
X0199703Y0009734D01*
X0199636Y0009650D01*
X0199565Y0009568D01*
X0199492Y0009489D01*
X0199416Y0009413D01*
X0199337Y0009340D01*
X0199255Y0009269D01*
X0199171Y0009202D01*
X0199084Y0009137D01*
X0198995Y0009076D01*
X0198904Y0009018D01*
X0198811Y0008964D01*
X0198716Y0008913D01*
X0198619Y0008865D01*
X0198521Y0008821D01*
X0198421Y0008781D01*
X0198319Y0008744D01*
X0198217Y0008711D01*
X0198113Y0008682D01*
X0198008Y0008657D01*
X0197902Y0008635D01*
X0197796Y0008617D01*
X0197689Y0008604D01*
X0197582Y0008594D01*
X0197474Y0008588D01*
X0197366Y0008586D01*
X0197366Y0008587D02*
X0105634Y0008587D01*
X0105634Y0008586D02*
X0105526Y0008588D01*
X0105418Y0008594D01*
X0105311Y0008604D01*
X0105204Y0008617D01*
X0105098Y0008635D01*
X0104992Y0008657D01*
X0104887Y0008682D01*
X0104783Y0008711D01*
X0104681Y0008744D01*
X0104579Y0008781D01*
X0104479Y0008821D01*
X0104381Y0008865D01*
X0104284Y0008913D01*
X0104189Y0008964D01*
X0104096Y0009018D01*
X0104005Y0009076D01*
X0103916Y0009137D01*
X0103829Y0009202D01*
X0103745Y0009269D01*
X0103663Y0009340D01*
X0103584Y0009413D01*
X0103508Y0009489D01*
X0103435Y0009568D01*
X0103364Y0009650D01*
X0103297Y0009734D01*
X0103232Y0009821D01*
X0103171Y0009910D01*
X0103113Y0010001D01*
X0103059Y0010094D01*
X0103008Y0010189D01*
X0102960Y0010286D01*
X0102916Y0010384D01*
X0102876Y0010484D01*
X0102839Y0010586D01*
X0102806Y0010688D01*
X0102777Y0010792D01*
X0102752Y0010897D01*
X0102730Y0011003D01*
X0102712Y0011109D01*
X0102699Y0011216D01*
X0102689Y0011323D01*
X0102683Y0011431D01*
X0102681Y0011539D01*
X0095791Y0024013D02*
X0057209Y0024013D01*
X0059965Y0019689D02*
X0059965Y0007091D01*
X0073350Y0007091D01*
X0073350Y0019689D01*
X0059965Y0019689D01*
X0060752Y0016736D02*
X0060752Y0010240D01*
X0072563Y0010240D01*
X0072563Y0016736D01*
X0060752Y0016736D01*
X0057209Y0040130D02*
X0095791Y0040130D01*
X0095791Y0042045D02*
X0057209Y0042045D01*
X0058903Y0047755D02*
X0058875Y0047893D01*
X0058851Y0048033D01*
X0058830Y0048172D01*
X0058813Y0048313D01*
X0058800Y0048453D01*
X0058791Y0048594D01*
X0058785Y0048735D01*
X0058783Y0048877D01*
X0058784Y0048876D02*
X0058786Y0049012D01*
X0058791Y0049147D01*
X0058800Y0049283D01*
X0058812Y0049418D01*
X0058828Y0049553D01*
X0058847Y0049687D01*
X0058869Y0049821D01*
X0058895Y0049954D01*
X0058924Y0050086D01*
X0058956Y0050218D01*
X0058903Y0047755D02*
X0058935Y0047616D01*
X0058971Y0047477D01*
X0059010Y0047340D01*
X0059052Y0047204D01*
X0059098Y0047069D01*
X0059148Y0046935D01*
X0059201Y0046803D01*
X0059257Y0046672D01*
X0058956Y0050218D02*
X0058993Y0050351D01*
X0059033Y0050483D01*
X0059076Y0050614D01*
X0059122Y0050744D01*
X0059171Y0050873D01*
X0059223Y0051001D01*
X0059279Y0051127D01*
X0059337Y0051252D01*
X0059399Y0051376D01*
X0059463Y0051498D01*
X0059258Y0046672D02*
X0059319Y0046538D01*
X0059384Y0046406D01*
X0059452Y0046276D01*
X0059523Y0046147D01*
X0059597Y0046021D01*
X0059675Y0045896D01*
X0059755Y0045773D01*
X0059839Y0045652D01*
X0060412Y0052804D02*
X0060531Y0052927D01*
X0060653Y0053047D01*
X0060777Y0053164D01*
X0060904Y0053278D01*
X0061034Y0053390D01*
X0061166Y0053498D01*
X0061301Y0053603D01*
X0061438Y0053705D01*
X0061577Y0053804D01*
X0061719Y0053900D01*
X0061862Y0053992D01*
X0066658Y0042426D02*
X0066893Y0042429D01*
X0067128Y0042438D01*
X0067363Y0042452D01*
X0067597Y0042472D01*
X0067831Y0042498D01*
X0068064Y0042530D01*
X0068296Y0042567D01*
X0067687Y0055271D02*
X0067459Y0055293D01*
X0067230Y0055309D01*
X0067001Y0055320D01*
X0066772Y0055325D01*
X0066542Y0055325D01*
X0066313Y0055320D01*
X0066084Y0055309D01*
X0065855Y0055293D01*
X0065627Y0055271D01*
X0065020Y0042567D02*
X0065223Y0042534D01*
X0065427Y0042505D01*
X0065631Y0042481D01*
X0065836Y0042461D01*
X0066041Y0042446D01*
X0066247Y0042435D01*
X0066452Y0042428D01*
X0066658Y0042426D01*
X0063646Y0054836D02*
X0063861Y0054905D01*
X0064077Y0054970D01*
X0064295Y0055029D01*
X0064515Y0055082D01*
X0064735Y0055131D01*
X0064957Y0055174D01*
X0065180Y0055212D01*
X0065403Y0055244D01*
X0065627Y0055271D01*
X0068296Y0042567D02*
X0068495Y0042604D01*
X0068693Y0042645D01*
X0068890Y0042691D01*
X0069087Y0042741D01*
X0069282Y0042795D01*
X0069475Y0042853D01*
X0069668Y0042916D01*
X0069859Y0042983D01*
X0071453Y0053992D02*
X0071284Y0054095D01*
X0071113Y0054194D01*
X0070939Y0054289D01*
X0070764Y0054380D01*
X0070586Y0054466D01*
X0070406Y0054549D01*
X0070224Y0054627D01*
X0070041Y0054701D01*
X0069856Y0054770D01*
X0069669Y0054835D01*
X0065019Y0042568D02*
X0064820Y0042604D01*
X0064622Y0042646D01*
X0064425Y0042691D01*
X0064229Y0042741D01*
X0064034Y0042795D01*
X0063840Y0042854D01*
X0063648Y0042916D01*
X0063457Y0042983D01*
X0067687Y0055271D02*
X0067912Y0055244D01*
X0068135Y0055212D01*
X0068358Y0055174D01*
X0068580Y0055131D01*
X0068800Y0055083D01*
X0069020Y0055029D01*
X0069238Y0054970D01*
X0069454Y0054905D01*
X0069669Y0054836D01*
X0071288Y0043659D02*
X0071116Y0043560D01*
X0070942Y0043466D01*
X0070767Y0043375D01*
X0070589Y0043288D01*
X0070409Y0043206D01*
X0070227Y0043127D01*
X0070044Y0043053D01*
X0069858Y0042983D01*
X0063646Y0054835D02*
X0063460Y0054770D01*
X0063275Y0054700D01*
X0063091Y0054626D01*
X0062910Y0054547D01*
X0062730Y0054465D01*
X0062552Y0054378D01*
X0062377Y0054288D01*
X0062203Y0054193D01*
X0062032Y0054094D01*
X0061863Y0053991D01*
X0062027Y0043659D02*
X0062199Y0043560D01*
X0062372Y0043465D01*
X0062548Y0043374D01*
X0062726Y0043287D01*
X0062906Y0043205D01*
X0063088Y0043126D01*
X0063271Y0043052D01*
X0063456Y0042983D01*
X0059463Y0051498D02*
X0059544Y0051638D01*
X0059629Y0051776D01*
X0059716Y0051912D01*
X0059807Y0052046D01*
X0059900Y0052178D01*
X0059997Y0052308D01*
X0060096Y0052436D01*
X0060199Y0052561D01*
X0060304Y0052684D01*
X0060412Y0052805D01*
X0059839Y0045651D02*
X0059934Y0045520D01*
X0060033Y0045391D01*
X0060135Y0045264D01*
X0060239Y0045140D01*
X0060347Y0045018D01*
X0060458Y0044900D01*
X0060572Y0044783D01*
X0060688Y0044670D01*
X0060807Y0044560D01*
X0060806Y0044559D02*
X0060933Y0044447D01*
X0061061Y0044338D01*
X0061193Y0044232D01*
X0061326Y0044129D01*
X0061462Y0044028D01*
X0061600Y0043931D01*
X0061740Y0043837D01*
X0061883Y0043747D01*
X0062027Y0043659D01*
X0071452Y0053992D02*
X0071596Y0053900D01*
X0071738Y0053805D01*
X0071878Y0053706D01*
X0072015Y0053604D01*
X0072149Y0053499D01*
X0072282Y0053391D01*
X0072411Y0053279D01*
X0072538Y0053165D01*
X0072663Y0053048D01*
X0072784Y0052928D01*
X0072903Y0052805D01*
X0074531Y0048877D02*
X0074529Y0048735D01*
X0074523Y0048594D01*
X0074514Y0048453D01*
X0074501Y0048313D01*
X0074484Y0048172D01*
X0074464Y0048033D01*
X0074439Y0047894D01*
X0074411Y0047755D01*
X0074532Y0048876D02*
X0074530Y0049012D01*
X0074525Y0049148D01*
X0074516Y0049283D01*
X0074504Y0049418D01*
X0074488Y0049553D01*
X0074469Y0049687D01*
X0074447Y0049821D01*
X0074421Y0049954D01*
X0074392Y0050087D01*
X0074360Y0050218D01*
X0074411Y0047755D02*
X0074379Y0047616D01*
X0074344Y0047478D01*
X0074304Y0047341D01*
X0074262Y0047205D01*
X0074216Y0047070D01*
X0074166Y0046936D01*
X0074113Y0046803D01*
X0074057Y0046672D01*
X0074359Y0050218D02*
X0074322Y0050351D01*
X0074282Y0050483D01*
X0074240Y0050615D01*
X0074193Y0050745D01*
X0074144Y0050874D01*
X0074092Y0051001D01*
X0074036Y0051128D01*
X0073978Y0051253D01*
X0073916Y0051376D01*
X0073851Y0051498D01*
X0073852Y0051498D02*
X0073781Y0051628D01*
X0073708Y0051755D01*
X0073631Y0051881D01*
X0073550Y0052004D01*
X0073467Y0052125D01*
X0073381Y0052245D01*
X0073291Y0052361D01*
X0073198Y0052476D01*
X0073103Y0052588D01*
X0073004Y0052697D01*
X0072903Y0052804D01*
X0074057Y0046672D02*
X0073996Y0046538D01*
X0073931Y0046406D01*
X0073863Y0046276D01*
X0073792Y0046147D01*
X0073717Y0046020D01*
X0073640Y0045895D01*
X0073560Y0045772D01*
X0073476Y0045651D01*
X0073477Y0045651D02*
X0073381Y0045519D01*
X0073282Y0045390D01*
X0073180Y0045264D01*
X0073075Y0045140D01*
X0072968Y0045018D01*
X0072857Y0044899D01*
X0072743Y0044783D01*
X0072627Y0044669D01*
X0072508Y0044559D01*
X0072508Y0044560D02*
X0072381Y0044448D01*
X0072252Y0044339D01*
X0072121Y0044233D01*
X0071987Y0044130D01*
X0071852Y0044030D01*
X0071713Y0043933D01*
X0071573Y0043839D01*
X0071431Y0043748D01*
X0071287Y0043660D01*
X0078468Y0048876D02*
X0078470Y0049018D01*
X0078476Y0049159D01*
X0078485Y0049300D01*
X0078498Y0049440D01*
X0078515Y0049581D01*
X0078536Y0049720D01*
X0078560Y0049859D01*
X0078588Y0049998D01*
X0078469Y0048876D02*
X0078471Y0048740D01*
X0078476Y0048605D01*
X0078485Y0048469D01*
X0078497Y0048334D01*
X0078513Y0048200D01*
X0078532Y0048065D01*
X0078554Y0047931D01*
X0078580Y0047798D01*
X0078609Y0047666D01*
X0078641Y0047534D01*
X0078589Y0049998D02*
X0078622Y0050137D01*
X0078657Y0050275D01*
X0078696Y0050412D01*
X0078739Y0050549D01*
X0078785Y0050684D01*
X0078835Y0050818D01*
X0078887Y0050950D01*
X0078944Y0051081D01*
X0078640Y0047534D02*
X0078677Y0047401D01*
X0078717Y0047269D01*
X0078760Y0047138D01*
X0078806Y0047008D01*
X0078855Y0046879D01*
X0078907Y0046751D01*
X0078963Y0046625D01*
X0079022Y0046500D01*
X0079083Y0046376D01*
X0079148Y0046255D01*
X0079149Y0046255D02*
X0079219Y0046126D01*
X0079293Y0045998D01*
X0079370Y0045873D01*
X0079450Y0045749D01*
X0079533Y0045628D01*
X0079620Y0045509D01*
X0079710Y0045392D01*
X0079802Y0045277D01*
X0079898Y0045165D01*
X0079996Y0045056D01*
X0080097Y0044949D01*
X0078943Y0051080D02*
X0079005Y0051214D01*
X0079070Y0051346D01*
X0079138Y0051476D01*
X0079209Y0051605D01*
X0079283Y0051731D01*
X0079360Y0051856D01*
X0079441Y0051979D01*
X0079524Y0052100D01*
X0080097Y0044949D02*
X0080215Y0044826D01*
X0080337Y0044705D01*
X0080461Y0044588D01*
X0080588Y0044474D01*
X0080718Y0044362D01*
X0080850Y0044254D01*
X0080985Y0044149D01*
X0081122Y0044047D01*
X0081261Y0043948D01*
X0081403Y0043853D01*
X0081547Y0043760D01*
X0081712Y0054094D02*
X0081884Y0054192D01*
X0082058Y0054287D01*
X0082233Y0054378D01*
X0082411Y0054465D01*
X0082591Y0054547D01*
X0082773Y0054626D01*
X0082956Y0054700D01*
X0083142Y0054770D01*
X0085313Y0042481D02*
X0085541Y0042459D01*
X0085770Y0042443D01*
X0085999Y0042432D01*
X0086228Y0042427D01*
X0086458Y0042427D01*
X0086687Y0042432D01*
X0086916Y0042443D01*
X0087145Y0042459D01*
X0087373Y0042481D01*
X0086343Y0055327D02*
X0086107Y0055324D01*
X0085872Y0055315D01*
X0085638Y0055301D01*
X0085403Y0055281D01*
X0085170Y0055255D01*
X0084937Y0055223D01*
X0084704Y0055186D01*
X0087372Y0042482D02*
X0087597Y0042509D01*
X0087820Y0042541D01*
X0088043Y0042579D01*
X0088265Y0042622D01*
X0088485Y0042671D01*
X0088704Y0042724D01*
X0088922Y0042783D01*
X0089139Y0042848D01*
X0089354Y0042917D01*
X0087980Y0055185D02*
X0087777Y0055218D01*
X0087573Y0055247D01*
X0087369Y0055271D01*
X0087164Y0055291D01*
X0086959Y0055306D01*
X0086754Y0055317D01*
X0086548Y0055324D01*
X0086342Y0055326D01*
X0083331Y0042916D02*
X0083546Y0042847D01*
X0083762Y0042782D01*
X0083980Y0042723D01*
X0084200Y0042669D01*
X0084420Y0042621D01*
X0084642Y0042578D01*
X0084865Y0042540D01*
X0085088Y0042508D01*
X0085313Y0042481D01*
X0083141Y0054769D02*
X0083332Y0054836D01*
X0083525Y0054899D01*
X0083718Y0054957D01*
X0083913Y0055011D01*
X0084110Y0055061D01*
X0084307Y0055107D01*
X0084505Y0055148D01*
X0084704Y0055185D01*
X0081547Y0043760D02*
X0081716Y0043657D01*
X0081887Y0043558D01*
X0082060Y0043463D01*
X0082236Y0043373D01*
X0082414Y0043286D01*
X0082594Y0043203D01*
X0082775Y0043125D01*
X0082959Y0043051D01*
X0083144Y0042982D01*
X0083331Y0042917D01*
X0080492Y0053193D02*
X0080618Y0053304D01*
X0080747Y0053413D01*
X0080878Y0053520D01*
X0081012Y0053623D01*
X0081148Y0053723D01*
X0081286Y0053820D01*
X0081426Y0053914D01*
X0081568Y0054005D01*
X0081712Y0054093D01*
X0089354Y0042916D02*
X0089540Y0042981D01*
X0089725Y0043051D01*
X0089909Y0043125D01*
X0090090Y0043204D01*
X0090270Y0043286D01*
X0090448Y0043373D01*
X0090623Y0043464D01*
X0090797Y0043558D01*
X0090968Y0043657D01*
X0091137Y0043760D01*
X0089543Y0054769D02*
X0089352Y0054836D01*
X0089160Y0054898D01*
X0088966Y0054957D01*
X0088771Y0055011D01*
X0088575Y0055061D01*
X0088378Y0055106D01*
X0088180Y0055148D01*
X0087981Y0055184D01*
X0092589Y0044948D02*
X0092470Y0044825D01*
X0092348Y0044705D01*
X0092223Y0044588D01*
X0092096Y0044474D01*
X0091967Y0044363D01*
X0091834Y0044254D01*
X0091700Y0044149D01*
X0091563Y0044047D01*
X0091423Y0043948D01*
X0091282Y0043852D01*
X0091138Y0043760D01*
X0090972Y0054093D02*
X0090801Y0054192D01*
X0090627Y0054287D01*
X0090452Y0054378D01*
X0090274Y0054465D01*
X0090094Y0054548D01*
X0089912Y0054626D01*
X0089728Y0054700D01*
X0089543Y0054769D01*
X0093536Y0046255D02*
X0093455Y0046115D01*
X0093371Y0045977D01*
X0093283Y0045841D01*
X0093192Y0045707D01*
X0093099Y0045575D01*
X0093002Y0045445D01*
X0092903Y0045318D01*
X0092801Y0045192D01*
X0092696Y0045069D01*
X0092588Y0044949D01*
X0096185Y0045673D02*
X0096972Y0045673D01*
X0097760Y0046264D01*
X0098744Y0046264D01*
X0098744Y0035240D01*
X0097760Y0035240D01*
X0096972Y0036028D01*
X0096185Y0036028D01*
X0092193Y0053193D02*
X0092066Y0053305D01*
X0091938Y0053414D01*
X0091806Y0053520D01*
X0091673Y0053623D01*
X0091537Y0053724D01*
X0091399Y0053821D01*
X0091259Y0053915D01*
X0091116Y0054005D01*
X0090972Y0054093D01*
X0094217Y0048876D02*
X0094215Y0048741D01*
X0094210Y0048605D01*
X0094201Y0048470D01*
X0094189Y0048334D01*
X0094173Y0048200D01*
X0094154Y0048065D01*
X0094132Y0047932D01*
X0094106Y0047798D01*
X0094077Y0047666D01*
X0094045Y0047534D01*
X0094217Y0048876D02*
X0094215Y0049017D01*
X0094209Y0049158D01*
X0094200Y0049299D01*
X0094187Y0049440D01*
X0094170Y0049580D01*
X0094149Y0049720D01*
X0094125Y0049859D01*
X0094097Y0049997D01*
X0094096Y0049997D02*
X0094064Y0050136D01*
X0094029Y0050275D01*
X0093989Y0050412D01*
X0093947Y0050548D01*
X0093901Y0050683D01*
X0093851Y0050817D01*
X0093798Y0050950D01*
X0093742Y0051081D01*
X0094044Y0047535D02*
X0094007Y0047402D01*
X0093967Y0047270D01*
X0093924Y0047138D01*
X0093878Y0047008D01*
X0093829Y0046880D01*
X0093776Y0046752D01*
X0093721Y0046625D01*
X0093662Y0046500D01*
X0093601Y0046377D01*
X0093537Y0046255D01*
X0093743Y0051082D02*
X0093681Y0051215D01*
X0093617Y0051347D01*
X0093549Y0051478D01*
X0093478Y0051606D01*
X0093403Y0051733D01*
X0093326Y0051858D01*
X0093246Y0051981D01*
X0093162Y0052102D01*
X0093162Y0052101D02*
X0093066Y0052232D01*
X0092968Y0052362D01*
X0092866Y0052488D01*
X0092761Y0052612D01*
X0092653Y0052734D01*
X0092542Y0052853D01*
X0092429Y0052969D01*
X0092312Y0053082D01*
X0092193Y0053193D01*
X0080492Y0053193D02*
X0080373Y0053083D01*
X0080257Y0052969D01*
X0080143Y0052853D01*
X0080032Y0052734D01*
X0079925Y0052613D01*
X0079820Y0052489D01*
X0079718Y0052362D01*
X0079619Y0052233D01*
X0079523Y0052102D01*
X0085791Y0067445D02*
X0085791Y0085555D01*
X0087563Y0085555D01*
X0095437Y0085555D02*
X0097209Y0085555D01*
X0097209Y0067445D01*
X0095437Y0067445D01*
X0095437Y0072563D02*
X0087563Y0072563D01*
X0087563Y0067445D02*
X0085791Y0067445D01*
X0079256Y0070988D02*
X0079256Y0073350D01*
X0079256Y0070988D02*
X0076106Y0070988D01*
X0079256Y0079650D02*
X0079256Y0082012D01*
X0076106Y0082012D01*
X0076500Y0101500D02*
X0076500Y0171500D01*
X0216500Y0171500D01*
X0216500Y0141500D01*
X0211500Y0141500D01*
X0211500Y0131500D01*
X0216500Y0131500D01*
X0216500Y0101500D01*
X0076500Y0101500D01*
X0056303Y0120791D02*
X0042045Y0120791D01*
X0040130Y0120791D01*
X0024013Y0120791D01*
X0022232Y0120791D01*
X0004335Y0120791D01*
X0004335Y0062524D01*
X0022232Y0062524D01*
X0024013Y0062524D01*
X0040130Y0062524D01*
X0042045Y0062524D01*
X0056303Y0062524D01*
X0056303Y0120791D01*
X0048877Y0119217D02*
X0048735Y0119215D01*
X0048594Y0119209D01*
X0048453Y0119200D01*
X0048313Y0119187D01*
X0048172Y0119170D01*
X0048033Y0119149D01*
X0047893Y0119125D01*
X0047755Y0119097D01*
X0042045Y0120791D02*
X0042045Y0062524D01*
X0040130Y0062524D02*
X0040130Y0120791D01*
X0048876Y0119216D02*
X0049012Y0119214D01*
X0049147Y0119209D01*
X0049283Y0119200D01*
X0049418Y0119188D01*
X0049553Y0119172D01*
X0049687Y0119153D01*
X0049821Y0119131D01*
X0049954Y0119105D01*
X0050086Y0119076D01*
X0050218Y0119044D01*
X0047755Y0119097D02*
X0047616Y0119065D01*
X0047477Y0119029D01*
X0047340Y0118990D01*
X0047204Y0118948D01*
X0047069Y0118902D01*
X0046935Y0118852D01*
X0046803Y0118799D01*
X0046672Y0118743D01*
X0050218Y0119044D02*
X0050351Y0119007D01*
X0050483Y0118967D01*
X0050614Y0118924D01*
X0050744Y0118878D01*
X0050873Y0118829D01*
X0051001Y0118777D01*
X0051127Y0118721D01*
X0051252Y0118663D01*
X0051376Y0118601D01*
X0051498Y0118537D01*
X0046672Y0118742D02*
X0046538Y0118681D01*
X0046406Y0118616D01*
X0046276Y0118548D01*
X0046147Y0118477D01*
X0046021Y0118403D01*
X0045896Y0118325D01*
X0045773Y0118245D01*
X0045652Y0118161D01*
X0052804Y0117588D02*
X0052927Y0117469D01*
X0053047Y0117347D01*
X0053164Y0117223D01*
X0053278Y0117096D01*
X0053390Y0116966D01*
X0053498Y0116834D01*
X0053603Y0116699D01*
X0053705Y0116562D01*
X0053804Y0116423D01*
X0053900Y0116281D01*
X0053992Y0116138D01*
X0044559Y0117194D02*
X0044447Y0117067D01*
X0044338Y0116939D01*
X0044232Y0116807D01*
X0044129Y0116674D01*
X0044028Y0116538D01*
X0043931Y0116400D01*
X0043837Y0116260D01*
X0043747Y0116117D01*
X0043659Y0115973D01*
X0055271Y0112373D02*
X0055293Y0112145D01*
X0055309Y0111916D01*
X0055320Y0111687D01*
X0055325Y0111458D01*
X0055325Y0111228D01*
X0055320Y0110999D01*
X0055309Y0110770D01*
X0055293Y0110541D01*
X0055271Y0110313D01*
X0042567Y0109704D02*
X0042530Y0109936D01*
X0042498Y0110169D01*
X0042472Y0110403D01*
X0042452Y0110637D01*
X0042438Y0110872D01*
X0042429Y0111107D01*
X0042426Y0111342D01*
X0054836Y0114354D02*
X0054905Y0114139D01*
X0054970Y0113923D01*
X0055029Y0113705D01*
X0055082Y0113485D01*
X0055131Y0113265D01*
X0055174Y0113043D01*
X0055212Y0112820D01*
X0055244Y0112597D01*
X0055271Y0112373D01*
X0042567Y0112980D02*
X0042534Y0112777D01*
X0042505Y0112573D01*
X0042481Y0112369D01*
X0042461Y0112164D01*
X0042446Y0111959D01*
X0042435Y0111753D01*
X0042428Y0111548D01*
X0042426Y0111342D01*
X0054836Y0108331D02*
X0054905Y0108546D01*
X0054970Y0108762D01*
X0055029Y0108980D01*
X0055083Y0109200D01*
X0055131Y0109420D01*
X0055174Y0109642D01*
X0055212Y0109865D01*
X0055244Y0110088D01*
X0055271Y0110313D01*
X0042983Y0108141D02*
X0042916Y0108332D01*
X0042853Y0108525D01*
X0042795Y0108718D01*
X0042741Y0108913D01*
X0042691Y0109110D01*
X0042645Y0109307D01*
X0042604Y0109505D01*
X0042567Y0109704D01*
X0053992Y0106547D02*
X0054095Y0106716D01*
X0054194Y0106887D01*
X0054289Y0107061D01*
X0054380Y0107236D01*
X0054466Y0107414D01*
X0054549Y0107594D01*
X0054627Y0107776D01*
X0054701Y0107959D01*
X0054770Y0108144D01*
X0054835Y0108331D01*
X0042568Y0112981D02*
X0042604Y0113180D01*
X0042646Y0113378D01*
X0042691Y0113575D01*
X0042741Y0113771D01*
X0042795Y0113966D01*
X0042854Y0114160D01*
X0042916Y0114352D01*
X0042983Y0114543D01*
X0053991Y0116137D02*
X0054094Y0115968D01*
X0054193Y0115797D01*
X0054288Y0115623D01*
X0054378Y0115448D01*
X0054465Y0115270D01*
X0054547Y0115090D01*
X0054626Y0114909D01*
X0054700Y0114725D01*
X0054770Y0114540D01*
X0054835Y0114354D01*
X0043659Y0115973D02*
X0043560Y0115801D01*
X0043465Y0115628D01*
X0043374Y0115452D01*
X0043287Y0115274D01*
X0043205Y0115094D01*
X0043126Y0114912D01*
X0043052Y0114729D01*
X0042983Y0114544D01*
X0051498Y0118537D02*
X0051638Y0118456D01*
X0051776Y0118371D01*
X0051912Y0118284D01*
X0052046Y0118193D01*
X0052178Y0118100D01*
X0052308Y0118003D01*
X0052436Y0117904D01*
X0052561Y0117801D01*
X0052684Y0117696D01*
X0052805Y0117588D01*
X0045651Y0118161D02*
X0045520Y0118066D01*
X0045391Y0117967D01*
X0045264Y0117865D01*
X0045140Y0117761D01*
X0045018Y0117653D01*
X0044900Y0117542D01*
X0044783Y0117428D01*
X0044670Y0117312D01*
X0044560Y0117193D01*
X0053992Y0106548D02*
X0053900Y0106404D01*
X0053805Y0106262D01*
X0053706Y0106122D01*
X0053604Y0105985D01*
X0053499Y0105851D01*
X0053391Y0105718D01*
X0053279Y0105589D01*
X0053165Y0105462D01*
X0053048Y0105337D01*
X0052928Y0105216D01*
X0052805Y0105097D01*
X0048877Y0103469D02*
X0048735Y0103471D01*
X0048594Y0103477D01*
X0048453Y0103486D01*
X0048313Y0103499D01*
X0048172Y0103516D01*
X0048033Y0103536D01*
X0047894Y0103561D01*
X0047755Y0103589D01*
X0048876Y0103468D02*
X0049012Y0103470D01*
X0049148Y0103475D01*
X0049283Y0103484D01*
X0049418Y0103496D01*
X0049553Y0103512D01*
X0049687Y0103531D01*
X0049821Y0103553D01*
X0049954Y0103579D01*
X0050087Y0103608D01*
X0050218Y0103640D01*
X0047755Y0103589D02*
X0047616Y0103621D01*
X0047478Y0103656D01*
X0047341Y0103696D01*
X0047205Y0103738D01*
X0047070Y0103784D01*
X0046936Y0103834D01*
X0046803Y0103887D01*
X0046672Y0103943D01*
X0050218Y0103640D02*
X0050351Y0103677D01*
X0050483Y0103717D01*
X0050615Y0103759D01*
X0050745Y0103806D01*
X0050874Y0103855D01*
X0051001Y0103907D01*
X0051128Y0103963D01*
X0051253Y0104021D01*
X0051376Y0104083D01*
X0051498Y0104148D01*
X0051628Y0104219D01*
X0051755Y0104292D01*
X0051881Y0104369D01*
X0052004Y0104450D01*
X0052125Y0104533D01*
X0052245Y0104619D01*
X0052361Y0104709D01*
X0052476Y0104802D01*
X0052588Y0104897D01*
X0052697Y0104996D01*
X0052804Y0105097D01*
X0046672Y0103943D02*
X0046538Y0104004D01*
X0046406Y0104069D01*
X0046276Y0104137D01*
X0046147Y0104208D01*
X0046020Y0104283D01*
X0045895Y0104360D01*
X0045772Y0104440D01*
X0045651Y0104524D01*
X0045651Y0104522D02*
X0045519Y0104618D01*
X0045390Y0104717D01*
X0045264Y0104819D01*
X0045140Y0104924D01*
X0045018Y0105031D01*
X0044899Y0105142D01*
X0044783Y0105256D01*
X0044669Y0105372D01*
X0044559Y0105491D01*
X0044560Y0105492D02*
X0044448Y0105619D01*
X0044339Y0105748D01*
X0044233Y0105879D01*
X0044130Y0106013D01*
X0044030Y0106148D01*
X0043933Y0106287D01*
X0043839Y0106427D01*
X0043748Y0106569D01*
X0043660Y0106713D01*
X0043659Y0106712D02*
X0043560Y0106884D01*
X0043466Y0107058D01*
X0043375Y0107233D01*
X0043288Y0107411D01*
X0043206Y0107591D01*
X0043127Y0107773D01*
X0043053Y0107956D01*
X0042983Y0108142D01*
X0048876Y0099532D02*
X0049018Y0099530D01*
X0049159Y0099524D01*
X0049300Y0099515D01*
X0049440Y0099502D01*
X0049581Y0099485D01*
X0049720Y0099464D01*
X0049859Y0099440D01*
X0049998Y0099412D01*
X0048876Y0099531D02*
X0048740Y0099529D01*
X0048605Y0099524D01*
X0048469Y0099515D01*
X0048334Y0099503D01*
X0048200Y0099487D01*
X0048065Y0099468D01*
X0047931Y0099446D01*
X0047798Y0099420D01*
X0047666Y0099391D01*
X0047534Y0099359D01*
X0049998Y0099411D02*
X0050137Y0099378D01*
X0050275Y0099343D01*
X0050412Y0099304D01*
X0050549Y0099261D01*
X0050684Y0099215D01*
X0050818Y0099165D01*
X0050950Y0099113D01*
X0051081Y0099056D01*
X0047534Y0099360D02*
X0047401Y0099323D01*
X0047269Y0099283D01*
X0047138Y0099240D01*
X0047008Y0099194D01*
X0046879Y0099145D01*
X0046751Y0099093D01*
X0046625Y0099037D01*
X0046500Y0098978D01*
X0046376Y0098917D01*
X0046255Y0098852D01*
X0046255Y0098851D02*
X0046126Y0098781D01*
X0045998Y0098707D01*
X0045873Y0098630D01*
X0045749Y0098550D01*
X0045628Y0098467D01*
X0045509Y0098380D01*
X0045392Y0098290D01*
X0045277Y0098198D01*
X0045165Y0098102D01*
X0045056Y0098004D01*
X0044949Y0097903D01*
X0051080Y0099057D02*
X0051214Y0098995D01*
X0051346Y0098930D01*
X0051476Y0098862D01*
X0051605Y0098791D01*
X0051731Y0098717D01*
X0051856Y0098640D01*
X0051979Y0098559D01*
X0052100Y0098476D01*
X0052102Y0098477D02*
X0052233Y0098381D01*
X0052362Y0098282D01*
X0052489Y0098180D01*
X0052613Y0098075D01*
X0052734Y0097968D01*
X0052853Y0097857D01*
X0052969Y0097743D01*
X0053083Y0097627D01*
X0053193Y0097508D01*
X0044949Y0097903D02*
X0044826Y0097785D01*
X0044705Y0097663D01*
X0044588Y0097539D01*
X0044474Y0097412D01*
X0044362Y0097282D01*
X0044254Y0097150D01*
X0044149Y0097015D01*
X0044047Y0096878D01*
X0043948Y0096739D01*
X0043853Y0096597D01*
X0043760Y0096453D01*
X0055186Y0093296D02*
X0055223Y0093063D01*
X0055255Y0092830D01*
X0055281Y0092597D01*
X0055301Y0092362D01*
X0055315Y0092128D01*
X0055324Y0091893D01*
X0055327Y0091657D01*
X0042481Y0092687D02*
X0042459Y0092459D01*
X0042443Y0092230D01*
X0042432Y0092001D01*
X0042427Y0091772D01*
X0042427Y0091542D01*
X0042432Y0091313D01*
X0042443Y0091084D01*
X0042459Y0090855D01*
X0042481Y0090627D01*
X0055185Y0090020D02*
X0055218Y0090223D01*
X0055247Y0090427D01*
X0055271Y0090631D01*
X0055291Y0090836D01*
X0055306Y0091041D01*
X0055317Y0091246D01*
X0055324Y0091452D01*
X0055326Y0091658D01*
X0042917Y0088646D02*
X0042848Y0088861D01*
X0042783Y0089078D01*
X0042724Y0089296D01*
X0042671Y0089515D01*
X0042622Y0089735D01*
X0042579Y0089957D01*
X0042541Y0090180D01*
X0042509Y0090403D01*
X0042482Y0090628D01*
X0055185Y0093296D02*
X0055148Y0093495D01*
X0055107Y0093693D01*
X0055061Y0093890D01*
X0055011Y0094087D01*
X0054957Y0094282D01*
X0054899Y0094475D01*
X0054836Y0094668D01*
X0054769Y0094859D01*
X0042916Y0094669D02*
X0042847Y0094454D01*
X0042782Y0094238D01*
X0042723Y0094020D01*
X0042669Y0093800D01*
X0042621Y0093580D01*
X0042578Y0093358D01*
X0042540Y0093135D01*
X0042508Y0092912D01*
X0042481Y0092687D01*
X0055184Y0090019D02*
X0055148Y0089820D01*
X0055106Y0089622D01*
X0055061Y0089425D01*
X0055011Y0089229D01*
X0054957Y0089034D01*
X0054898Y0088840D01*
X0054836Y0088648D01*
X0054769Y0088457D01*
X0043760Y0086863D02*
X0043657Y0087032D01*
X0043558Y0087203D01*
X0043464Y0087377D01*
X0043373Y0087552D01*
X0043286Y0087730D01*
X0043204Y0087910D01*
X0043125Y0088091D01*
X0043051Y0088275D01*
X0042981Y0088460D01*
X0042916Y0088646D01*
X0054093Y0087028D02*
X0054192Y0087199D01*
X0054287Y0087373D01*
X0054378Y0087548D01*
X0054465Y0087726D01*
X0054548Y0087906D01*
X0054626Y0088088D01*
X0054700Y0088272D01*
X0054769Y0088457D01*
X0044948Y0085411D02*
X0044825Y0085530D01*
X0044705Y0085652D01*
X0044588Y0085777D01*
X0044474Y0085904D01*
X0044363Y0086033D01*
X0044254Y0086166D01*
X0044149Y0086300D01*
X0044047Y0086437D01*
X0043948Y0086577D01*
X0043852Y0086718D01*
X0043760Y0086862D01*
X0053193Y0085807D02*
X0053305Y0085934D01*
X0053414Y0086062D01*
X0053520Y0086194D01*
X0053623Y0086327D01*
X0053724Y0086463D01*
X0053821Y0086601D01*
X0053915Y0086741D01*
X0054005Y0086884D01*
X0054093Y0087028D01*
X0048876Y0083783D02*
X0048741Y0083785D01*
X0048605Y0083790D01*
X0048470Y0083799D01*
X0048334Y0083811D01*
X0048200Y0083827D01*
X0048065Y0083846D01*
X0047932Y0083868D01*
X0047798Y0083894D01*
X0047666Y0083923D01*
X0047534Y0083955D01*
X0048876Y0083783D02*
X0049017Y0083785D01*
X0049158Y0083791D01*
X0049299Y0083800D01*
X0049440Y0083813D01*
X0049580Y0083830D01*
X0049720Y0083851D01*
X0049859Y0083875D01*
X0049997Y0083903D01*
X0049997Y0083904D02*
X0050136Y0083936D01*
X0050275Y0083971D01*
X0050412Y0084011D01*
X0050548Y0084053D01*
X0050683Y0084099D01*
X0050817Y0084149D01*
X0050950Y0084202D01*
X0051081Y0084258D01*
X0047535Y0083956D02*
X0047402Y0083993D01*
X0047270Y0084033D01*
X0047138Y0084076D01*
X0047008Y0084122D01*
X0046880Y0084171D01*
X0046752Y0084224D01*
X0046625Y0084279D01*
X0046500Y0084338D01*
X0046377Y0084399D01*
X0046255Y0084463D01*
X0051082Y0084257D02*
X0051215Y0084319D01*
X0051347Y0084383D01*
X0051478Y0084451D01*
X0051606Y0084522D01*
X0051733Y0084597D01*
X0051858Y0084674D01*
X0051981Y0084754D01*
X0052102Y0084838D01*
X0052101Y0084838D02*
X0052232Y0084934D01*
X0052362Y0085032D01*
X0052488Y0085134D01*
X0052612Y0085239D01*
X0052734Y0085347D01*
X0052853Y0085458D01*
X0052969Y0085571D01*
X0053082Y0085688D01*
X0053193Y0085807D01*
X0046255Y0084464D02*
X0046115Y0084545D01*
X0045977Y0084629D01*
X0045841Y0084717D01*
X0045707Y0084808D01*
X0045575Y0084901D01*
X0045445Y0084998D01*
X0045318Y0085097D01*
X0045192Y0085199D01*
X0045069Y0085304D01*
X0044949Y0085412D01*
X0054770Y0094858D02*
X0054700Y0095044D01*
X0054626Y0095227D01*
X0054547Y0095409D01*
X0054465Y0095589D01*
X0054378Y0095767D01*
X0054287Y0095942D01*
X0054192Y0096116D01*
X0054094Y0096288D01*
X0043760Y0096453D02*
X0043657Y0096284D01*
X0043558Y0096113D01*
X0043463Y0095940D01*
X0043373Y0095764D01*
X0043286Y0095586D01*
X0043203Y0095406D01*
X0043125Y0095225D01*
X0043051Y0095041D01*
X0042982Y0094856D01*
X0042917Y0094669D01*
X0053193Y0097508D02*
X0053304Y0097382D01*
X0053413Y0097253D01*
X0053520Y0097122D01*
X0053623Y0096988D01*
X0053723Y0096852D01*
X0053820Y0096714D01*
X0053914Y0096574D01*
X0054005Y0096432D01*
X0054093Y0096288D01*
X0049998Y0079727D02*
X0049859Y0079755D01*
X0049720Y0079779D01*
X0049581Y0079800D01*
X0049440Y0079817D01*
X0049300Y0079830D01*
X0049159Y0079839D01*
X0049018Y0079845D01*
X0048876Y0079847D01*
X0048876Y0079846D02*
X0048740Y0079844D01*
X0048605Y0079839D01*
X0048469Y0079830D01*
X0048334Y0079818D01*
X0048200Y0079802D01*
X0048065Y0079783D01*
X0047931Y0079761D01*
X0047798Y0079735D01*
X0047666Y0079706D01*
X0047534Y0079674D01*
X0049998Y0079726D02*
X0050137Y0079693D01*
X0050275Y0079658D01*
X0050412Y0079619D01*
X0050549Y0079576D01*
X0050684Y0079530D01*
X0050818Y0079480D01*
X0050950Y0079428D01*
X0051081Y0079371D01*
X0047534Y0079674D02*
X0047401Y0079637D01*
X0047269Y0079597D01*
X0047138Y0079554D01*
X0047008Y0079508D01*
X0046879Y0079459D01*
X0046751Y0079407D01*
X0046625Y0079351D01*
X0046500Y0079292D01*
X0046376Y0079231D01*
X0046255Y0079166D01*
X0046126Y0079096D01*
X0045998Y0079022D01*
X0045873Y0078945D01*
X0045749Y0078865D01*
X0045628Y0078782D01*
X0045509Y0078695D01*
X0045392Y0078605D01*
X0045277Y0078513D01*
X0045165Y0078417D01*
X0045056Y0078319D01*
X0044949Y0078218D01*
X0051080Y0079372D02*
X0051214Y0079310D01*
X0051346Y0079245D01*
X0051476Y0079177D01*
X0051605Y0079106D01*
X0051731Y0079032D01*
X0051856Y0078955D01*
X0051979Y0078874D01*
X0052100Y0078791D01*
X0044949Y0078218D02*
X0044826Y0078100D01*
X0044705Y0077978D01*
X0044588Y0077854D01*
X0044474Y0077727D01*
X0044362Y0077597D01*
X0044254Y0077465D01*
X0044149Y0077330D01*
X0044047Y0077193D01*
X0043948Y0077054D01*
X0043853Y0076912D01*
X0043760Y0076768D01*
X0055186Y0073611D02*
X0055223Y0073378D01*
X0055255Y0073145D01*
X0055281Y0072912D01*
X0055301Y0072677D01*
X0055315Y0072443D01*
X0055324Y0072208D01*
X0055327Y0071972D01*
X0042481Y0073002D02*
X0042459Y0072774D01*
X0042443Y0072545D01*
X0042432Y0072316D01*
X0042427Y0072087D01*
X0042427Y0071857D01*
X0042432Y0071628D01*
X0042443Y0071399D01*
X0042459Y0071170D01*
X0042481Y0070942D01*
X0055185Y0070334D02*
X0055218Y0070537D01*
X0055247Y0070741D01*
X0055271Y0070945D01*
X0055291Y0071150D01*
X0055306Y0071355D01*
X0055317Y0071560D01*
X0055324Y0071766D01*
X0055326Y0071972D01*
X0042917Y0068961D02*
X0042848Y0069176D01*
X0042783Y0069393D01*
X0042724Y0069611D01*
X0042671Y0069830D01*
X0042622Y0070050D01*
X0042579Y0070272D01*
X0042541Y0070495D01*
X0042509Y0070718D01*
X0042482Y0070943D01*
X0055185Y0073611D02*
X0055148Y0073810D01*
X0055107Y0074008D01*
X0055061Y0074205D01*
X0055011Y0074402D01*
X0054957Y0074597D01*
X0054899Y0074790D01*
X0054836Y0074983D01*
X0054769Y0075174D01*
X0042916Y0074984D02*
X0042847Y0074769D01*
X0042782Y0074553D01*
X0042723Y0074335D01*
X0042669Y0074115D01*
X0042621Y0073895D01*
X0042578Y0073673D01*
X0042540Y0073450D01*
X0042508Y0073227D01*
X0042481Y0073002D01*
X0055184Y0070334D02*
X0055148Y0070135D01*
X0055106Y0069937D01*
X0055061Y0069740D01*
X0055011Y0069544D01*
X0054957Y0069349D01*
X0054898Y0069155D01*
X0054836Y0068963D01*
X0054769Y0068772D01*
X0044948Y0065726D02*
X0044825Y0065845D01*
X0044705Y0065967D01*
X0044588Y0066092D01*
X0044474Y0066219D01*
X0044363Y0066348D01*
X0044254Y0066481D01*
X0044149Y0066615D01*
X0044047Y0066752D01*
X0043948Y0066892D01*
X0043852Y0067033D01*
X0043760Y0067177D01*
X0045673Y0062130D02*
X0045673Y0061343D01*
X0046264Y0060555D01*
X0046264Y0059571D01*
X0035240Y0059571D01*
X0035240Y0060555D01*
X0036028Y0061343D01*
X0036028Y0062130D01*
X0024013Y0062524D02*
X0024013Y0120791D01*
X0022232Y0120791D02*
X0022232Y0062524D01*
X0023429Y0062130D02*
X0023429Y0061343D01*
X0024020Y0060358D01*
X0024020Y0059571D01*
X0006106Y0059571D01*
X0006106Y0060555D01*
X0006697Y0061343D01*
X0006697Y0062130D01*
X0007091Y0065280D02*
X0019689Y0065280D01*
X0019689Y0078665D01*
X0007091Y0078665D01*
X0007091Y0065280D01*
X0010240Y0066067D02*
X0016736Y0066067D01*
X0016736Y0077878D01*
X0011224Y0077878D01*
X0010240Y0077878D01*
X0010240Y0066067D01*
X0007091Y0084965D02*
X0019689Y0084965D01*
X0019689Y0098350D01*
X0007091Y0098350D01*
X0007091Y0084965D01*
X0010240Y0085752D02*
X0016736Y0085752D01*
X0016736Y0097563D01*
X0011224Y0097563D01*
X0010240Y0097563D01*
X0010240Y0085752D01*
X0007091Y0104650D02*
X0019689Y0104650D01*
X0019689Y0118035D01*
X0007091Y0118035D01*
X0007091Y0104650D01*
X0010240Y0105437D02*
X0016736Y0105437D01*
X0016736Y0117248D01*
X0010240Y0117248D01*
X0010240Y0105437D01*
X0006106Y0134571D02*
X0024020Y0134571D01*
X0024020Y0135358D01*
X0023429Y0136343D01*
X0023429Y0137130D01*
X0024013Y0137524D02*
X0040130Y0137524D01*
X0042045Y0137524D01*
X0056303Y0137524D01*
X0056303Y0195791D01*
X0042045Y0195791D01*
X0040130Y0195791D01*
X0024013Y0195791D01*
X0022232Y0195791D01*
X0004335Y0195791D01*
X0004335Y0137524D01*
X0022232Y0137524D01*
X0024013Y0137524D01*
X0024013Y0195791D01*
X0022232Y0195791D02*
X0022232Y0137524D01*
X0019689Y0140280D02*
X0019689Y0153665D01*
X0007091Y0153665D01*
X0007091Y0140280D01*
X0019689Y0140280D01*
X0016736Y0141067D02*
X0016736Y0152878D01*
X0011224Y0152878D01*
X0010240Y0152878D01*
X0010240Y0141067D01*
X0016736Y0141067D01*
X0006697Y0137130D02*
X0006697Y0136343D01*
X0006106Y0135555D01*
X0006106Y0134571D01*
X0035240Y0134571D02*
X0046264Y0134571D01*
X0046264Y0135555D01*
X0045673Y0136343D01*
X0045673Y0137130D01*
X0042045Y0137524D02*
X0042045Y0195791D01*
X0040130Y0195791D02*
X0040130Y0137524D01*
X0036028Y0137130D02*
X0036028Y0136343D01*
X0035240Y0135555D01*
X0035240Y0134571D01*
X0055327Y0146972D02*
X0055324Y0147208D01*
X0055315Y0147443D01*
X0055301Y0147677D01*
X0055281Y0147912D01*
X0055255Y0148145D01*
X0055223Y0148378D01*
X0055186Y0148611D01*
X0042481Y0148002D02*
X0042459Y0147774D01*
X0042443Y0147545D01*
X0042432Y0147316D01*
X0042427Y0147087D01*
X0042427Y0146857D01*
X0042432Y0146628D01*
X0042443Y0146399D01*
X0042459Y0146170D01*
X0042481Y0145942D01*
X0055185Y0145334D02*
X0055218Y0145537D01*
X0055247Y0145741D01*
X0055271Y0145945D01*
X0055291Y0146150D01*
X0055306Y0146355D01*
X0055317Y0146560D01*
X0055324Y0146766D01*
X0055326Y0146972D01*
X0042917Y0143961D02*
X0042848Y0144176D01*
X0042783Y0144393D01*
X0042724Y0144611D01*
X0042671Y0144830D01*
X0042622Y0145050D01*
X0042579Y0145272D01*
X0042541Y0145495D01*
X0042509Y0145718D01*
X0042482Y0145943D01*
X0055185Y0148611D02*
X0055148Y0148810D01*
X0055107Y0149008D01*
X0055061Y0149205D01*
X0055011Y0149402D01*
X0054957Y0149597D01*
X0054899Y0149790D01*
X0054836Y0149983D01*
X0054769Y0150174D01*
X0042916Y0149984D02*
X0042847Y0149769D01*
X0042782Y0149553D01*
X0042723Y0149335D01*
X0042669Y0149115D01*
X0042621Y0148895D01*
X0042578Y0148673D01*
X0042540Y0148450D01*
X0042508Y0148227D01*
X0042481Y0148002D01*
X0055184Y0145334D02*
X0055148Y0145135D01*
X0055106Y0144937D01*
X0055061Y0144740D01*
X0055011Y0144544D01*
X0054957Y0144349D01*
X0054898Y0144155D01*
X0054836Y0143963D01*
X0054769Y0143772D01*
X0043760Y0142178D02*
X0043657Y0142347D01*
X0043558Y0142518D01*
X0043464Y0142692D01*
X0043373Y0142867D01*
X0043286Y0143045D01*
X0043204Y0143225D01*
X0043125Y0143406D01*
X0043051Y0143590D01*
X0042981Y0143775D01*
X0042916Y0143961D01*
X0054093Y0142343D02*
X0054192Y0142514D01*
X0054287Y0142688D01*
X0054378Y0142863D01*
X0054465Y0143041D01*
X0054548Y0143221D01*
X0054626Y0143403D01*
X0054700Y0143587D01*
X0054769Y0143772D01*
X0044948Y0140726D02*
X0044825Y0140845D01*
X0044705Y0140967D01*
X0044588Y0141092D01*
X0044474Y0141219D01*
X0044363Y0141348D01*
X0044254Y0141481D01*
X0044149Y0141615D01*
X0044047Y0141752D01*
X0043948Y0141892D01*
X0043852Y0142033D01*
X0043760Y0142177D01*
X0053193Y0141122D02*
X0053305Y0141249D01*
X0053414Y0141377D01*
X0053520Y0141509D01*
X0053623Y0141642D01*
X0053724Y0141778D01*
X0053821Y0141916D01*
X0053915Y0142056D01*
X0054005Y0142199D01*
X0054093Y0142343D01*
X0048876Y0139098D02*
X0048741Y0139100D01*
X0048605Y0139105D01*
X0048470Y0139114D01*
X0048334Y0139126D01*
X0048200Y0139142D01*
X0048065Y0139161D01*
X0047932Y0139183D01*
X0047798Y0139209D01*
X0047666Y0139238D01*
X0047534Y0139270D01*
X0048876Y0139098D02*
X0049017Y0139100D01*
X0049158Y0139106D01*
X0049299Y0139115D01*
X0049440Y0139128D01*
X0049580Y0139145D01*
X0049720Y0139166D01*
X0049859Y0139190D01*
X0049997Y0139218D01*
X0049997Y0139219D02*
X0050136Y0139251D01*
X0050275Y0139286D01*
X0050412Y0139326D01*
X0050548Y0139368D01*
X0050683Y0139414D01*
X0050817Y0139464D01*
X0050950Y0139517D01*
X0051081Y0139573D01*
X0047535Y0139271D02*
X0047402Y0139308D01*
X0047270Y0139348D01*
X0047138Y0139391D01*
X0047008Y0139437D01*
X0046880Y0139486D01*
X0046752Y0139539D01*
X0046625Y0139594D01*
X0046500Y0139653D01*
X0046377Y0139714D01*
X0046255Y0139778D01*
X0051082Y0139572D02*
X0051215Y0139634D01*
X0051347Y0139698D01*
X0051478Y0139766D01*
X0051606Y0139837D01*
X0051733Y0139912D01*
X0051858Y0139989D01*
X0051981Y0140069D01*
X0052102Y0140153D01*
X0046255Y0139779D02*
X0046115Y0139860D01*
X0045977Y0139944D01*
X0045841Y0140032D01*
X0045707Y0140123D01*
X0045575Y0140216D01*
X0045445Y0140313D01*
X0045318Y0140412D01*
X0045192Y0140514D01*
X0045069Y0140619D01*
X0044949Y0140727D01*
X0052101Y0140153D02*
X0052232Y0140249D01*
X0052362Y0140347D01*
X0052488Y0140449D01*
X0052612Y0140554D01*
X0052734Y0140662D01*
X0052853Y0140773D01*
X0052969Y0140886D01*
X0053082Y0141003D01*
X0053193Y0141122D01*
X0042917Y0149984D02*
X0042982Y0150171D01*
X0043051Y0150356D01*
X0043125Y0150540D01*
X0043203Y0150721D01*
X0043286Y0150901D01*
X0043373Y0151079D01*
X0043463Y0151255D01*
X0043558Y0151428D01*
X0043657Y0151599D01*
X0043760Y0151768D01*
X0054094Y0151603D02*
X0054192Y0151431D01*
X0054287Y0151257D01*
X0054378Y0151082D01*
X0054465Y0150904D01*
X0054547Y0150724D01*
X0054626Y0150542D01*
X0054700Y0150359D01*
X0054770Y0150173D01*
X0044949Y0153218D02*
X0044826Y0153100D01*
X0044705Y0152978D01*
X0044588Y0152854D01*
X0044474Y0152727D01*
X0044362Y0152597D01*
X0044254Y0152465D01*
X0044149Y0152330D01*
X0044047Y0152193D01*
X0043948Y0152054D01*
X0043853Y0151912D01*
X0043760Y0151768D01*
X0053193Y0152823D02*
X0053304Y0152697D01*
X0053413Y0152568D01*
X0053520Y0152437D01*
X0053623Y0152303D01*
X0053723Y0152167D01*
X0053820Y0152029D01*
X0053914Y0151889D01*
X0054005Y0151747D01*
X0054093Y0151603D01*
X0048876Y0154846D02*
X0048740Y0154844D01*
X0048605Y0154839D01*
X0048469Y0154830D01*
X0048334Y0154818D01*
X0048200Y0154802D01*
X0048065Y0154783D01*
X0047931Y0154761D01*
X0047798Y0154735D01*
X0047666Y0154706D01*
X0047534Y0154674D01*
X0048876Y0154847D02*
X0049018Y0154845D01*
X0049159Y0154839D01*
X0049300Y0154830D01*
X0049440Y0154817D01*
X0049581Y0154800D01*
X0049720Y0154779D01*
X0049859Y0154755D01*
X0049998Y0154727D01*
X0049998Y0154726D02*
X0050137Y0154693D01*
X0050275Y0154658D01*
X0050412Y0154619D01*
X0050549Y0154576D01*
X0050684Y0154530D01*
X0050818Y0154480D01*
X0050950Y0154428D01*
X0051081Y0154371D01*
X0047534Y0154674D02*
X0047401Y0154637D01*
X0047269Y0154597D01*
X0047138Y0154554D01*
X0047008Y0154508D01*
X0046879Y0154459D01*
X0046751Y0154407D01*
X0046625Y0154351D01*
X0046500Y0154292D01*
X0046376Y0154231D01*
X0046255Y0154166D01*
X0046126Y0154096D01*
X0045998Y0154022D01*
X0045873Y0153945D01*
X0045749Y0153865D01*
X0045628Y0153782D01*
X0045509Y0153695D01*
X0045392Y0153605D01*
X0045277Y0153513D01*
X0045165Y0153417D01*
X0045056Y0153319D01*
X0044949Y0153218D01*
X0051080Y0154372D02*
X0051214Y0154310D01*
X0051346Y0154245D01*
X0051476Y0154177D01*
X0051605Y0154106D01*
X0051731Y0154032D01*
X0051856Y0153955D01*
X0051979Y0153874D01*
X0052100Y0153791D01*
X0052102Y0153792D02*
X0052233Y0153696D01*
X0052362Y0153597D01*
X0052489Y0153495D01*
X0052613Y0153390D01*
X0052734Y0153283D01*
X0052853Y0153172D01*
X0052969Y0153058D01*
X0053083Y0152942D01*
X0053193Y0152823D01*
X0049997Y0158903D02*
X0049859Y0158875D01*
X0049720Y0158851D01*
X0049580Y0158830D01*
X0049440Y0158813D01*
X0049299Y0158800D01*
X0049158Y0158791D01*
X0049017Y0158785D01*
X0048876Y0158783D01*
X0048741Y0158785D01*
X0048605Y0158790D01*
X0048470Y0158799D01*
X0048334Y0158811D01*
X0048200Y0158827D01*
X0048065Y0158846D01*
X0047932Y0158868D01*
X0047798Y0158894D01*
X0047666Y0158923D01*
X0047534Y0158955D01*
X0049997Y0158904D02*
X0050136Y0158936D01*
X0050275Y0158971D01*
X0050412Y0159011D01*
X0050548Y0159053D01*
X0050683Y0159099D01*
X0050817Y0159149D01*
X0050950Y0159202D01*
X0051081Y0159258D01*
X0047535Y0158956D02*
X0047402Y0158993D01*
X0047270Y0159033D01*
X0047138Y0159076D01*
X0047008Y0159122D01*
X0046880Y0159171D01*
X0046752Y0159224D01*
X0046625Y0159279D01*
X0046500Y0159338D01*
X0046377Y0159399D01*
X0046255Y0159463D01*
X0051082Y0159257D02*
X0051215Y0159319D01*
X0051347Y0159383D01*
X0051478Y0159451D01*
X0051606Y0159522D01*
X0051733Y0159597D01*
X0051858Y0159674D01*
X0051981Y0159754D01*
X0052102Y0159838D01*
X0044948Y0160411D02*
X0044825Y0160530D01*
X0044705Y0160652D01*
X0044588Y0160777D01*
X0044474Y0160904D01*
X0044363Y0161033D01*
X0044254Y0161166D01*
X0044149Y0161300D01*
X0044047Y0161437D01*
X0043948Y0161577D01*
X0043852Y0161718D01*
X0043760Y0161862D01*
X0054769Y0163457D02*
X0054836Y0163648D01*
X0054898Y0163840D01*
X0054957Y0164034D01*
X0055011Y0164229D01*
X0055061Y0164425D01*
X0055106Y0164622D01*
X0055148Y0164820D01*
X0055184Y0165019D01*
X0042481Y0165627D02*
X0042459Y0165855D01*
X0042443Y0166084D01*
X0042432Y0166313D01*
X0042427Y0166542D01*
X0042427Y0166772D01*
X0042432Y0167001D01*
X0042443Y0167230D01*
X0042459Y0167459D01*
X0042481Y0167687D01*
X0055186Y0168296D02*
X0055223Y0168063D01*
X0055255Y0167830D01*
X0055281Y0167597D01*
X0055301Y0167362D01*
X0055315Y0167128D01*
X0055324Y0166893D01*
X0055327Y0166657D01*
X0042917Y0163646D02*
X0042848Y0163861D01*
X0042783Y0164078D01*
X0042724Y0164296D01*
X0042671Y0164515D01*
X0042622Y0164735D01*
X0042579Y0164957D01*
X0042541Y0165180D01*
X0042509Y0165403D01*
X0042482Y0165628D01*
X0055185Y0165020D02*
X0055218Y0165223D01*
X0055247Y0165427D01*
X0055271Y0165631D01*
X0055291Y0165836D01*
X0055306Y0166041D01*
X0055317Y0166246D01*
X0055324Y0166452D01*
X0055326Y0166658D01*
X0042916Y0169669D02*
X0042847Y0169454D01*
X0042782Y0169238D01*
X0042723Y0169020D01*
X0042669Y0168800D01*
X0042621Y0168580D01*
X0042578Y0168358D01*
X0042540Y0168135D01*
X0042508Y0167912D01*
X0042481Y0167687D01*
X0054769Y0169859D02*
X0054836Y0169668D01*
X0054899Y0169475D01*
X0054957Y0169282D01*
X0055011Y0169087D01*
X0055061Y0168890D01*
X0055107Y0168693D01*
X0055148Y0168495D01*
X0055185Y0168296D01*
X0043760Y0171453D02*
X0043657Y0171284D01*
X0043558Y0171113D01*
X0043463Y0170940D01*
X0043373Y0170764D01*
X0043286Y0170586D01*
X0043203Y0170406D01*
X0043125Y0170225D01*
X0043051Y0170041D01*
X0042982Y0169856D01*
X0042917Y0169669D01*
X0054094Y0171288D02*
X0054192Y0171116D01*
X0054287Y0170942D01*
X0054378Y0170767D01*
X0054465Y0170589D01*
X0054547Y0170409D01*
X0054626Y0170227D01*
X0054700Y0170044D01*
X0054770Y0169858D01*
X0042916Y0163646D02*
X0042981Y0163460D01*
X0043051Y0163275D01*
X0043125Y0163091D01*
X0043204Y0162910D01*
X0043286Y0162730D01*
X0043373Y0162552D01*
X0043464Y0162377D01*
X0043558Y0162203D01*
X0043657Y0162032D01*
X0043760Y0161863D01*
X0054093Y0162028D02*
X0054192Y0162199D01*
X0054287Y0162373D01*
X0054378Y0162548D01*
X0054465Y0162726D01*
X0054548Y0162906D01*
X0054626Y0163088D01*
X0054700Y0163272D01*
X0054769Y0163457D01*
X0046255Y0159464D02*
X0046115Y0159545D01*
X0045977Y0159629D01*
X0045841Y0159717D01*
X0045707Y0159808D01*
X0045575Y0159901D01*
X0045445Y0159998D01*
X0045318Y0160097D01*
X0045192Y0160199D01*
X0045069Y0160304D01*
X0044949Y0160412D01*
X0052101Y0159838D02*
X0052232Y0159934D01*
X0052362Y0160032D01*
X0052488Y0160134D01*
X0052612Y0160239D01*
X0052734Y0160347D01*
X0052853Y0160458D01*
X0052969Y0160571D01*
X0053082Y0160688D01*
X0053193Y0160807D01*
X0053305Y0160934D01*
X0053414Y0161062D01*
X0053520Y0161194D01*
X0053623Y0161327D01*
X0053724Y0161463D01*
X0053821Y0161601D01*
X0053915Y0161741D01*
X0054005Y0161884D01*
X0054093Y0162028D01*
X0043760Y0171453D02*
X0043853Y0171597D01*
X0043948Y0171739D01*
X0044047Y0171878D01*
X0044149Y0172015D01*
X0044254Y0172150D01*
X0044362Y0172282D01*
X0044474Y0172412D01*
X0044588Y0172539D01*
X0044705Y0172663D01*
X0044826Y0172785D01*
X0044949Y0172903D01*
X0048876Y0174532D02*
X0049018Y0174530D01*
X0049159Y0174524D01*
X0049300Y0174515D01*
X0049440Y0174502D01*
X0049581Y0174485D01*
X0049720Y0174464D01*
X0049859Y0174440D01*
X0049998Y0174412D01*
X0048876Y0174531D02*
X0048740Y0174529D01*
X0048605Y0174524D01*
X0048469Y0174515D01*
X0048334Y0174503D01*
X0048200Y0174487D01*
X0048065Y0174468D01*
X0047931Y0174446D01*
X0047798Y0174420D01*
X0047666Y0174391D01*
X0047534Y0174359D01*
X0049998Y0174411D02*
X0050137Y0174378D01*
X0050275Y0174343D01*
X0050412Y0174304D01*
X0050549Y0174261D01*
X0050684Y0174215D01*
X0050818Y0174165D01*
X0050950Y0174113D01*
X0051081Y0174056D01*
X0047534Y0174360D02*
X0047401Y0174323D01*
X0047269Y0174283D01*
X0047138Y0174240D01*
X0047008Y0174194D01*
X0046879Y0174145D01*
X0046751Y0174093D01*
X0046625Y0174037D01*
X0046500Y0173978D01*
X0046376Y0173917D01*
X0046255Y0173852D01*
X0046255Y0173851D02*
X0046126Y0173781D01*
X0045998Y0173707D01*
X0045873Y0173630D01*
X0045749Y0173550D01*
X0045628Y0173467D01*
X0045509Y0173380D01*
X0045392Y0173290D01*
X0045277Y0173198D01*
X0045165Y0173102D01*
X0045056Y0173004D01*
X0044949Y0172903D01*
X0051080Y0174057D02*
X0051214Y0173995D01*
X0051346Y0173930D01*
X0051476Y0173862D01*
X0051605Y0173791D01*
X0051731Y0173717D01*
X0051856Y0173640D01*
X0051979Y0173559D01*
X0052100Y0173476D01*
X0052102Y0173477D02*
X0052233Y0173381D01*
X0052362Y0173282D01*
X0052489Y0173180D01*
X0052613Y0173075D01*
X0052734Y0172968D01*
X0052853Y0172857D01*
X0052969Y0172743D01*
X0053083Y0172627D01*
X0053193Y0172508D01*
X0053304Y0172382D01*
X0053413Y0172253D01*
X0053520Y0172122D01*
X0053623Y0171988D01*
X0053723Y0171852D01*
X0053820Y0171714D01*
X0053914Y0171574D01*
X0054005Y0171432D01*
X0054093Y0171288D01*
X0048877Y0178469D02*
X0048735Y0178471D01*
X0048594Y0178477D01*
X0048453Y0178486D01*
X0048313Y0178499D01*
X0048172Y0178516D01*
X0048033Y0178536D01*
X0047894Y0178561D01*
X0047755Y0178589D01*
X0048876Y0178468D02*
X0049012Y0178470D01*
X0049148Y0178475D01*
X0049283Y0178484D01*
X0049418Y0178496D01*
X0049553Y0178512D01*
X0049687Y0178531D01*
X0049821Y0178553D01*
X0049954Y0178579D01*
X0050087Y0178608D01*
X0050218Y0178640D01*
X0047755Y0178589D02*
X0047616Y0178621D01*
X0047478Y0178656D01*
X0047341Y0178696D01*
X0047205Y0178738D01*
X0047070Y0178784D01*
X0046936Y0178834D01*
X0046803Y0178887D01*
X0046672Y0178943D01*
X0050218Y0178640D02*
X0050351Y0178677D01*
X0050483Y0178717D01*
X0050615Y0178759D01*
X0050745Y0178806D01*
X0050874Y0178855D01*
X0051001Y0178907D01*
X0051128Y0178963D01*
X0051253Y0179021D01*
X0051376Y0179083D01*
X0051498Y0179148D01*
X0051628Y0179219D01*
X0051755Y0179292D01*
X0051881Y0179369D01*
X0052004Y0179450D01*
X0052125Y0179533D01*
X0052245Y0179619D01*
X0052361Y0179709D01*
X0052476Y0179802D01*
X0052588Y0179897D01*
X0052697Y0179996D01*
X0052804Y0180097D01*
X0046672Y0178943D02*
X0046538Y0179004D01*
X0046406Y0179069D01*
X0046276Y0179137D01*
X0046147Y0179208D01*
X0046020Y0179283D01*
X0045895Y0179360D01*
X0045772Y0179440D01*
X0045651Y0179524D01*
X0052805Y0180097D02*
X0052928Y0180216D01*
X0053048Y0180337D01*
X0053165Y0180462D01*
X0053279Y0180589D01*
X0053391Y0180718D01*
X0053499Y0180851D01*
X0053604Y0180985D01*
X0053706Y0181122D01*
X0053805Y0181262D01*
X0053900Y0181404D01*
X0053992Y0181548D01*
X0044560Y0180492D02*
X0044448Y0180619D01*
X0044339Y0180748D01*
X0044233Y0180879D01*
X0044130Y0181013D01*
X0044030Y0181148D01*
X0043933Y0181287D01*
X0043839Y0181427D01*
X0043748Y0181569D01*
X0043660Y0181713D01*
X0055271Y0185313D02*
X0055293Y0185541D01*
X0055309Y0185770D01*
X0055320Y0185999D01*
X0055325Y0186228D01*
X0055325Y0186458D01*
X0055320Y0186687D01*
X0055309Y0186916D01*
X0055293Y0187145D01*
X0055271Y0187373D01*
X0042426Y0186342D02*
X0042429Y0186107D01*
X0042438Y0185872D01*
X0042452Y0185637D01*
X0042472Y0185403D01*
X0042498Y0185169D01*
X0042530Y0184936D01*
X0042567Y0184704D01*
X0055271Y0187373D02*
X0055244Y0187597D01*
X0055212Y0187820D01*
X0055174Y0188043D01*
X0055131Y0188265D01*
X0055082Y0188485D01*
X0055029Y0188705D01*
X0054970Y0188923D01*
X0054905Y0189139D01*
X0054836Y0189354D01*
X0042567Y0187980D02*
X0042534Y0187777D01*
X0042505Y0187573D01*
X0042481Y0187369D01*
X0042461Y0187164D01*
X0042446Y0186959D01*
X0042435Y0186753D01*
X0042428Y0186548D01*
X0042426Y0186342D01*
X0054836Y0183331D02*
X0054905Y0183546D01*
X0054970Y0183762D01*
X0055029Y0183980D01*
X0055083Y0184200D01*
X0055131Y0184420D01*
X0055174Y0184642D01*
X0055212Y0184865D01*
X0055244Y0185088D01*
X0055271Y0185313D01*
X0042983Y0183141D02*
X0042916Y0183332D01*
X0042853Y0183525D01*
X0042795Y0183718D01*
X0042741Y0183913D01*
X0042691Y0184110D01*
X0042645Y0184307D01*
X0042604Y0184505D01*
X0042567Y0184704D01*
X0053992Y0181547D02*
X0054095Y0181716D01*
X0054194Y0181887D01*
X0054289Y0182061D01*
X0054380Y0182236D01*
X0054466Y0182414D01*
X0054549Y0182594D01*
X0054627Y0182776D01*
X0054701Y0182959D01*
X0054770Y0183144D01*
X0054835Y0183331D01*
X0042568Y0187981D02*
X0042604Y0188180D01*
X0042646Y0188378D01*
X0042691Y0188575D01*
X0042741Y0188771D01*
X0042795Y0188966D01*
X0042854Y0189160D01*
X0042916Y0189352D01*
X0042983Y0189543D01*
X0053991Y0191137D02*
X0054094Y0190968D01*
X0054193Y0190797D01*
X0054288Y0190623D01*
X0054378Y0190448D01*
X0054465Y0190270D01*
X0054547Y0190090D01*
X0054626Y0189909D01*
X0054700Y0189725D01*
X0054770Y0189540D01*
X0054835Y0189354D01*
X0043659Y0190973D02*
X0043560Y0190801D01*
X0043465Y0190628D01*
X0043374Y0190452D01*
X0043287Y0190274D01*
X0043205Y0190094D01*
X0043126Y0189912D01*
X0043052Y0189729D01*
X0042983Y0189544D01*
X0052804Y0192588D02*
X0052927Y0192469D01*
X0053047Y0192347D01*
X0053164Y0192223D01*
X0053278Y0192096D01*
X0053390Y0191966D01*
X0053498Y0191834D01*
X0053603Y0191699D01*
X0053705Y0191562D01*
X0053804Y0191423D01*
X0053900Y0191281D01*
X0053992Y0191138D01*
X0044559Y0192194D02*
X0044447Y0192067D01*
X0044338Y0191939D01*
X0044232Y0191807D01*
X0044129Y0191674D01*
X0044028Y0191538D01*
X0043931Y0191400D01*
X0043837Y0191260D01*
X0043747Y0191117D01*
X0043659Y0190973D01*
X0047755Y0194097D02*
X0047893Y0194125D01*
X0048033Y0194149D01*
X0048172Y0194170D01*
X0048313Y0194187D01*
X0048453Y0194200D01*
X0048594Y0194209D01*
X0048735Y0194215D01*
X0048877Y0194217D01*
X0048876Y0194216D02*
X0049012Y0194214D01*
X0049147Y0194209D01*
X0049283Y0194200D01*
X0049418Y0194188D01*
X0049553Y0194172D01*
X0049687Y0194153D01*
X0049821Y0194131D01*
X0049954Y0194105D01*
X0050086Y0194076D01*
X0050218Y0194044D01*
X0047755Y0194097D02*
X0047616Y0194065D01*
X0047477Y0194029D01*
X0047340Y0193990D01*
X0047204Y0193948D01*
X0047069Y0193902D01*
X0046935Y0193852D01*
X0046803Y0193799D01*
X0046672Y0193743D01*
X0050218Y0194044D02*
X0050351Y0194007D01*
X0050483Y0193967D01*
X0050614Y0193924D01*
X0050744Y0193878D01*
X0050873Y0193829D01*
X0051001Y0193777D01*
X0051127Y0193721D01*
X0051252Y0193663D01*
X0051376Y0193601D01*
X0051498Y0193537D01*
X0046672Y0193742D02*
X0046538Y0193681D01*
X0046406Y0193616D01*
X0046276Y0193548D01*
X0046147Y0193477D01*
X0046021Y0193403D01*
X0045896Y0193325D01*
X0045773Y0193245D01*
X0045652Y0193161D01*
X0051498Y0193537D02*
X0051638Y0193456D01*
X0051776Y0193371D01*
X0051912Y0193284D01*
X0052046Y0193193D01*
X0052178Y0193100D01*
X0052308Y0193003D01*
X0052436Y0192904D01*
X0052561Y0192801D01*
X0052684Y0192696D01*
X0052805Y0192588D01*
X0045651Y0193161D02*
X0045520Y0193066D01*
X0045391Y0192967D01*
X0045264Y0192865D01*
X0045140Y0192761D01*
X0045018Y0192653D01*
X0044900Y0192542D01*
X0044783Y0192428D01*
X0044670Y0192312D01*
X0044560Y0192193D01*
X0042983Y0183142D02*
X0043053Y0182956D01*
X0043127Y0182773D01*
X0043206Y0182591D01*
X0043288Y0182411D01*
X0043375Y0182233D01*
X0043466Y0182058D01*
X0043560Y0181884D01*
X0043659Y0181712D01*
X0044559Y0180491D02*
X0044669Y0180372D01*
X0044783Y0180256D01*
X0044899Y0180142D01*
X0045018Y0180031D01*
X0045140Y0179924D01*
X0045264Y0179819D01*
X0045390Y0179717D01*
X0045519Y0179618D01*
X0045651Y0179522D01*
X0019689Y0179650D02*
X0019689Y0193035D01*
X0007091Y0193035D01*
X0007091Y0179650D01*
X0019689Y0179650D01*
X0016736Y0180437D02*
X0016736Y0192248D01*
X0010240Y0192248D01*
X0010240Y0180437D01*
X0016736Y0180437D01*
X0019689Y0173350D02*
X0007091Y0173350D01*
X0007091Y0159965D01*
X0019689Y0159965D01*
X0019689Y0173350D01*
X0016736Y0172563D02*
X0011224Y0172563D01*
X0010240Y0172563D01*
X0010240Y0160752D01*
X0016736Y0160752D01*
X0016736Y0172563D01*
X0015201Y0216500D02*
X0015203Y0216658D01*
X0015209Y0216816D01*
X0015219Y0216974D01*
X0015233Y0217132D01*
X0015251Y0217289D01*
X0015272Y0217446D01*
X0015298Y0217602D01*
X0015328Y0217758D01*
X0015361Y0217913D01*
X0015399Y0218066D01*
X0015440Y0218219D01*
X0015485Y0218371D01*
X0015534Y0218522D01*
X0015587Y0218671D01*
X0015643Y0218819D01*
X0015703Y0218965D01*
X0015767Y0219110D01*
X0015835Y0219253D01*
X0015906Y0219395D01*
X0015980Y0219535D01*
X0016058Y0219672D01*
X0016140Y0219808D01*
X0016224Y0219942D01*
X0016313Y0220073D01*
X0016404Y0220202D01*
X0016499Y0220329D01*
X0016596Y0220454D01*
X0016697Y0220576D01*
X0016801Y0220695D01*
X0016908Y0220812D01*
X0017018Y0220926D01*
X0017131Y0221037D01*
X0017246Y0221146D01*
X0017364Y0221251D01*
X0017485Y0221353D01*
X0017608Y0221453D01*
X0017734Y0221549D01*
X0017862Y0221642D01*
X0017992Y0221732D01*
X0018125Y0221818D01*
X0018260Y0221902D01*
X0018396Y0221981D01*
X0018535Y0222058D01*
X0018676Y0222130D01*
X0018818Y0222200D01*
X0018962Y0222265D01*
X0019108Y0222327D01*
X0019255Y0222385D01*
X0019404Y0222440D01*
X0019554Y0222491D01*
X0019705Y0222538D01*
X0019857Y0222581D01*
X0020010Y0222620D01*
X0020165Y0222656D01*
X0020320Y0222687D01*
X0020476Y0222715D01*
X0020632Y0222739D01*
X0020789Y0222759D01*
X0020947Y0222775D01*
X0021104Y0222787D01*
X0021263Y0222795D01*
X0021421Y0222799D01*
X0021579Y0222799D01*
X0021737Y0222795D01*
X0021896Y0222787D01*
X0022053Y0222775D01*
X0022211Y0222759D01*
X0022368Y0222739D01*
X0022524Y0222715D01*
X0022680Y0222687D01*
X0022835Y0222656D01*
X0022990Y0222620D01*
X0023143Y0222581D01*
X0023295Y0222538D01*
X0023446Y0222491D01*
X0023596Y0222440D01*
X0023745Y0222385D01*
X0023892Y0222327D01*
X0024038Y0222265D01*
X0024182Y0222200D01*
X0024324Y0222130D01*
X0024465Y0222058D01*
X0024604Y0221981D01*
X0024740Y0221902D01*
X0024875Y0221818D01*
X0025008Y0221732D01*
X0025138Y0221642D01*
X0025266Y0221549D01*
X0025392Y0221453D01*
X0025515Y0221353D01*
X0025636Y0221251D01*
X0025754Y0221146D01*
X0025869Y0221037D01*
X0025982Y0220926D01*
X0026092Y0220812D01*
X0026199Y0220695D01*
X0026303Y0220576D01*
X0026404Y0220454D01*
X0026501Y0220329D01*
X0026596Y0220202D01*
X0026687Y0220073D01*
X0026776Y0219942D01*
X0026860Y0219808D01*
X0026942Y0219672D01*
X0027020Y0219535D01*
X0027094Y0219395D01*
X0027165Y0219253D01*
X0027233Y0219110D01*
X0027297Y0218965D01*
X0027357Y0218819D01*
X0027413Y0218671D01*
X0027466Y0218522D01*
X0027515Y0218371D01*
X0027560Y0218219D01*
X0027601Y0218066D01*
X0027639Y0217913D01*
X0027672Y0217758D01*
X0027702Y0217602D01*
X0027728Y0217446D01*
X0027749Y0217289D01*
X0027767Y0217132D01*
X0027781Y0216974D01*
X0027791Y0216816D01*
X0027797Y0216658D01*
X0027799Y0216500D01*
X0027797Y0216342D01*
X0027791Y0216184D01*
X0027781Y0216026D01*
X0027767Y0215868D01*
X0027749Y0215711D01*
X0027728Y0215554D01*
X0027702Y0215398D01*
X0027672Y0215242D01*
X0027639Y0215087D01*
X0027601Y0214934D01*
X0027560Y0214781D01*
X0027515Y0214629D01*
X0027466Y0214478D01*
X0027413Y0214329D01*
X0027357Y0214181D01*
X0027297Y0214035D01*
X0027233Y0213890D01*
X0027165Y0213747D01*
X0027094Y0213605D01*
X0027020Y0213465D01*
X0026942Y0213328D01*
X0026860Y0213192D01*
X0026776Y0213058D01*
X0026687Y0212927D01*
X0026596Y0212798D01*
X0026501Y0212671D01*
X0026404Y0212546D01*
X0026303Y0212424D01*
X0026199Y0212305D01*
X0026092Y0212188D01*
X0025982Y0212074D01*
X0025869Y0211963D01*
X0025754Y0211854D01*
X0025636Y0211749D01*
X0025515Y0211647D01*
X0025392Y0211547D01*
X0025266Y0211451D01*
X0025138Y0211358D01*
X0025008Y0211268D01*
X0024875Y0211182D01*
X0024740Y0211098D01*
X0024604Y0211019D01*
X0024465Y0210942D01*
X0024324Y0210870D01*
X0024182Y0210800D01*
X0024038Y0210735D01*
X0023892Y0210673D01*
X0023745Y0210615D01*
X0023596Y0210560D01*
X0023446Y0210509D01*
X0023295Y0210462D01*
X0023143Y0210419D01*
X0022990Y0210380D01*
X0022835Y0210344D01*
X0022680Y0210313D01*
X0022524Y0210285D01*
X0022368Y0210261D01*
X0022211Y0210241D01*
X0022053Y0210225D01*
X0021896Y0210213D01*
X0021737Y0210205D01*
X0021579Y0210201D01*
X0021421Y0210201D01*
X0021263Y0210205D01*
X0021104Y0210213D01*
X0020947Y0210225D01*
X0020789Y0210241D01*
X0020632Y0210261D01*
X0020476Y0210285D01*
X0020320Y0210313D01*
X0020165Y0210344D01*
X0020010Y0210380D01*
X0019857Y0210419D01*
X0019705Y0210462D01*
X0019554Y0210509D01*
X0019404Y0210560D01*
X0019255Y0210615D01*
X0019108Y0210673D01*
X0018962Y0210735D01*
X0018818Y0210800D01*
X0018676Y0210870D01*
X0018535Y0210942D01*
X0018396Y0211019D01*
X0018260Y0211098D01*
X0018125Y0211182D01*
X0017992Y0211268D01*
X0017862Y0211358D01*
X0017734Y0211451D01*
X0017608Y0211547D01*
X0017485Y0211647D01*
X0017364Y0211749D01*
X0017246Y0211854D01*
X0017131Y0211963D01*
X0017018Y0212074D01*
X0016908Y0212188D01*
X0016801Y0212305D01*
X0016697Y0212424D01*
X0016596Y0212546D01*
X0016499Y0212671D01*
X0016404Y0212798D01*
X0016313Y0212927D01*
X0016224Y0213058D01*
X0016140Y0213192D01*
X0016058Y0213328D01*
X0015980Y0213465D01*
X0015906Y0213605D01*
X0015835Y0213747D01*
X0015767Y0213890D01*
X0015703Y0214035D01*
X0015643Y0214181D01*
X0015587Y0214329D01*
X0015534Y0214478D01*
X0015485Y0214629D01*
X0015440Y0214781D01*
X0015399Y0214934D01*
X0015361Y0215087D01*
X0015328Y0215242D01*
X0015298Y0215398D01*
X0015272Y0215554D01*
X0015251Y0215711D01*
X0015233Y0215868D01*
X0015219Y0216026D01*
X0015209Y0216184D01*
X0015203Y0216342D01*
X0015201Y0216500D01*
X0076744Y0207012D02*
X0076744Y0204650D01*
X0076744Y0207012D02*
X0079894Y0207012D01*
X0076744Y0198350D02*
X0076744Y0195988D01*
X0079894Y0195988D01*
X0110585Y0190650D02*
X0110587Y0190697D01*
X0110593Y0190744D01*
X0110603Y0190791D01*
X0110616Y0190836D01*
X0110634Y0190880D01*
X0110655Y0190922D01*
X0110679Y0190963D01*
X0110707Y0191001D01*
X0110738Y0191037D01*
X0110772Y0191070D01*
X0110808Y0191100D01*
X0110847Y0191127D01*
X0110888Y0191151D01*
X0110931Y0191171D01*
X0110975Y0191187D01*
X0111021Y0191200D01*
X0111067Y0191209D01*
X0111115Y0191214D01*
X0111162Y0191215D01*
X0111209Y0191212D01*
X0111256Y0191205D01*
X0111302Y0191194D01*
X0111347Y0191180D01*
X0111391Y0191161D01*
X0111432Y0191139D01*
X0111472Y0191114D01*
X0111510Y0191085D01*
X0111545Y0191054D01*
X0111578Y0191019D01*
X0111607Y0190982D01*
X0111633Y0190943D01*
X0111656Y0190901D01*
X0111675Y0190858D01*
X0111691Y0190813D01*
X0111703Y0190767D01*
X0111711Y0190721D01*
X0111715Y0190674D01*
X0111715Y0190626D01*
X0111711Y0190579D01*
X0111703Y0190533D01*
X0111691Y0190487D01*
X0111675Y0190442D01*
X0111656Y0190399D01*
X0111633Y0190357D01*
X0111607Y0190318D01*
X0111578Y0190281D01*
X0111545Y0190246D01*
X0111510Y0190215D01*
X0111472Y0190186D01*
X0111433Y0190161D01*
X0111391Y0190139D01*
X0111347Y0190120D01*
X0111302Y0190106D01*
X0111256Y0190095D01*
X0111209Y0190088D01*
X0111162Y0190085D01*
X0111115Y0190086D01*
X0111067Y0190091D01*
X0111021Y0190100D01*
X0110975Y0190113D01*
X0110931Y0190129D01*
X0110888Y0190149D01*
X0110847Y0190173D01*
X0110808Y0190200D01*
X0110772Y0190230D01*
X0110738Y0190263D01*
X0110707Y0190299D01*
X0110679Y0190337D01*
X0110655Y0190378D01*
X0110634Y0190420D01*
X0110616Y0190464D01*
X0110603Y0190509D01*
X0110593Y0190556D01*
X0110587Y0190603D01*
X0110585Y0190650D01*
X0127400Y0203701D02*
X0127400Y0206903D01*
X0128201Y0207704D01*
X0129802Y0207704D01*
X0130603Y0206903D01*
X0132556Y0205302D02*
X0132556Y0203701D01*
X0133357Y0202900D01*
X0134958Y0202900D01*
X0135759Y0203701D01*
X0135759Y0205302D01*
X0134958Y0206103D01*
X0133357Y0206103D01*
X0132556Y0205302D01*
X0130603Y0203701D02*
X0129802Y0202900D01*
X0128201Y0202900D01*
X0127400Y0203701D01*
X0137713Y0203701D02*
X0138513Y0202900D01*
X0140115Y0202900D01*
X0140916Y0203701D01*
X0140916Y0205302D01*
X0140115Y0206103D01*
X0138513Y0206103D01*
X0137713Y0205302D01*
X0137713Y0203701D01*
X0142869Y0202900D02*
X0144471Y0202900D01*
X0143670Y0202900D02*
X0143670Y0207704D01*
X0142869Y0207704D01*
X0146307Y0206103D02*
X0147107Y0206103D01*
X0147107Y0202900D01*
X0146307Y0202900D02*
X0147908Y0202900D01*
X0149744Y0202900D02*
X0149744Y0206103D01*
X0152146Y0206103D01*
X0152947Y0205302D01*
X0152947Y0202900D01*
X0154901Y0203701D02*
X0155701Y0202900D01*
X0158104Y0202900D01*
X0158104Y0202099D02*
X0158104Y0206103D01*
X0155701Y0206103D01*
X0154901Y0205302D01*
X0154901Y0203701D01*
X0156502Y0201299D02*
X0157303Y0201299D01*
X0158104Y0202099D01*
X0165214Y0203701D02*
X0166014Y0202900D01*
X0167616Y0202900D01*
X0168416Y0203701D01*
X0165214Y0203701D02*
X0165214Y0206903D01*
X0166014Y0207704D01*
X0167616Y0207704D01*
X0168416Y0206903D01*
X0170370Y0207704D02*
X0173573Y0207704D01*
X0171971Y0207704D02*
X0171971Y0202900D01*
X0175526Y0202900D02*
X0175526Y0207704D01*
X0177928Y0207704D01*
X0178729Y0206903D01*
X0178729Y0205302D01*
X0177928Y0204501D01*
X0175526Y0204501D01*
X0177128Y0204501D02*
X0178729Y0202900D01*
X0180683Y0202900D02*
X0183886Y0202900D01*
X0180683Y0202900D02*
X0180683Y0207704D01*
X0190996Y0207704D02*
X0190996Y0202900D01*
X0190996Y0204501D02*
X0193398Y0204501D01*
X0194198Y0205302D01*
X0194198Y0206903D01*
X0193398Y0207704D01*
X0190996Y0207704D01*
X0192597Y0204501D02*
X0194198Y0202900D01*
X0196152Y0203701D02*
X0196152Y0205302D01*
X0196953Y0206103D01*
X0198554Y0206103D01*
X0199355Y0205302D01*
X0199355Y0204501D01*
X0196152Y0204501D01*
X0196152Y0203701D02*
X0196953Y0202900D01*
X0198554Y0202900D01*
X0201308Y0206103D02*
X0202910Y0202900D01*
X0204511Y0206103D01*
X0206465Y0203701D02*
X0207265Y0203701D01*
X0207265Y0202900D01*
X0206465Y0202900D01*
X0206465Y0203701D01*
X0214199Y0202900D02*
X0217402Y0202900D01*
X0215801Y0202900D02*
X0215801Y0207704D01*
X0214199Y0206103D01*
X0215437Y0187437D02*
X0220949Y0187437D01*
X0220949Y0179563D01*
X0215437Y0179563D01*
X0212681Y0181138D02*
X0212681Y0185862D01*
X0210319Y0183500D01*
X0212681Y0181138D01*
X0210319Y0180744D02*
X0210319Y0183500D01*
X0210319Y0186256D01*
X0207563Y0187437D02*
X0202051Y0187437D01*
X0202051Y0179563D01*
X0207563Y0179563D01*
X0233780Y0181736D02*
X0233780Y0165201D01*
X0238110Y0160870D01*
X0242244Y0160870D01*
X0246378Y0160870D02*
X0250315Y0160870D01*
X0254646Y0165201D01*
X0254646Y0181736D01*
X0246378Y0181736D01*
X0242047Y0181736D02*
X0233780Y0181736D01*
X0246378Y0180949D02*
X0246610Y0180896D01*
X0246841Y0180837D01*
X0247070Y0180773D01*
X0247297Y0180702D01*
X0247523Y0180627D01*
X0247747Y0180546D01*
X0247969Y0180459D01*
X0248188Y0180367D01*
X0248405Y0180270D01*
X0248620Y0180167D01*
X0248832Y0180059D01*
X0249042Y0179946D01*
X0249249Y0179828D01*
X0249452Y0179705D01*
X0249653Y0179577D01*
X0249851Y0179444D01*
X0250045Y0179307D01*
X0250236Y0179164D01*
X0250423Y0179017D01*
X0250607Y0178866D01*
X0250786Y0178710D01*
X0250962Y0178550D01*
X0251134Y0178385D01*
X0251302Y0178216D01*
X0251466Y0178044D01*
X0251626Y0177867D01*
X0251781Y0177686D01*
X0251932Y0177502D01*
X0252078Y0177314D01*
X0252219Y0177123D01*
X0252356Y0176928D01*
X0252488Y0176730D01*
X0252615Y0176529D01*
X0252738Y0176324D01*
X0252855Y0176117D01*
X0252967Y0175907D01*
X0253074Y0175694D01*
X0253176Y0175479D01*
X0253272Y0175262D01*
X0253363Y0175042D01*
X0253449Y0174820D01*
X0253529Y0174595D01*
X0253604Y0174369D01*
X0253673Y0174142D01*
X0253737Y0173912D01*
X0253795Y0173681D01*
X0253847Y0173449D01*
X0253894Y0173216D01*
X0253935Y0172981D01*
X0253970Y0172746D01*
X0253999Y0172510D01*
X0254023Y0172273D01*
X0254041Y0172035D01*
X0254053Y0171798D01*
X0254059Y0171560D01*
X0254059Y0171322D01*
X0254054Y0171084D01*
X0254043Y0170846D01*
X0254026Y0170608D01*
X0254003Y0170371D01*
X0253975Y0170135D01*
X0253940Y0169899D01*
X0253900Y0169665D01*
X0253855Y0169431D01*
X0253803Y0169199D01*
X0253746Y0168968D01*
X0253683Y0168738D01*
X0253615Y0168510D01*
X0253541Y0168284D01*
X0253462Y0168059D01*
X0253377Y0167837D01*
X0253287Y0167616D01*
X0253191Y0167398D01*
X0253090Y0167183D01*
X0252984Y0166970D01*
X0252873Y0166759D01*
X0252756Y0166552D01*
X0252635Y0166347D01*
X0252508Y0166145D01*
X0252377Y0165947D01*
X0252241Y0165751D01*
X0252100Y0165559D01*
X0251955Y0165371D01*
X0251805Y0165186D01*
X0251650Y0165005D01*
X0251491Y0164828D01*
X0251328Y0164654D01*
X0251161Y0164485D01*
X0250989Y0164320D01*
X0250814Y0164159D01*
X0250635Y0164002D01*
X0250452Y0163850D01*
X0250265Y0163702D01*
X0250075Y0163559D01*
X0249881Y0163421D01*
X0249684Y0163287D01*
X0249484Y0163159D01*
X0249281Y0163035D01*
X0249074Y0162916D01*
X0248865Y0162802D01*
X0248653Y0162693D01*
X0248439Y0162590D01*
X0248222Y0162492D01*
X0248003Y0162399D01*
X0247781Y0162312D01*
X0247558Y0162230D01*
X0247333Y0162153D01*
X0247105Y0162082D01*
X0246876Y0162017D01*
X0246646Y0161957D01*
X0246414Y0161903D01*
X0246181Y0161854D01*
X0242244Y0161657D02*
X0242010Y0161711D01*
X0241776Y0161769D01*
X0241545Y0161834D01*
X0241315Y0161904D01*
X0241087Y0161980D01*
X0240860Y0162061D01*
X0240636Y0162147D01*
X0240414Y0162240D01*
X0240194Y0162337D01*
X0239977Y0162440D01*
X0239762Y0162548D01*
X0239550Y0162661D01*
X0239340Y0162780D01*
X0239134Y0162903D01*
X0238931Y0163031D01*
X0238731Y0163165D01*
X0238534Y0163303D01*
X0238340Y0163446D01*
X0238150Y0163593D01*
X0237964Y0163745D01*
X0237782Y0163902D01*
X0237603Y0164063D01*
X0237429Y0164228D01*
X0237258Y0164398D01*
X0237092Y0164571D01*
X0236929Y0164749D01*
X0236772Y0164930D01*
X0236618Y0165116D01*
X0236470Y0165305D01*
X0236326Y0165497D01*
X0236186Y0165693D01*
X0236052Y0165892D01*
X0235922Y0166095D01*
X0235797Y0166300D01*
X0235677Y0166509D01*
X0235563Y0166720D01*
X0235453Y0166934D01*
X0235349Y0167151D01*
X0235250Y0167370D01*
X0235157Y0167592D01*
X0235069Y0167816D01*
X0234986Y0168041D01*
X0234909Y0168269D01*
X0234838Y0168499D01*
X0234772Y0168730D01*
X0234711Y0168963D01*
X0234657Y0169197D01*
X0234608Y0169432D01*
X0234565Y0169669D01*
X0234527Y0169906D01*
X0234496Y0170145D01*
X0234470Y0170384D01*
X0234450Y0170624D01*
X0234436Y0170864D01*
X0234427Y0171104D01*
X0234425Y0171344D01*
X0234428Y0171585D01*
X0234438Y0171825D01*
X0234453Y0172065D01*
X0234474Y0172305D01*
X0234500Y0172544D01*
X0234533Y0172782D01*
X0234571Y0173019D01*
X0234615Y0173256D01*
X0234665Y0173491D01*
X0234721Y0173725D01*
X0234782Y0173957D01*
X0234849Y0174188D01*
X0234921Y0174418D01*
X0234999Y0174645D01*
X0235083Y0174871D01*
X0235172Y0175094D01*
X0235266Y0175315D01*
X0235366Y0175534D01*
X0235471Y0175750D01*
X0235581Y0175964D01*
X0235696Y0176175D01*
X0235817Y0176383D01*
X0235942Y0176588D01*
X0236073Y0176790D01*
X0236208Y0176989D01*
X0236348Y0177184D01*
X0236493Y0177376D01*
X0236643Y0177564D01*
X0236797Y0177749D01*
X0236955Y0177930D01*
X0237118Y0178107D01*
X0237285Y0178280D01*
X0237456Y0178449D01*
X0237632Y0178613D01*
X0237811Y0178774D01*
X0237994Y0178929D01*
X0238181Y0179081D01*
X0238371Y0179228D01*
X0238565Y0179370D01*
X0238763Y0179507D01*
X0238963Y0179640D01*
X0239167Y0179767D01*
X0239374Y0179890D01*
X0239584Y0180007D01*
X0239796Y0180120D01*
X0240011Y0180227D01*
X0240229Y0180329D01*
X0240449Y0180426D01*
X0240672Y0180517D01*
X0240897Y0180603D01*
X0241123Y0180683D01*
X0241352Y0180758D01*
X0241582Y0180827D01*
X0241814Y0180890D01*
X0242047Y0180948D01*
X0250000Y0148902D02*
X0226400Y0148900D01*
X0250000Y0148902D02*
X0250000Y0123098D01*
X0226400Y0123100D01*
X0237201Y0115220D02*
X0253736Y0115220D01*
X0253736Y0106953D01*
X0253736Y0102622D02*
X0253736Y0094354D01*
X0237201Y0094354D01*
X0232870Y0098685D01*
X0232870Y0102622D01*
X0232870Y0106756D02*
X0232870Y0110890D01*
X0237201Y0115220D01*
X0233657Y0106756D02*
X0233711Y0106990D01*
X0233769Y0107224D01*
X0233834Y0107455D01*
X0233904Y0107685D01*
X0233980Y0107913D01*
X0234061Y0108140D01*
X0234147Y0108364D01*
X0234240Y0108586D01*
X0234337Y0108806D01*
X0234440Y0109023D01*
X0234548Y0109238D01*
X0234661Y0109450D01*
X0234780Y0109660D01*
X0234903Y0109866D01*
X0235031Y0110069D01*
X0235165Y0110269D01*
X0235303Y0110466D01*
X0235446Y0110660D01*
X0235593Y0110850D01*
X0235745Y0111036D01*
X0235902Y0111218D01*
X0236063Y0111397D01*
X0236228Y0111571D01*
X0236398Y0111742D01*
X0236571Y0111908D01*
X0236749Y0112071D01*
X0236930Y0112228D01*
X0237116Y0112382D01*
X0237305Y0112530D01*
X0237497Y0112674D01*
X0237693Y0112814D01*
X0237892Y0112948D01*
X0238095Y0113078D01*
X0238300Y0113203D01*
X0238509Y0113323D01*
X0238720Y0113437D01*
X0238934Y0113547D01*
X0239151Y0113651D01*
X0239370Y0113750D01*
X0239592Y0113843D01*
X0239816Y0113931D01*
X0240041Y0114014D01*
X0240269Y0114091D01*
X0240499Y0114162D01*
X0240730Y0114228D01*
X0240963Y0114289D01*
X0241197Y0114343D01*
X0241432Y0114392D01*
X0241669Y0114435D01*
X0241906Y0114473D01*
X0242145Y0114504D01*
X0242384Y0114530D01*
X0242624Y0114550D01*
X0242864Y0114564D01*
X0243104Y0114573D01*
X0243344Y0114575D01*
X0243585Y0114572D01*
X0243825Y0114562D01*
X0244065Y0114547D01*
X0244305Y0114526D01*
X0244544Y0114500D01*
X0244782Y0114467D01*
X0245019Y0114429D01*
X0245256Y0114385D01*
X0245491Y0114335D01*
X0245725Y0114279D01*
X0245957Y0114218D01*
X0246188Y0114151D01*
X0246418Y0114079D01*
X0246645Y0114001D01*
X0246871Y0113917D01*
X0247094Y0113828D01*
X0247315Y0113734D01*
X0247534Y0113634D01*
X0247750Y0113529D01*
X0247964Y0113419D01*
X0248175Y0113304D01*
X0248383Y0113183D01*
X0248588Y0113058D01*
X0248790Y0112927D01*
X0248989Y0112792D01*
X0249184Y0112652D01*
X0249376Y0112507D01*
X0249564Y0112357D01*
X0249749Y0112203D01*
X0249930Y0112045D01*
X0250107Y0111882D01*
X0250280Y0111715D01*
X0250449Y0111544D01*
X0250613Y0111368D01*
X0250774Y0111189D01*
X0250929Y0111006D01*
X0251081Y0110819D01*
X0251228Y0110629D01*
X0251370Y0110435D01*
X0251507Y0110237D01*
X0251640Y0110037D01*
X0251767Y0109833D01*
X0251890Y0109626D01*
X0252007Y0109416D01*
X0252120Y0109204D01*
X0252227Y0108989D01*
X0252329Y0108771D01*
X0252426Y0108551D01*
X0252517Y0108328D01*
X0252603Y0108103D01*
X0252683Y0107877D01*
X0252758Y0107648D01*
X0252827Y0107418D01*
X0252890Y0107186D01*
X0252948Y0106953D01*
X0252949Y0102622D02*
X0252896Y0102390D01*
X0252837Y0102159D01*
X0252773Y0101930D01*
X0252702Y0101703D01*
X0252627Y0101477D01*
X0252546Y0101253D01*
X0252459Y0101031D01*
X0252367Y0100812D01*
X0252270Y0100595D01*
X0252167Y0100380D01*
X0252059Y0100168D01*
X0251946Y0099958D01*
X0251828Y0099751D01*
X0251705Y0099548D01*
X0251577Y0099347D01*
X0251444Y0099149D01*
X0251307Y0098955D01*
X0251164Y0098764D01*
X0251017Y0098577D01*
X0250866Y0098393D01*
X0250710Y0098214D01*
X0250550Y0098038D01*
X0250385Y0097866D01*
X0250216Y0097698D01*
X0250044Y0097534D01*
X0249867Y0097374D01*
X0249686Y0097219D01*
X0249502Y0097068D01*
X0249314Y0096922D01*
X0249123Y0096781D01*
X0248928Y0096644D01*
X0248730Y0096512D01*
X0248529Y0096385D01*
X0248324Y0096262D01*
X0248117Y0096145D01*
X0247907Y0096033D01*
X0247694Y0095926D01*
X0247479Y0095824D01*
X0247262Y0095728D01*
X0247042Y0095637D01*
X0246820Y0095551D01*
X0246595Y0095471D01*
X0246369Y0095396D01*
X0246142Y0095327D01*
X0245912Y0095263D01*
X0245681Y0095205D01*
X0245449Y0095153D01*
X0245216Y0095106D01*
X0244981Y0095065D01*
X0244746Y0095030D01*
X0244510Y0095001D01*
X0244273Y0094977D01*
X0244035Y0094959D01*
X0243798Y0094947D01*
X0243560Y0094941D01*
X0243322Y0094941D01*
X0243084Y0094946D01*
X0242846Y0094957D01*
X0242608Y0094974D01*
X0242371Y0094997D01*
X0242135Y0095025D01*
X0241899Y0095060D01*
X0241665Y0095100D01*
X0241431Y0095145D01*
X0241199Y0095197D01*
X0240968Y0095254D01*
X0240738Y0095317D01*
X0240510Y0095385D01*
X0240284Y0095459D01*
X0240059Y0095538D01*
X0239837Y0095623D01*
X0239616Y0095713D01*
X0239398Y0095809D01*
X0239183Y0095910D01*
X0238970Y0096016D01*
X0238759Y0096127D01*
X0238552Y0096244D01*
X0238347Y0096365D01*
X0238145Y0096492D01*
X0237947Y0096623D01*
X0237751Y0096759D01*
X0237559Y0096900D01*
X0237371Y0097045D01*
X0237186Y0097195D01*
X0237005Y0097350D01*
X0236828Y0097509D01*
X0236654Y0097672D01*
X0236485Y0097839D01*
X0236320Y0098011D01*
X0236159Y0098186D01*
X0236002Y0098365D01*
X0235850Y0098548D01*
X0235702Y0098735D01*
X0235559Y0098925D01*
X0235421Y0099119D01*
X0235287Y0099316D01*
X0235159Y0099516D01*
X0235035Y0099719D01*
X0234916Y0099926D01*
X0234802Y0100135D01*
X0234693Y0100347D01*
X0234590Y0100561D01*
X0234492Y0100778D01*
X0234399Y0100997D01*
X0234312Y0101219D01*
X0234230Y0101442D01*
X0234153Y0101667D01*
X0234082Y0101895D01*
X0234017Y0102124D01*
X0233957Y0102354D01*
X0233903Y0102586D01*
X0233854Y0102819D01*
X0232236Y0088744D02*
X0232236Y0087760D01*
X0232827Y0086972D01*
X0232827Y0086185D01*
X0232236Y0088744D02*
X0243260Y0088744D01*
X0243260Y0087760D01*
X0242472Y0086972D01*
X0242472Y0086185D01*
X0238370Y0085791D02*
X0236455Y0085791D01*
X0222197Y0085791D01*
X0222197Y0047209D01*
X0236455Y0047209D01*
X0238370Y0047209D01*
X0254487Y0047209D01*
X0256268Y0047209D01*
X0274165Y0047209D01*
X0274165Y0085791D01*
X0256268Y0085791D01*
X0254487Y0085791D01*
X0238370Y0085791D01*
X0238370Y0047209D01*
X0236455Y0047209D02*
X0236455Y0085791D01*
X0229624Y0084217D02*
X0229483Y0084215D01*
X0229342Y0084209D01*
X0229201Y0084200D01*
X0229060Y0084187D01*
X0228920Y0084170D01*
X0228780Y0084149D01*
X0228641Y0084125D01*
X0228503Y0084097D01*
X0229624Y0084217D02*
X0229759Y0084215D01*
X0229895Y0084210D01*
X0230030Y0084201D01*
X0230166Y0084189D01*
X0230300Y0084173D01*
X0230435Y0084154D01*
X0230568Y0084132D01*
X0230702Y0084106D01*
X0230834Y0084077D01*
X0230966Y0084045D01*
X0228503Y0084096D02*
X0228364Y0084064D01*
X0228225Y0084029D01*
X0228088Y0083989D01*
X0227952Y0083947D01*
X0227817Y0083901D01*
X0227683Y0083851D01*
X0227550Y0083798D01*
X0227419Y0083742D01*
X0230965Y0084044D02*
X0231098Y0084007D01*
X0231230Y0083967D01*
X0231362Y0083924D01*
X0231492Y0083878D01*
X0231620Y0083829D01*
X0231748Y0083776D01*
X0231875Y0083721D01*
X0232000Y0083662D01*
X0232123Y0083601D01*
X0232245Y0083537D01*
X0227418Y0083743D02*
X0227285Y0083681D01*
X0227153Y0083617D01*
X0227022Y0083549D01*
X0226894Y0083478D01*
X0226767Y0083403D01*
X0226642Y0083326D01*
X0226519Y0083246D01*
X0226398Y0083162D01*
X0233552Y0082589D02*
X0233675Y0082470D01*
X0233795Y0082348D01*
X0233912Y0082223D01*
X0234026Y0082096D01*
X0234137Y0081967D01*
X0234246Y0081834D01*
X0234351Y0081700D01*
X0234453Y0081563D01*
X0234552Y0081423D01*
X0234648Y0081282D01*
X0234740Y0081138D01*
X0223173Y0076343D02*
X0223176Y0076107D01*
X0223185Y0075872D01*
X0223199Y0075638D01*
X0223219Y0075403D01*
X0223245Y0075170D01*
X0223277Y0074937D01*
X0223314Y0074704D01*
X0236019Y0075313D02*
X0236041Y0075541D01*
X0236057Y0075770D01*
X0236068Y0075999D01*
X0236073Y0076228D01*
X0236073Y0076458D01*
X0236068Y0076687D01*
X0236057Y0076916D01*
X0236041Y0077145D01*
X0236019Y0077373D01*
X0223315Y0077980D02*
X0223282Y0077777D01*
X0223253Y0077573D01*
X0223229Y0077369D01*
X0223209Y0077164D01*
X0223194Y0076959D01*
X0223183Y0076754D01*
X0223176Y0076548D01*
X0223174Y0076342D01*
X0235583Y0079354D02*
X0235652Y0079139D01*
X0235717Y0078922D01*
X0235776Y0078704D01*
X0235829Y0078485D01*
X0235878Y0078265D01*
X0235921Y0078043D01*
X0235959Y0077820D01*
X0235991Y0077597D01*
X0236018Y0077372D01*
X0223315Y0074704D02*
X0223352Y0074505D01*
X0223393Y0074307D01*
X0223439Y0074110D01*
X0223489Y0073913D01*
X0223543Y0073718D01*
X0223601Y0073525D01*
X0223664Y0073332D01*
X0223731Y0073141D01*
X0234740Y0071547D02*
X0234843Y0071716D01*
X0234942Y0071887D01*
X0235037Y0072060D01*
X0235127Y0072236D01*
X0235214Y0072414D01*
X0235297Y0072594D01*
X0235375Y0072775D01*
X0235449Y0072959D01*
X0235518Y0073144D01*
X0235583Y0073331D01*
X0224406Y0071712D02*
X0224308Y0071884D01*
X0224213Y0072058D01*
X0224122Y0072233D01*
X0224035Y0072411D01*
X0223953Y0072591D01*
X0223874Y0072773D01*
X0223800Y0072956D01*
X0223730Y0073142D01*
X0235584Y0073331D02*
X0235653Y0073546D01*
X0235718Y0073762D01*
X0235777Y0073980D01*
X0235831Y0074200D01*
X0235879Y0074420D01*
X0235922Y0074642D01*
X0235960Y0074865D01*
X0235992Y0075088D01*
X0236019Y0075313D01*
X0223316Y0077981D02*
X0223352Y0078180D01*
X0223394Y0078378D01*
X0223439Y0078575D01*
X0223489Y0078771D01*
X0223543Y0078966D01*
X0223602Y0079160D01*
X0223664Y0079352D01*
X0223731Y0079543D01*
X0234739Y0081137D02*
X0234842Y0080968D01*
X0234941Y0080797D01*
X0235035Y0080623D01*
X0235126Y0080448D01*
X0235213Y0080270D01*
X0235295Y0080090D01*
X0235374Y0079909D01*
X0235448Y0079725D01*
X0235518Y0079540D01*
X0235583Y0079354D01*
X0224407Y0080972D02*
X0224308Y0080801D01*
X0224213Y0080627D01*
X0224122Y0080452D01*
X0224035Y0080274D01*
X0223952Y0080094D01*
X0223874Y0079912D01*
X0223800Y0079728D01*
X0223731Y0079543D01*
X0232245Y0083536D02*
X0232385Y0083455D01*
X0232523Y0083371D01*
X0232659Y0083283D01*
X0232793Y0083192D01*
X0232925Y0083099D01*
X0233055Y0083002D01*
X0233182Y0082903D01*
X0233308Y0082801D01*
X0233431Y0082696D01*
X0233551Y0082588D01*
X0226399Y0083162D02*
X0226268Y0083066D01*
X0226138Y0082968D01*
X0226012Y0082866D01*
X0225888Y0082761D01*
X0225766Y0082653D01*
X0225647Y0082542D01*
X0225531Y0082429D01*
X0225418Y0082312D01*
X0225307Y0082193D01*
X0225195Y0082066D01*
X0225086Y0081938D01*
X0224980Y0081806D01*
X0224877Y0081673D01*
X0224776Y0081537D01*
X0224679Y0081399D01*
X0224585Y0081259D01*
X0224495Y0081116D01*
X0224407Y0080972D01*
X0234740Y0071547D02*
X0234647Y0071403D01*
X0234552Y0071261D01*
X0234453Y0071122D01*
X0234351Y0070985D01*
X0234246Y0070850D01*
X0234138Y0070718D01*
X0234026Y0070588D01*
X0233912Y0070461D01*
X0233795Y0070337D01*
X0233674Y0070215D01*
X0233551Y0070097D01*
X0229624Y0068468D02*
X0229482Y0068470D01*
X0229341Y0068476D01*
X0229200Y0068485D01*
X0229060Y0068498D01*
X0228919Y0068515D01*
X0228780Y0068536D01*
X0228641Y0068560D01*
X0228502Y0068588D01*
X0229624Y0068469D02*
X0229760Y0068471D01*
X0229895Y0068476D01*
X0230031Y0068485D01*
X0230166Y0068497D01*
X0230300Y0068513D01*
X0230435Y0068532D01*
X0230569Y0068554D01*
X0230702Y0068580D01*
X0230834Y0068609D01*
X0230966Y0068641D01*
X0228502Y0068589D02*
X0228363Y0068622D01*
X0228225Y0068657D01*
X0228088Y0068696D01*
X0227951Y0068739D01*
X0227816Y0068785D01*
X0227682Y0068835D01*
X0227550Y0068887D01*
X0227419Y0068944D01*
X0230966Y0068640D02*
X0231099Y0068677D01*
X0231231Y0068717D01*
X0231362Y0068760D01*
X0231492Y0068806D01*
X0231621Y0068855D01*
X0231749Y0068907D01*
X0231875Y0068963D01*
X0232000Y0069022D01*
X0232124Y0069083D01*
X0232245Y0069148D01*
X0232245Y0069149D02*
X0232374Y0069219D01*
X0232502Y0069293D01*
X0232627Y0069370D01*
X0232751Y0069450D01*
X0232872Y0069533D01*
X0232991Y0069620D01*
X0233108Y0069710D01*
X0233223Y0069802D01*
X0233335Y0069898D01*
X0233444Y0069996D01*
X0233551Y0070097D01*
X0227420Y0068943D02*
X0227286Y0069005D01*
X0227154Y0069070D01*
X0227024Y0069138D01*
X0226895Y0069209D01*
X0226769Y0069283D01*
X0226644Y0069360D01*
X0226521Y0069441D01*
X0226400Y0069524D01*
X0226398Y0069523D02*
X0226267Y0069619D01*
X0226138Y0069718D01*
X0226011Y0069820D01*
X0225887Y0069925D01*
X0225766Y0070032D01*
X0225647Y0070143D01*
X0225531Y0070257D01*
X0225417Y0070373D01*
X0225307Y0070492D01*
X0225196Y0070618D01*
X0225087Y0070747D01*
X0224980Y0070878D01*
X0224877Y0071012D01*
X0224777Y0071148D01*
X0224680Y0071286D01*
X0224586Y0071426D01*
X0224495Y0071568D01*
X0224407Y0071712D01*
X0229623Y0064531D02*
X0229765Y0064529D01*
X0229906Y0064523D01*
X0230047Y0064514D01*
X0230187Y0064501D01*
X0230328Y0064484D01*
X0230467Y0064464D01*
X0230606Y0064439D01*
X0230745Y0064411D01*
X0229624Y0064532D02*
X0229488Y0064530D01*
X0229352Y0064525D01*
X0229217Y0064516D01*
X0229082Y0064504D01*
X0228947Y0064488D01*
X0228813Y0064469D01*
X0228679Y0064447D01*
X0228546Y0064421D01*
X0228413Y0064392D01*
X0228282Y0064360D01*
X0230745Y0064411D02*
X0230884Y0064379D01*
X0231022Y0064344D01*
X0231159Y0064304D01*
X0231295Y0064262D01*
X0231430Y0064216D01*
X0231564Y0064166D01*
X0231697Y0064113D01*
X0231828Y0064057D01*
X0228282Y0064359D02*
X0228149Y0064322D01*
X0228017Y0064282D01*
X0227885Y0064240D01*
X0227755Y0064193D01*
X0227626Y0064144D01*
X0227499Y0064092D01*
X0227372Y0064036D01*
X0227247Y0063978D01*
X0227124Y0063916D01*
X0227002Y0063851D01*
X0227002Y0063852D02*
X0226872Y0063781D01*
X0226745Y0063708D01*
X0226619Y0063631D01*
X0226496Y0063550D01*
X0226375Y0063467D01*
X0226255Y0063381D01*
X0226139Y0063291D01*
X0226024Y0063198D01*
X0225912Y0063103D01*
X0225803Y0063004D01*
X0225696Y0062903D01*
X0231828Y0064057D02*
X0231962Y0063996D01*
X0232094Y0063931D01*
X0232224Y0063863D01*
X0232353Y0063792D01*
X0232480Y0063717D01*
X0232605Y0063640D01*
X0232728Y0063560D01*
X0232849Y0063476D01*
X0225695Y0062903D02*
X0225572Y0062784D01*
X0225452Y0062663D01*
X0225335Y0062538D01*
X0225221Y0062411D01*
X0225109Y0062282D01*
X0225001Y0062149D01*
X0224896Y0062015D01*
X0224794Y0061878D01*
X0224695Y0061738D01*
X0224600Y0061596D01*
X0224508Y0061452D01*
X0235933Y0058296D02*
X0235970Y0058064D01*
X0236002Y0057831D01*
X0236028Y0057597D01*
X0236048Y0057363D01*
X0236062Y0057128D01*
X0236071Y0056893D01*
X0236074Y0056658D01*
X0223229Y0057687D02*
X0223207Y0057459D01*
X0223191Y0057230D01*
X0223180Y0057001D01*
X0223175Y0056772D01*
X0223175Y0056542D01*
X0223180Y0056313D01*
X0223191Y0056084D01*
X0223207Y0055855D01*
X0223229Y0055627D01*
X0235933Y0055020D02*
X0235966Y0055223D01*
X0235995Y0055427D01*
X0236019Y0055631D01*
X0236039Y0055836D01*
X0236054Y0056041D01*
X0236065Y0056247D01*
X0236072Y0056452D01*
X0236074Y0056658D01*
X0223664Y0053646D02*
X0223595Y0053861D01*
X0223530Y0054077D01*
X0223471Y0054295D01*
X0223418Y0054515D01*
X0223369Y0054735D01*
X0223326Y0054957D01*
X0223288Y0055180D01*
X0223256Y0055403D01*
X0223229Y0055627D01*
X0235933Y0058296D02*
X0235896Y0058495D01*
X0235855Y0058693D01*
X0235809Y0058890D01*
X0235759Y0059087D01*
X0235705Y0059282D01*
X0235647Y0059475D01*
X0235584Y0059668D01*
X0235517Y0059859D01*
X0223664Y0059669D02*
X0223595Y0059454D01*
X0223530Y0059238D01*
X0223471Y0059020D01*
X0223417Y0058800D01*
X0223369Y0058580D01*
X0223326Y0058358D01*
X0223288Y0058135D01*
X0223256Y0057912D01*
X0223229Y0057687D01*
X0235932Y0055019D02*
X0235896Y0054820D01*
X0235854Y0054622D01*
X0235809Y0054425D01*
X0235759Y0054229D01*
X0235705Y0054034D01*
X0235646Y0053840D01*
X0235584Y0053648D01*
X0235517Y0053457D01*
X0224509Y0051863D02*
X0224406Y0052032D01*
X0224307Y0052203D01*
X0224212Y0052377D01*
X0224122Y0052552D01*
X0224035Y0052730D01*
X0223953Y0052910D01*
X0223874Y0053091D01*
X0223800Y0053275D01*
X0223730Y0053460D01*
X0223665Y0053646D01*
X0234841Y0052027D02*
X0234940Y0052199D01*
X0235035Y0052372D01*
X0235126Y0052548D01*
X0235213Y0052726D01*
X0235295Y0052906D01*
X0235374Y0053088D01*
X0235448Y0053271D01*
X0235517Y0053456D01*
X0225696Y0050412D02*
X0225573Y0050531D01*
X0225453Y0050653D01*
X0225336Y0050777D01*
X0225222Y0050904D01*
X0225110Y0051034D01*
X0225002Y0051166D01*
X0224897Y0051301D01*
X0224795Y0051438D01*
X0224696Y0051577D01*
X0224600Y0051719D01*
X0224508Y0051862D01*
X0233941Y0050806D02*
X0234053Y0050933D01*
X0234162Y0051061D01*
X0234268Y0051193D01*
X0234371Y0051326D01*
X0234472Y0051462D01*
X0234569Y0051600D01*
X0234663Y0051740D01*
X0234753Y0051883D01*
X0234841Y0052027D01*
X0230745Y0048903D02*
X0230607Y0048875D01*
X0230467Y0048851D01*
X0230328Y0048830D01*
X0230187Y0048813D01*
X0230047Y0048800D01*
X0229906Y0048791D01*
X0229765Y0048785D01*
X0229623Y0048783D01*
X0229624Y0048784D02*
X0229488Y0048786D01*
X0229353Y0048791D01*
X0229217Y0048800D01*
X0229082Y0048812D01*
X0228947Y0048828D01*
X0228813Y0048847D01*
X0228679Y0048869D01*
X0228546Y0048895D01*
X0228414Y0048924D01*
X0228282Y0048956D01*
X0230745Y0048903D02*
X0230884Y0048935D01*
X0231023Y0048971D01*
X0231160Y0049010D01*
X0231296Y0049052D01*
X0231431Y0049098D01*
X0231565Y0049148D01*
X0231697Y0049201D01*
X0231828Y0049257D01*
X0228282Y0048956D02*
X0228149Y0048993D01*
X0228017Y0049033D01*
X0227886Y0049076D01*
X0227756Y0049122D01*
X0227627Y0049171D01*
X0227499Y0049223D01*
X0227373Y0049279D01*
X0227248Y0049337D01*
X0227124Y0049399D01*
X0227002Y0049463D01*
X0231828Y0049258D02*
X0231962Y0049319D01*
X0232094Y0049384D01*
X0232224Y0049452D01*
X0232353Y0049523D01*
X0232479Y0049597D01*
X0232604Y0049675D01*
X0232727Y0049755D01*
X0232848Y0049839D01*
X0227002Y0049463D02*
X0226862Y0049544D01*
X0226724Y0049629D01*
X0226588Y0049716D01*
X0226454Y0049807D01*
X0226322Y0049900D01*
X0226192Y0049997D01*
X0226064Y0050096D01*
X0225939Y0050199D01*
X0225816Y0050304D01*
X0225695Y0050412D01*
X0232849Y0049839D02*
X0232980Y0049934D01*
X0233109Y0050033D01*
X0233236Y0050135D01*
X0233360Y0050239D01*
X0233482Y0050347D01*
X0233600Y0050458D01*
X0233717Y0050572D01*
X0233830Y0050688D01*
X0233940Y0050807D01*
X0223665Y0059669D02*
X0223730Y0059856D01*
X0223799Y0060041D01*
X0223873Y0060224D01*
X0223951Y0060406D01*
X0224034Y0060586D01*
X0224120Y0060764D01*
X0224211Y0060939D01*
X0224306Y0061113D01*
X0224405Y0061284D01*
X0224508Y0061453D01*
X0234841Y0061288D02*
X0234940Y0061116D01*
X0235034Y0060942D01*
X0235125Y0060767D01*
X0235212Y0060589D01*
X0235294Y0060409D01*
X0235373Y0060227D01*
X0235447Y0060044D01*
X0235517Y0059858D01*
X0233941Y0062508D02*
X0233831Y0062627D01*
X0233717Y0062743D01*
X0233601Y0062857D01*
X0233482Y0062968D01*
X0233360Y0063075D01*
X0233236Y0063180D01*
X0233110Y0063282D01*
X0232981Y0063381D01*
X0232849Y0063477D01*
X0233940Y0062508D02*
X0234052Y0062381D01*
X0234161Y0062252D01*
X0234267Y0062121D01*
X0234370Y0061987D01*
X0234470Y0061852D01*
X0234567Y0061713D01*
X0234661Y0061573D01*
X0234752Y0061431D01*
X0234840Y0061287D01*
X0254487Y0047209D02*
X0254487Y0085791D01*
X0255071Y0086185D02*
X0255071Y0086972D01*
X0254480Y0087957D01*
X0254480Y0088744D01*
X0272394Y0088744D01*
X0272394Y0087760D01*
X0271803Y0086972D01*
X0271803Y0086185D01*
X0271409Y0083035D02*
X0258811Y0083035D01*
X0258811Y0069650D01*
X0271409Y0069650D01*
X0271409Y0083035D01*
X0268260Y0082248D02*
X0261764Y0082248D01*
X0261764Y0070437D01*
X0267276Y0070437D01*
X0268260Y0070437D01*
X0268260Y0082248D01*
X0256268Y0085791D02*
X0256268Y0047209D01*
X0258811Y0049965D02*
X0271409Y0049965D01*
X0271409Y0063350D01*
X0258811Y0063350D01*
X0258811Y0049965D01*
X0261764Y0050752D02*
X0268260Y0050752D01*
X0268260Y0062563D01*
X0261764Y0062563D01*
X0261764Y0050752D01*
X0250201Y0021500D02*
X0250203Y0021658D01*
X0250209Y0021816D01*
X0250219Y0021974D01*
X0250233Y0022132D01*
X0250251Y0022289D01*
X0250272Y0022446D01*
X0250298Y0022602D01*
X0250328Y0022758D01*
X0250361Y0022913D01*
X0250399Y0023066D01*
X0250440Y0023219D01*
X0250485Y0023371D01*
X0250534Y0023522D01*
X0250587Y0023671D01*
X0250643Y0023819D01*
X0250703Y0023965D01*
X0250767Y0024110D01*
X0250835Y0024253D01*
X0250906Y0024395D01*
X0250980Y0024535D01*
X0251058Y0024672D01*
X0251140Y0024808D01*
X0251224Y0024942D01*
X0251313Y0025073D01*
X0251404Y0025202D01*
X0251499Y0025329D01*
X0251596Y0025454D01*
X0251697Y0025576D01*
X0251801Y0025695D01*
X0251908Y0025812D01*
X0252018Y0025926D01*
X0252131Y0026037D01*
X0252246Y0026146D01*
X0252364Y0026251D01*
X0252485Y0026353D01*
X0252608Y0026453D01*
X0252734Y0026549D01*
X0252862Y0026642D01*
X0252992Y0026732D01*
X0253125Y0026818D01*
X0253260Y0026902D01*
X0253396Y0026981D01*
X0253535Y0027058D01*
X0253676Y0027130D01*
X0253818Y0027200D01*
X0253962Y0027265D01*
X0254108Y0027327D01*
X0254255Y0027385D01*
X0254404Y0027440D01*
X0254554Y0027491D01*
X0254705Y0027538D01*
X0254857Y0027581D01*
X0255010Y0027620D01*
X0255165Y0027656D01*
X0255320Y0027687D01*
X0255476Y0027715D01*
X0255632Y0027739D01*
X0255789Y0027759D01*
X0255947Y0027775D01*
X0256104Y0027787D01*
X0256263Y0027795D01*
X0256421Y0027799D01*
X0256579Y0027799D01*
X0256737Y0027795D01*
X0256896Y0027787D01*
X0257053Y0027775D01*
X0257211Y0027759D01*
X0257368Y0027739D01*
X0257524Y0027715D01*
X0257680Y0027687D01*
X0257835Y0027656D01*
X0257990Y0027620D01*
X0258143Y0027581D01*
X0258295Y0027538D01*
X0258446Y0027491D01*
X0258596Y0027440D01*
X0258745Y0027385D01*
X0258892Y0027327D01*
X0259038Y0027265D01*
X0259182Y0027200D01*
X0259324Y0027130D01*
X0259465Y0027058D01*
X0259604Y0026981D01*
X0259740Y0026902D01*
X0259875Y0026818D01*
X0260008Y0026732D01*
X0260138Y0026642D01*
X0260266Y0026549D01*
X0260392Y0026453D01*
X0260515Y0026353D01*
X0260636Y0026251D01*
X0260754Y0026146D01*
X0260869Y0026037D01*
X0260982Y0025926D01*
X0261092Y0025812D01*
X0261199Y0025695D01*
X0261303Y0025576D01*
X0261404Y0025454D01*
X0261501Y0025329D01*
X0261596Y0025202D01*
X0261687Y0025073D01*
X0261776Y0024942D01*
X0261860Y0024808D01*
X0261942Y0024672D01*
X0262020Y0024535D01*
X0262094Y0024395D01*
X0262165Y0024253D01*
X0262233Y0024110D01*
X0262297Y0023965D01*
X0262357Y0023819D01*
X0262413Y0023671D01*
X0262466Y0023522D01*
X0262515Y0023371D01*
X0262560Y0023219D01*
X0262601Y0023066D01*
X0262639Y0022913D01*
X0262672Y0022758D01*
X0262702Y0022602D01*
X0262728Y0022446D01*
X0262749Y0022289D01*
X0262767Y0022132D01*
X0262781Y0021974D01*
X0262791Y0021816D01*
X0262797Y0021658D01*
X0262799Y0021500D01*
X0262797Y0021342D01*
X0262791Y0021184D01*
X0262781Y0021026D01*
X0262767Y0020868D01*
X0262749Y0020711D01*
X0262728Y0020554D01*
X0262702Y0020398D01*
X0262672Y0020242D01*
X0262639Y0020087D01*
X0262601Y0019934D01*
X0262560Y0019781D01*
X0262515Y0019629D01*
X0262466Y0019478D01*
X0262413Y0019329D01*
X0262357Y0019181D01*
X0262297Y0019035D01*
X0262233Y0018890D01*
X0262165Y0018747D01*
X0262094Y0018605D01*
X0262020Y0018465D01*
X0261942Y0018328D01*
X0261860Y0018192D01*
X0261776Y0018058D01*
X0261687Y0017927D01*
X0261596Y0017798D01*
X0261501Y0017671D01*
X0261404Y0017546D01*
X0261303Y0017424D01*
X0261199Y0017305D01*
X0261092Y0017188D01*
X0260982Y0017074D01*
X0260869Y0016963D01*
X0260754Y0016854D01*
X0260636Y0016749D01*
X0260515Y0016647D01*
X0260392Y0016547D01*
X0260266Y0016451D01*
X0260138Y0016358D01*
X0260008Y0016268D01*
X0259875Y0016182D01*
X0259740Y0016098D01*
X0259604Y0016019D01*
X0259465Y0015942D01*
X0259324Y0015870D01*
X0259182Y0015800D01*
X0259038Y0015735D01*
X0258892Y0015673D01*
X0258745Y0015615D01*
X0258596Y0015560D01*
X0258446Y0015509D01*
X0258295Y0015462D01*
X0258143Y0015419D01*
X0257990Y0015380D01*
X0257835Y0015344D01*
X0257680Y0015313D01*
X0257524Y0015285D01*
X0257368Y0015261D01*
X0257211Y0015241D01*
X0257053Y0015225D01*
X0256896Y0015213D01*
X0256737Y0015205D01*
X0256579Y0015201D01*
X0256421Y0015201D01*
X0256263Y0015205D01*
X0256104Y0015213D01*
X0255947Y0015225D01*
X0255789Y0015241D01*
X0255632Y0015261D01*
X0255476Y0015285D01*
X0255320Y0015313D01*
X0255165Y0015344D01*
X0255010Y0015380D01*
X0254857Y0015419D01*
X0254705Y0015462D01*
X0254554Y0015509D01*
X0254404Y0015560D01*
X0254255Y0015615D01*
X0254108Y0015673D01*
X0253962Y0015735D01*
X0253818Y0015800D01*
X0253676Y0015870D01*
X0253535Y0015942D01*
X0253396Y0016019D01*
X0253260Y0016098D01*
X0253125Y0016182D01*
X0252992Y0016268D01*
X0252862Y0016358D01*
X0252734Y0016451D01*
X0252608Y0016547D01*
X0252485Y0016647D01*
X0252364Y0016749D01*
X0252246Y0016854D01*
X0252131Y0016963D01*
X0252018Y0017074D01*
X0251908Y0017188D01*
X0251801Y0017305D01*
X0251697Y0017424D01*
X0251596Y0017546D01*
X0251499Y0017671D01*
X0251404Y0017798D01*
X0251313Y0017927D01*
X0251224Y0018058D01*
X0251140Y0018192D01*
X0251058Y0018328D01*
X0250980Y0018465D01*
X0250906Y0018605D01*
X0250835Y0018747D01*
X0250767Y0018890D01*
X0250703Y0019035D01*
X0250643Y0019181D01*
X0250587Y0019329D01*
X0250534Y0019478D01*
X0250485Y0019629D01*
X0250440Y0019781D01*
X0250399Y0019934D01*
X0250361Y0020087D01*
X0250328Y0020242D01*
X0250298Y0020398D01*
X0250272Y0020554D01*
X0250251Y0020711D01*
X0250233Y0020868D01*
X0250219Y0021026D01*
X0250209Y0021184D01*
X0250203Y0021342D01*
X0250201Y0021500D01*
X0043760Y0067178D02*
X0043657Y0067347D01*
X0043558Y0067518D01*
X0043464Y0067692D01*
X0043373Y0067867D01*
X0043286Y0068045D01*
X0043204Y0068225D01*
X0043125Y0068406D01*
X0043051Y0068590D01*
X0042981Y0068775D01*
X0042916Y0068961D01*
X0054093Y0067343D02*
X0054192Y0067514D01*
X0054287Y0067688D01*
X0054378Y0067863D01*
X0054465Y0068041D01*
X0054548Y0068221D01*
X0054626Y0068403D01*
X0054700Y0068587D01*
X0054769Y0068772D01*
X0042917Y0074984D02*
X0042982Y0075171D01*
X0043051Y0075356D01*
X0043125Y0075540D01*
X0043203Y0075721D01*
X0043286Y0075901D01*
X0043373Y0076079D01*
X0043463Y0076255D01*
X0043558Y0076428D01*
X0043657Y0076599D01*
X0043760Y0076768D01*
X0054094Y0076603D02*
X0054192Y0076431D01*
X0054287Y0076257D01*
X0054378Y0076082D01*
X0054465Y0075904D01*
X0054547Y0075724D01*
X0054626Y0075542D01*
X0054700Y0075359D01*
X0054770Y0075173D01*
X0046255Y0064779D02*
X0046115Y0064860D01*
X0045977Y0064944D01*
X0045841Y0065032D01*
X0045707Y0065123D01*
X0045575Y0065216D01*
X0045445Y0065313D01*
X0045318Y0065412D01*
X0045192Y0065514D01*
X0045069Y0065619D01*
X0044949Y0065727D01*
X0048876Y0064098D02*
X0049017Y0064100D01*
X0049158Y0064106D01*
X0049299Y0064115D01*
X0049440Y0064128D01*
X0049580Y0064145D01*
X0049720Y0064166D01*
X0049859Y0064190D01*
X0049997Y0064218D01*
X0048876Y0064098D02*
X0048741Y0064100D01*
X0048605Y0064105D01*
X0048470Y0064114D01*
X0048334Y0064126D01*
X0048200Y0064142D01*
X0048065Y0064161D01*
X0047932Y0064183D01*
X0047798Y0064209D01*
X0047666Y0064238D01*
X0047534Y0064270D01*
X0049997Y0064219D02*
X0050136Y0064251D01*
X0050275Y0064286D01*
X0050412Y0064326D01*
X0050548Y0064368D01*
X0050683Y0064414D01*
X0050817Y0064464D01*
X0050950Y0064517D01*
X0051081Y0064573D01*
X0047535Y0064271D02*
X0047402Y0064308D01*
X0047270Y0064348D01*
X0047138Y0064391D01*
X0047008Y0064437D01*
X0046880Y0064486D01*
X0046752Y0064539D01*
X0046625Y0064594D01*
X0046500Y0064653D01*
X0046377Y0064714D01*
X0046255Y0064778D01*
X0051082Y0064572D02*
X0051215Y0064634D01*
X0051347Y0064698D01*
X0051478Y0064766D01*
X0051606Y0064837D01*
X0051733Y0064912D01*
X0051858Y0064989D01*
X0051981Y0065069D01*
X0052102Y0065153D01*
X0052101Y0065153D02*
X0052232Y0065249D01*
X0052362Y0065347D01*
X0052488Y0065449D01*
X0052612Y0065554D01*
X0052734Y0065662D01*
X0052853Y0065773D01*
X0052969Y0065886D01*
X0053082Y0066003D01*
X0053193Y0066122D01*
X0053305Y0066249D01*
X0053414Y0066377D01*
X0053520Y0066509D01*
X0053623Y0066642D01*
X0053724Y0066778D01*
X0053821Y0066916D01*
X0053915Y0067056D01*
X0054005Y0067199D01*
X0054093Y0067343D01*
X0053193Y0077823D02*
X0053083Y0077942D01*
X0052969Y0078058D01*
X0052853Y0078172D01*
X0052734Y0078283D01*
X0052613Y0078390D01*
X0052489Y0078495D01*
X0052362Y0078597D01*
X0052233Y0078696D01*
X0052102Y0078792D01*
X0053193Y0077823D02*
X0053304Y0077697D01*
X0053413Y0077568D01*
X0053520Y0077437D01*
X0053623Y0077303D01*
X0053723Y0077167D01*
X0053820Y0077029D01*
X0053914Y0076889D01*
X0054005Y0076747D01*
X0054093Y0076603D01*
X0147107Y0207704D02*
X0147107Y0208505D01*
X0250201Y0216500D02*
X0250203Y0216658D01*
X0250209Y0216816D01*
X0250219Y0216974D01*
X0250233Y0217132D01*
X0250251Y0217289D01*
X0250272Y0217446D01*
X0250298Y0217602D01*
X0250328Y0217758D01*
X0250361Y0217913D01*
X0250399Y0218066D01*
X0250440Y0218219D01*
X0250485Y0218371D01*
X0250534Y0218522D01*
X0250587Y0218671D01*
X0250643Y0218819D01*
X0250703Y0218965D01*
X0250767Y0219110D01*
X0250835Y0219253D01*
X0250906Y0219395D01*
X0250980Y0219535D01*
X0251058Y0219672D01*
X0251140Y0219808D01*
X0251224Y0219942D01*
X0251313Y0220073D01*
X0251404Y0220202D01*
X0251499Y0220329D01*
X0251596Y0220454D01*
X0251697Y0220576D01*
X0251801Y0220695D01*
X0251908Y0220812D01*
X0252018Y0220926D01*
X0252131Y0221037D01*
X0252246Y0221146D01*
X0252364Y0221251D01*
X0252485Y0221353D01*
X0252608Y0221453D01*
X0252734Y0221549D01*
X0252862Y0221642D01*
X0252992Y0221732D01*
X0253125Y0221818D01*
X0253260Y0221902D01*
X0253396Y0221981D01*
X0253535Y0222058D01*
X0253676Y0222130D01*
X0253818Y0222200D01*
X0253962Y0222265D01*
X0254108Y0222327D01*
X0254255Y0222385D01*
X0254404Y0222440D01*
X0254554Y0222491D01*
X0254705Y0222538D01*
X0254857Y0222581D01*
X0255010Y0222620D01*
X0255165Y0222656D01*
X0255320Y0222687D01*
X0255476Y0222715D01*
X0255632Y0222739D01*
X0255789Y0222759D01*
X0255947Y0222775D01*
X0256104Y0222787D01*
X0256263Y0222795D01*
X0256421Y0222799D01*
X0256579Y0222799D01*
X0256737Y0222795D01*
X0256896Y0222787D01*
X0257053Y0222775D01*
X0257211Y0222759D01*
X0257368Y0222739D01*
X0257524Y0222715D01*
X0257680Y0222687D01*
X0257835Y0222656D01*
X0257990Y0222620D01*
X0258143Y0222581D01*
X0258295Y0222538D01*
X0258446Y0222491D01*
X0258596Y0222440D01*
X0258745Y0222385D01*
X0258892Y0222327D01*
X0259038Y0222265D01*
X0259182Y0222200D01*
X0259324Y0222130D01*
X0259465Y0222058D01*
X0259604Y0221981D01*
X0259740Y0221902D01*
X0259875Y0221818D01*
X0260008Y0221732D01*
X0260138Y0221642D01*
X0260266Y0221549D01*
X0260392Y0221453D01*
X0260515Y0221353D01*
X0260636Y0221251D01*
X0260754Y0221146D01*
X0260869Y0221037D01*
X0260982Y0220926D01*
X0261092Y0220812D01*
X0261199Y0220695D01*
X0261303Y0220576D01*
X0261404Y0220454D01*
X0261501Y0220329D01*
X0261596Y0220202D01*
X0261687Y0220073D01*
X0261776Y0219942D01*
X0261860Y0219808D01*
X0261942Y0219672D01*
X0262020Y0219535D01*
X0262094Y0219395D01*
X0262165Y0219253D01*
X0262233Y0219110D01*
X0262297Y0218965D01*
X0262357Y0218819D01*
X0262413Y0218671D01*
X0262466Y0218522D01*
X0262515Y0218371D01*
X0262560Y0218219D01*
X0262601Y0218066D01*
X0262639Y0217913D01*
X0262672Y0217758D01*
X0262702Y0217602D01*
X0262728Y0217446D01*
X0262749Y0217289D01*
X0262767Y0217132D01*
X0262781Y0216974D01*
X0262791Y0216816D01*
X0262797Y0216658D01*
X0262799Y0216500D01*
X0262797Y0216342D01*
X0262791Y0216184D01*
X0262781Y0216026D01*
X0262767Y0215868D01*
X0262749Y0215711D01*
X0262728Y0215554D01*
X0262702Y0215398D01*
X0262672Y0215242D01*
X0262639Y0215087D01*
X0262601Y0214934D01*
X0262560Y0214781D01*
X0262515Y0214629D01*
X0262466Y0214478D01*
X0262413Y0214329D01*
X0262357Y0214181D01*
X0262297Y0214035D01*
X0262233Y0213890D01*
X0262165Y0213747D01*
X0262094Y0213605D01*
X0262020Y0213465D01*
X0261942Y0213328D01*
X0261860Y0213192D01*
X0261776Y0213058D01*
X0261687Y0212927D01*
X0261596Y0212798D01*
X0261501Y0212671D01*
X0261404Y0212546D01*
X0261303Y0212424D01*
X0261199Y0212305D01*
X0261092Y0212188D01*
X0260982Y0212074D01*
X0260869Y0211963D01*
X0260754Y0211854D01*
X0260636Y0211749D01*
X0260515Y0211647D01*
X0260392Y0211547D01*
X0260266Y0211451D01*
X0260138Y0211358D01*
X0260008Y0211268D01*
X0259875Y0211182D01*
X0259740Y0211098D01*
X0259604Y0211019D01*
X0259465Y0210942D01*
X0259324Y0210870D01*
X0259182Y0210800D01*
X0259038Y0210735D01*
X0258892Y0210673D01*
X0258745Y0210615D01*
X0258596Y0210560D01*
X0258446Y0210509D01*
X0258295Y0210462D01*
X0258143Y0210419D01*
X0257990Y0210380D01*
X0257835Y0210344D01*
X0257680Y0210313D01*
X0257524Y0210285D01*
X0257368Y0210261D01*
X0257211Y0210241D01*
X0257053Y0210225D01*
X0256896Y0210213D01*
X0256737Y0210205D01*
X0256579Y0210201D01*
X0256421Y0210201D01*
X0256263Y0210205D01*
X0256104Y0210213D01*
X0255947Y0210225D01*
X0255789Y0210241D01*
X0255632Y0210261D01*
X0255476Y0210285D01*
X0255320Y0210313D01*
X0255165Y0210344D01*
X0255010Y0210380D01*
X0254857Y0210419D01*
X0254705Y0210462D01*
X0254554Y0210509D01*
X0254404Y0210560D01*
X0254255Y0210615D01*
X0254108Y0210673D01*
X0253962Y0210735D01*
X0253818Y0210800D01*
X0253676Y0210870D01*
X0253535Y0210942D01*
X0253396Y0211019D01*
X0253260Y0211098D01*
X0253125Y0211182D01*
X0252992Y0211268D01*
X0252862Y0211358D01*
X0252734Y0211451D01*
X0252608Y0211547D01*
X0252485Y0211647D01*
X0252364Y0211749D01*
X0252246Y0211854D01*
X0252131Y0211963D01*
X0252018Y0212074D01*
X0251908Y0212188D01*
X0251801Y0212305D01*
X0251697Y0212424D01*
X0251596Y0212546D01*
X0251499Y0212671D01*
X0251404Y0212798D01*
X0251313Y0212927D01*
X0251224Y0213058D01*
X0251140Y0213192D01*
X0251058Y0213328D01*
X0250980Y0213465D01*
X0250906Y0213605D01*
X0250835Y0213747D01*
X0250767Y0213890D01*
X0250703Y0214035D01*
X0250643Y0214181D01*
X0250587Y0214329D01*
X0250534Y0214478D01*
X0250485Y0214629D01*
X0250440Y0214781D01*
X0250399Y0214934D01*
X0250361Y0215087D01*
X0250328Y0215242D01*
X0250298Y0215398D01*
X0250272Y0215554D01*
X0250251Y0215711D01*
X0250233Y0215868D01*
X0250219Y0216026D01*
X0250209Y0216184D01*
X0250203Y0216342D01*
X0250201Y0216500D01*
D11*
X0220377Y0078503D02*
X0220377Y0075834D01*
X0219042Y0074500D01*
X0217708Y0075834D01*
X0217708Y0078503D01*
X0215773Y0077836D02*
X0215106Y0078503D01*
X0213771Y0078503D01*
X0213104Y0077836D01*
X0215773Y0077836D02*
X0215773Y0077169D01*
X0213104Y0074500D01*
X0215773Y0074500D01*
X0211169Y0074500D02*
X0208500Y0074500D01*
X0209834Y0074500D02*
X0209834Y0078503D01*
X0208500Y0077169D01*
X0209167Y0058503D02*
X0208500Y0057836D01*
X0208500Y0055167D01*
X0209167Y0054500D01*
X0210502Y0054500D01*
X0211169Y0055167D01*
X0211169Y0056502D01*
X0209834Y0056502D01*
X0211169Y0057836D02*
X0210502Y0058503D01*
X0209167Y0058503D01*
X0213104Y0058503D02*
X0215773Y0054500D01*
X0215773Y0058503D01*
X0217708Y0058503D02*
X0219710Y0058503D01*
X0220377Y0057836D01*
X0220377Y0055167D01*
X0219710Y0054500D01*
X0217708Y0054500D01*
X0217708Y0058503D01*
X0213104Y0058503D02*
X0213104Y0054500D01*
X0242000Y0044503D02*
X0242000Y0040500D01*
X0242000Y0041834D02*
X0244002Y0041834D01*
X0244669Y0042502D01*
X0244669Y0043836D01*
X0244002Y0044503D01*
X0242000Y0044503D01*
X0246604Y0043836D02*
X0246604Y0041167D01*
X0247271Y0040500D01*
X0248606Y0040500D01*
X0249273Y0041167D01*
X0249273Y0043836D01*
X0248606Y0044503D01*
X0247271Y0044503D01*
X0246604Y0043836D01*
X0251208Y0044503D02*
X0251208Y0040500D01*
X0252542Y0041834D01*
X0253877Y0040500D01*
X0253877Y0044503D01*
X0255812Y0044503D02*
X0255812Y0040500D01*
X0258481Y0040500D01*
X0260416Y0040500D02*
X0260416Y0044503D01*
X0262417Y0044503D01*
X0263085Y0043836D01*
X0263085Y0042502D01*
X0262417Y0041834D01*
X0260416Y0041834D01*
X0261750Y0041834D02*
X0263085Y0040500D01*
X0258481Y0044503D02*
X0255812Y0044503D01*
X0255812Y0042502D02*
X0257146Y0042502D01*
X0092877Y0059334D02*
X0092877Y0062003D01*
X0090208Y0062003D02*
X0090208Y0059334D01*
X0091542Y0058000D01*
X0092877Y0059334D01*
X0088273Y0058000D02*
X0085604Y0058000D01*
X0088273Y0060669D01*
X0088273Y0061336D01*
X0087606Y0062003D01*
X0086271Y0062003D01*
X0085604Y0061336D01*
X0082334Y0062003D02*
X0082334Y0058000D01*
X0081000Y0058000D02*
X0083669Y0058000D01*
X0081000Y0060669D02*
X0082334Y0062003D01*
X0073377Y0061836D02*
X0073377Y0059167D01*
X0072710Y0058500D01*
X0070708Y0058500D01*
X0070708Y0062503D01*
X0072710Y0062503D01*
X0073377Y0061836D01*
X0068773Y0062503D02*
X0068773Y0058500D01*
X0066104Y0062503D01*
X0066104Y0058500D01*
X0064169Y0059167D02*
X0064169Y0060502D01*
X0062834Y0060502D01*
X0061500Y0061836D02*
X0061500Y0059167D01*
X0062167Y0058500D01*
X0063502Y0058500D01*
X0064169Y0059167D01*
X0064169Y0061836D02*
X0063502Y0062503D01*
X0062167Y0062503D01*
X0061500Y0061836D01*
X0061169Y0070000D02*
X0061169Y0074003D01*
X0061169Y0072002D02*
X0058500Y0072002D01*
X0058500Y0074003D02*
X0058500Y0070000D01*
X0058500Y0090000D02*
X0061169Y0090000D01*
X0058500Y0090000D02*
X0058500Y0094003D01*
X0058667Y0109500D02*
X0058000Y0110167D01*
X0058000Y0112836D01*
X0058667Y0113503D01*
X0060002Y0113503D01*
X0060669Y0112836D01*
X0060669Y0111502D02*
X0059334Y0111502D01*
X0060669Y0111502D02*
X0060669Y0110167D01*
X0060002Y0109500D01*
X0058667Y0109500D01*
X0062604Y0109500D02*
X0062604Y0113503D01*
X0065273Y0109500D01*
X0065273Y0113503D01*
X0067208Y0113503D02*
X0067208Y0109500D01*
X0069210Y0109500D01*
X0069877Y0110167D01*
X0069877Y0112836D01*
X0069210Y0113503D01*
X0067208Y0113503D01*
X0056377Y0123000D02*
X0056377Y0127003D01*
X0053708Y0127003D02*
X0056377Y0123000D01*
X0053708Y0123000D02*
X0053708Y0127003D01*
X0051773Y0125669D02*
X0051773Y0123000D01*
X0051773Y0125002D02*
X0049104Y0125002D01*
X0049104Y0125669D02*
X0050438Y0127003D01*
X0051773Y0125669D01*
X0049104Y0125669D02*
X0049104Y0123000D01*
X0047169Y0123667D02*
X0046502Y0123000D01*
X0045167Y0123000D01*
X0044500Y0123667D01*
X0044500Y0126336D01*
X0045167Y0127003D01*
X0046502Y0127003D01*
X0047169Y0126336D01*
X0058500Y0145000D02*
X0058500Y0149003D01*
X0058500Y0147002D02*
X0061169Y0147002D01*
X0061169Y0149003D02*
X0061169Y0145000D01*
X0061169Y0165000D02*
X0058500Y0165000D01*
X0058500Y0169003D01*
X0058667Y0184500D02*
X0058000Y0185167D01*
X0058000Y0187836D01*
X0058667Y0188503D01*
X0060002Y0188503D01*
X0060669Y0187836D01*
X0060669Y0186502D02*
X0059334Y0186502D01*
X0060669Y0186502D02*
X0060669Y0185167D01*
X0060002Y0184500D01*
X0058667Y0184500D01*
X0062604Y0184500D02*
X0062604Y0188503D01*
X0065273Y0184500D01*
X0065273Y0188503D01*
X0067208Y0188503D02*
X0069210Y0188503D01*
X0069877Y0187836D01*
X0069877Y0185167D01*
X0069210Y0184500D01*
X0067208Y0184500D01*
X0067208Y0188503D01*
X0056377Y0198000D02*
X0056377Y0202003D01*
X0053708Y0202003D02*
X0053708Y0198000D01*
X0051773Y0198000D02*
X0051773Y0200669D01*
X0050438Y0202003D01*
X0049104Y0200669D01*
X0049104Y0198000D01*
X0049104Y0200002D02*
X0051773Y0200002D01*
X0053708Y0202003D02*
X0056377Y0198000D01*
X0047169Y0198667D02*
X0046502Y0198000D01*
X0045167Y0198000D01*
X0044500Y0198667D01*
X0044500Y0201336D01*
X0045167Y0202003D01*
X0046502Y0202003D01*
X0047169Y0201336D01*
X0051664Y0040896D02*
X0052998Y0040896D01*
X0053666Y0040229D01*
X0053666Y0038227D01*
X0055000Y0038227D02*
X0050997Y0038227D01*
X0050997Y0040229D01*
X0051664Y0040896D01*
X0050997Y0036292D02*
X0055000Y0036292D01*
X0055000Y0033624D02*
X0050997Y0033624D01*
X0052331Y0034958D01*
X0050997Y0036292D01*
X0050997Y0031689D02*
X0054333Y0031689D01*
X0055000Y0031021D01*
X0055000Y0029687D01*
X0054333Y0029020D01*
X0050997Y0029020D01*
X0051664Y0027085D02*
X0052998Y0027085D01*
X0053666Y0026417D01*
X0053666Y0024416D01*
X0055000Y0024416D02*
X0050997Y0024416D01*
X0050997Y0026417D01*
X0051664Y0027085D01*
X0050997Y0022481D02*
X0055000Y0019812D01*
X0055000Y0017877D02*
X0050997Y0017877D01*
X0050997Y0015208D02*
X0055000Y0017877D01*
X0055000Y0015208D02*
X0050997Y0015208D01*
X0052331Y0013273D02*
X0055000Y0013273D01*
X0052998Y0013273D02*
X0052998Y0010604D01*
X0052331Y0010604D02*
X0055000Y0010604D01*
X0052331Y0010604D02*
X0050997Y0011938D01*
X0052331Y0013273D01*
X0050997Y0008669D02*
X0050997Y0006000D01*
X0055000Y0006000D01*
X0052998Y0006000D02*
X0052998Y0007334D01*
D12*
X0008000Y0021500D02*
X0008004Y0021831D01*
X0008016Y0022162D01*
X0008037Y0022493D01*
X0008065Y0022823D01*
X0008102Y0023153D01*
X0008146Y0023481D01*
X0008199Y0023808D01*
X0008259Y0024134D01*
X0008328Y0024458D01*
X0008405Y0024780D01*
X0008489Y0025101D01*
X0008581Y0025419D01*
X0008681Y0025735D01*
X0008789Y0026048D01*
X0008905Y0026359D01*
X0009028Y0026666D01*
X0009158Y0026971D01*
X0009296Y0027272D01*
X0009441Y0027570D01*
X0009594Y0027864D01*
X0009754Y0028154D01*
X0009921Y0028440D01*
X0010094Y0028722D01*
X0010275Y0029000D01*
X0010463Y0029273D01*
X0010657Y0029542D01*
X0010857Y0029806D01*
X0011064Y0030064D01*
X0011278Y0030318D01*
X0011497Y0030566D01*
X0011723Y0030809D01*
X0011954Y0031046D01*
X0012191Y0031277D01*
X0012434Y0031503D01*
X0012682Y0031722D01*
X0012936Y0031936D01*
X0013194Y0032143D01*
X0013458Y0032343D01*
X0013727Y0032537D01*
X0014000Y0032725D01*
X0014278Y0032906D01*
X0014560Y0033079D01*
X0014846Y0033246D01*
X0015136Y0033406D01*
X0015430Y0033559D01*
X0015728Y0033704D01*
X0016029Y0033842D01*
X0016334Y0033972D01*
X0016641Y0034095D01*
X0016952Y0034211D01*
X0017265Y0034319D01*
X0017581Y0034419D01*
X0017899Y0034511D01*
X0018220Y0034595D01*
X0018542Y0034672D01*
X0018866Y0034741D01*
X0019192Y0034801D01*
X0019519Y0034854D01*
X0019847Y0034898D01*
X0020177Y0034935D01*
X0020507Y0034963D01*
X0020838Y0034984D01*
X0021169Y0034996D01*
X0021500Y0035000D01*
X0021831Y0034996D01*
X0022162Y0034984D01*
X0022493Y0034963D01*
X0022823Y0034935D01*
X0023153Y0034898D01*
X0023481Y0034854D01*
X0023808Y0034801D01*
X0024134Y0034741D01*
X0024458Y0034672D01*
X0024780Y0034595D01*
X0025101Y0034511D01*
X0025419Y0034419D01*
X0025735Y0034319D01*
X0026048Y0034211D01*
X0026359Y0034095D01*
X0026666Y0033972D01*
X0026971Y0033842D01*
X0027272Y0033704D01*
X0027570Y0033559D01*
X0027864Y0033406D01*
X0028154Y0033246D01*
X0028440Y0033079D01*
X0028722Y0032906D01*
X0029000Y0032725D01*
X0029273Y0032537D01*
X0029542Y0032343D01*
X0029806Y0032143D01*
X0030064Y0031936D01*
X0030318Y0031722D01*
X0030566Y0031503D01*
X0030809Y0031277D01*
X0031046Y0031046D01*
X0031277Y0030809D01*
X0031503Y0030566D01*
X0031722Y0030318D01*
X0031936Y0030064D01*
X0032143Y0029806D01*
X0032343Y0029542D01*
X0032537Y0029273D01*
X0032725Y0029000D01*
X0032906Y0028722D01*
X0033079Y0028440D01*
X0033246Y0028154D01*
X0033406Y0027864D01*
X0033559Y0027570D01*
X0033704Y0027272D01*
X0033842Y0026971D01*
X0033972Y0026666D01*
X0034095Y0026359D01*
X0034211Y0026048D01*
X0034319Y0025735D01*
X0034419Y0025419D01*
X0034511Y0025101D01*
X0034595Y0024780D01*
X0034672Y0024458D01*
X0034741Y0024134D01*
X0034801Y0023808D01*
X0034854Y0023481D01*
X0034898Y0023153D01*
X0034935Y0022823D01*
X0034963Y0022493D01*
X0034984Y0022162D01*
X0034996Y0021831D01*
X0035000Y0021500D01*
X0034996Y0021169D01*
X0034984Y0020838D01*
X0034963Y0020507D01*
X0034935Y0020177D01*
X0034898Y0019847D01*
X0034854Y0019519D01*
X0034801Y0019192D01*
X0034741Y0018866D01*
X0034672Y0018542D01*
X0034595Y0018220D01*
X0034511Y0017899D01*
X0034419Y0017581D01*
X0034319Y0017265D01*
X0034211Y0016952D01*
X0034095Y0016641D01*
X0033972Y0016334D01*
X0033842Y0016029D01*
X0033704Y0015728D01*
X0033559Y0015430D01*
X0033406Y0015136D01*
X0033246Y0014846D01*
X0033079Y0014560D01*
X0032906Y0014278D01*
X0032725Y0014000D01*
X0032537Y0013727D01*
X0032343Y0013458D01*
X0032143Y0013194D01*
X0031936Y0012936D01*
X0031722Y0012682D01*
X0031503Y0012434D01*
X0031277Y0012191D01*
X0031046Y0011954D01*
X0030809Y0011723D01*
X0030566Y0011497D01*
X0030318Y0011278D01*
X0030064Y0011064D01*
X0029806Y0010857D01*
X0029542Y0010657D01*
X0029273Y0010463D01*
X0029000Y0010275D01*
X0028722Y0010094D01*
X0028440Y0009921D01*
X0028154Y0009754D01*
X0027864Y0009594D01*
X0027570Y0009441D01*
X0027272Y0009296D01*
X0026971Y0009158D01*
X0026666Y0009028D01*
X0026359Y0008905D01*
X0026048Y0008789D01*
X0025735Y0008681D01*
X0025419Y0008581D01*
X0025101Y0008489D01*
X0024780Y0008405D01*
X0024458Y0008328D01*
X0024134Y0008259D01*
X0023808Y0008199D01*
X0023481Y0008146D01*
X0023153Y0008102D01*
X0022823Y0008065D01*
X0022493Y0008037D01*
X0022162Y0008016D01*
X0021831Y0008004D01*
X0021500Y0008000D01*
X0021169Y0008004D01*
X0020838Y0008016D01*
X0020507Y0008037D01*
X0020177Y0008065D01*
X0019847Y0008102D01*
X0019519Y0008146D01*
X0019192Y0008199D01*
X0018866Y0008259D01*
X0018542Y0008328D01*
X0018220Y0008405D01*
X0017899Y0008489D01*
X0017581Y0008581D01*
X0017265Y0008681D01*
X0016952Y0008789D01*
X0016641Y0008905D01*
X0016334Y0009028D01*
X0016029Y0009158D01*
X0015728Y0009296D01*
X0015430Y0009441D01*
X0015136Y0009594D01*
X0014846Y0009754D01*
X0014560Y0009921D01*
X0014278Y0010094D01*
X0014000Y0010275D01*
X0013727Y0010463D01*
X0013458Y0010657D01*
X0013194Y0010857D01*
X0012936Y0011064D01*
X0012682Y0011278D01*
X0012434Y0011497D01*
X0012191Y0011723D01*
X0011954Y0011954D01*
X0011723Y0012191D01*
X0011497Y0012434D01*
X0011278Y0012682D01*
X0011064Y0012936D01*
X0010857Y0013194D01*
X0010657Y0013458D01*
X0010463Y0013727D01*
X0010275Y0014000D01*
X0010094Y0014278D01*
X0009921Y0014560D01*
X0009754Y0014846D01*
X0009594Y0015136D01*
X0009441Y0015430D01*
X0009296Y0015728D01*
X0009158Y0016029D01*
X0009028Y0016334D01*
X0008905Y0016641D01*
X0008789Y0016952D01*
X0008681Y0017265D01*
X0008581Y0017581D01*
X0008489Y0017899D01*
X0008405Y0018220D01*
X0008328Y0018542D01*
X0008259Y0018866D01*
X0008199Y0019192D01*
X0008146Y0019519D01*
X0008102Y0019847D01*
X0008065Y0020177D01*
X0008037Y0020507D01*
X0008016Y0020838D01*
X0008004Y0021169D01*
X0008000Y0021500D01*
X0096402Y0192201D02*
X0110598Y0192201D01*
X0110598Y0210799D02*
X0096402Y0210799D01*
X0008000Y0216500D02*
X0008004Y0216831D01*
X0008016Y0217162D01*
X0008037Y0217493D01*
X0008065Y0217823D01*
X0008102Y0218153D01*
X0008146Y0218481D01*
X0008199Y0218808D01*
X0008259Y0219134D01*
X0008328Y0219458D01*
X0008405Y0219780D01*
X0008489Y0220101D01*
X0008581Y0220419D01*
X0008681Y0220735D01*
X0008789Y0221048D01*
X0008905Y0221359D01*
X0009028Y0221666D01*
X0009158Y0221971D01*
X0009296Y0222272D01*
X0009441Y0222570D01*
X0009594Y0222864D01*
X0009754Y0223154D01*
X0009921Y0223440D01*
X0010094Y0223722D01*
X0010275Y0224000D01*
X0010463Y0224273D01*
X0010657Y0224542D01*
X0010857Y0224806D01*
X0011064Y0225064D01*
X0011278Y0225318D01*
X0011497Y0225566D01*
X0011723Y0225809D01*
X0011954Y0226046D01*
X0012191Y0226277D01*
X0012434Y0226503D01*
X0012682Y0226722D01*
X0012936Y0226936D01*
X0013194Y0227143D01*
X0013458Y0227343D01*
X0013727Y0227537D01*
X0014000Y0227725D01*
X0014278Y0227906D01*
X0014560Y0228079D01*
X0014846Y0228246D01*
X0015136Y0228406D01*
X0015430Y0228559D01*
X0015728Y0228704D01*
X0016029Y0228842D01*
X0016334Y0228972D01*
X0016641Y0229095D01*
X0016952Y0229211D01*
X0017265Y0229319D01*
X0017581Y0229419D01*
X0017899Y0229511D01*
X0018220Y0229595D01*
X0018542Y0229672D01*
X0018866Y0229741D01*
X0019192Y0229801D01*
X0019519Y0229854D01*
X0019847Y0229898D01*
X0020177Y0229935D01*
X0020507Y0229963D01*
X0020838Y0229984D01*
X0021169Y0229996D01*
X0021500Y0230000D01*
X0021831Y0229996D01*
X0022162Y0229984D01*
X0022493Y0229963D01*
X0022823Y0229935D01*
X0023153Y0229898D01*
X0023481Y0229854D01*
X0023808Y0229801D01*
X0024134Y0229741D01*
X0024458Y0229672D01*
X0024780Y0229595D01*
X0025101Y0229511D01*
X0025419Y0229419D01*
X0025735Y0229319D01*
X0026048Y0229211D01*
X0026359Y0229095D01*
X0026666Y0228972D01*
X0026971Y0228842D01*
X0027272Y0228704D01*
X0027570Y0228559D01*
X0027864Y0228406D01*
X0028154Y0228246D01*
X0028440Y0228079D01*
X0028722Y0227906D01*
X0029000Y0227725D01*
X0029273Y0227537D01*
X0029542Y0227343D01*
X0029806Y0227143D01*
X0030064Y0226936D01*
X0030318Y0226722D01*
X0030566Y0226503D01*
X0030809Y0226277D01*
X0031046Y0226046D01*
X0031277Y0225809D01*
X0031503Y0225566D01*
X0031722Y0225318D01*
X0031936Y0225064D01*
X0032143Y0224806D01*
X0032343Y0224542D01*
X0032537Y0224273D01*
X0032725Y0224000D01*
X0032906Y0223722D01*
X0033079Y0223440D01*
X0033246Y0223154D01*
X0033406Y0222864D01*
X0033559Y0222570D01*
X0033704Y0222272D01*
X0033842Y0221971D01*
X0033972Y0221666D01*
X0034095Y0221359D01*
X0034211Y0221048D01*
X0034319Y0220735D01*
X0034419Y0220419D01*
X0034511Y0220101D01*
X0034595Y0219780D01*
X0034672Y0219458D01*
X0034741Y0219134D01*
X0034801Y0218808D01*
X0034854Y0218481D01*
X0034898Y0218153D01*
X0034935Y0217823D01*
X0034963Y0217493D01*
X0034984Y0217162D01*
X0034996Y0216831D01*
X0035000Y0216500D01*
X0034996Y0216169D01*
X0034984Y0215838D01*
X0034963Y0215507D01*
X0034935Y0215177D01*
X0034898Y0214847D01*
X0034854Y0214519D01*
X0034801Y0214192D01*
X0034741Y0213866D01*
X0034672Y0213542D01*
X0034595Y0213220D01*
X0034511Y0212899D01*
X0034419Y0212581D01*
X0034319Y0212265D01*
X0034211Y0211952D01*
X0034095Y0211641D01*
X0033972Y0211334D01*
X0033842Y0211029D01*
X0033704Y0210728D01*
X0033559Y0210430D01*
X0033406Y0210136D01*
X0033246Y0209846D01*
X0033079Y0209560D01*
X0032906Y0209278D01*
X0032725Y0209000D01*
X0032537Y0208727D01*
X0032343Y0208458D01*
X0032143Y0208194D01*
X0031936Y0207936D01*
X0031722Y0207682D01*
X0031503Y0207434D01*
X0031277Y0207191D01*
X0031046Y0206954D01*
X0030809Y0206723D01*
X0030566Y0206497D01*
X0030318Y0206278D01*
X0030064Y0206064D01*
X0029806Y0205857D01*
X0029542Y0205657D01*
X0029273Y0205463D01*
X0029000Y0205275D01*
X0028722Y0205094D01*
X0028440Y0204921D01*
X0028154Y0204754D01*
X0027864Y0204594D01*
X0027570Y0204441D01*
X0027272Y0204296D01*
X0026971Y0204158D01*
X0026666Y0204028D01*
X0026359Y0203905D01*
X0026048Y0203789D01*
X0025735Y0203681D01*
X0025419Y0203581D01*
X0025101Y0203489D01*
X0024780Y0203405D01*
X0024458Y0203328D01*
X0024134Y0203259D01*
X0023808Y0203199D01*
X0023481Y0203146D01*
X0023153Y0203102D01*
X0022823Y0203065D01*
X0022493Y0203037D01*
X0022162Y0203016D01*
X0021831Y0203004D01*
X0021500Y0203000D01*
X0021169Y0203004D01*
X0020838Y0203016D01*
X0020507Y0203037D01*
X0020177Y0203065D01*
X0019847Y0203102D01*
X0019519Y0203146D01*
X0019192Y0203199D01*
X0018866Y0203259D01*
X0018542Y0203328D01*
X0018220Y0203405D01*
X0017899Y0203489D01*
X0017581Y0203581D01*
X0017265Y0203681D01*
X0016952Y0203789D01*
X0016641Y0203905D01*
X0016334Y0204028D01*
X0016029Y0204158D01*
X0015728Y0204296D01*
X0015430Y0204441D01*
X0015136Y0204594D01*
X0014846Y0204754D01*
X0014560Y0204921D01*
X0014278Y0205094D01*
X0014000Y0205275D01*
X0013727Y0205463D01*
X0013458Y0205657D01*
X0013194Y0205857D01*
X0012936Y0206064D01*
X0012682Y0206278D01*
X0012434Y0206497D01*
X0012191Y0206723D01*
X0011954Y0206954D01*
X0011723Y0207191D01*
X0011497Y0207434D01*
X0011278Y0207682D01*
X0011064Y0207936D01*
X0010857Y0208194D01*
X0010657Y0208458D01*
X0010463Y0208727D01*
X0010275Y0209000D01*
X0010094Y0209278D01*
X0009921Y0209560D01*
X0009754Y0209846D01*
X0009594Y0210136D01*
X0009441Y0210430D01*
X0009296Y0210728D01*
X0009158Y0211029D01*
X0009028Y0211334D01*
X0008905Y0211641D01*
X0008789Y0211952D01*
X0008681Y0212265D01*
X0008581Y0212581D01*
X0008489Y0212899D01*
X0008405Y0213220D01*
X0008328Y0213542D01*
X0008259Y0213866D01*
X0008199Y0214192D01*
X0008146Y0214519D01*
X0008102Y0214847D01*
X0008065Y0215177D01*
X0008037Y0215507D01*
X0008016Y0215838D01*
X0008004Y0216169D01*
X0008000Y0216500D01*
X0243000Y0216500D02*
X0243004Y0216831D01*
X0243016Y0217162D01*
X0243037Y0217493D01*
X0243065Y0217823D01*
X0243102Y0218153D01*
X0243146Y0218481D01*
X0243199Y0218808D01*
X0243259Y0219134D01*
X0243328Y0219458D01*
X0243405Y0219780D01*
X0243489Y0220101D01*
X0243581Y0220419D01*
X0243681Y0220735D01*
X0243789Y0221048D01*
X0243905Y0221359D01*
X0244028Y0221666D01*
X0244158Y0221971D01*
X0244296Y0222272D01*
X0244441Y0222570D01*
X0244594Y0222864D01*
X0244754Y0223154D01*
X0244921Y0223440D01*
X0245094Y0223722D01*
X0245275Y0224000D01*
X0245463Y0224273D01*
X0245657Y0224542D01*
X0245857Y0224806D01*
X0246064Y0225064D01*
X0246278Y0225318D01*
X0246497Y0225566D01*
X0246723Y0225809D01*
X0246954Y0226046D01*
X0247191Y0226277D01*
X0247434Y0226503D01*
X0247682Y0226722D01*
X0247936Y0226936D01*
X0248194Y0227143D01*
X0248458Y0227343D01*
X0248727Y0227537D01*
X0249000Y0227725D01*
X0249278Y0227906D01*
X0249560Y0228079D01*
X0249846Y0228246D01*
X0250136Y0228406D01*
X0250430Y0228559D01*
X0250728Y0228704D01*
X0251029Y0228842D01*
X0251334Y0228972D01*
X0251641Y0229095D01*
X0251952Y0229211D01*
X0252265Y0229319D01*
X0252581Y0229419D01*
X0252899Y0229511D01*
X0253220Y0229595D01*
X0253542Y0229672D01*
X0253866Y0229741D01*
X0254192Y0229801D01*
X0254519Y0229854D01*
X0254847Y0229898D01*
X0255177Y0229935D01*
X0255507Y0229963D01*
X0255838Y0229984D01*
X0256169Y0229996D01*
X0256500Y0230000D01*
X0256831Y0229996D01*
X0257162Y0229984D01*
X0257493Y0229963D01*
X0257823Y0229935D01*
X0258153Y0229898D01*
X0258481Y0229854D01*
X0258808Y0229801D01*
X0259134Y0229741D01*
X0259458Y0229672D01*
X0259780Y0229595D01*
X0260101Y0229511D01*
X0260419Y0229419D01*
X0260735Y0229319D01*
X0261048Y0229211D01*
X0261359Y0229095D01*
X0261666Y0228972D01*
X0261971Y0228842D01*
X0262272Y0228704D01*
X0262570Y0228559D01*
X0262864Y0228406D01*
X0263154Y0228246D01*
X0263440Y0228079D01*
X0263722Y0227906D01*
X0264000Y0227725D01*
X0264273Y0227537D01*
X0264542Y0227343D01*
X0264806Y0227143D01*
X0265064Y0226936D01*
X0265318Y0226722D01*
X0265566Y0226503D01*
X0265809Y0226277D01*
X0266046Y0226046D01*
X0266277Y0225809D01*
X0266503Y0225566D01*
X0266722Y0225318D01*
X0266936Y0225064D01*
X0267143Y0224806D01*
X0267343Y0224542D01*
X0267537Y0224273D01*
X0267725Y0224000D01*
X0267906Y0223722D01*
X0268079Y0223440D01*
X0268246Y0223154D01*
X0268406Y0222864D01*
X0268559Y0222570D01*
X0268704Y0222272D01*
X0268842Y0221971D01*
X0268972Y0221666D01*
X0269095Y0221359D01*
X0269211Y0221048D01*
X0269319Y0220735D01*
X0269419Y0220419D01*
X0269511Y0220101D01*
X0269595Y0219780D01*
X0269672Y0219458D01*
X0269741Y0219134D01*
X0269801Y0218808D01*
X0269854Y0218481D01*
X0269898Y0218153D01*
X0269935Y0217823D01*
X0269963Y0217493D01*
X0269984Y0217162D01*
X0269996Y0216831D01*
X0270000Y0216500D01*
X0269996Y0216169D01*
X0269984Y0215838D01*
X0269963Y0215507D01*
X0269935Y0215177D01*
X0269898Y0214847D01*
X0269854Y0214519D01*
X0269801Y0214192D01*
X0269741Y0213866D01*
X0269672Y0213542D01*
X0269595Y0213220D01*
X0269511Y0212899D01*
X0269419Y0212581D01*
X0269319Y0212265D01*
X0269211Y0211952D01*
X0269095Y0211641D01*
X0268972Y0211334D01*
X0268842Y0211029D01*
X0268704Y0210728D01*
X0268559Y0210430D01*
X0268406Y0210136D01*
X0268246Y0209846D01*
X0268079Y0209560D01*
X0267906Y0209278D01*
X0267725Y0209000D01*
X0267537Y0208727D01*
X0267343Y0208458D01*
X0267143Y0208194D01*
X0266936Y0207936D01*
X0266722Y0207682D01*
X0266503Y0207434D01*
X0266277Y0207191D01*
X0266046Y0206954D01*
X0265809Y0206723D01*
X0265566Y0206497D01*
X0265318Y0206278D01*
X0265064Y0206064D01*
X0264806Y0205857D01*
X0264542Y0205657D01*
X0264273Y0205463D01*
X0264000Y0205275D01*
X0263722Y0205094D01*
X0263440Y0204921D01*
X0263154Y0204754D01*
X0262864Y0204594D01*
X0262570Y0204441D01*
X0262272Y0204296D01*
X0261971Y0204158D01*
X0261666Y0204028D01*
X0261359Y0203905D01*
X0261048Y0203789D01*
X0260735Y0203681D01*
X0260419Y0203581D01*
X0260101Y0203489D01*
X0259780Y0203405D01*
X0259458Y0203328D01*
X0259134Y0203259D01*
X0258808Y0203199D01*
X0258481Y0203146D01*
X0258153Y0203102D01*
X0257823Y0203065D01*
X0257493Y0203037D01*
X0257162Y0203016D01*
X0256831Y0203004D01*
X0256500Y0203000D01*
X0256169Y0203004D01*
X0255838Y0203016D01*
X0255507Y0203037D01*
X0255177Y0203065D01*
X0254847Y0203102D01*
X0254519Y0203146D01*
X0254192Y0203199D01*
X0253866Y0203259D01*
X0253542Y0203328D01*
X0253220Y0203405D01*
X0252899Y0203489D01*
X0252581Y0203581D01*
X0252265Y0203681D01*
X0251952Y0203789D01*
X0251641Y0203905D01*
X0251334Y0204028D01*
X0251029Y0204158D01*
X0250728Y0204296D01*
X0250430Y0204441D01*
X0250136Y0204594D01*
X0249846Y0204754D01*
X0249560Y0204921D01*
X0249278Y0205094D01*
X0249000Y0205275D01*
X0248727Y0205463D01*
X0248458Y0205657D01*
X0248194Y0205857D01*
X0247936Y0206064D01*
X0247682Y0206278D01*
X0247434Y0206497D01*
X0247191Y0206723D01*
X0246954Y0206954D01*
X0246723Y0207191D01*
X0246497Y0207434D01*
X0246278Y0207682D01*
X0246064Y0207936D01*
X0245857Y0208194D01*
X0245657Y0208458D01*
X0245463Y0208727D01*
X0245275Y0209000D01*
X0245094Y0209278D01*
X0244921Y0209560D01*
X0244754Y0209846D01*
X0244594Y0210136D01*
X0244441Y0210430D01*
X0244296Y0210728D01*
X0244158Y0211029D01*
X0244028Y0211334D01*
X0243905Y0211641D01*
X0243789Y0211952D01*
X0243681Y0212265D01*
X0243581Y0212581D01*
X0243489Y0212899D01*
X0243405Y0213220D01*
X0243328Y0213542D01*
X0243259Y0213866D01*
X0243199Y0214192D01*
X0243146Y0214519D01*
X0243102Y0214847D01*
X0243065Y0215177D01*
X0243037Y0215507D01*
X0243016Y0215838D01*
X0243004Y0216169D01*
X0243000Y0216500D01*
X0243000Y0021500D02*
X0243004Y0021831D01*
X0243016Y0022162D01*
X0243037Y0022493D01*
X0243065Y0022823D01*
X0243102Y0023153D01*
X0243146Y0023481D01*
X0243199Y0023808D01*
X0243259Y0024134D01*
X0243328Y0024458D01*
X0243405Y0024780D01*
X0243489Y0025101D01*
X0243581Y0025419D01*
X0243681Y0025735D01*
X0243789Y0026048D01*
X0243905Y0026359D01*
X0244028Y0026666D01*
X0244158Y0026971D01*
X0244296Y0027272D01*
X0244441Y0027570D01*
X0244594Y0027864D01*
X0244754Y0028154D01*
X0244921Y0028440D01*
X0245094Y0028722D01*
X0245275Y0029000D01*
X0245463Y0029273D01*
X0245657Y0029542D01*
X0245857Y0029806D01*
X0246064Y0030064D01*
X0246278Y0030318D01*
X0246497Y0030566D01*
X0246723Y0030809D01*
X0246954Y0031046D01*
X0247191Y0031277D01*
X0247434Y0031503D01*
X0247682Y0031722D01*
X0247936Y0031936D01*
X0248194Y0032143D01*
X0248458Y0032343D01*
X0248727Y0032537D01*
X0249000Y0032725D01*
X0249278Y0032906D01*
X0249560Y0033079D01*
X0249846Y0033246D01*
X0250136Y0033406D01*
X0250430Y0033559D01*
X0250728Y0033704D01*
X0251029Y0033842D01*
X0251334Y0033972D01*
X0251641Y0034095D01*
X0251952Y0034211D01*
X0252265Y0034319D01*
X0252581Y0034419D01*
X0252899Y0034511D01*
X0253220Y0034595D01*
X0253542Y0034672D01*
X0253866Y0034741D01*
X0254192Y0034801D01*
X0254519Y0034854D01*
X0254847Y0034898D01*
X0255177Y0034935D01*
X0255507Y0034963D01*
X0255838Y0034984D01*
X0256169Y0034996D01*
X0256500Y0035000D01*
X0256831Y0034996D01*
X0257162Y0034984D01*
X0257493Y0034963D01*
X0257823Y0034935D01*
X0258153Y0034898D01*
X0258481Y0034854D01*
X0258808Y0034801D01*
X0259134Y0034741D01*
X0259458Y0034672D01*
X0259780Y0034595D01*
X0260101Y0034511D01*
X0260419Y0034419D01*
X0260735Y0034319D01*
X0261048Y0034211D01*
X0261359Y0034095D01*
X0261666Y0033972D01*
X0261971Y0033842D01*
X0262272Y0033704D01*
X0262570Y0033559D01*
X0262864Y0033406D01*
X0263154Y0033246D01*
X0263440Y0033079D01*
X0263722Y0032906D01*
X0264000Y0032725D01*
X0264273Y0032537D01*
X0264542Y0032343D01*
X0264806Y0032143D01*
X0265064Y0031936D01*
X0265318Y0031722D01*
X0265566Y0031503D01*
X0265809Y0031277D01*
X0266046Y0031046D01*
X0266277Y0030809D01*
X0266503Y0030566D01*
X0266722Y0030318D01*
X0266936Y0030064D01*
X0267143Y0029806D01*
X0267343Y0029542D01*
X0267537Y0029273D01*
X0267725Y0029000D01*
X0267906Y0028722D01*
X0268079Y0028440D01*
X0268246Y0028154D01*
X0268406Y0027864D01*
X0268559Y0027570D01*
X0268704Y0027272D01*
X0268842Y0026971D01*
X0268972Y0026666D01*
X0269095Y0026359D01*
X0269211Y0026048D01*
X0269319Y0025735D01*
X0269419Y0025419D01*
X0269511Y0025101D01*
X0269595Y0024780D01*
X0269672Y0024458D01*
X0269741Y0024134D01*
X0269801Y0023808D01*
X0269854Y0023481D01*
X0269898Y0023153D01*
X0269935Y0022823D01*
X0269963Y0022493D01*
X0269984Y0022162D01*
X0269996Y0021831D01*
X0270000Y0021500D01*
X0269996Y0021169D01*
X0269984Y0020838D01*
X0269963Y0020507D01*
X0269935Y0020177D01*
X0269898Y0019847D01*
X0269854Y0019519D01*
X0269801Y0019192D01*
X0269741Y0018866D01*
X0269672Y0018542D01*
X0269595Y0018220D01*
X0269511Y0017899D01*
X0269419Y0017581D01*
X0269319Y0017265D01*
X0269211Y0016952D01*
X0269095Y0016641D01*
X0268972Y0016334D01*
X0268842Y0016029D01*
X0268704Y0015728D01*
X0268559Y0015430D01*
X0268406Y0015136D01*
X0268246Y0014846D01*
X0268079Y0014560D01*
X0267906Y0014278D01*
X0267725Y0014000D01*
X0267537Y0013727D01*
X0267343Y0013458D01*
X0267143Y0013194D01*
X0266936Y0012936D01*
X0266722Y0012682D01*
X0266503Y0012434D01*
X0266277Y0012191D01*
X0266046Y0011954D01*
X0265809Y0011723D01*
X0265566Y0011497D01*
X0265318Y0011278D01*
X0265064Y0011064D01*
X0264806Y0010857D01*
X0264542Y0010657D01*
X0264273Y0010463D01*
X0264000Y0010275D01*
X0263722Y0010094D01*
X0263440Y0009921D01*
X0263154Y0009754D01*
X0262864Y0009594D01*
X0262570Y0009441D01*
X0262272Y0009296D01*
X0261971Y0009158D01*
X0261666Y0009028D01*
X0261359Y0008905D01*
X0261048Y0008789D01*
X0260735Y0008681D01*
X0260419Y0008581D01*
X0260101Y0008489D01*
X0259780Y0008405D01*
X0259458Y0008328D01*
X0259134Y0008259D01*
X0258808Y0008199D01*
X0258481Y0008146D01*
X0258153Y0008102D01*
X0257823Y0008065D01*
X0257493Y0008037D01*
X0257162Y0008016D01*
X0256831Y0008004D01*
X0256500Y0008000D01*
X0256169Y0008004D01*
X0255838Y0008016D01*
X0255507Y0008037D01*
X0255177Y0008065D01*
X0254847Y0008102D01*
X0254519Y0008146D01*
X0254192Y0008199D01*
X0253866Y0008259D01*
X0253542Y0008328D01*
X0253220Y0008405D01*
X0252899Y0008489D01*
X0252581Y0008581D01*
X0252265Y0008681D01*
X0251952Y0008789D01*
X0251641Y0008905D01*
X0251334Y0009028D01*
X0251029Y0009158D01*
X0250728Y0009296D01*
X0250430Y0009441D01*
X0250136Y0009594D01*
X0249846Y0009754D01*
X0249560Y0009921D01*
X0249278Y0010094D01*
X0249000Y0010275D01*
X0248727Y0010463D01*
X0248458Y0010657D01*
X0248194Y0010857D01*
X0247936Y0011064D01*
X0247682Y0011278D01*
X0247434Y0011497D01*
X0247191Y0011723D01*
X0246954Y0011954D01*
X0246723Y0012191D01*
X0246497Y0012434D01*
X0246278Y0012682D01*
X0246064Y0012936D01*
X0245857Y0013194D01*
X0245657Y0013458D01*
X0245463Y0013727D01*
X0245275Y0014000D01*
X0245094Y0014278D01*
X0244921Y0014560D01*
X0244754Y0014846D01*
X0244594Y0015136D01*
X0244441Y0015430D01*
X0244296Y0015728D01*
X0244158Y0016029D01*
X0244028Y0016334D01*
X0243905Y0016641D01*
X0243789Y0016952D01*
X0243681Y0017265D01*
X0243581Y0017581D01*
X0243489Y0017899D01*
X0243405Y0018220D01*
X0243328Y0018542D01*
X0243259Y0018866D01*
X0243199Y0019192D01*
X0243146Y0019519D01*
X0243102Y0019847D01*
X0243065Y0020177D01*
X0243037Y0020507D01*
X0243016Y0020838D01*
X0243004Y0021169D01*
X0243000Y0021500D01*
D13*
X0083500Y0184000D03*
X0083500Y0219000D03*
D14*
X0075610Y0219000D02*
X0075390Y0219000D01*
X0113000Y0216610D02*
X0113000Y0216390D01*
X0076110Y0184000D02*
X0075890Y0184000D01*
D15*
X0096500Y0186500D03*
D16*
X0251900Y0136000D03*
D17*
X0227500Y0175000D03*
D18*
X0189398Y0036304D02*
X0187863Y0036304D01*
X0187096Y0035537D01*
X0185561Y0036304D02*
X0182492Y0033235D01*
X0183259Y0034002D02*
X0185561Y0031700D01*
X0187096Y0031700D02*
X0190165Y0034769D01*
X0190165Y0035537D01*
X0189398Y0036304D01*
X0190165Y0031700D02*
X0187096Y0031700D01*
X0182492Y0031700D02*
X0182492Y0036304D01*
D19*
X0087000Y0094500D03*
X0069000Y0094500D03*
D20*
X0180750Y0210000D03*
D21*
X0180750Y0210050D03*
D22*
X0180750Y0210100D03*
D23*
X0180775Y0210150D03*
D24*
X0180775Y0210200D03*
D25*
X0180775Y0210250D03*
D26*
X0180800Y0210300D03*
D27*
X0180800Y0210350D03*
D28*
X0180800Y0210400D03*
D29*
X0180825Y0210450D03*
X0186625Y0228950D03*
D30*
X0180825Y0210500D03*
D31*
X0180850Y0210550D03*
D32*
X0180875Y0210600D03*
D33*
X0180875Y0210650D03*
X0186575Y0228750D03*
D34*
X0180875Y0210700D03*
D35*
X0180875Y0210750D03*
D36*
X0180900Y0210800D03*
D37*
X0180900Y0210850D03*
D38*
X0180925Y0210900D03*
X0186525Y0228500D03*
D39*
X0180950Y0210950D03*
D40*
X0180950Y0211000D03*
D41*
X0180950Y0211050D03*
X0186500Y0228350D03*
D42*
X0180950Y0211100D03*
D43*
X0180975Y0211150D03*
X0186475Y0228250D03*
D44*
X0186475Y0228200D03*
X0180975Y0211200D03*
D45*
X0180975Y0211250D03*
D46*
X0181000Y0211300D03*
X0186450Y0228100D03*
D47*
X0186450Y0228050D03*
X0181000Y0211350D03*
D48*
X0181025Y0211400D03*
X0186425Y0228000D03*
D49*
X0186425Y0227950D03*
X0181025Y0211450D03*
D50*
X0185625Y0221200D03*
X0185575Y0221250D03*
X0234275Y0211700D03*
X0133125Y0227650D03*
X0127975Y0211500D03*
D51*
X0181175Y0216300D03*
X0222625Y0216400D03*
X0233825Y0211500D03*
D52*
X0234550Y0211900D03*
X0234600Y0211950D03*
X0227000Y0221400D03*
X0218600Y0218000D03*
X0215600Y0221400D03*
X0191700Y0218000D03*
X0188700Y0221400D03*
X0185750Y0221000D03*
X0184800Y0218400D03*
X0179100Y0218400D03*
X0177150Y0221300D03*
X0169200Y0221300D03*
X0168700Y0219850D03*
X0132850Y0227450D03*
X0127800Y0211550D03*
D53*
X0222700Y0216250D03*
X0234000Y0211550D03*
D54*
X0230075Y0218050D03*
X0230325Y0218750D03*
X0226875Y0221350D03*
X0218675Y0218050D03*
X0215525Y0221350D03*
X0191775Y0218050D03*
X0188625Y0221350D03*
X0185825Y0220800D03*
X0185825Y0220750D03*
X0185825Y0220700D03*
X0185125Y0218700D03*
X0185075Y0218650D03*
X0179025Y0218650D03*
X0179025Y0218600D03*
X0176775Y0219950D03*
X0169225Y0221200D03*
X0168825Y0219950D03*
X0132725Y0227300D03*
X0132675Y0227250D03*
X0132625Y0227200D03*
X0127725Y0211600D03*
D55*
X0133400Y0227800D03*
X0234100Y0211600D03*
D56*
X0234800Y0212150D03*
X0234850Y0212200D03*
X0226600Y0220650D03*
X0218950Y0218750D03*
X0218750Y0218100D03*
X0215250Y0220650D03*
X0215450Y0221300D03*
X0192050Y0218750D03*
X0191850Y0218100D03*
X0188350Y0220650D03*
X0188550Y0221300D03*
X0185850Y0220650D03*
X0185850Y0220600D03*
X0185850Y0220550D03*
X0185250Y0218850D03*
X0185200Y0218800D03*
X0185150Y0218750D03*
X0179000Y0218750D03*
X0179000Y0218800D03*
X0179000Y0218700D03*
X0176900Y0220100D03*
X0176850Y0220050D03*
X0176800Y0220000D03*
X0177200Y0221150D03*
X0169250Y0221150D03*
X0168950Y0220100D03*
X0168900Y0220050D03*
X0168850Y0220000D03*
X0127650Y0211650D03*
X0239750Y0227750D03*
D57*
X0234175Y0211650D03*
X0184375Y0218100D03*
X0181175Y0216250D03*
X0179325Y0218100D03*
X0174525Y0216300D03*
X0174475Y0216350D03*
X0174425Y0216450D03*
X0174375Y0216500D03*
X0174325Y0216600D03*
X0174225Y0216750D03*
X0174175Y0216850D03*
X0174125Y0216900D03*
X0174075Y0217000D03*
X0174025Y0217050D03*
X0173975Y0217150D03*
X0173875Y0217300D03*
X0173825Y0217400D03*
X0173775Y0217450D03*
X0173725Y0217550D03*
X0173625Y0217700D03*
X0173525Y0217850D03*
D58*
X0176925Y0220150D03*
X0176975Y0220200D03*
X0177225Y0221000D03*
X0177225Y0221050D03*
X0177225Y0221100D03*
X0179475Y0220350D03*
X0179525Y0220400D03*
X0179525Y0220450D03*
X0179575Y0220500D03*
X0179625Y0220550D03*
X0178975Y0218900D03*
X0178975Y0218850D03*
X0185275Y0218900D03*
X0185325Y0218950D03*
X0185325Y0219000D03*
X0185375Y0219050D03*
X0188325Y0220700D03*
X0188525Y0221250D03*
X0192075Y0218700D03*
X0192075Y0218650D03*
X0215225Y0220700D03*
X0215425Y0221250D03*
X0218975Y0218700D03*
X0226575Y0220700D03*
X0226575Y0220750D03*
X0226775Y0221250D03*
X0226825Y0221300D03*
X0230325Y0218700D03*
X0230175Y0218150D03*
X0230125Y0218100D03*
X0234925Y0212300D03*
X0234875Y0212250D03*
X0239825Y0227700D03*
X0169275Y0221100D03*
X0169275Y0221050D03*
X0169275Y0221000D03*
X0169025Y0220200D03*
X0168975Y0220150D03*
X0132575Y0227150D03*
X0132525Y0227100D03*
X0127625Y0211700D03*
D59*
X0127575Y0211750D03*
X0127525Y0211800D03*
X0132375Y0226850D03*
X0132375Y0226900D03*
X0132425Y0226950D03*
X0161925Y0216300D03*
X0161925Y0216250D03*
X0161975Y0216350D03*
X0161975Y0216400D03*
X0162025Y0216450D03*
X0162025Y0216500D03*
X0162025Y0216550D03*
X0162075Y0216600D03*
X0162075Y0216650D03*
X0162075Y0216700D03*
X0162125Y0216750D03*
X0162125Y0216800D03*
X0162125Y0216850D03*
X0162175Y0216900D03*
X0162175Y0216950D03*
X0162225Y0217000D03*
X0162225Y0217050D03*
X0162225Y0217100D03*
X0162275Y0217150D03*
X0162275Y0217200D03*
X0162275Y0217250D03*
X0162325Y0217300D03*
X0162325Y0217350D03*
X0162325Y0217400D03*
X0162375Y0217450D03*
X0162375Y0217500D03*
X0162425Y0217550D03*
X0162425Y0217600D03*
X0162425Y0217650D03*
X0162475Y0217700D03*
X0162475Y0217750D03*
X0162475Y0217800D03*
X0162525Y0217850D03*
X0162525Y0217900D03*
X0162575Y0218000D03*
X0162575Y0218050D03*
X0162625Y0218100D03*
X0162625Y0218150D03*
X0162625Y0218200D03*
X0162675Y0218250D03*
X0162675Y0218300D03*
X0162675Y0218350D03*
X0162725Y0218400D03*
X0162725Y0218450D03*
X0162775Y0218550D03*
X0162775Y0218600D03*
X0162825Y0218650D03*
X0162825Y0218700D03*
X0162825Y0218750D03*
X0162875Y0218800D03*
X0162875Y0218850D03*
X0162875Y0218900D03*
X0162925Y0218950D03*
X0162925Y0219000D03*
X0162975Y0219100D03*
X0162975Y0219150D03*
X0163025Y0219200D03*
X0163025Y0219250D03*
X0163025Y0219300D03*
X0163075Y0219350D03*
X0163075Y0219400D03*
X0163075Y0219450D03*
X0163125Y0219500D03*
X0163125Y0219550D03*
X0163175Y0219650D03*
X0163175Y0219700D03*
X0163225Y0219750D03*
X0163225Y0219800D03*
X0163225Y0219850D03*
X0163275Y0219900D03*
X0163275Y0219950D03*
X0163275Y0220000D03*
X0163325Y0220050D03*
X0163325Y0220100D03*
X0163375Y0220200D03*
X0163375Y0220250D03*
X0163425Y0220300D03*
X0163425Y0220350D03*
X0163425Y0220400D03*
X0163475Y0220450D03*
X0163475Y0220500D03*
X0163475Y0220550D03*
X0163525Y0220600D03*
X0163525Y0220650D03*
X0163575Y0220750D03*
X0163575Y0220800D03*
X0163625Y0220850D03*
X0163625Y0220900D03*
X0163625Y0220950D03*
X0163675Y0221000D03*
X0163675Y0221050D03*
X0163675Y0221100D03*
X0163725Y0221150D03*
X0163725Y0221200D03*
X0163775Y0221300D03*
X0163775Y0221350D03*
X0169075Y0220300D03*
X0169125Y0220400D03*
X0169175Y0220450D03*
X0169175Y0220500D03*
X0169225Y0220600D03*
X0169225Y0220650D03*
X0169225Y0220700D03*
X0169275Y0220750D03*
X0169275Y0220800D03*
X0169275Y0220850D03*
X0171225Y0220000D03*
X0171225Y0219950D03*
X0171225Y0219900D03*
X0171175Y0219850D03*
X0171175Y0219800D03*
X0171175Y0219750D03*
X0171125Y0219700D03*
X0171125Y0219650D03*
X0171125Y0219600D03*
X0171075Y0219550D03*
X0171075Y0219500D03*
X0171025Y0219450D03*
X0171025Y0219400D03*
X0171025Y0219350D03*
X0170975Y0219300D03*
X0170975Y0219250D03*
X0170975Y0219200D03*
X0170925Y0219150D03*
X0170925Y0219100D03*
X0170925Y0219050D03*
X0170875Y0219000D03*
X0170875Y0218950D03*
X0170825Y0218900D03*
X0170825Y0218850D03*
X0170825Y0218800D03*
X0170775Y0218750D03*
X0170775Y0218700D03*
X0170775Y0218650D03*
X0170725Y0218600D03*
X0170725Y0218550D03*
X0170725Y0218500D03*
X0170675Y0218450D03*
X0170675Y0218400D03*
X0170625Y0218350D03*
X0170625Y0218300D03*
X0170625Y0218250D03*
X0170575Y0218200D03*
X0170575Y0218150D03*
X0170575Y0218100D03*
X0170525Y0218050D03*
X0170525Y0218000D03*
X0170525Y0217950D03*
X0170475Y0217900D03*
X0170475Y0217850D03*
X0170425Y0217800D03*
X0170425Y0217750D03*
X0170425Y0217700D03*
X0170375Y0217650D03*
X0170375Y0217600D03*
X0170375Y0217550D03*
X0170325Y0217500D03*
X0170325Y0217450D03*
X0170325Y0217400D03*
X0170275Y0217350D03*
X0170275Y0217300D03*
X0170225Y0217250D03*
X0170225Y0217200D03*
X0170225Y0217150D03*
X0170175Y0217100D03*
X0170175Y0217050D03*
X0170175Y0217000D03*
X0170125Y0216950D03*
X0170125Y0216900D03*
X0170125Y0216850D03*
X0170075Y0216800D03*
X0170075Y0216750D03*
X0170025Y0216700D03*
X0170025Y0216650D03*
X0170025Y0216600D03*
X0169975Y0216550D03*
X0169975Y0216500D03*
X0169975Y0216450D03*
X0169925Y0216400D03*
X0169925Y0216350D03*
X0169875Y0216250D03*
X0171275Y0220050D03*
X0171275Y0220100D03*
X0171325Y0220150D03*
X0171325Y0220200D03*
X0171325Y0220250D03*
X0171375Y0220300D03*
X0171375Y0220350D03*
X0171375Y0220400D03*
X0171425Y0220450D03*
X0171425Y0220500D03*
X0171425Y0220550D03*
X0171475Y0220600D03*
X0171475Y0220650D03*
X0171525Y0220700D03*
X0171525Y0220750D03*
X0171525Y0220800D03*
X0171575Y0220850D03*
X0171575Y0220900D03*
X0171575Y0220950D03*
X0171625Y0221000D03*
X0171625Y0221050D03*
X0171625Y0221100D03*
X0171675Y0221150D03*
X0171675Y0221200D03*
X0171725Y0221250D03*
X0171725Y0221300D03*
X0171725Y0221350D03*
X0177075Y0220400D03*
X0177075Y0220350D03*
X0177125Y0220450D03*
X0177125Y0220500D03*
X0177175Y0220550D03*
X0177175Y0220600D03*
X0177175Y0220650D03*
X0177225Y0220700D03*
X0177225Y0220750D03*
X0177225Y0220800D03*
X0177225Y0220850D03*
X0179225Y0219900D03*
X0179275Y0220000D03*
X0179325Y0220100D03*
X0179175Y0219800D03*
X0179175Y0219750D03*
X0179125Y0219700D03*
X0179125Y0219650D03*
X0179125Y0219600D03*
X0179075Y0219550D03*
X0179075Y0219500D03*
X0179075Y0219450D03*
X0179025Y0219350D03*
X0179025Y0219300D03*
X0179025Y0219250D03*
X0185525Y0219300D03*
X0185575Y0219400D03*
X0185625Y0219500D03*
X0185675Y0219600D03*
X0185675Y0219650D03*
X0185725Y0219700D03*
X0185725Y0219750D03*
X0185725Y0219800D03*
X0185775Y0219850D03*
X0185775Y0219900D03*
X0185775Y0219950D03*
X0185825Y0220050D03*
X0185825Y0220100D03*
X0185825Y0220150D03*
X0185825Y0220200D03*
X0188325Y0220850D03*
X0188325Y0220900D03*
X0188325Y0220950D03*
X0188375Y0221000D03*
X0188375Y0221050D03*
X0192075Y0218550D03*
X0192075Y0218500D03*
X0192075Y0218450D03*
X0192025Y0218400D03*
X0192025Y0218350D03*
X0195625Y0216900D03*
X0195625Y0216850D03*
X0195625Y0216800D03*
X0195575Y0216750D03*
X0195575Y0216700D03*
X0195575Y0216650D03*
X0195525Y0216600D03*
X0195525Y0216550D03*
X0195475Y0216450D03*
X0195475Y0216400D03*
X0195425Y0216350D03*
X0195425Y0216300D03*
X0195425Y0216250D03*
X0195675Y0216950D03*
X0195675Y0217000D03*
X0195725Y0217100D03*
X0195725Y0217150D03*
X0195775Y0217200D03*
X0195775Y0217250D03*
X0195775Y0217300D03*
X0195825Y0217350D03*
X0195825Y0217400D03*
X0195825Y0217450D03*
X0195875Y0217500D03*
X0195875Y0217550D03*
X0195925Y0217650D03*
X0195925Y0217700D03*
X0195975Y0217750D03*
X0195975Y0217800D03*
X0195975Y0217850D03*
X0196025Y0217900D03*
X0196025Y0217950D03*
X0196025Y0218000D03*
X0196075Y0218050D03*
X0196075Y0218100D03*
X0196125Y0218200D03*
X0196125Y0218250D03*
X0196175Y0218300D03*
X0196175Y0218350D03*
X0196175Y0218400D03*
X0196225Y0218450D03*
X0196225Y0218500D03*
X0196225Y0218550D03*
X0196275Y0218600D03*
X0196275Y0218650D03*
X0196325Y0218750D03*
X0196325Y0218800D03*
X0196375Y0218850D03*
X0196375Y0218900D03*
X0196375Y0218950D03*
X0196425Y0219000D03*
X0196425Y0219050D03*
X0196425Y0219100D03*
X0196475Y0219150D03*
X0196475Y0219200D03*
X0196525Y0219300D03*
X0196525Y0219350D03*
X0196575Y0219400D03*
X0196575Y0219450D03*
X0196575Y0219500D03*
X0196625Y0219550D03*
X0196625Y0219600D03*
X0196625Y0219650D03*
X0196675Y0219700D03*
X0196675Y0219750D03*
X0196725Y0219850D03*
X0196725Y0219900D03*
X0196775Y0219950D03*
X0196775Y0220000D03*
X0196775Y0220050D03*
X0196825Y0220100D03*
X0196825Y0220150D03*
X0196825Y0220200D03*
X0196875Y0220250D03*
X0196875Y0220300D03*
X0196925Y0220350D03*
X0196925Y0220400D03*
X0196925Y0220450D03*
X0196975Y0220500D03*
X0196975Y0220550D03*
X0196975Y0220600D03*
X0197025Y0220650D03*
X0197025Y0220700D03*
X0197025Y0220750D03*
X0197075Y0220800D03*
X0197075Y0220850D03*
X0197125Y0220900D03*
X0197125Y0220950D03*
X0197125Y0221000D03*
X0197175Y0221050D03*
X0197175Y0221100D03*
X0197175Y0221150D03*
X0197225Y0221200D03*
X0197225Y0221250D03*
X0197225Y0221300D03*
X0197275Y0221350D03*
X0201125Y0220600D03*
X0201175Y0220650D03*
X0201175Y0220700D03*
X0201175Y0220750D03*
X0201225Y0220800D03*
X0201225Y0220850D03*
X0201275Y0220950D03*
X0201275Y0221000D03*
X0201325Y0221050D03*
X0201325Y0221100D03*
X0201325Y0221150D03*
X0201375Y0221200D03*
X0201375Y0221250D03*
X0201375Y0221300D03*
X0201425Y0221350D03*
X0201425Y0221400D03*
X0201475Y0221450D03*
X0201475Y0221500D03*
X0201475Y0221550D03*
X0201525Y0221600D03*
X0201525Y0221650D03*
X0201525Y0221700D03*
X0201575Y0221750D03*
X0201575Y0221800D03*
X0201575Y0221850D03*
X0201625Y0221900D03*
X0201625Y0221950D03*
X0201675Y0222000D03*
X0201675Y0222050D03*
X0201675Y0222100D03*
X0201725Y0222150D03*
X0201725Y0222200D03*
X0201725Y0222250D03*
X0201775Y0222300D03*
X0201775Y0222350D03*
X0201775Y0222400D03*
X0201825Y0222450D03*
X0201825Y0222500D03*
X0201875Y0222550D03*
X0201875Y0222600D03*
X0201875Y0222650D03*
X0201925Y0222700D03*
X0201925Y0222750D03*
X0201925Y0222800D03*
X0201975Y0222850D03*
X0201975Y0222900D03*
X0201975Y0222950D03*
X0202025Y0223000D03*
X0202025Y0223050D03*
X0202075Y0223100D03*
X0202075Y0223150D03*
X0200475Y0218750D03*
X0200425Y0218650D03*
X0200425Y0218600D03*
X0200375Y0218550D03*
X0200375Y0218500D03*
X0200375Y0218450D03*
X0200325Y0218400D03*
X0200325Y0218350D03*
X0200325Y0218300D03*
X0200275Y0218250D03*
X0200275Y0218200D03*
X0200225Y0218100D03*
X0200225Y0218050D03*
X0200175Y0218000D03*
X0200175Y0217950D03*
X0200175Y0217900D03*
X0200125Y0217850D03*
X0200125Y0217800D03*
X0200125Y0217750D03*
X0200075Y0217700D03*
X0200075Y0217650D03*
X0200025Y0217550D03*
X0200025Y0217500D03*
X0199975Y0217450D03*
X0199975Y0217400D03*
X0199975Y0217350D03*
X0199925Y0217300D03*
X0199925Y0217250D03*
X0199925Y0217200D03*
X0199875Y0217150D03*
X0199875Y0217100D03*
X0199825Y0217000D03*
X0199825Y0216950D03*
X0199775Y0216900D03*
X0199775Y0216850D03*
X0199775Y0216800D03*
X0199725Y0216750D03*
X0199725Y0216700D03*
X0199725Y0216650D03*
X0199675Y0216600D03*
X0199675Y0216550D03*
X0199625Y0216450D03*
X0199625Y0216400D03*
X0199575Y0216350D03*
X0199575Y0216300D03*
X0199575Y0216250D03*
X0205275Y0216250D03*
X0205275Y0216300D03*
X0205325Y0216350D03*
X0205325Y0216400D03*
X0205325Y0216450D03*
X0205375Y0216500D03*
X0205375Y0216550D03*
X0205375Y0216600D03*
X0205425Y0216650D03*
X0205425Y0216700D03*
X0205425Y0216750D03*
X0205475Y0216800D03*
X0205475Y0216850D03*
X0205525Y0216900D03*
X0205525Y0216950D03*
X0205525Y0217000D03*
X0205575Y0217050D03*
X0205575Y0217100D03*
X0205575Y0217150D03*
X0205625Y0217200D03*
X0205625Y0217250D03*
X0205625Y0217300D03*
X0205675Y0217350D03*
X0205675Y0217400D03*
X0205725Y0217450D03*
X0205725Y0217500D03*
X0205725Y0217550D03*
X0205775Y0217600D03*
X0205775Y0217650D03*
X0205775Y0217700D03*
X0205825Y0217750D03*
X0205825Y0217800D03*
X0205825Y0217850D03*
X0205875Y0217900D03*
X0205875Y0217950D03*
X0205925Y0218000D03*
X0205925Y0218050D03*
X0205925Y0218100D03*
X0205975Y0218150D03*
X0205975Y0218200D03*
X0205975Y0218250D03*
X0206025Y0218300D03*
X0206025Y0218350D03*
X0206025Y0218400D03*
X0206075Y0218450D03*
X0206075Y0218500D03*
X0206125Y0218550D03*
X0206125Y0218600D03*
X0206125Y0218650D03*
X0206175Y0218700D03*
X0206175Y0218750D03*
X0206875Y0220650D03*
X0206875Y0220700D03*
X0206925Y0220750D03*
X0206925Y0220800D03*
X0206925Y0220850D03*
X0206975Y0220900D03*
X0206975Y0220950D03*
X0206975Y0221000D03*
X0207025Y0221050D03*
X0207025Y0221100D03*
X0207075Y0221200D03*
X0207075Y0221250D03*
X0207125Y0221300D03*
X0207125Y0221350D03*
X0207125Y0221400D03*
X0207175Y0221450D03*
X0207175Y0221500D03*
X0207175Y0221550D03*
X0207225Y0221600D03*
X0207225Y0221650D03*
X0207275Y0221750D03*
X0207275Y0221800D03*
X0207325Y0221850D03*
X0207325Y0221900D03*
X0207325Y0221950D03*
X0207375Y0222000D03*
X0207375Y0222050D03*
X0207375Y0222100D03*
X0207425Y0222150D03*
X0207425Y0222200D03*
X0207475Y0222300D03*
X0207475Y0222350D03*
X0207525Y0222400D03*
X0207525Y0222450D03*
X0207525Y0222500D03*
X0207575Y0222550D03*
X0207575Y0222600D03*
X0207575Y0222650D03*
X0207625Y0222700D03*
X0207625Y0222750D03*
X0207675Y0222850D03*
X0207675Y0222900D03*
X0207725Y0222950D03*
X0207725Y0223000D03*
X0207725Y0223050D03*
X0207775Y0223100D03*
X0207775Y0223150D03*
X0209675Y0221300D03*
X0209675Y0221250D03*
X0209675Y0221200D03*
X0209625Y0221150D03*
X0209625Y0221100D03*
X0209625Y0221050D03*
X0209575Y0221000D03*
X0209575Y0220950D03*
X0209525Y0220850D03*
X0209525Y0220800D03*
X0209475Y0220750D03*
X0209475Y0220700D03*
X0209475Y0220650D03*
X0209425Y0220600D03*
X0209725Y0221350D03*
X0208775Y0218750D03*
X0208725Y0218650D03*
X0208725Y0218600D03*
X0208675Y0218550D03*
X0208675Y0218500D03*
X0208675Y0218450D03*
X0208625Y0218400D03*
X0208625Y0218350D03*
X0208625Y0218300D03*
X0208575Y0218250D03*
X0208575Y0218200D03*
X0208525Y0218100D03*
X0208525Y0218050D03*
X0208475Y0218000D03*
X0215225Y0220850D03*
X0215225Y0220900D03*
X0215225Y0220950D03*
X0215275Y0221000D03*
X0215275Y0221050D03*
X0218975Y0218550D03*
X0218975Y0218500D03*
X0218975Y0218450D03*
X0218925Y0218400D03*
X0218925Y0218350D03*
X0218875Y0218250D03*
X0222275Y0218100D03*
X0222275Y0218050D03*
X0222275Y0218000D03*
X0222325Y0218150D03*
X0222325Y0218200D03*
X0222375Y0218250D03*
X0222375Y0218300D03*
X0222375Y0218350D03*
X0222425Y0218400D03*
X0222425Y0218450D03*
X0222425Y0218500D03*
X0222475Y0218550D03*
X0222475Y0218600D03*
X0222525Y0218700D03*
X0222525Y0218750D03*
X0222575Y0218800D03*
X0222575Y0218850D03*
X0222575Y0218900D03*
X0222625Y0218950D03*
X0222625Y0219000D03*
X0222625Y0219050D03*
X0222675Y0219100D03*
X0222675Y0219150D03*
X0222725Y0219250D03*
X0222725Y0219300D03*
X0222775Y0219350D03*
X0222775Y0219400D03*
X0222775Y0219450D03*
X0222825Y0219500D03*
X0222825Y0219550D03*
X0222825Y0219600D03*
X0222875Y0219650D03*
X0222875Y0219700D03*
X0222925Y0219800D03*
X0222925Y0219850D03*
X0222975Y0219900D03*
X0222975Y0219950D03*
X0222975Y0220000D03*
X0223025Y0220050D03*
X0223025Y0220100D03*
X0223025Y0220150D03*
X0223075Y0220200D03*
X0223075Y0220250D03*
X0223125Y0220350D03*
X0223125Y0220400D03*
X0223175Y0220450D03*
X0223175Y0220500D03*
X0223175Y0220550D03*
X0223225Y0220600D03*
X0223225Y0220650D03*
X0223225Y0220700D03*
X0223275Y0220750D03*
X0223275Y0220800D03*
X0223325Y0220900D03*
X0223325Y0220950D03*
X0223375Y0221000D03*
X0223375Y0221050D03*
X0223375Y0221100D03*
X0223425Y0221150D03*
X0223425Y0221200D03*
X0223425Y0221250D03*
X0223475Y0221300D03*
X0223475Y0221350D03*
X0226575Y0220900D03*
X0226575Y0220850D03*
X0226575Y0220800D03*
X0226625Y0220950D03*
X0226625Y0221000D03*
X0226625Y0221050D03*
X0226675Y0221100D03*
X0230325Y0218500D03*
X0230325Y0218450D03*
X0230325Y0218400D03*
X0230275Y0218350D03*
X0230275Y0218300D03*
X0230225Y0218250D03*
X0235075Y0212500D03*
X0235025Y0212450D03*
X0239925Y0227600D03*
X0239875Y0227650D03*
D60*
X0234350Y0211750D03*
X0184550Y0218200D03*
X0179200Y0218200D03*
D61*
X0179175Y0218250D03*
X0176475Y0219750D03*
X0168525Y0219750D03*
X0184625Y0218250D03*
X0185675Y0221150D03*
X0234425Y0211800D03*
X0133075Y0227600D03*
D62*
X0132350Y0226800D03*
X0132300Y0226750D03*
X0132250Y0226650D03*
X0127500Y0211850D03*
X0162550Y0217950D03*
X0162750Y0218500D03*
X0162950Y0219050D03*
X0163150Y0219600D03*
X0163350Y0220150D03*
X0163550Y0220700D03*
X0163750Y0221250D03*
X0169200Y0220550D03*
X0169900Y0216300D03*
X0195400Y0216200D03*
X0195500Y0216500D03*
X0195700Y0217050D03*
X0195900Y0217600D03*
X0196100Y0218150D03*
X0196300Y0218700D03*
X0196500Y0219250D03*
X0196700Y0219800D03*
X0200050Y0217600D03*
X0199850Y0217050D03*
X0199650Y0216500D03*
X0200250Y0218150D03*
X0200450Y0218700D03*
X0201250Y0220900D03*
X0206850Y0220600D03*
X0207050Y0221150D03*
X0207250Y0221700D03*
X0207450Y0222250D03*
X0207650Y0222800D03*
X0209550Y0220900D03*
X0208750Y0218700D03*
X0208550Y0218150D03*
X0222500Y0218650D03*
X0222700Y0219200D03*
X0222900Y0219750D03*
X0223100Y0220300D03*
X0223300Y0220850D03*
X0235100Y0212600D03*
X0235100Y0212550D03*
X0235150Y0212650D03*
X0239950Y0227550D03*
D63*
X0234475Y0211850D03*
X0185725Y0221050D03*
X0183675Y0223150D03*
X0179125Y0218350D03*
X0176575Y0219800D03*
X0168625Y0219800D03*
X0132925Y0227500D03*
D64*
X0132275Y0226700D03*
X0132225Y0226600D03*
X0132175Y0226500D03*
X0127425Y0211950D03*
X0127475Y0211900D03*
X0235175Y0212700D03*
X0235225Y0212750D03*
X0235225Y0212800D03*
X0239975Y0227500D03*
D65*
X0240000Y0227450D03*
X0240050Y0227400D03*
X0240050Y0227350D03*
X0240000Y0225800D03*
X0239950Y0225700D03*
X0239950Y0225650D03*
X0239900Y0225550D03*
X0239850Y0225400D03*
X0239800Y0225250D03*
X0239750Y0225150D03*
X0239750Y0225100D03*
X0239700Y0225000D03*
X0239650Y0224850D03*
X0239600Y0224700D03*
X0239550Y0224600D03*
X0239550Y0224550D03*
X0239500Y0224450D03*
X0239450Y0224300D03*
X0239400Y0224150D03*
X0239350Y0224050D03*
X0239350Y0224000D03*
X0239300Y0223900D03*
X0239250Y0223750D03*
X0239200Y0223600D03*
X0239150Y0223500D03*
X0239150Y0223450D03*
X0239100Y0223350D03*
X0236500Y0216200D03*
X0236450Y0216050D03*
X0236400Y0215900D03*
X0236350Y0215800D03*
X0236300Y0215650D03*
X0236250Y0215500D03*
X0236200Y0215350D03*
X0236150Y0215250D03*
X0236100Y0215100D03*
X0236050Y0214950D03*
X0236000Y0214800D03*
X0235950Y0214700D03*
X0235900Y0214550D03*
X0235850Y0214400D03*
X0235800Y0214250D03*
X0235750Y0214150D03*
X0235700Y0214000D03*
X0235650Y0213850D03*
X0235600Y0213700D03*
X0235550Y0213600D03*
X0235500Y0213450D03*
X0235450Y0213300D03*
X0235400Y0213200D03*
X0235400Y0213150D03*
X0235350Y0213050D03*
X0235300Y0212950D03*
X0235300Y0212900D03*
X0235250Y0212850D03*
X0132200Y0226550D03*
X0132150Y0226450D03*
X0132150Y0226400D03*
X0132100Y0226350D03*
X0132100Y0226300D03*
X0132050Y0226200D03*
X0132000Y0226100D03*
X0132000Y0226050D03*
X0131950Y0225950D03*
X0131900Y0225800D03*
X0131850Y0225650D03*
X0131800Y0225550D03*
X0131800Y0225500D03*
X0131750Y0225400D03*
X0131700Y0225250D03*
X0131650Y0225100D03*
X0131600Y0225000D03*
X0131600Y0224950D03*
X0131550Y0224850D03*
X0131500Y0224700D03*
X0131450Y0224550D03*
X0131400Y0224450D03*
X0131400Y0224400D03*
X0131350Y0224300D03*
X0131300Y0224150D03*
X0131250Y0224000D03*
X0131200Y0223900D03*
X0131200Y0223850D03*
X0131150Y0223750D03*
X0131100Y0223600D03*
X0131050Y0223450D03*
X0131000Y0223350D03*
X0131000Y0223300D03*
X0128400Y0216200D03*
X0128350Y0216050D03*
X0128300Y0215900D03*
X0128250Y0215750D03*
X0128200Y0215650D03*
X0128150Y0215500D03*
X0128100Y0215350D03*
X0128050Y0215200D03*
X0128000Y0215100D03*
X0127950Y0214950D03*
X0127900Y0214800D03*
X0127850Y0214650D03*
X0127800Y0214550D03*
X0127750Y0214400D03*
X0127700Y0214250D03*
X0127650Y0214100D03*
X0127600Y0214000D03*
X0127550Y0213850D03*
X0127500Y0213700D03*
X0127450Y0213550D03*
X0127400Y0212000D03*
D66*
X0132750Y0227350D03*
X0168750Y0219900D03*
X0176700Y0219900D03*
X0177200Y0221200D03*
X0179050Y0218550D03*
X0179050Y0218500D03*
X0185000Y0218600D03*
X0185800Y0220850D03*
X0188400Y0220600D03*
X0215300Y0220600D03*
X0226650Y0220600D03*
X0234750Y0212100D03*
X0234700Y0212050D03*
X0234650Y0212000D03*
X0239700Y0227800D03*
D67*
X0240075Y0227300D03*
X0240125Y0227200D03*
X0240125Y0227150D03*
X0240125Y0226250D03*
X0240075Y0226100D03*
X0240075Y0226050D03*
X0240075Y0226000D03*
X0240025Y0225950D03*
X0240025Y0225900D03*
X0240025Y0225850D03*
X0239975Y0225750D03*
X0239925Y0225600D03*
X0239875Y0225500D03*
X0239875Y0225450D03*
X0239825Y0225350D03*
X0239825Y0225300D03*
X0239775Y0225200D03*
X0239725Y0225050D03*
X0239675Y0224950D03*
X0239675Y0224900D03*
X0239625Y0224800D03*
X0239625Y0224750D03*
X0239575Y0224650D03*
X0239525Y0224500D03*
X0239475Y0224400D03*
X0239475Y0224350D03*
X0239425Y0224250D03*
X0239425Y0224200D03*
X0239375Y0224100D03*
X0239325Y0223950D03*
X0239275Y0223850D03*
X0239275Y0223800D03*
X0239225Y0223700D03*
X0239225Y0223650D03*
X0239175Y0223550D03*
X0239125Y0223400D03*
X0239075Y0223300D03*
X0239075Y0223250D03*
X0236525Y0216300D03*
X0236525Y0216250D03*
X0236475Y0216150D03*
X0236475Y0216100D03*
X0236425Y0216000D03*
X0236425Y0215950D03*
X0236375Y0215850D03*
X0236325Y0215750D03*
X0236325Y0215700D03*
X0236275Y0215600D03*
X0236275Y0215550D03*
X0236225Y0215450D03*
X0236225Y0215400D03*
X0236175Y0215300D03*
X0236125Y0215200D03*
X0236125Y0215150D03*
X0236075Y0215050D03*
X0236075Y0215000D03*
X0236025Y0214900D03*
X0236025Y0214850D03*
X0235975Y0214750D03*
X0235925Y0214650D03*
X0235925Y0214600D03*
X0235875Y0214500D03*
X0235875Y0214450D03*
X0235825Y0214350D03*
X0235825Y0214300D03*
X0235775Y0214200D03*
X0235725Y0214100D03*
X0235725Y0214050D03*
X0235675Y0213950D03*
X0235675Y0213900D03*
X0235625Y0213800D03*
X0235625Y0213750D03*
X0235575Y0213650D03*
X0235525Y0213550D03*
X0235525Y0213500D03*
X0235475Y0213400D03*
X0235475Y0213350D03*
X0235425Y0213250D03*
X0235375Y0213100D03*
X0235325Y0213000D03*
X0132075Y0226250D03*
X0132025Y0226150D03*
X0131975Y0226000D03*
X0131925Y0225900D03*
X0131925Y0225850D03*
X0131875Y0225750D03*
X0131875Y0225700D03*
X0131825Y0225600D03*
X0131775Y0225450D03*
X0131725Y0225350D03*
X0131725Y0225300D03*
X0131675Y0225200D03*
X0131675Y0225150D03*
X0131625Y0225050D03*
X0131575Y0224900D03*
X0131525Y0224800D03*
X0131525Y0224750D03*
X0131475Y0224650D03*
X0131475Y0224600D03*
X0131425Y0224500D03*
X0131375Y0224350D03*
X0131325Y0224250D03*
X0131325Y0224200D03*
X0131275Y0224100D03*
X0131275Y0224050D03*
X0131225Y0223950D03*
X0131175Y0223800D03*
X0131125Y0223700D03*
X0131125Y0223650D03*
X0131075Y0223550D03*
X0131075Y0223500D03*
X0131025Y0223400D03*
X0130975Y0223250D03*
X0128425Y0216300D03*
X0128425Y0216250D03*
X0128375Y0216150D03*
X0128375Y0216100D03*
X0128325Y0216000D03*
X0128325Y0215950D03*
X0128275Y0215850D03*
X0128275Y0215800D03*
X0128225Y0215700D03*
X0128175Y0215600D03*
X0128175Y0215550D03*
X0128125Y0215450D03*
X0128125Y0215400D03*
X0128075Y0215300D03*
X0128075Y0215250D03*
X0128025Y0215150D03*
X0127975Y0215050D03*
X0127975Y0215000D03*
X0127925Y0214900D03*
X0127925Y0214850D03*
X0127875Y0214750D03*
X0127875Y0214700D03*
X0127825Y0214600D03*
X0127775Y0214500D03*
X0127775Y0214450D03*
X0127725Y0214350D03*
X0127725Y0214300D03*
X0127675Y0214200D03*
X0127675Y0214150D03*
X0127625Y0214050D03*
X0127575Y0213950D03*
X0127575Y0213900D03*
X0127525Y0213800D03*
X0127525Y0213750D03*
X0127475Y0213650D03*
X0127475Y0213600D03*
X0127425Y0213500D03*
X0127425Y0213450D03*
X0127375Y0213400D03*
X0127375Y0213350D03*
X0127375Y0213300D03*
X0127325Y0213150D03*
X0127325Y0212200D03*
X0127375Y0212100D03*
X0127375Y0212050D03*
D68*
X0127350Y0212150D03*
X0127300Y0212250D03*
X0127300Y0212300D03*
X0127300Y0212350D03*
X0127300Y0212400D03*
X0127300Y0212950D03*
X0127300Y0213000D03*
X0127300Y0213050D03*
X0127300Y0213100D03*
X0127350Y0213200D03*
X0127350Y0213250D03*
X0240100Y0226150D03*
X0240100Y0226200D03*
X0240150Y0226300D03*
X0240150Y0226350D03*
X0240150Y0226400D03*
X0240150Y0227000D03*
X0240150Y0227050D03*
X0240150Y0227100D03*
X0240100Y0227250D03*
D69*
X0230350Y0218650D03*
X0230350Y0218600D03*
X0230350Y0218550D03*
X0230200Y0218200D03*
X0226750Y0221200D03*
X0226700Y0221150D03*
X0219000Y0218650D03*
X0219000Y0218600D03*
X0218900Y0218300D03*
X0218850Y0218200D03*
X0218800Y0218150D03*
X0215200Y0220750D03*
X0215200Y0220800D03*
X0215300Y0221100D03*
X0215350Y0221150D03*
X0215350Y0221200D03*
X0234950Y0212350D03*
X0235000Y0212400D03*
X0192100Y0218600D03*
X0192000Y0218300D03*
X0191950Y0218250D03*
X0191950Y0218200D03*
X0191900Y0218150D03*
X0188300Y0220750D03*
X0188300Y0220800D03*
X0188400Y0221100D03*
X0188450Y0221150D03*
X0188450Y0221200D03*
X0185850Y0220500D03*
X0185850Y0220450D03*
X0185850Y0220400D03*
X0185850Y0220350D03*
X0185850Y0220300D03*
X0185850Y0220250D03*
X0185800Y0220000D03*
X0185650Y0219550D03*
X0185600Y0219450D03*
X0185550Y0219350D03*
X0185500Y0219250D03*
X0185450Y0219200D03*
X0185450Y0219150D03*
X0185400Y0219100D03*
X0179450Y0220300D03*
X0179400Y0220250D03*
X0179400Y0220200D03*
X0179350Y0220150D03*
X0179300Y0220050D03*
X0179250Y0219950D03*
X0179200Y0219850D03*
X0179050Y0219400D03*
X0179000Y0219200D03*
X0179000Y0219150D03*
X0179000Y0219100D03*
X0179000Y0219050D03*
X0179000Y0219000D03*
X0179000Y0218950D03*
X0177050Y0220300D03*
X0177000Y0220250D03*
X0177250Y0220900D03*
X0177250Y0220950D03*
X0169300Y0220950D03*
X0169300Y0220900D03*
X0169100Y0220350D03*
X0169050Y0220250D03*
X0132500Y0227050D03*
X0132450Y0227000D03*
D70*
X0127275Y0212900D03*
X0127275Y0212850D03*
X0127275Y0212800D03*
X0127275Y0212750D03*
X0127275Y0212700D03*
X0127275Y0212650D03*
X0127275Y0212600D03*
X0127275Y0212550D03*
X0127275Y0212500D03*
X0127275Y0212450D03*
X0240175Y0226450D03*
X0240175Y0226500D03*
X0240175Y0226550D03*
X0240175Y0226600D03*
X0240175Y0226650D03*
X0240175Y0226700D03*
X0240175Y0226750D03*
X0240175Y0226800D03*
X0240175Y0226850D03*
X0240175Y0226900D03*
X0240175Y0226950D03*
D71*
X0181675Y0217600D03*
X0174625Y0222100D03*
X0166675Y0222100D03*
X0158475Y0223050D03*
X0158475Y0223100D03*
X0158475Y0223150D03*
X0158425Y0223000D03*
X0158425Y0222950D03*
X0158375Y0222850D03*
X0158375Y0222800D03*
X0158325Y0222700D03*
X0158325Y0222650D03*
X0158275Y0222550D03*
X0158275Y0222500D03*
X0158225Y0222450D03*
X0158225Y0222400D03*
X0158175Y0222300D03*
X0158175Y0222250D03*
X0158125Y0222150D03*
X0158125Y0222100D03*
X0158075Y0222050D03*
X0158075Y0222000D03*
X0158075Y0221950D03*
X0158025Y0221900D03*
X0158025Y0221850D03*
X0157975Y0221750D03*
X0157975Y0221700D03*
X0157925Y0221600D03*
X0157925Y0221550D03*
X0157875Y0221500D03*
X0157875Y0221450D03*
X0157875Y0221400D03*
X0157825Y0221350D03*
X0157825Y0221300D03*
X0157775Y0221200D03*
X0157775Y0221150D03*
X0157725Y0221050D03*
X0157725Y0221000D03*
X0157675Y0220950D03*
X0157675Y0220900D03*
X0157675Y0220850D03*
X0157625Y0220800D03*
X0157625Y0220750D03*
X0157575Y0220650D03*
X0157575Y0220600D03*
X0157525Y0220500D03*
X0157525Y0220450D03*
X0157475Y0220400D03*
X0157475Y0220350D03*
X0157475Y0220300D03*
X0157425Y0220250D03*
X0157425Y0220200D03*
X0157375Y0220100D03*
X0157375Y0220050D03*
X0157325Y0219950D03*
X0157325Y0219900D03*
X0157275Y0219850D03*
X0157275Y0219800D03*
X0157275Y0219750D03*
X0157225Y0219700D03*
X0157225Y0219650D03*
X0157175Y0219550D03*
X0157175Y0219500D03*
X0157125Y0219400D03*
X0157125Y0219350D03*
X0157075Y0219300D03*
X0157075Y0219250D03*
X0157075Y0219200D03*
X0157025Y0219150D03*
X0157025Y0219100D03*
X0156975Y0219000D03*
X0156975Y0218950D03*
X0156925Y0218850D03*
X0156925Y0218800D03*
X0156875Y0218750D03*
X0156875Y0218700D03*
X0156875Y0218650D03*
X0156825Y0218600D03*
X0156825Y0218550D03*
X0156775Y0218450D03*
X0156775Y0218400D03*
X0156725Y0218300D03*
X0156725Y0218250D03*
X0156675Y0218200D03*
X0156675Y0218150D03*
X0156675Y0218100D03*
X0156625Y0218050D03*
X0156625Y0218000D03*
X0156575Y0217900D03*
X0156575Y0217850D03*
X0156525Y0217750D03*
X0156525Y0217700D03*
X0156475Y0217650D03*
X0156475Y0217600D03*
X0156475Y0217550D03*
X0156425Y0217500D03*
X0156425Y0217450D03*
X0156375Y0217350D03*
X0156375Y0217300D03*
X0156325Y0217200D03*
X0156325Y0217150D03*
X0156275Y0217100D03*
X0156275Y0217050D03*
X0156275Y0217000D03*
X0156225Y0216950D03*
X0156225Y0216900D03*
X0156175Y0216800D03*
X0156175Y0216750D03*
X0156125Y0216650D03*
X0156125Y0216600D03*
X0156075Y0216550D03*
X0156075Y0216500D03*
X0156075Y0216450D03*
X0156025Y0216400D03*
X0156025Y0216350D03*
X0155975Y0216250D03*
X0148525Y0219200D03*
X0148525Y0219250D03*
X0148525Y0219300D03*
X0148575Y0219350D03*
X0148575Y0219400D03*
X0148625Y0219500D03*
X0148625Y0219550D03*
X0148675Y0219650D03*
X0148675Y0219700D03*
X0148725Y0219750D03*
X0148725Y0219800D03*
X0148725Y0219850D03*
X0148775Y0219900D03*
X0148775Y0219950D03*
X0148825Y0220050D03*
X0148825Y0220100D03*
X0148875Y0220200D03*
X0148875Y0220250D03*
X0148925Y0220300D03*
X0148925Y0220350D03*
X0148925Y0220400D03*
X0148975Y0220450D03*
X0148975Y0220500D03*
X0149025Y0220600D03*
X0149025Y0220650D03*
X0149075Y0220750D03*
X0149075Y0220800D03*
X0149125Y0220850D03*
X0149125Y0220900D03*
X0149125Y0220950D03*
X0149175Y0221000D03*
X0149175Y0221050D03*
X0149225Y0221150D03*
X0149225Y0221200D03*
X0149275Y0221300D03*
X0149275Y0221350D03*
X0149325Y0221400D03*
X0149325Y0221450D03*
X0149375Y0221550D03*
X0149375Y0221600D03*
X0149425Y0221700D03*
X0149425Y0221750D03*
X0149475Y0221850D03*
X0149475Y0221900D03*
X0149525Y0221950D03*
X0149525Y0222000D03*
X0149575Y0222100D03*
X0149575Y0222150D03*
X0149625Y0222250D03*
X0149625Y0222300D03*
X0149675Y0222400D03*
X0149675Y0222450D03*
X0149725Y0222500D03*
X0149725Y0222550D03*
X0149775Y0222650D03*
X0149775Y0222700D03*
X0149825Y0222800D03*
X0149825Y0222850D03*
X0149875Y0222950D03*
X0149875Y0223000D03*
X0149925Y0223050D03*
X0149925Y0223100D03*
X0149925Y0223150D03*
X0148475Y0219150D03*
X0148475Y0219100D03*
X0148425Y0219000D03*
X0148425Y0218950D03*
X0148375Y0218850D03*
X0148375Y0218800D03*
X0148325Y0218750D03*
X0148325Y0218700D03*
X0148325Y0218650D03*
X0148275Y0218600D03*
X0148275Y0218550D03*
X0148225Y0218450D03*
X0148225Y0218400D03*
X0148175Y0218300D03*
X0148175Y0218250D03*
X0148125Y0218200D03*
X0148125Y0218150D03*
X0148125Y0218100D03*
X0148075Y0218050D03*
X0148075Y0218000D03*
X0148025Y0217900D03*
X0148025Y0217850D03*
X0147975Y0217750D03*
X0147975Y0217700D03*
X0147925Y0217650D03*
X0147925Y0217600D03*
X0147925Y0217550D03*
X0147875Y0217500D03*
X0147875Y0217450D03*
X0147825Y0217350D03*
X0147825Y0217300D03*
X0147775Y0217200D03*
X0147775Y0217150D03*
X0147725Y0217100D03*
X0147725Y0217050D03*
X0147725Y0217000D03*
X0147675Y0216950D03*
X0147675Y0216900D03*
X0147625Y0216800D03*
X0147625Y0216750D03*
X0147575Y0216650D03*
X0147575Y0216600D03*
X0147525Y0216550D03*
X0147525Y0216500D03*
X0147525Y0216450D03*
X0147475Y0216400D03*
X0147475Y0216350D03*
X0147425Y0216250D03*
X0139975Y0219200D03*
X0139975Y0219250D03*
X0140025Y0219350D03*
X0140025Y0219400D03*
X0140075Y0219500D03*
X0140075Y0219550D03*
X0140125Y0219650D03*
X0140125Y0219700D03*
X0140175Y0219750D03*
X0140175Y0219800D03*
X0140225Y0219900D03*
X0140225Y0219950D03*
X0140275Y0220050D03*
X0140275Y0220100D03*
X0140325Y0220200D03*
X0140325Y0220250D03*
X0140375Y0220300D03*
X0140375Y0220350D03*
X0140425Y0220450D03*
X0140425Y0220500D03*
X0140475Y0220600D03*
X0140475Y0220650D03*
X0140525Y0220750D03*
X0140525Y0220800D03*
X0140575Y0220850D03*
X0140575Y0220900D03*
X0140625Y0221000D03*
X0140625Y0221050D03*
X0140675Y0221150D03*
X0140675Y0221200D03*
X0140725Y0221300D03*
X0140725Y0221350D03*
X0140775Y0221400D03*
X0140775Y0221450D03*
X0140825Y0221550D03*
X0140825Y0221600D03*
X0140875Y0221700D03*
X0140875Y0221750D03*
X0140925Y0221850D03*
X0140925Y0221900D03*
X0140975Y0221950D03*
X0140975Y0222000D03*
X0141025Y0222100D03*
X0141025Y0222150D03*
X0141075Y0222250D03*
X0141075Y0222300D03*
X0141125Y0222400D03*
X0141125Y0222450D03*
X0141175Y0222500D03*
X0141175Y0222550D03*
X0141225Y0222650D03*
X0141225Y0222700D03*
X0141275Y0222800D03*
X0141275Y0222850D03*
X0141325Y0222900D03*
X0141325Y0222950D03*
X0141325Y0223000D03*
X0141375Y0223050D03*
X0141375Y0223100D03*
X0141375Y0223150D03*
X0139925Y0219150D03*
X0139925Y0219100D03*
X0139875Y0219000D03*
X0139875Y0218950D03*
X0139825Y0218850D03*
X0139825Y0218800D03*
X0139775Y0218750D03*
X0139775Y0218700D03*
X0139775Y0218650D03*
X0139725Y0218600D03*
X0139725Y0218550D03*
X0139675Y0218450D03*
X0139675Y0218400D03*
X0139625Y0218300D03*
X0139625Y0218250D03*
X0139575Y0218200D03*
X0139575Y0218150D03*
X0139575Y0218100D03*
X0139525Y0218050D03*
X0139525Y0218000D03*
X0139475Y0217900D03*
X0139475Y0217850D03*
X0139425Y0217750D03*
X0139425Y0217700D03*
X0139375Y0217650D03*
X0139375Y0217600D03*
X0139375Y0217550D03*
X0139325Y0217500D03*
X0139325Y0217450D03*
X0139275Y0217350D03*
X0139275Y0217300D03*
X0139225Y0217200D03*
X0139225Y0217150D03*
X0139175Y0217100D03*
X0139175Y0217050D03*
X0139175Y0217000D03*
X0139125Y0216950D03*
X0139125Y0216900D03*
X0139075Y0216800D03*
X0139075Y0216750D03*
X0139025Y0216650D03*
X0139025Y0216600D03*
X0138975Y0216550D03*
X0138975Y0216500D03*
X0138975Y0216450D03*
X0138925Y0216400D03*
X0138925Y0216350D03*
X0138875Y0216250D03*
D72*
X0133300Y0227750D03*
X0165550Y0217950D03*
X0173500Y0217950D03*
X0173500Y0217900D03*
X0173550Y0217800D03*
X0173600Y0217750D03*
X0173650Y0217650D03*
X0173700Y0217600D03*
X0173750Y0217500D03*
X0173850Y0217350D03*
X0173900Y0217250D03*
X0173950Y0217200D03*
X0174000Y0217100D03*
X0174100Y0216950D03*
X0174200Y0216800D03*
X0174250Y0216700D03*
X0174300Y0216650D03*
X0174350Y0216550D03*
X0174450Y0216400D03*
X0174550Y0216250D03*
X0185500Y0221300D03*
D73*
X0188525Y0216250D03*
X0174275Y0218400D03*
X0166325Y0218400D03*
X0218825Y0223150D03*
X0226775Y0216250D03*
X0230175Y0223150D03*
D74*
X0210425Y0217900D03*
X0210375Y0217750D03*
X0210325Y0217600D03*
X0210225Y0217350D03*
X0210175Y0217200D03*
X0210125Y0217050D03*
X0210025Y0216800D03*
X0209975Y0216650D03*
X0209925Y0216500D03*
X0209825Y0216250D03*
X0181425Y0216950D03*
D75*
X0183600Y0222950D03*
X0174300Y0218450D03*
X0166350Y0218450D03*
X0215400Y0216250D03*
D76*
X0183150Y0221750D03*
X0181700Y0217650D03*
X0174600Y0222000D03*
X0174600Y0222050D03*
X0166650Y0222050D03*
X0166650Y0222000D03*
X0166650Y0221950D03*
X0158400Y0222900D03*
X0158350Y0222750D03*
X0158300Y0222600D03*
X0158200Y0222350D03*
X0158150Y0222200D03*
X0158000Y0221800D03*
X0157950Y0221650D03*
X0157800Y0221250D03*
X0157750Y0221100D03*
X0157600Y0220700D03*
X0157550Y0220550D03*
X0157400Y0220150D03*
X0157350Y0220000D03*
X0157200Y0219600D03*
X0157150Y0219450D03*
X0157000Y0219050D03*
X0156950Y0218900D03*
X0156800Y0218500D03*
X0156750Y0218350D03*
X0156600Y0217950D03*
X0156550Y0217800D03*
X0156400Y0217400D03*
X0156350Y0217250D03*
X0156200Y0216850D03*
X0156150Y0216700D03*
X0156000Y0216300D03*
X0148400Y0218900D03*
X0148450Y0219050D03*
X0148600Y0219450D03*
X0148650Y0219600D03*
X0148800Y0220000D03*
X0148850Y0220150D03*
X0149000Y0220550D03*
X0149050Y0220700D03*
X0149200Y0221100D03*
X0149250Y0221250D03*
X0149350Y0221500D03*
X0149400Y0221650D03*
X0149450Y0221800D03*
X0149550Y0222050D03*
X0149600Y0222200D03*
X0149650Y0222350D03*
X0149750Y0222600D03*
X0149800Y0222750D03*
X0149850Y0222900D03*
X0148250Y0218500D03*
X0148200Y0218350D03*
X0148050Y0217950D03*
X0148000Y0217800D03*
X0147850Y0217400D03*
X0147800Y0217250D03*
X0147650Y0216850D03*
X0147600Y0216700D03*
X0147450Y0216300D03*
X0140000Y0219300D03*
X0140050Y0219450D03*
X0140100Y0219600D03*
X0140200Y0219850D03*
X0140250Y0220000D03*
X0140300Y0220150D03*
X0140400Y0220400D03*
X0140450Y0220550D03*
X0140500Y0220700D03*
X0140600Y0220950D03*
X0140650Y0221100D03*
X0140700Y0221250D03*
X0140800Y0221500D03*
X0140850Y0221650D03*
X0140900Y0221800D03*
X0141000Y0222050D03*
X0141050Y0222200D03*
X0141100Y0222350D03*
X0141200Y0222600D03*
X0141250Y0222750D03*
X0139900Y0219050D03*
X0139850Y0218900D03*
X0139700Y0218500D03*
X0139650Y0218350D03*
X0139500Y0217950D03*
X0139450Y0217800D03*
X0139300Y0217400D03*
X0139250Y0217250D03*
X0139100Y0216850D03*
X0139050Y0216700D03*
X0138900Y0216300D03*
D77*
X0166475Y0218550D03*
X0174425Y0218550D03*
X0188625Y0216300D03*
X0191775Y0223100D03*
X0215525Y0216300D03*
X0218675Y0223100D03*
X0230075Y0223100D03*
D78*
X0210450Y0217950D03*
X0210400Y0217850D03*
X0210400Y0217800D03*
X0210350Y0217700D03*
X0210350Y0217650D03*
X0210300Y0217550D03*
X0210300Y0217500D03*
X0210250Y0217450D03*
X0210250Y0217400D03*
X0210200Y0217300D03*
X0210200Y0217250D03*
X0210150Y0217150D03*
X0210150Y0217100D03*
X0210100Y0217000D03*
X0210100Y0216950D03*
X0210050Y0216900D03*
X0210050Y0216850D03*
X0210000Y0216750D03*
X0210000Y0216700D03*
X0209950Y0216600D03*
X0209950Y0216550D03*
X0209900Y0216450D03*
X0209900Y0216400D03*
X0209850Y0216350D03*
X0209850Y0216300D03*
X0197400Y0222900D03*
X0197450Y0223000D03*
X0197450Y0223050D03*
X0197500Y0223150D03*
X0197350Y0222800D03*
X0197350Y0222750D03*
X0197300Y0222650D03*
X0197300Y0222600D03*
X0197250Y0222500D03*
X0197250Y0222450D03*
X0197200Y0222350D03*
X0197150Y0222250D03*
X0197150Y0222200D03*
X0197100Y0222100D03*
X0197100Y0222050D03*
X0197050Y0221950D03*
X0197050Y0221900D03*
X0197000Y0221800D03*
X0196950Y0221700D03*
X0196950Y0221650D03*
X0196900Y0221550D03*
X0196900Y0221500D03*
X0196850Y0221400D03*
X0183400Y0222400D03*
D79*
X0183650Y0223100D03*
X0179500Y0218000D03*
X0222650Y0216300D03*
X0133500Y0227850D03*
D80*
X0166400Y0218500D03*
X0174350Y0218500D03*
X0181250Y0216450D03*
X0226900Y0216300D03*
D81*
X0222875Y0217550D03*
X0223075Y0222700D03*
X0181225Y0216350D03*
D82*
X0188700Y0216350D03*
X0191700Y0223050D03*
X0174550Y0218700D03*
X0166600Y0218700D03*
X0166550Y0218650D03*
X0215600Y0216350D03*
X0218600Y0223050D03*
X0227000Y0216350D03*
X0229950Y0223050D03*
D83*
X0223000Y0223100D03*
X0222650Y0216350D03*
X0184100Y0218000D03*
D84*
X0181225Y0216400D03*
D85*
X0188800Y0216400D03*
X0191600Y0223000D03*
X0174650Y0218800D03*
X0166700Y0218800D03*
X0227050Y0216400D03*
D86*
X0229875Y0223000D03*
X0218525Y0223000D03*
X0215675Y0216400D03*
X0174675Y0218850D03*
X0166725Y0218850D03*
D87*
X0166825Y0219000D03*
X0174775Y0219000D03*
X0181275Y0216550D03*
X0188875Y0216450D03*
X0215775Y0216450D03*
D88*
X0222625Y0216450D03*
X0222625Y0216500D03*
X0223025Y0223050D03*
X0173775Y0218050D03*
X0165825Y0218050D03*
D89*
X0166750Y0218900D03*
X0166800Y0218950D03*
X0174700Y0218900D03*
X0174750Y0218950D03*
X0183550Y0222850D03*
X0191550Y0222950D03*
X0218450Y0222950D03*
X0227150Y0216450D03*
X0229800Y0222950D03*
D90*
X0181275Y0216500D03*
X0174575Y0218750D03*
X0166625Y0218750D03*
D91*
X0166925Y0219150D03*
X0174875Y0219150D03*
X0174925Y0219200D03*
X0188925Y0216500D03*
X0191475Y0222900D03*
X0215825Y0216500D03*
X0218375Y0222900D03*
D92*
X0227200Y0216500D03*
X0229750Y0222900D03*
X0174850Y0219100D03*
X0174800Y0219050D03*
X0166900Y0219100D03*
X0166850Y0219050D03*
D93*
X0166950Y0219200D03*
X0167000Y0219250D03*
X0174950Y0219250D03*
X0183550Y0222800D03*
X0191400Y0222850D03*
X0189000Y0216550D03*
X0215900Y0216550D03*
X0218300Y0222850D03*
X0227250Y0216550D03*
X0229700Y0222850D03*
D94*
X0223050Y0223000D03*
X0222600Y0216550D03*
D95*
X0217650Y0218850D03*
X0215950Y0216600D03*
X0218250Y0222800D03*
X0229000Y0218850D03*
X0191350Y0222800D03*
X0190750Y0218850D03*
X0189050Y0216600D03*
X0181300Y0216600D03*
X0175050Y0219400D03*
X0167100Y0219400D03*
D96*
X0173875Y0218100D03*
X0222625Y0216650D03*
X0222625Y0216600D03*
X0223075Y0222950D03*
D97*
X0227925Y0220550D03*
X0229625Y0222800D03*
X0227325Y0216600D03*
X0216525Y0220550D03*
X0189625Y0220550D03*
X0175025Y0219350D03*
X0174975Y0219300D03*
X0167075Y0219350D03*
X0167025Y0219300D03*
D98*
X0167275Y0219700D03*
X0175225Y0219700D03*
X0181325Y0216650D03*
X0189725Y0220500D03*
X0191225Y0222650D03*
X0216625Y0220500D03*
X0218125Y0222650D03*
X0227475Y0216750D03*
X0228925Y0218900D03*
X0229475Y0222650D03*
X0229525Y0222700D03*
D99*
X0229575Y0222750D03*
X0227425Y0216700D03*
X0227375Y0216650D03*
X0218225Y0222750D03*
X0215975Y0216650D03*
X0191325Y0222750D03*
X0189075Y0216650D03*
X0175125Y0219500D03*
X0175125Y0219550D03*
X0175075Y0219450D03*
X0167175Y0219500D03*
X0167175Y0219550D03*
X0167125Y0219450D03*
D100*
X0181350Y0216700D03*
X0183500Y0222700D03*
X0189800Y0220450D03*
X0190600Y0218950D03*
X0216700Y0220450D03*
X0217500Y0218950D03*
X0227600Y0216900D03*
X0228850Y0218950D03*
X0228050Y0220450D03*
X0229350Y0222500D03*
X0229400Y0222550D03*
D101*
X0228000Y0220500D03*
X0218150Y0222700D03*
X0216050Y0216700D03*
X0191250Y0222700D03*
X0189150Y0216700D03*
X0183550Y0222750D03*
X0175200Y0219650D03*
X0175150Y0219600D03*
X0167250Y0219650D03*
X0167200Y0219600D03*
D102*
X0165900Y0218100D03*
X0183650Y0223050D03*
X0223050Y0222900D03*
X0222600Y0216700D03*
D103*
X0227750Y0217100D03*
X0227800Y0217150D03*
X0228750Y0219050D03*
X0228150Y0220350D03*
X0229150Y0222250D03*
X0229200Y0222300D03*
X0217400Y0219050D03*
X0216800Y0220350D03*
X0216400Y0217100D03*
X0190500Y0219050D03*
X0189900Y0220350D03*
X0181350Y0216750D03*
D104*
X0189200Y0216750D03*
X0189250Y0216800D03*
X0190650Y0218900D03*
X0210350Y0218900D03*
X0210350Y0218850D03*
X0210400Y0219000D03*
X0210450Y0219150D03*
X0210500Y0219250D03*
X0210500Y0219300D03*
X0210550Y0219400D03*
X0210550Y0219450D03*
X0210600Y0219550D03*
X0210650Y0219700D03*
X0210700Y0219800D03*
X0210700Y0219850D03*
X0210750Y0219950D03*
X0210750Y0220000D03*
X0210800Y0220100D03*
X0210850Y0220250D03*
X0210900Y0220350D03*
X0210900Y0220400D03*
X0210950Y0220500D03*
X0210950Y0220550D03*
X0211300Y0221450D03*
X0211300Y0221500D03*
X0211350Y0221600D03*
X0211350Y0221650D03*
X0211400Y0221750D03*
X0211450Y0221900D03*
X0211500Y0222000D03*
X0211500Y0222050D03*
X0211550Y0222150D03*
X0211550Y0222200D03*
X0211600Y0222300D03*
X0211650Y0222450D03*
X0211700Y0222550D03*
X0211700Y0222600D03*
X0211750Y0222700D03*
X0211750Y0222750D03*
X0211800Y0222850D03*
X0211850Y0223000D03*
X0211900Y0223100D03*
X0211900Y0223150D03*
X0217550Y0218900D03*
X0216100Y0216750D03*
X0227500Y0216800D03*
D105*
X0222625Y0216800D03*
X0222625Y0216850D03*
X0222625Y0216750D03*
X0223075Y0222850D03*
D106*
X0217675Y0222100D03*
X0217675Y0222050D03*
X0217625Y0222000D03*
X0216875Y0220200D03*
X0217325Y0219150D03*
X0216575Y0217400D03*
X0216525Y0217350D03*
X0216525Y0217300D03*
X0227925Y0217350D03*
X0227975Y0217400D03*
X0228675Y0219200D03*
X0228225Y0220250D03*
X0229025Y0222050D03*
X0190775Y0222050D03*
X0190775Y0222100D03*
X0190725Y0222000D03*
X0189975Y0220200D03*
X0190425Y0219150D03*
X0189675Y0217400D03*
X0189625Y0217300D03*
X0181375Y0216800D03*
D107*
X0189275Y0216850D03*
X0191125Y0222550D03*
X0191175Y0222600D03*
X0210325Y0218800D03*
X0210375Y0218950D03*
X0210425Y0219050D03*
X0210425Y0219100D03*
X0210475Y0219200D03*
X0210525Y0219350D03*
X0210575Y0219500D03*
X0210625Y0219600D03*
X0210625Y0219650D03*
X0210675Y0219750D03*
X0210725Y0219900D03*
X0210775Y0220050D03*
X0210825Y0220150D03*
X0210825Y0220200D03*
X0210875Y0220300D03*
X0210925Y0220450D03*
X0211275Y0221400D03*
X0211325Y0221550D03*
X0211375Y0221700D03*
X0211425Y0221800D03*
X0211425Y0221850D03*
X0211475Y0221950D03*
X0211525Y0222100D03*
X0211575Y0222250D03*
X0211625Y0222350D03*
X0211625Y0222400D03*
X0211675Y0222500D03*
X0211725Y0222650D03*
X0211775Y0222800D03*
X0211825Y0222900D03*
X0211825Y0222950D03*
X0211875Y0223050D03*
X0218025Y0222550D03*
X0218075Y0222600D03*
X0216175Y0216850D03*
X0216125Y0216800D03*
X0227575Y0216850D03*
X0229425Y0222600D03*
D108*
X0228850Y0221750D03*
X0228800Y0221700D03*
X0228800Y0221650D03*
X0228300Y0220100D03*
X0228350Y0220050D03*
X0228350Y0220000D03*
X0228600Y0219350D03*
X0228250Y0217950D03*
X0228200Y0217850D03*
X0228200Y0217800D03*
X0228150Y0217750D03*
X0228100Y0217650D03*
X0217250Y0219300D03*
X0217250Y0219350D03*
X0216950Y0220050D03*
X0217400Y0221600D03*
X0217450Y0221700D03*
X0217500Y0221800D03*
X0216800Y0217800D03*
X0216750Y0217700D03*
X0216700Y0217600D03*
X0190350Y0219300D03*
X0190350Y0219350D03*
X0190050Y0220050D03*
X0190500Y0221600D03*
X0190550Y0221700D03*
X0190600Y0221800D03*
X0189900Y0217800D03*
X0189850Y0217700D03*
X0189800Y0217600D03*
X0181400Y0216850D03*
D109*
X0181425Y0216900D03*
X0190175Y0219750D03*
X0217075Y0219750D03*
X0228425Y0219800D03*
D110*
X0227625Y0216950D03*
X0217975Y0222500D03*
X0216225Y0216900D03*
X0191075Y0222500D03*
X0191025Y0222450D03*
X0189375Y0216950D03*
X0189325Y0216900D03*
D111*
X0173950Y0218150D03*
X0166000Y0218150D03*
X0222650Y0216950D03*
X0222650Y0216900D03*
X0222700Y0217000D03*
X0222700Y0217050D03*
X0222700Y0217100D03*
X0222750Y0217150D03*
X0222750Y0217200D03*
X0222750Y0217250D03*
X0222800Y0217300D03*
X0222800Y0217350D03*
X0222800Y0217400D03*
X0222850Y0217450D03*
X0222850Y0217500D03*
X0222900Y0217600D03*
X0222900Y0217650D03*
X0222950Y0217700D03*
X0222950Y0217750D03*
X0222950Y0217800D03*
X0223000Y0217850D03*
X0223000Y0217900D03*
X0223000Y0217950D03*
X0223050Y0222750D03*
X0223050Y0222800D03*
D112*
X0217950Y0222450D03*
X0217900Y0222400D03*
X0216750Y0220400D03*
X0217450Y0219000D03*
X0216300Y0217000D03*
X0216250Y0216950D03*
X0227700Y0217000D03*
X0228800Y0219000D03*
X0228100Y0220400D03*
X0229250Y0222400D03*
X0229300Y0222450D03*
X0191000Y0222400D03*
X0189850Y0220400D03*
X0190550Y0219000D03*
X0189400Y0217000D03*
D113*
X0181450Y0217000D03*
X0174350Y0223000D03*
X0166400Y0223000D03*
D114*
X0166450Y0222950D03*
X0174400Y0222950D03*
X0181450Y0217050D03*
D115*
X0183475Y0222650D03*
X0190925Y0222300D03*
X0190975Y0222350D03*
X0189475Y0217100D03*
X0189425Y0217050D03*
X0216325Y0217050D03*
X0217825Y0222300D03*
X0217875Y0222350D03*
X0227725Y0217050D03*
X0229225Y0222350D03*
D116*
X0183350Y0222300D03*
X0181500Y0217100D03*
X0174450Y0222900D03*
X0166500Y0222900D03*
D117*
X0166500Y0222850D03*
X0174450Y0222850D03*
X0183350Y0222250D03*
X0181500Y0217150D03*
D118*
X0189525Y0217150D03*
X0190475Y0219100D03*
X0189925Y0220300D03*
X0190875Y0222250D03*
X0216825Y0220300D03*
X0217375Y0219100D03*
X0216425Y0217150D03*
X0217775Y0222250D03*
X0227825Y0217200D03*
X0227875Y0217250D03*
X0228725Y0219100D03*
X0228175Y0220300D03*
X0229125Y0222200D03*
D119*
X0181525Y0217200D03*
X0174525Y0222750D03*
D120*
X0174100Y0223150D03*
X0166150Y0223150D03*
X0183450Y0222600D03*
X0189950Y0220250D03*
X0190800Y0222150D03*
X0190850Y0222200D03*
X0189650Y0217350D03*
X0189600Y0217250D03*
X0189550Y0217200D03*
X0216450Y0217200D03*
X0216500Y0217250D03*
X0216850Y0220250D03*
X0217700Y0222150D03*
X0217750Y0222200D03*
X0227900Y0217300D03*
X0228700Y0219150D03*
X0229050Y0222100D03*
X0229100Y0222150D03*
D121*
X0183300Y0222150D03*
X0181550Y0217250D03*
X0166550Y0222750D03*
D122*
X0166600Y0222650D03*
X0174550Y0222650D03*
X0183300Y0222100D03*
X0181550Y0217300D03*
D123*
X0181575Y0217350D03*
X0174575Y0222500D03*
X0174575Y0222550D03*
X0166625Y0222550D03*
X0166625Y0222500D03*
D124*
X0181600Y0217400D03*
X0183250Y0222000D03*
D125*
X0181600Y0217450D03*
X0174600Y0222350D03*
X0174600Y0222400D03*
X0166650Y0222400D03*
X0166650Y0222350D03*
D126*
X0183450Y0222550D03*
X0190000Y0220150D03*
X0190400Y0219200D03*
X0189750Y0217500D03*
X0189700Y0217450D03*
X0190650Y0221900D03*
X0190700Y0221950D03*
X0216600Y0217450D03*
X0217300Y0219200D03*
X0216900Y0220150D03*
X0217600Y0221950D03*
X0228250Y0220200D03*
X0228650Y0219250D03*
X0228050Y0217550D03*
X0228000Y0217500D03*
X0228000Y0217450D03*
X0228950Y0221950D03*
X0229000Y0222000D03*
D127*
X0183225Y0221900D03*
X0181625Y0217500D03*
D128*
X0189775Y0217550D03*
X0189825Y0217650D03*
X0190375Y0219250D03*
X0190025Y0220100D03*
X0190575Y0221750D03*
X0190625Y0221850D03*
X0216625Y0217500D03*
X0216675Y0217550D03*
X0216725Y0217650D03*
X0217275Y0219250D03*
X0216925Y0220100D03*
X0217475Y0221750D03*
X0217525Y0221850D03*
X0217575Y0221900D03*
X0228275Y0220150D03*
X0228625Y0219300D03*
X0228125Y0217700D03*
X0228075Y0217600D03*
X0228875Y0221800D03*
X0228875Y0221850D03*
X0228925Y0221900D03*
D129*
X0181675Y0217550D03*
X0174625Y0222200D03*
D130*
X0174600Y0221900D03*
X0174600Y0221850D03*
X0174600Y0221800D03*
X0166650Y0221800D03*
X0166650Y0221850D03*
X0166650Y0221900D03*
X0181700Y0217700D03*
D131*
X0181725Y0217750D03*
X0183125Y0221650D03*
X0174575Y0221700D03*
X0174575Y0221750D03*
X0166625Y0221750D03*
X0166625Y0221700D03*
D132*
X0166275Y0223100D03*
X0174225Y0223100D03*
X0190075Y0220000D03*
X0190125Y0219900D03*
X0190275Y0219500D03*
X0190275Y0219450D03*
X0190325Y0219400D03*
X0189975Y0217950D03*
X0189975Y0217900D03*
X0189925Y0217850D03*
X0189875Y0217750D03*
X0190425Y0221450D03*
X0190475Y0221550D03*
X0190525Y0221650D03*
X0216775Y0217750D03*
X0216825Y0217850D03*
X0216875Y0217950D03*
X0217225Y0219400D03*
X0217175Y0219450D03*
X0217175Y0219500D03*
X0217025Y0219900D03*
X0217025Y0219950D03*
X0216975Y0220000D03*
X0217325Y0221450D03*
X0217375Y0221550D03*
X0217425Y0221650D03*
X0228375Y0219950D03*
X0228575Y0219450D03*
X0228575Y0219400D03*
X0228225Y0217900D03*
X0228725Y0221500D03*
X0228725Y0221550D03*
X0228775Y0221600D03*
D133*
X0183100Y0221600D03*
X0181750Y0217800D03*
X0174600Y0221650D03*
D134*
X0174575Y0221600D03*
X0174575Y0221550D03*
X0166625Y0221550D03*
X0166625Y0221600D03*
X0166625Y0221650D03*
X0181775Y0217850D03*
X0183075Y0221550D03*
D135*
X0181775Y0217900D03*
D136*
X0183450Y0222500D03*
X0190450Y0221500D03*
X0190100Y0219950D03*
X0190150Y0219850D03*
X0190150Y0219800D03*
X0190200Y0219700D03*
X0190200Y0219650D03*
X0190250Y0219600D03*
X0190250Y0219550D03*
X0216850Y0217900D03*
X0217150Y0219550D03*
X0217150Y0219600D03*
X0217100Y0219650D03*
X0217100Y0219700D03*
X0217050Y0219800D03*
X0217050Y0219850D03*
X0217350Y0221500D03*
X0228400Y0219900D03*
X0228400Y0219850D03*
X0228450Y0219750D03*
X0228450Y0219700D03*
X0228500Y0219650D03*
X0228500Y0219600D03*
X0228500Y0219550D03*
X0228550Y0219500D03*
X0228700Y0221450D03*
D137*
X0183050Y0221450D03*
X0183050Y0221400D03*
X0181800Y0217950D03*
D138*
X0173675Y0218000D03*
X0165725Y0218000D03*
D139*
X0169225Y0221250D03*
X0176675Y0219850D03*
X0177175Y0221250D03*
X0179075Y0218450D03*
X0184875Y0218450D03*
X0184925Y0218500D03*
X0184975Y0218550D03*
X0185775Y0220900D03*
X0185775Y0220950D03*
X0191975Y0218800D03*
X0218875Y0218800D03*
X0229975Y0218000D03*
X0230275Y0218800D03*
X0132825Y0227400D03*
D140*
X0179375Y0218050D03*
D141*
X0184275Y0218050D03*
X0185425Y0221350D03*
D142*
X0184450Y0218150D03*
X0179250Y0218150D03*
X0133200Y0227700D03*
D143*
X0166050Y0218200D03*
X0174000Y0218200D03*
X0222650Y0221400D03*
X0223000Y0222400D03*
X0223050Y0222550D03*
X0223050Y0222600D03*
X0223050Y0222650D03*
D144*
X0222950Y0222250D03*
X0222900Y0222100D03*
X0222750Y0221700D03*
X0222700Y0221550D03*
X0174100Y0218250D03*
X0166150Y0218250D03*
D145*
X0166200Y0218300D03*
X0174150Y0218300D03*
D146*
X0177100Y0221350D03*
X0179150Y0218300D03*
X0184700Y0218300D03*
X0184750Y0218350D03*
X0185700Y0221100D03*
X0169150Y0221350D03*
X0133000Y0227550D03*
X0239600Y0227850D03*
D147*
X0191900Y0223150D03*
X0174200Y0218350D03*
X0166250Y0218350D03*
D148*
X0166500Y0218600D03*
X0174450Y0218600D03*
D149*
X0174525Y0218650D03*
X0183575Y0222900D03*
D150*
X0203325Y0218800D03*
X0203375Y0218850D03*
X0203375Y0218900D03*
X0203375Y0218950D03*
X0203425Y0219000D03*
X0203425Y0219050D03*
X0203475Y0219150D03*
X0203475Y0219200D03*
X0203525Y0219250D03*
X0203525Y0219300D03*
X0203525Y0219350D03*
X0203575Y0219400D03*
X0203575Y0219450D03*
X0203575Y0219500D03*
X0203625Y0219550D03*
X0203625Y0219600D03*
X0203675Y0219700D03*
X0203675Y0219750D03*
X0203725Y0219800D03*
X0203725Y0219850D03*
X0203725Y0219900D03*
X0203775Y0219950D03*
X0203775Y0220000D03*
X0203775Y0220050D03*
X0203825Y0220100D03*
X0203825Y0220150D03*
X0203875Y0220250D03*
X0203875Y0220300D03*
X0203925Y0220350D03*
X0203925Y0220400D03*
X0203925Y0220450D03*
X0203975Y0220500D03*
X0203975Y0220550D03*
D151*
X0203850Y0220200D03*
X0203650Y0219650D03*
X0203450Y0219100D03*
D152*
X0183050Y0221500D03*
X0174550Y0221500D03*
X0174550Y0221450D03*
X0174550Y0221400D03*
X0166600Y0221400D03*
X0166600Y0221450D03*
X0166600Y0221500D03*
D153*
X0196875Y0221450D03*
X0196925Y0221600D03*
X0196975Y0221750D03*
X0197025Y0221850D03*
X0197075Y0222000D03*
X0197125Y0222150D03*
X0197175Y0222300D03*
X0197225Y0222400D03*
X0197275Y0222550D03*
X0197325Y0222700D03*
X0197375Y0222850D03*
X0197425Y0222950D03*
X0197475Y0223100D03*
D154*
X0222675Y0221500D03*
X0222675Y0221450D03*
X0222725Y0221600D03*
X0222725Y0221650D03*
X0222775Y0221750D03*
X0222775Y0221800D03*
X0222825Y0221850D03*
X0222825Y0221900D03*
X0222825Y0221950D03*
X0222875Y0222000D03*
X0222875Y0222050D03*
X0222925Y0222150D03*
X0222925Y0222200D03*
X0222975Y0222300D03*
X0222975Y0222350D03*
X0223025Y0222450D03*
X0223025Y0222500D03*
D155*
X0183125Y0221700D03*
X0174625Y0221950D03*
D156*
X0174600Y0222150D03*
X0166650Y0222150D03*
X0166650Y0222200D03*
X0183200Y0221800D03*
D157*
X0183200Y0221850D03*
X0174600Y0222250D03*
X0174600Y0222300D03*
X0166650Y0222300D03*
X0166650Y0222250D03*
D158*
X0166625Y0222450D03*
X0174575Y0222450D03*
X0183225Y0221950D03*
D159*
X0183275Y0222050D03*
D160*
X0183325Y0222200D03*
X0166525Y0222800D03*
D161*
X0183375Y0222350D03*
D162*
X0183400Y0222450D03*
X0174300Y0223050D03*
X0166350Y0223050D03*
D163*
X0166600Y0222600D03*
X0174550Y0222600D03*
D164*
X0174525Y0222700D03*
X0166575Y0222700D03*
D165*
X0174500Y0222800D03*
D166*
X0183625Y0223000D03*
D167*
X0222925Y0223150D03*
D168*
X0186400Y0227900D03*
D169*
X0186450Y0228150D03*
D170*
X0186475Y0228300D03*
D171*
X0186525Y0228400D03*
D172*
X0186525Y0228450D03*
D173*
X0186525Y0228550D03*
D174*
X0186550Y0228600D03*
D175*
X0186550Y0228650D03*
D176*
X0186575Y0228700D03*
D177*
X0186600Y0228800D03*
D178*
X0186600Y0228850D03*
D179*
X0186600Y0228900D03*
D180*
X0186625Y0229000D03*
D181*
X0186650Y0229050D03*
D182*
X0186650Y0229100D03*
D183*
X0186650Y0229150D03*
D184*
X0186675Y0229200D03*
D185*
X0186700Y0229250D03*
D186*
X0186675Y0229300D03*
D187*
X0186700Y0229350D03*
D188*
X0186700Y0229400D03*
M02*
