%
M48
M72
T01C0.02362
T02C0.03800
T03C0.06299
T04C0.09055
T05C0.11811
%
T01
X46500Y21500
X46500Y51500
X66500Y66500
X16500Y51500
X66500Y121500
X66500Y141500
X98500Y181500
X118500Y181500
X141500Y181500
X191500Y186500
X123500Y226500
X98500Y226500
X66500Y226500
X46500Y226500
X66500Y201500
X181500Y81500
X221500Y91500
X226500Y111500
X261500Y106500
X261500Y171500
X261500Y196500
X136500Y36500
X116500Y16500
X206500Y16500
X226500Y31500
T02
X81500Y106500
X91500Y106500
X101500Y106500
X111500Y106500
X121500Y106500
X131500Y106500
X141500Y106500
X151500Y106500
X161500Y106500
X171500Y106500
X181500Y106500
X191500Y106500
X201500Y106500
X211500Y106500
X211500Y166500
X201500Y166500
X191500Y166500
X181500Y166500
X171500Y166500
X161500Y166500
X151500Y166500
X141500Y166500
X131500Y166500
X121500Y166500
X111500Y166500
X101500Y166500
X91500Y166500
X81500Y166500
X81500Y156500
X81500Y146500
X81500Y136500
X81500Y116500
T03
X66657Y31500
X86343Y31500
X31500Y71972
X31500Y91657
X31500Y111343
X31500Y146972
X31500Y166657
X31500Y186343
X247000Y76343
X247000Y56657
T04
X116264Y51500
X155240Y51500
X186736Y51500
X153665Y18429
X153665Y84571
T05
X21500Y21500
X21500Y216500
X256500Y216500
X256500Y21500
M30
