G75*
%MOIN*%
%OFA0B0*%
%FSLAX25Y25*%
%IPPOS*%
%LPD*%
%AMOC8*
5,1,8,0,0,1.08239X$1,22.5*
%
%ADD10C,0.00800*%
%ADD11R,0.08700X0.02400*%
%ADD12R,0.03937X0.04331*%
%ADD13R,0.04331X0.03937*%
%ADD14R,0.03543X0.03150*%
%ADD15R,0.24409X0.21260*%
%ADD16R,0.06299X0.03937*%
%ADD17R,0.02559X0.08661*%
%ADD18R,0.08661X0.02559*%
%ADD19C,0.05800*%
%ADD20R,0.04724X0.05512*%
%ADD21C,0.23000*%
%ADD22C,0.09449*%
%ADD23C,0.13055*%
%ADD24R,0.05787X0.05000*%
%ADD25C,0.01000*%
%ADD26C,0.01200*%
%ADD27C,0.03562*%
%ADD28C,0.01600*%
%ADD29C,0.03200*%
%ADD30C,0.02400*%
%ADD31C,0.05600*%
%ADD32C,0.20000*%
D10*
X0001500Y0001500D02*
X0276500Y0001500D01*
X0276500Y0236500D01*
X0001500Y0236500D01*
X0001500Y0001500D01*
D11*
X0093200Y0194000D03*
X0093200Y0199000D03*
X0093200Y0204000D03*
X0093200Y0209000D03*
X0113800Y0209000D03*
X0113800Y0204000D03*
X0113800Y0199000D03*
X0113800Y0194000D03*
D12*
X0083500Y0187346D03*
X0083500Y0180654D03*
X0076000Y0180654D03*
X0076000Y0187346D03*
X0075500Y0215654D03*
X0075500Y0222346D03*
X0083500Y0222346D03*
X0083500Y0215654D03*
X0227500Y0178346D03*
X0227500Y0171654D03*
D13*
X0116346Y0216500D03*
X0109654Y0216500D03*
X0099846Y0186500D03*
X0093154Y0186500D03*
X0090346Y0094500D03*
X0083654Y0094500D03*
X0072346Y0094500D03*
X0065654Y0094500D03*
D14*
X0072563Y0080240D03*
X0072563Y0072760D03*
X0080831Y0076500D03*
X0083437Y0197760D03*
X0083437Y0205240D03*
X0075169Y0201500D03*
D15*
X0231657Y0136000D03*
D16*
X0260398Y0127024D03*
X0260398Y0144976D03*
D17*
X0244213Y0164020D03*
X0244213Y0178587D03*
D18*
X0250587Y0104787D03*
X0236020Y0104787D03*
D19*
X0211500Y0106500D03*
X0201500Y0106500D03*
X0191500Y0106500D03*
X0181500Y0106500D03*
X0171500Y0106500D03*
X0161500Y0106500D03*
X0151500Y0106500D03*
X0141500Y0106500D03*
X0131500Y0106500D03*
X0121500Y0106500D03*
X0111500Y0106500D03*
X0101500Y0106500D03*
X0091500Y0106500D03*
X0081500Y0106500D03*
X0081500Y0116500D03*
X0081500Y0136500D03*
X0081500Y0146500D03*
X0081500Y0156500D03*
X0081500Y0166500D03*
X0091500Y0166500D03*
X0101500Y0166500D03*
X0111500Y0166500D03*
X0121500Y0166500D03*
X0131500Y0166500D03*
X0141500Y0166500D03*
X0151500Y0166500D03*
X0161500Y0166500D03*
X0171500Y0166500D03*
X0181500Y0166500D03*
X0191500Y0166500D03*
X0201500Y0166500D03*
X0211500Y0166500D03*
D20*
X0205594Y0183500D03*
X0217406Y0183500D03*
D21*
X0256500Y0216500D03*
X0256500Y0021500D03*
X0021500Y0021500D03*
X0021500Y0216500D03*
D22*
X0026776Y0186343D02*
X0036224Y0186343D01*
X0036224Y0166657D02*
X0026776Y0166657D01*
X0026776Y0146972D02*
X0036224Y0146972D01*
X0036224Y0111343D02*
X0026776Y0111343D01*
X0026776Y0091657D02*
X0036224Y0091657D01*
X0036224Y0071972D02*
X0026776Y0071972D01*
X0066657Y0036224D02*
X0066657Y0026776D01*
X0086343Y0026776D02*
X0086343Y0036224D01*
X0242276Y0056657D02*
X0251724Y0056657D01*
X0251724Y0076343D02*
X0242276Y0076343D01*
D23*
X0186736Y0051500D03*
X0155240Y0051500D03*
X0153665Y0018429D03*
X0116264Y0051500D03*
X0153665Y0084571D03*
D24*
X0091500Y0084965D03*
X0091500Y0068035D03*
D25*
X0086906Y0068400D02*
X0041698Y0068400D01*
X0041671Y0068333D02*
X0042030Y0069200D01*
X0047453Y0069200D01*
X0048800Y0070547D01*
X0053800Y0075547D01*
X0053800Y0122453D01*
X0052453Y0123800D01*
X0052453Y0123800D01*
X0048800Y0127453D01*
X0047453Y0128800D01*
X0037453Y0128800D01*
X0033800Y0132453D01*
X0033800Y0140548D01*
X0037502Y0140548D01*
X0039864Y0141526D01*
X0041671Y0143333D01*
X0042225Y0144672D01*
X0052925Y0144672D01*
X0062453Y0154200D01*
X0063800Y0155547D01*
X0063800Y0180547D01*
X0072453Y0189200D01*
X0072531Y0189200D01*
X0072531Y0187831D01*
X0075516Y0187831D01*
X0075516Y0186862D01*
X0072531Y0186862D01*
X0072531Y0184984D01*
X0072634Y0184602D01*
X0072831Y0184260D01*
X0072950Y0184141D01*
X0072331Y0183523D01*
X0072331Y0177784D01*
X0073327Y0176788D01*
X0078673Y0176788D01*
X0079668Y0177784D01*
X0079668Y0178454D01*
X0079831Y0178454D01*
X0079831Y0177784D01*
X0080827Y0176788D01*
X0086173Y0176788D01*
X0087168Y0177784D01*
X0087168Y0183523D01*
X0086692Y0184000D01*
X0087168Y0184477D01*
X0087168Y0190216D01*
X0086173Y0191212D01*
X0085800Y0191212D01*
X0085800Y0194485D01*
X0085913Y0194485D01*
X0086909Y0195481D01*
X0086909Y0196800D01*
X0087446Y0196800D01*
X0087746Y0196500D01*
X0087150Y0195904D01*
X0087150Y0192096D01*
X0088146Y0191100D01*
X0090900Y0191100D01*
X0090900Y0190168D01*
X0090284Y0190168D01*
X0089288Y0189173D01*
X0089288Y0183827D01*
X0090284Y0182831D01*
X0096023Y0182831D01*
X0096641Y0183450D01*
X0096760Y0183331D01*
X0097102Y0183134D01*
X0097484Y0183031D01*
X0099362Y0183031D01*
X0099362Y0186016D01*
X0100331Y0186016D01*
X0100331Y0186984D01*
X0103512Y0186984D01*
X0103512Y0188666D01*
X0103410Y0189047D01*
X0103212Y0189390D01*
X0102933Y0189669D01*
X0102591Y0189866D01*
X0102209Y0189968D01*
X0100331Y0189968D01*
X0100331Y0186984D01*
X0099362Y0186984D01*
X0099362Y0189968D01*
X0097484Y0189968D01*
X0097102Y0189866D01*
X0096760Y0189669D01*
X0096641Y0189550D01*
X0096023Y0190168D01*
X0095500Y0190168D01*
X0095500Y0191100D01*
X0098254Y0191100D01*
X0099250Y0192096D01*
X0099250Y0195904D01*
X0098654Y0196500D01*
X0099250Y0197096D01*
X0099250Y0200904D01*
X0098654Y0201500D01*
X0099250Y0202096D01*
X0099250Y0205904D01*
X0098654Y0206500D01*
X0099250Y0207096D01*
X0099250Y0210904D01*
X0098254Y0211900D01*
X0088146Y0211900D01*
X0087150Y0210904D01*
X0087150Y0207096D01*
X0087746Y0206500D01*
X0087446Y0206200D01*
X0086909Y0206200D01*
X0086909Y0207519D01*
X0085913Y0208515D01*
X0085800Y0208515D01*
X0085800Y0211788D01*
X0086173Y0211788D01*
X0087168Y0212784D01*
X0087168Y0218523D01*
X0086692Y0219000D01*
X0087168Y0219477D01*
X0087168Y0225216D01*
X0086173Y0226212D01*
X0080827Y0226212D01*
X0079831Y0225216D01*
X0079831Y0224546D01*
X0079168Y0224546D01*
X0079168Y0225216D01*
X0078173Y0226212D01*
X0072827Y0226212D01*
X0071831Y0225216D01*
X0071831Y0219477D01*
X0072450Y0218859D01*
X0072331Y0218740D01*
X0072134Y0218398D01*
X0072031Y0218016D01*
X0072031Y0216138D01*
X0075016Y0216138D01*
X0075016Y0215169D01*
X0072031Y0215169D01*
X0072031Y0213800D01*
X0065547Y0213800D01*
X0064200Y0212453D01*
X0049200Y0197453D01*
X0049200Y0177453D01*
X0041780Y0170033D01*
X0041671Y0170297D01*
X0039864Y0172104D01*
X0037502Y0173082D01*
X0025498Y0173082D01*
X0023136Y0172104D01*
X0021329Y0170297D01*
X0020775Y0168957D01*
X0020705Y0168957D01*
X0015547Y0163800D01*
X0014200Y0162453D01*
X0014200Y0100547D01*
X0020779Y0093968D01*
X0020351Y0092935D01*
X0020351Y0090380D01*
X0021329Y0088018D01*
X0023136Y0086211D01*
X0025498Y0085233D01*
X0037502Y0085233D01*
X0039864Y0086211D01*
X0041671Y0088018D01*
X0042649Y0090380D01*
X0042649Y0092935D01*
X0041671Y0095297D01*
X0039864Y0097104D01*
X0037502Y0098082D01*
X0025498Y0098082D01*
X0023852Y0097400D01*
X0018800Y0102453D01*
X0018800Y0160547D01*
X0021312Y0163060D01*
X0021329Y0163018D01*
X0023136Y0161211D01*
X0025498Y0160233D01*
X0037502Y0160233D01*
X0039864Y0161211D01*
X0041671Y0163018D01*
X0042225Y0164357D01*
X0042610Y0164357D01*
X0052453Y0174200D01*
X0053800Y0175547D01*
X0053800Y0195547D01*
X0067453Y0209200D01*
X0081200Y0209200D01*
X0081200Y0208515D01*
X0080961Y0208515D01*
X0079965Y0207519D01*
X0079965Y0202961D01*
X0080961Y0201965D01*
X0083601Y0201965D01*
X0083766Y0201800D01*
X0087446Y0201800D01*
X0087746Y0201500D01*
X0087446Y0201200D01*
X0083766Y0201200D01*
X0083601Y0201035D01*
X0080961Y0201035D01*
X0079965Y0200039D01*
X0079965Y0195481D01*
X0080961Y0194485D01*
X0081200Y0194485D01*
X0081200Y0193800D01*
X0070547Y0193800D01*
X0069200Y0192453D01*
X0059200Y0182453D01*
X0059200Y0157453D01*
X0051020Y0149272D01*
X0042225Y0149272D01*
X0041671Y0150612D01*
X0039864Y0152419D01*
X0037502Y0153397D01*
X0025498Y0153397D01*
X0023136Y0152419D01*
X0021329Y0150612D01*
X0020351Y0148250D01*
X0020351Y0145695D01*
X0021329Y0143333D01*
X0023136Y0141526D01*
X0025498Y0140548D01*
X0029200Y0140548D01*
X0029200Y0130547D01*
X0034200Y0125547D01*
X0035547Y0124200D01*
X0045547Y0124200D01*
X0049200Y0120547D01*
X0049200Y0077453D01*
X0045547Y0073800D01*
X0042421Y0073800D01*
X0041671Y0075612D01*
X0039864Y0077419D01*
X0037502Y0078397D01*
X0025498Y0078397D01*
X0023136Y0077419D01*
X0021329Y0075612D01*
X0020351Y0073250D01*
X0020351Y0070695D01*
X0021329Y0068333D01*
X0023136Y0066526D01*
X0025498Y0065548D01*
X0037502Y0065548D01*
X0039864Y0066526D01*
X0041671Y0068333D01*
X0040739Y0067402D02*
X0086906Y0067402D01*
X0086906Y0066403D02*
X0039567Y0066403D01*
X0047651Y0069399D02*
X0086906Y0069399D01*
X0086906Y0070397D02*
X0075612Y0070397D01*
X0075535Y0070264D02*
X0075732Y0070606D01*
X0075835Y0070988D01*
X0075835Y0072472D01*
X0072850Y0072472D01*
X0072850Y0069685D01*
X0074532Y0069685D01*
X0074914Y0069787D01*
X0075256Y0069985D01*
X0075535Y0070264D01*
X0075835Y0071396D02*
X0087062Y0071396D01*
X0086906Y0071240D02*
X0086906Y0064831D01*
X0087902Y0063835D01*
X0089881Y0063835D01*
X0090605Y0063535D01*
X0168337Y0063535D01*
X0175842Y0056030D01*
X0175834Y0056016D01*
X0175036Y0053040D01*
X0175036Y0049960D01*
X0175834Y0046984D01*
X0175842Y0046970D01*
X0155462Y0026590D01*
X0155302Y0026657D01*
X0152029Y0026657D01*
X0149005Y0025404D01*
X0146690Y0023090D01*
X0145438Y0020066D01*
X0145438Y0016793D01*
X0146690Y0013769D01*
X0149005Y0011454D01*
X0152029Y0010202D01*
X0155302Y0010202D01*
X0158326Y0011454D01*
X0160640Y0013769D01*
X0161893Y0016793D01*
X0161893Y0020066D01*
X0161826Y0020226D01*
X0182206Y0040606D01*
X0182220Y0040597D01*
X0185196Y0039800D01*
X0188277Y0039800D01*
X0191252Y0040597D01*
X0193920Y0042138D01*
X0216425Y0064643D01*
X0248540Y0064643D01*
X0251516Y0065440D01*
X0254184Y0066980D01*
X0256362Y0069159D01*
X0257903Y0071826D01*
X0258700Y0074802D01*
X0258700Y0077883D01*
X0257903Y0080859D01*
X0256362Y0083526D01*
X0254184Y0085705D01*
X0251516Y0087245D01*
X0248540Y0088043D01*
X0239320Y0088043D01*
X0239320Y0101808D01*
X0241055Y0101808D01*
X0242050Y0102804D01*
X0242050Y0106771D01*
X0241744Y0107077D01*
X0242867Y0108200D01*
X0247156Y0108200D01*
X0248369Y0108702D01*
X0249298Y0109631D01*
X0263022Y0123355D01*
X0264251Y0123355D01*
X0265247Y0124351D01*
X0265247Y0129696D01*
X0264251Y0130692D01*
X0256544Y0130692D01*
X0255548Y0129696D01*
X0255548Y0125215D01*
X0245133Y0114800D01*
X0240844Y0114800D01*
X0239631Y0114298D01*
X0234631Y0109298D01*
X0233702Y0108369D01*
X0233453Y0107767D01*
X0230985Y0107767D01*
X0229989Y0106771D01*
X0229989Y0102804D01*
X0230985Y0101808D01*
X0232720Y0101808D01*
X0232720Y0088043D01*
X0210038Y0088043D01*
X0207063Y0087245D01*
X0204395Y0085705D01*
X0181645Y0062955D01*
X0172750Y0071850D01*
X0171096Y0072535D01*
X0090605Y0072535D01*
X0089881Y0072235D01*
X0087902Y0072235D01*
X0086906Y0071240D01*
X0084087Y0073393D02*
X0192083Y0073393D01*
X0193081Y0074391D02*
X0085086Y0074391D01*
X0086085Y0075390D02*
X0194080Y0075390D01*
X0195078Y0076388D02*
X0155411Y0076388D01*
X0155302Y0076343D02*
X0158326Y0077596D01*
X0160640Y0079910D01*
X0161893Y0082934D01*
X0161893Y0086207D01*
X0160640Y0089231D01*
X0158326Y0091546D01*
X0155302Y0092798D01*
X0152029Y0092798D01*
X0149005Y0091546D01*
X0146924Y0089465D01*
X0088400Y0089465D01*
X0086746Y0088779D01*
X0077016Y0079049D01*
X0076331Y0077395D01*
X0076331Y0075605D01*
X0077016Y0073951D01*
X0078282Y0072685D01*
X0079936Y0072000D01*
X0081726Y0072000D01*
X0083380Y0072685D01*
X0091159Y0080465D01*
X0146461Y0080465D01*
X0146690Y0079910D01*
X0149005Y0077596D01*
X0152029Y0076343D01*
X0155302Y0076343D01*
X0157821Y0077387D02*
X0196077Y0077387D01*
X0197075Y0078385D02*
X0159115Y0078385D01*
X0160114Y0079384D02*
X0198074Y0079384D01*
X0199072Y0080382D02*
X0160836Y0080382D01*
X0161249Y0081381D02*
X0200071Y0081381D01*
X0201069Y0082379D02*
X0161663Y0082379D01*
X0161893Y0083378D02*
X0202068Y0083378D01*
X0203066Y0084376D02*
X0161893Y0084376D01*
X0161893Y0085375D02*
X0204065Y0085375D01*
X0205553Y0086373D02*
X0161824Y0086373D01*
X0161411Y0087372D02*
X0207536Y0087372D01*
X0210585Y0101900D02*
X0212415Y0101900D01*
X0214106Y0102600D01*
X0215400Y0103894D01*
X0216100Y0105585D01*
X0216100Y0107415D01*
X0215400Y0109106D01*
X0214800Y0109705D01*
X0214800Y0145133D01*
X0217867Y0148200D01*
X0255133Y0148200D01*
X0255616Y0147717D01*
X0255548Y0147649D01*
X0255548Y0142304D01*
X0256544Y0141308D01*
X0264251Y0141308D01*
X0265247Y0142304D01*
X0265247Y0147649D01*
X0264251Y0148645D01*
X0263538Y0148645D01*
X0263195Y0149472D01*
X0259298Y0153369D01*
X0258369Y0154298D01*
X0257156Y0154800D01*
X0247867Y0154800D01*
X0247513Y0155154D01*
X0247513Y0164676D01*
X0247192Y0165450D01*
X0247192Y0169055D01*
X0246196Y0170050D01*
X0242229Y0170050D01*
X0241233Y0169055D01*
X0241233Y0165450D01*
X0240913Y0164676D01*
X0240913Y0154800D01*
X0224400Y0154800D01*
X0224400Y0168216D01*
X0224827Y0167788D01*
X0230173Y0167788D01*
X0231168Y0168784D01*
X0231168Y0174523D01*
X0230692Y0175000D01*
X0231168Y0175477D01*
X0231168Y0181216D01*
X0230173Y0182212D01*
X0229905Y0182212D01*
X0229905Y0182592D01*
X0229525Y0183511D01*
X0228119Y0184916D01*
X0227416Y0185619D01*
X0226497Y0186000D01*
X0221468Y0186000D01*
X0221468Y0186960D01*
X0220472Y0187956D01*
X0214339Y0187956D01*
X0213343Y0186960D01*
X0213343Y0180040D01*
X0213983Y0179400D01*
X0208629Y0179400D01*
X0208878Y0179544D01*
X0209157Y0179823D01*
X0209354Y0180165D01*
X0209457Y0180547D01*
X0209457Y0183000D01*
X0206095Y0183000D01*
X0206095Y0184000D01*
X0209457Y0184000D01*
X0209457Y0186453D01*
X0209354Y0186835D01*
X0209157Y0187177D01*
X0208878Y0187456D01*
X0208536Y0187654D01*
X0208154Y0187756D01*
X0206094Y0187756D01*
X0206094Y0184000D01*
X0205095Y0184000D01*
X0205095Y0187756D01*
X0203035Y0187756D01*
X0202653Y0187654D01*
X0202311Y0187456D01*
X0202032Y0187177D01*
X0201835Y0186835D01*
X0201732Y0186453D01*
X0201732Y0184000D01*
X0205094Y0184000D01*
X0205094Y0183000D01*
X0201732Y0183000D01*
X0201732Y0180547D01*
X0201835Y0180165D01*
X0202032Y0179823D01*
X0202311Y0179544D01*
X0202560Y0179400D01*
X0187701Y0179400D01*
X0161296Y0205805D01*
X0160230Y0206246D01*
X0124400Y0206246D01*
X0124400Y0212077D01*
X0123958Y0213143D01*
X0123143Y0213958D01*
X0120212Y0216889D01*
X0120212Y0219173D01*
X0119216Y0220168D01*
X0113477Y0220168D01*
X0112859Y0219550D01*
X0112740Y0219669D01*
X0112398Y0219866D01*
X0112016Y0219968D01*
X0110138Y0219968D01*
X0110138Y0216984D01*
X0109169Y0216984D01*
X0109169Y0216016D01*
X0105988Y0216016D01*
X0105988Y0214334D01*
X0106090Y0213953D01*
X0106288Y0213610D01*
X0106567Y0213331D01*
X0106909Y0213134D01*
X0107291Y0213031D01*
X0109169Y0213031D01*
X0109169Y0216016D01*
X0110138Y0216016D01*
X0110138Y0213031D01*
X0112016Y0213031D01*
X0112398Y0213134D01*
X0112740Y0213331D01*
X0112859Y0213450D01*
X0113477Y0212831D01*
X0116067Y0212831D01*
X0116999Y0211900D01*
X0108746Y0211900D01*
X0108146Y0211300D01*
X0107547Y0211300D01*
X0106200Y0209953D01*
X0103700Y0207453D01*
X0103700Y0189047D01*
X0105047Y0187700D01*
X0107200Y0185547D01*
X0108547Y0184200D01*
X0150547Y0184200D01*
X0159200Y0175547D01*
X0159200Y0170526D01*
X0158894Y0170400D01*
X0157600Y0169106D01*
X0156900Y0167415D01*
X0156900Y0165585D01*
X0157600Y0163894D01*
X0158894Y0162600D01*
X0160585Y0161900D01*
X0162415Y0161900D01*
X0164106Y0162600D01*
X0165400Y0163894D01*
X0166100Y0165585D01*
X0166100Y0167415D01*
X0165400Y0169106D01*
X0164106Y0170400D01*
X0163800Y0170526D01*
X0163800Y0177453D01*
X0152453Y0188800D01*
X0110453Y0188800D01*
X0108300Y0190953D01*
X0108300Y0191546D01*
X0108746Y0191100D01*
X0118854Y0191100D01*
X0119850Y0192096D01*
X0119850Y0192200D01*
X0152547Y0192200D01*
X0169200Y0175547D01*
X0169200Y0170526D01*
X0168894Y0170400D01*
X0167600Y0169106D01*
X0166900Y0167415D01*
X0166900Y0165585D01*
X0167600Y0163894D01*
X0168894Y0162600D01*
X0170585Y0161900D01*
X0172415Y0161900D01*
X0174106Y0162600D01*
X0175400Y0163894D01*
X0176100Y0165585D01*
X0176100Y0167415D01*
X0175400Y0169106D01*
X0174106Y0170400D01*
X0173800Y0170526D01*
X0173800Y0177453D01*
X0172453Y0178800D01*
X0154453Y0196800D01*
X0119271Y0196800D01*
X0119350Y0196879D01*
X0119548Y0197221D01*
X0119650Y0197603D01*
X0119650Y0198900D01*
X0113900Y0198900D01*
X0113900Y0199100D01*
X0119650Y0199100D01*
X0119650Y0200397D01*
X0119637Y0200446D01*
X0158452Y0200446D01*
X0184857Y0174041D01*
X0185923Y0173600D01*
X0215299Y0173600D01*
X0218600Y0170299D01*
X0218600Y0154800D01*
X0215844Y0154800D01*
X0214631Y0154298D01*
X0209631Y0149298D01*
X0208702Y0148369D01*
X0208200Y0147156D01*
X0208200Y0109705D01*
X0207600Y0109106D01*
X0206900Y0107415D01*
X0206900Y0105585D01*
X0207600Y0103894D01*
X0208894Y0102600D01*
X0210585Y0101900D01*
X0209499Y0102350D02*
X0202965Y0102350D01*
X0203189Y0102422D02*
X0203806Y0102737D01*
X0204366Y0103144D01*
X0204856Y0103634D01*
X0205263Y0104194D01*
X0205578Y0104811D01*
X0205792Y0105470D01*
X0205884Y0106050D01*
X0201950Y0106050D01*
X0201950Y0106950D01*
X0201050Y0106950D01*
X0201050Y0110884D01*
X0200470Y0110792D01*
X0199811Y0110578D01*
X0199194Y0110263D01*
X0198634Y0109856D01*
X0198144Y0109366D01*
X0197737Y0108806D01*
X0197422Y0108189D01*
X0197208Y0107530D01*
X0197116Y0106950D01*
X0201050Y0106950D01*
X0201050Y0106050D01*
X0197116Y0106050D01*
X0197208Y0105470D01*
X0197422Y0104811D01*
X0197737Y0104194D01*
X0198144Y0103634D01*
X0198634Y0103144D01*
X0199194Y0102737D01*
X0199811Y0102422D01*
X0200470Y0102208D01*
X0201050Y0102116D01*
X0201050Y0106050D01*
X0201950Y0106050D01*
X0201950Y0102116D01*
X0202530Y0102208D01*
X0203189Y0102422D01*
X0201950Y0102350D02*
X0201050Y0102350D01*
X0201050Y0103348D02*
X0201950Y0103348D01*
X0201950Y0104347D02*
X0201050Y0104347D01*
X0201050Y0105345D02*
X0201950Y0105345D01*
X0201950Y0106344D02*
X0206900Y0106344D01*
X0206900Y0107342D02*
X0205821Y0107342D01*
X0205792Y0107530D02*
X0205578Y0108189D01*
X0205263Y0108806D01*
X0204856Y0109366D01*
X0204366Y0109856D01*
X0203806Y0110263D01*
X0203189Y0110578D01*
X0202530Y0110792D01*
X0201950Y0110884D01*
X0201950Y0106950D01*
X0205884Y0106950D01*
X0205792Y0107530D01*
X0205500Y0108341D02*
X0207283Y0108341D01*
X0207834Y0109339D02*
X0204876Y0109339D01*
X0203660Y0110338D02*
X0208200Y0110338D01*
X0208200Y0111336D02*
X0053800Y0111336D01*
X0053800Y0110338D02*
X0078832Y0110338D01*
X0078894Y0110400D02*
X0077600Y0109106D01*
X0076900Y0107415D01*
X0076900Y0105585D01*
X0077600Y0103894D01*
X0078894Y0102600D01*
X0080585Y0101900D01*
X0082415Y0101900D01*
X0084106Y0102600D01*
X0085400Y0103894D01*
X0086100Y0105585D01*
X0086100Y0107415D01*
X0085400Y0109106D01*
X0084106Y0110400D01*
X0082415Y0111100D01*
X0080585Y0111100D01*
X0078894Y0110400D01*
X0077834Y0109339D02*
X0053800Y0109339D01*
X0053800Y0108341D02*
X0077283Y0108341D01*
X0076900Y0107342D02*
X0053800Y0107342D01*
X0053800Y0106344D02*
X0076900Y0106344D01*
X0076999Y0105345D02*
X0053800Y0105345D01*
X0053800Y0104347D02*
X0077413Y0104347D01*
X0078146Y0103348D02*
X0053800Y0103348D01*
X0053800Y0102350D02*
X0079499Y0102350D01*
X0083501Y0102350D02*
X0088046Y0102350D01*
X0088046Y0103348D02*
X0084854Y0103348D01*
X0085587Y0104347D02*
X0087413Y0104347D01*
X0087600Y0103894D02*
X0088046Y0103448D01*
X0088046Y0098168D01*
X0087477Y0098168D01*
X0087000Y0097692D01*
X0086523Y0098168D01*
X0080784Y0098168D01*
X0079788Y0097173D01*
X0079788Y0096800D01*
X0076212Y0096800D01*
X0076212Y0097173D01*
X0075216Y0098168D01*
X0069477Y0098168D01*
X0068859Y0097550D01*
X0068740Y0097669D01*
X0068398Y0097866D01*
X0068016Y0097968D01*
X0066138Y0097968D01*
X0066138Y0094984D01*
X0065169Y0094984D01*
X0065169Y0094016D01*
X0061988Y0094016D01*
X0061988Y0092334D01*
X0062090Y0091953D01*
X0062288Y0091610D01*
X0062567Y0091331D01*
X0062909Y0091134D01*
X0063291Y0091031D01*
X0065169Y0091031D01*
X0065169Y0094016D01*
X0066138Y0094016D01*
X0066138Y0091031D01*
X0068016Y0091031D01*
X0068398Y0091134D01*
X0068740Y0091331D01*
X0068859Y0091450D01*
X0069477Y0090831D01*
X0070263Y0090831D01*
X0070263Y0083515D01*
X0070087Y0083515D01*
X0069091Y0082519D01*
X0069091Y0077961D01*
X0070087Y0076965D01*
X0075039Y0076965D01*
X0076035Y0077961D01*
X0076035Y0082519D01*
X0075039Y0083515D01*
X0074863Y0083515D01*
X0074863Y0090831D01*
X0075216Y0090831D01*
X0076212Y0091827D01*
X0076212Y0092009D01*
X0076340Y0092003D01*
X0076557Y0092200D01*
X0079788Y0092200D01*
X0079788Y0091827D01*
X0080784Y0090831D01*
X0086523Y0090831D01*
X0087000Y0091308D01*
X0087477Y0090831D01*
X0093216Y0090831D01*
X0094212Y0091827D01*
X0094212Y0097173D01*
X0093216Y0098168D01*
X0092646Y0098168D01*
X0092646Y0101996D01*
X0094106Y0102600D01*
X0095400Y0103894D01*
X0096100Y0105585D01*
X0096100Y0107415D01*
X0095400Y0109106D01*
X0094106Y0110400D01*
X0092415Y0111100D01*
X0090585Y0111100D01*
X0088894Y0110400D01*
X0087600Y0109106D01*
X0086900Y0107415D01*
X0086900Y0105585D01*
X0087600Y0103894D01*
X0086999Y0105345D02*
X0086001Y0105345D01*
X0086100Y0106344D02*
X0086900Y0106344D01*
X0086900Y0107342D02*
X0086100Y0107342D01*
X0085717Y0108341D02*
X0087283Y0108341D01*
X0087834Y0109339D02*
X0085166Y0109339D01*
X0084168Y0110338D02*
X0088832Y0110338D01*
X0085400Y0113894D02*
X0086100Y0115585D01*
X0086100Y0117415D01*
X0085400Y0119106D01*
X0084106Y0120400D01*
X0082415Y0121100D01*
X0080585Y0121100D01*
X0078894Y0120400D01*
X0077600Y0119106D01*
X0076900Y0117415D01*
X0076900Y0115585D01*
X0077600Y0113894D01*
X0078894Y0112600D01*
X0080585Y0111900D01*
X0082415Y0111900D01*
X0084106Y0112600D01*
X0085400Y0113894D01*
X0085581Y0114332D02*
X0208200Y0114332D01*
X0208200Y0115330D02*
X0085994Y0115330D01*
X0086100Y0116329D02*
X0208200Y0116329D01*
X0208200Y0117327D02*
X0086100Y0117327D01*
X0085723Y0118326D02*
X0208200Y0118326D01*
X0208200Y0119324D02*
X0085181Y0119324D01*
X0084183Y0120323D02*
X0208200Y0120323D01*
X0208200Y0121321D02*
X0053800Y0121321D01*
X0053800Y0120323D02*
X0078817Y0120323D01*
X0077819Y0119324D02*
X0053800Y0119324D01*
X0053800Y0118326D02*
X0077277Y0118326D01*
X0076900Y0117327D02*
X0053800Y0117327D01*
X0053800Y0116329D02*
X0076900Y0116329D01*
X0077005Y0115330D02*
X0053800Y0115330D01*
X0053800Y0114332D02*
X0077419Y0114332D01*
X0078161Y0113333D02*
X0053800Y0113333D01*
X0053800Y0112335D02*
X0079535Y0112335D01*
X0083465Y0112335D02*
X0208200Y0112335D01*
X0208200Y0113333D02*
X0084839Y0113333D01*
X0094168Y0110338D02*
X0098832Y0110338D01*
X0098894Y0110400D02*
X0097600Y0109106D01*
X0096900Y0107415D01*
X0096900Y0105585D01*
X0097600Y0103894D01*
X0098894Y0102600D01*
X0100585Y0101900D01*
X0102415Y0101900D01*
X0104106Y0102600D01*
X0105400Y0103894D01*
X0106100Y0105585D01*
X0106100Y0107415D01*
X0105400Y0109106D01*
X0104106Y0110400D01*
X0102415Y0111100D01*
X0100585Y0111100D01*
X0098894Y0110400D01*
X0097834Y0109339D02*
X0095166Y0109339D01*
X0095717Y0108341D02*
X0097283Y0108341D01*
X0096900Y0107342D02*
X0096100Y0107342D01*
X0096100Y0106344D02*
X0096900Y0106344D01*
X0096999Y0105345D02*
X0096001Y0105345D01*
X0095587Y0104347D02*
X0097413Y0104347D01*
X0098146Y0103348D02*
X0094854Y0103348D01*
X0093501Y0102350D02*
X0099499Y0102350D01*
X0103501Y0102350D02*
X0109499Y0102350D01*
X0108894Y0102600D02*
X0110585Y0101900D01*
X0112415Y0101900D01*
X0114106Y0102600D01*
X0115400Y0103894D01*
X0116100Y0105585D01*
X0116100Y0107415D01*
X0115400Y0109106D01*
X0114106Y0110400D01*
X0112415Y0111100D01*
X0110585Y0111100D01*
X0108894Y0110400D01*
X0107600Y0109106D01*
X0106900Y0107415D01*
X0106900Y0105585D01*
X0107600Y0103894D01*
X0108894Y0102600D01*
X0108146Y0103348D02*
X0104854Y0103348D01*
X0105587Y0104347D02*
X0107413Y0104347D01*
X0106999Y0105345D02*
X0106001Y0105345D01*
X0106100Y0106344D02*
X0106900Y0106344D01*
X0106900Y0107342D02*
X0106100Y0107342D01*
X0105717Y0108341D02*
X0107283Y0108341D01*
X0107834Y0109339D02*
X0105166Y0109339D01*
X0104168Y0110338D02*
X0108832Y0110338D01*
X0114168Y0110338D02*
X0118832Y0110338D01*
X0118894Y0110400D02*
X0117600Y0109106D01*
X0116900Y0107415D01*
X0116900Y0105585D01*
X0117600Y0103894D01*
X0118894Y0102600D01*
X0120585Y0101900D01*
X0122415Y0101900D01*
X0124106Y0102600D01*
X0125400Y0103894D01*
X0126100Y0105585D01*
X0126100Y0107415D01*
X0125400Y0109106D01*
X0124106Y0110400D01*
X0122415Y0111100D01*
X0120585Y0111100D01*
X0118894Y0110400D01*
X0117834Y0109339D02*
X0115166Y0109339D01*
X0115717Y0108341D02*
X0117283Y0108341D01*
X0116900Y0107342D02*
X0116100Y0107342D01*
X0116100Y0106344D02*
X0116900Y0106344D01*
X0116999Y0105345D02*
X0116001Y0105345D01*
X0115587Y0104347D02*
X0117413Y0104347D01*
X0118146Y0103348D02*
X0114854Y0103348D01*
X0113501Y0102350D02*
X0119499Y0102350D01*
X0123501Y0102350D02*
X0129499Y0102350D01*
X0128894Y0102600D02*
X0130585Y0101900D01*
X0132415Y0101900D01*
X0134106Y0102600D01*
X0135400Y0103894D01*
X0136100Y0105585D01*
X0136100Y0107415D01*
X0135400Y0109106D01*
X0134106Y0110400D01*
X0132415Y0111100D01*
X0130585Y0111100D01*
X0128894Y0110400D01*
X0127600Y0109106D01*
X0126900Y0107415D01*
X0126900Y0105585D01*
X0127600Y0103894D01*
X0128894Y0102600D01*
X0128146Y0103348D02*
X0124854Y0103348D01*
X0125587Y0104347D02*
X0127413Y0104347D01*
X0126999Y0105345D02*
X0126001Y0105345D01*
X0126100Y0106344D02*
X0126900Y0106344D01*
X0126900Y0107342D02*
X0126100Y0107342D01*
X0125717Y0108341D02*
X0127283Y0108341D01*
X0127834Y0109339D02*
X0125166Y0109339D01*
X0124168Y0110338D02*
X0128832Y0110338D01*
X0134168Y0110338D02*
X0138832Y0110338D01*
X0138894Y0110400D02*
X0137600Y0109106D01*
X0136900Y0107415D01*
X0136900Y0105585D01*
X0137600Y0103894D01*
X0138894Y0102600D01*
X0140585Y0101900D01*
X0142415Y0101900D01*
X0144106Y0102600D01*
X0145400Y0103894D01*
X0146100Y0105585D01*
X0146100Y0107415D01*
X0145400Y0109106D01*
X0144106Y0110400D01*
X0142415Y0111100D01*
X0140585Y0111100D01*
X0138894Y0110400D01*
X0137834Y0109339D02*
X0135166Y0109339D01*
X0135717Y0108341D02*
X0137283Y0108341D01*
X0136900Y0107342D02*
X0136100Y0107342D01*
X0136100Y0106344D02*
X0136900Y0106344D01*
X0136999Y0105345D02*
X0136001Y0105345D01*
X0135587Y0104347D02*
X0137413Y0104347D01*
X0138146Y0103348D02*
X0134854Y0103348D01*
X0133501Y0102350D02*
X0139499Y0102350D01*
X0143501Y0102350D02*
X0149499Y0102350D01*
X0148894Y0102600D02*
X0150585Y0101900D01*
X0152415Y0101900D01*
X0154106Y0102600D01*
X0155400Y0103894D01*
X0156100Y0105585D01*
X0156100Y0107415D01*
X0155400Y0109106D01*
X0154106Y0110400D01*
X0152415Y0111100D01*
X0150585Y0111100D01*
X0148894Y0110400D01*
X0147600Y0109106D01*
X0146900Y0107415D01*
X0146900Y0105585D01*
X0147600Y0103894D01*
X0148894Y0102600D01*
X0148146Y0103348D02*
X0144854Y0103348D01*
X0145587Y0104347D02*
X0147413Y0104347D01*
X0146999Y0105345D02*
X0146001Y0105345D01*
X0146100Y0106344D02*
X0146900Y0106344D01*
X0146900Y0107342D02*
X0146100Y0107342D01*
X0145717Y0108341D02*
X0147283Y0108341D01*
X0147834Y0109339D02*
X0145166Y0109339D01*
X0144168Y0110338D02*
X0148832Y0110338D01*
X0154168Y0110338D02*
X0158832Y0110338D01*
X0158894Y0110400D02*
X0157600Y0109106D01*
X0156900Y0107415D01*
X0156900Y0105585D01*
X0157600Y0103894D01*
X0158894Y0102600D01*
X0160585Y0101900D01*
X0162415Y0101900D01*
X0164106Y0102600D01*
X0165400Y0103894D01*
X0166100Y0105585D01*
X0166100Y0107415D01*
X0165400Y0109106D01*
X0164106Y0110400D01*
X0162415Y0111100D01*
X0160585Y0111100D01*
X0158894Y0110400D01*
X0157834Y0109339D02*
X0155166Y0109339D01*
X0155717Y0108341D02*
X0157283Y0108341D01*
X0156900Y0107342D02*
X0156100Y0107342D01*
X0156100Y0106344D02*
X0156900Y0106344D01*
X0156999Y0105345D02*
X0156001Y0105345D01*
X0155587Y0104347D02*
X0157413Y0104347D01*
X0158146Y0103348D02*
X0154854Y0103348D01*
X0153501Y0102350D02*
X0159499Y0102350D01*
X0163501Y0102350D02*
X0169499Y0102350D01*
X0168894Y0102600D02*
X0170585Y0101900D01*
X0172415Y0101900D01*
X0174106Y0102600D01*
X0175400Y0103894D01*
X0176100Y0105585D01*
X0176100Y0107415D01*
X0175400Y0109106D01*
X0174106Y0110400D01*
X0172415Y0111100D01*
X0170585Y0111100D01*
X0168894Y0110400D01*
X0167600Y0109106D01*
X0166900Y0107415D01*
X0166900Y0105585D01*
X0167600Y0103894D01*
X0168894Y0102600D01*
X0168146Y0103348D02*
X0164854Y0103348D01*
X0165587Y0104347D02*
X0167413Y0104347D01*
X0166999Y0105345D02*
X0166001Y0105345D01*
X0166100Y0106344D02*
X0166900Y0106344D01*
X0166900Y0107342D02*
X0166100Y0107342D01*
X0165717Y0108341D02*
X0167283Y0108341D01*
X0167834Y0109339D02*
X0165166Y0109339D01*
X0164168Y0110338D02*
X0168832Y0110338D01*
X0174168Y0110338D02*
X0178832Y0110338D01*
X0178894Y0110400D02*
X0177600Y0109106D01*
X0176900Y0107415D01*
X0176900Y0105585D01*
X0177600Y0103894D01*
X0178894Y0102600D01*
X0180585Y0101900D01*
X0182415Y0101900D01*
X0184106Y0102600D01*
X0185400Y0103894D01*
X0186100Y0105585D01*
X0186100Y0107415D01*
X0185400Y0109106D01*
X0184106Y0110400D01*
X0182415Y0111100D01*
X0180585Y0111100D01*
X0178894Y0110400D01*
X0177834Y0109339D02*
X0175166Y0109339D01*
X0175717Y0108341D02*
X0177283Y0108341D01*
X0176900Y0107342D02*
X0176100Y0107342D01*
X0176100Y0106344D02*
X0176900Y0106344D01*
X0176999Y0105345D02*
X0176001Y0105345D01*
X0175587Y0104347D02*
X0177413Y0104347D01*
X0178146Y0103348D02*
X0174854Y0103348D01*
X0173501Y0102350D02*
X0179499Y0102350D01*
X0183501Y0102350D02*
X0189499Y0102350D01*
X0188894Y0102600D02*
X0190585Y0101900D01*
X0192415Y0101900D01*
X0194106Y0102600D01*
X0195400Y0103894D01*
X0196100Y0105585D01*
X0196100Y0107415D01*
X0195400Y0109106D01*
X0194106Y0110400D01*
X0192415Y0111100D01*
X0190585Y0111100D01*
X0188894Y0110400D01*
X0187600Y0109106D01*
X0186900Y0107415D01*
X0186900Y0105585D01*
X0187600Y0103894D01*
X0188894Y0102600D01*
X0188146Y0103348D02*
X0184854Y0103348D01*
X0185587Y0104347D02*
X0187413Y0104347D01*
X0186999Y0105345D02*
X0186001Y0105345D01*
X0186100Y0106344D02*
X0186900Y0106344D01*
X0186900Y0107342D02*
X0186100Y0107342D01*
X0185717Y0108341D02*
X0187283Y0108341D01*
X0187834Y0109339D02*
X0185166Y0109339D01*
X0184168Y0110338D02*
X0188832Y0110338D01*
X0194168Y0110338D02*
X0199340Y0110338D01*
X0198124Y0109339D02*
X0195166Y0109339D01*
X0195717Y0108341D02*
X0197500Y0108341D01*
X0197179Y0107342D02*
X0196100Y0107342D01*
X0196100Y0106344D02*
X0201050Y0106344D01*
X0201050Y0107342D02*
X0201950Y0107342D01*
X0201950Y0108341D02*
X0201050Y0108341D01*
X0201050Y0109339D02*
X0201950Y0109339D01*
X0201950Y0110338D02*
X0201050Y0110338D01*
X0197249Y0105345D02*
X0196001Y0105345D01*
X0195587Y0104347D02*
X0197659Y0104347D01*
X0198429Y0103348D02*
X0194854Y0103348D01*
X0193501Y0102350D02*
X0200035Y0102350D01*
X0204571Y0103348D02*
X0208146Y0103348D01*
X0207413Y0104347D02*
X0205341Y0104347D01*
X0205751Y0105345D02*
X0206999Y0105345D01*
X0213501Y0102350D02*
X0230443Y0102350D01*
X0229989Y0103348D02*
X0214854Y0103348D01*
X0215587Y0104347D02*
X0229989Y0104347D01*
X0229989Y0105345D02*
X0216001Y0105345D01*
X0216100Y0106344D02*
X0229989Y0106344D01*
X0230560Y0107342D02*
X0216100Y0107342D01*
X0215717Y0108341D02*
X0233691Y0108341D01*
X0234672Y0109339D02*
X0215166Y0109339D01*
X0214800Y0110338D02*
X0235671Y0110338D01*
X0236669Y0111336D02*
X0214800Y0111336D01*
X0214800Y0112335D02*
X0237668Y0112335D01*
X0238666Y0113333D02*
X0214800Y0113333D01*
X0214800Y0114332D02*
X0239713Y0114332D01*
X0245663Y0115330D02*
X0214800Y0115330D01*
X0214800Y0116329D02*
X0246662Y0116329D01*
X0247660Y0117327D02*
X0214800Y0117327D01*
X0214800Y0118326D02*
X0248659Y0118326D01*
X0249657Y0119324D02*
X0214800Y0119324D01*
X0214800Y0120323D02*
X0250656Y0120323D01*
X0251654Y0121321D02*
X0214800Y0121321D01*
X0214800Y0122320D02*
X0252653Y0122320D01*
X0253651Y0123318D02*
X0214800Y0123318D01*
X0214800Y0124317D02*
X0218385Y0124317D01*
X0218252Y0124449D02*
X0218532Y0124170D01*
X0218874Y0123972D01*
X0219255Y0123870D01*
X0231157Y0123870D01*
X0231157Y0135500D01*
X0217953Y0135500D01*
X0217953Y0125173D01*
X0218055Y0124791D01*
X0218252Y0124449D01*
X0217953Y0125315D02*
X0214800Y0125315D01*
X0214800Y0126314D02*
X0217953Y0126314D01*
X0217953Y0127312D02*
X0214800Y0127312D01*
X0214800Y0128311D02*
X0217953Y0128311D01*
X0217953Y0129309D02*
X0214800Y0129309D01*
X0214800Y0130308D02*
X0217953Y0130308D01*
X0217953Y0131306D02*
X0214800Y0131306D01*
X0214800Y0132305D02*
X0217953Y0132305D01*
X0217953Y0133303D02*
X0214800Y0133303D01*
X0214800Y0134302D02*
X0217953Y0134302D01*
X0217953Y0135301D02*
X0214800Y0135301D01*
X0214800Y0136299D02*
X0231157Y0136299D01*
X0231157Y0136500D02*
X0231157Y0135500D01*
X0232157Y0135500D01*
X0232157Y0123870D01*
X0244060Y0123870D01*
X0244441Y0123972D01*
X0244783Y0124170D01*
X0245062Y0124449D01*
X0245260Y0124791D01*
X0245362Y0125173D01*
X0245362Y0135500D01*
X0232158Y0135500D01*
X0232158Y0136500D01*
X0245362Y0136500D01*
X0245362Y0146827D01*
X0245260Y0147209D01*
X0245062Y0147551D01*
X0244783Y0147830D01*
X0244441Y0148028D01*
X0244060Y0148130D01*
X0232157Y0148130D01*
X0232157Y0136500D01*
X0231157Y0136500D01*
X0217953Y0136500D01*
X0217953Y0146827D01*
X0218055Y0147209D01*
X0218252Y0147551D01*
X0218532Y0147830D01*
X0218874Y0148028D01*
X0219255Y0148130D01*
X0231157Y0148130D01*
X0231157Y0136500D01*
X0231157Y0137298D02*
X0232157Y0137298D01*
X0232157Y0138296D02*
X0231157Y0138296D01*
X0231157Y0139295D02*
X0232157Y0139295D01*
X0232157Y0140293D02*
X0231157Y0140293D01*
X0231157Y0141292D02*
X0232157Y0141292D01*
X0232157Y0142290D02*
X0231157Y0142290D01*
X0231157Y0143289D02*
X0232157Y0143289D01*
X0232157Y0144287D02*
X0231157Y0144287D01*
X0231157Y0145286D02*
X0232157Y0145286D01*
X0232157Y0146284D02*
X0231157Y0146284D01*
X0231157Y0147283D02*
X0232157Y0147283D01*
X0232158Y0136299D02*
X0274400Y0136299D01*
X0274400Y0135301D02*
X0245362Y0135301D01*
X0245362Y0134302D02*
X0274400Y0134302D01*
X0274400Y0133303D02*
X0245362Y0133303D01*
X0245362Y0132305D02*
X0274400Y0132305D01*
X0274400Y0131306D02*
X0245362Y0131306D01*
X0245362Y0130308D02*
X0256160Y0130308D01*
X0255548Y0129309D02*
X0245362Y0129309D01*
X0245362Y0128311D02*
X0255548Y0128311D01*
X0255548Y0127312D02*
X0245362Y0127312D01*
X0245362Y0126314D02*
X0255548Y0126314D01*
X0255548Y0125315D02*
X0245362Y0125315D01*
X0244930Y0124317D02*
X0254650Y0124317D01*
X0258991Y0119324D02*
X0274400Y0119324D01*
X0274400Y0118326D02*
X0257993Y0118326D01*
X0256994Y0117327D02*
X0274400Y0117327D01*
X0274400Y0116329D02*
X0255996Y0116329D01*
X0254997Y0115330D02*
X0274400Y0115330D01*
X0274400Y0114332D02*
X0253999Y0114332D01*
X0253000Y0113333D02*
X0274400Y0113333D01*
X0274400Y0112335D02*
X0252002Y0112335D01*
X0251003Y0111336D02*
X0274400Y0111336D01*
X0274400Y0110338D02*
X0250005Y0110338D01*
X0249006Y0109339D02*
X0274400Y0109339D01*
X0274400Y0108341D02*
X0247496Y0108341D01*
X0246058Y0107567D02*
X0245677Y0107465D01*
X0245335Y0107267D01*
X0245056Y0106988D01*
X0244858Y0106646D01*
X0244756Y0106264D01*
X0244756Y0104927D01*
X0250447Y0104927D01*
X0250447Y0104648D01*
X0244756Y0104648D01*
X0244756Y0103310D01*
X0244858Y0102929D01*
X0245056Y0102587D01*
X0245335Y0102308D01*
X0245677Y0102110D01*
X0246058Y0102008D01*
X0250447Y0102008D01*
X0250447Y0104648D01*
X0250726Y0104648D01*
X0250726Y0102008D01*
X0255115Y0102008D01*
X0255496Y0102110D01*
X0255838Y0102308D01*
X0256118Y0102587D01*
X0256315Y0102929D01*
X0256417Y0103310D01*
X0256417Y0104648D01*
X0250726Y0104648D01*
X0250726Y0104927D01*
X0250447Y0104927D01*
X0250447Y0107567D01*
X0246058Y0107567D01*
X0245465Y0107342D02*
X0242009Y0107342D01*
X0242050Y0106344D02*
X0244777Y0106344D01*
X0244756Y0105345D02*
X0242050Y0105345D01*
X0242050Y0104347D02*
X0244756Y0104347D01*
X0244756Y0103348D02*
X0242050Y0103348D01*
X0241596Y0102350D02*
X0245293Y0102350D01*
X0250447Y0102350D02*
X0250726Y0102350D01*
X0250726Y0103348D02*
X0250447Y0103348D01*
X0250447Y0104347D02*
X0250726Y0104347D01*
X0250726Y0104927D02*
X0256417Y0104927D01*
X0256417Y0106264D01*
X0256315Y0106646D01*
X0256118Y0106988D01*
X0255838Y0107267D01*
X0255496Y0107465D01*
X0255115Y0107567D01*
X0250726Y0107567D01*
X0250726Y0104927D01*
X0250726Y0105345D02*
X0250447Y0105345D01*
X0250447Y0106344D02*
X0250726Y0106344D01*
X0250726Y0107342D02*
X0250447Y0107342D01*
X0255708Y0107342D02*
X0274400Y0107342D01*
X0274400Y0106344D02*
X0256396Y0106344D01*
X0256417Y0105345D02*
X0274400Y0105345D01*
X0274400Y0104347D02*
X0256417Y0104347D01*
X0256417Y0103348D02*
X0274400Y0103348D01*
X0274400Y0102350D02*
X0255880Y0102350D01*
X0239320Y0101351D02*
X0274400Y0101351D01*
X0274400Y0100353D02*
X0239320Y0100353D01*
X0239320Y0099354D02*
X0274400Y0099354D01*
X0274400Y0098356D02*
X0239320Y0098356D01*
X0239320Y0097357D02*
X0274400Y0097357D01*
X0274400Y0096359D02*
X0239320Y0096359D01*
X0239320Y0095360D02*
X0274400Y0095360D01*
X0274400Y0094362D02*
X0239320Y0094362D01*
X0239320Y0093363D02*
X0274400Y0093363D01*
X0274400Y0092365D02*
X0239320Y0092365D01*
X0239320Y0091366D02*
X0274400Y0091366D01*
X0274400Y0090368D02*
X0239320Y0090368D01*
X0239320Y0089369D02*
X0274400Y0089369D01*
X0274400Y0088370D02*
X0239320Y0088370D01*
X0232720Y0088370D02*
X0160997Y0088370D01*
X0160503Y0089369D02*
X0232720Y0089369D01*
X0232720Y0090368D02*
X0159504Y0090368D01*
X0158506Y0091366D02*
X0232720Y0091366D01*
X0232720Y0092365D02*
X0156349Y0092365D01*
X0150981Y0092365D02*
X0094212Y0092365D01*
X0094212Y0093363D02*
X0232720Y0093363D01*
X0232720Y0094362D02*
X0094212Y0094362D01*
X0094212Y0095360D02*
X0232720Y0095360D01*
X0232720Y0096359D02*
X0094212Y0096359D01*
X0094027Y0097357D02*
X0232720Y0097357D01*
X0232720Y0098356D02*
X0092646Y0098356D01*
X0092646Y0099354D02*
X0232720Y0099354D01*
X0232720Y0100353D02*
X0092646Y0100353D01*
X0092646Y0101351D02*
X0232720Y0101351D01*
X0251043Y0087372D02*
X0274400Y0087372D01*
X0274400Y0086373D02*
X0253026Y0086373D01*
X0254514Y0085375D02*
X0274400Y0085375D01*
X0274400Y0084376D02*
X0255512Y0084376D01*
X0256448Y0083378D02*
X0274400Y0083378D01*
X0274400Y0082379D02*
X0257025Y0082379D01*
X0257601Y0081381D02*
X0274400Y0081381D01*
X0274400Y0080382D02*
X0258030Y0080382D01*
X0258298Y0079384D02*
X0274400Y0079384D01*
X0274400Y0078385D02*
X0258565Y0078385D01*
X0258700Y0077387D02*
X0274400Y0077387D01*
X0274400Y0076388D02*
X0258700Y0076388D01*
X0258700Y0075390D02*
X0274400Y0075390D01*
X0274400Y0074391D02*
X0258590Y0074391D01*
X0258322Y0073393D02*
X0274400Y0073393D01*
X0274400Y0072394D02*
X0258055Y0072394D01*
X0257654Y0071396D02*
X0274400Y0071396D01*
X0274400Y0070397D02*
X0257077Y0070397D01*
X0256501Y0069399D02*
X0274400Y0069399D01*
X0274400Y0068400D02*
X0255604Y0068400D01*
X0254606Y0067402D02*
X0274400Y0067402D01*
X0274400Y0066403D02*
X0253185Y0066403D01*
X0251385Y0065405D02*
X0274400Y0065405D01*
X0274400Y0064406D02*
X0216189Y0064406D01*
X0215190Y0063408D02*
X0274400Y0063408D01*
X0274400Y0062409D02*
X0254146Y0062409D01*
X0254114Y0062426D02*
X0253182Y0062729D01*
X0252214Y0062882D01*
X0247500Y0062882D01*
X0247500Y0057158D01*
X0246500Y0057158D01*
X0246500Y0062882D01*
X0241786Y0062882D01*
X0240818Y0062729D01*
X0239886Y0062426D01*
X0239013Y0061981D01*
X0238221Y0061405D01*
X0237528Y0060712D01*
X0236952Y0059920D01*
X0236507Y0059047D01*
X0236204Y0058115D01*
X0236053Y0057157D01*
X0246500Y0057157D01*
X0246500Y0056157D01*
X0247500Y0056157D01*
X0247500Y0050433D01*
X0252214Y0050433D01*
X0253182Y0050586D01*
X0254114Y0050889D01*
X0254987Y0051334D01*
X0255779Y0051910D01*
X0256472Y0052603D01*
X0257048Y0053395D01*
X0257493Y0054268D01*
X0257796Y0055200D01*
X0257947Y0056157D01*
X0247500Y0056157D01*
X0247500Y0057157D01*
X0257947Y0057157D01*
X0257796Y0058115D01*
X0257493Y0059047D01*
X0257048Y0059920D01*
X0256472Y0060712D01*
X0255779Y0061405D01*
X0254987Y0061981D01*
X0254114Y0062426D01*
X0255772Y0061411D02*
X0274400Y0061411D01*
X0274400Y0060412D02*
X0256690Y0060412D01*
X0257306Y0059414D02*
X0274400Y0059414D01*
X0274400Y0058415D02*
X0257698Y0058415D01*
X0257906Y0057417D02*
X0274400Y0057417D01*
X0274400Y0056418D02*
X0247500Y0056418D01*
X0247500Y0055420D02*
X0246500Y0055420D01*
X0246500Y0056157D02*
X0246500Y0050433D01*
X0241786Y0050433D01*
X0240818Y0050586D01*
X0239886Y0050889D01*
X0239013Y0051334D01*
X0238221Y0051910D01*
X0237528Y0052603D01*
X0236952Y0053395D01*
X0236507Y0054268D01*
X0236204Y0055200D01*
X0236053Y0056157D01*
X0246500Y0056157D01*
X0246500Y0056418D02*
X0208201Y0056418D01*
X0209199Y0057417D02*
X0236094Y0057417D01*
X0236302Y0058415D02*
X0210198Y0058415D01*
X0211196Y0059414D02*
X0236694Y0059414D01*
X0237310Y0060412D02*
X0212195Y0060412D01*
X0213193Y0061411D02*
X0238228Y0061411D01*
X0239854Y0062409D02*
X0214192Y0062409D01*
X0207202Y0055420D02*
X0236170Y0055420D01*
X0236457Y0054421D02*
X0206204Y0054421D01*
X0205205Y0053423D02*
X0236938Y0053423D01*
X0237706Y0052424D02*
X0204207Y0052424D01*
X0203208Y0051426D02*
X0238887Y0051426D01*
X0246500Y0051426D02*
X0247500Y0051426D01*
X0247500Y0052424D02*
X0246500Y0052424D01*
X0246500Y0053423D02*
X0247500Y0053423D01*
X0247500Y0054421D02*
X0246500Y0054421D01*
X0246500Y0057417D02*
X0247500Y0057417D01*
X0247500Y0058415D02*
X0246500Y0058415D01*
X0246500Y0059414D02*
X0247500Y0059414D01*
X0247500Y0060412D02*
X0246500Y0060412D01*
X0246500Y0061411D02*
X0247500Y0061411D01*
X0247500Y0062409D02*
X0246500Y0062409D01*
X0257830Y0055420D02*
X0274400Y0055420D01*
X0274400Y0054421D02*
X0257542Y0054421D01*
X0257062Y0053423D02*
X0274400Y0053423D01*
X0274400Y0052424D02*
X0256294Y0052424D01*
X0255113Y0051426D02*
X0274400Y0051426D01*
X0274400Y0050427D02*
X0202210Y0050427D01*
X0201211Y0049429D02*
X0274400Y0049429D01*
X0274400Y0048430D02*
X0200213Y0048430D01*
X0199214Y0047432D02*
X0274400Y0047432D01*
X0274400Y0046433D02*
X0198216Y0046433D01*
X0197217Y0045434D02*
X0274400Y0045434D01*
X0274400Y0044436D02*
X0196218Y0044436D01*
X0195220Y0043437D02*
X0274400Y0043437D01*
X0274400Y0042439D02*
X0194221Y0042439D01*
X0192713Y0041440D02*
X0274400Y0041440D01*
X0274400Y0040442D02*
X0190672Y0040442D01*
X0182800Y0040442D02*
X0182042Y0040442D01*
X0181044Y0039443D02*
X0274400Y0039443D01*
X0274400Y0038445D02*
X0180045Y0038445D01*
X0179047Y0037446D02*
X0274400Y0037446D01*
X0274400Y0036448D02*
X0178048Y0036448D01*
X0177050Y0035449D02*
X0274400Y0035449D01*
X0274400Y0034451D02*
X0257637Y0034451D01*
X0257139Y0034500D02*
X0257000Y0034500D01*
X0257000Y0022000D01*
X0269500Y0022000D01*
X0269500Y0022139D01*
X0269375Y0023410D01*
X0269126Y0024663D01*
X0268755Y0025885D01*
X0268266Y0027065D01*
X0267664Y0028191D01*
X0266954Y0029253D01*
X0266144Y0030241D01*
X0265241Y0031144D01*
X0264253Y0031954D01*
X0263191Y0032664D01*
X0262065Y0033266D01*
X0260885Y0033755D01*
X0259663Y0034126D01*
X0258410Y0034375D01*
X0257139Y0034500D01*
X0257000Y0034451D02*
X0256000Y0034451D01*
X0256000Y0034500D02*
X0255861Y0034500D01*
X0254590Y0034375D01*
X0253337Y0034126D01*
X0252115Y0033755D01*
X0250935Y0033266D01*
X0249809Y0032664D01*
X0248747Y0031954D01*
X0247759Y0031144D01*
X0246856Y0030241D01*
X0246046Y0029253D01*
X0245336Y0028191D01*
X0244734Y0027065D01*
X0244245Y0025885D01*
X0243874Y0024663D01*
X0243625Y0023410D01*
X0243500Y0022139D01*
X0243500Y0022000D01*
X0256000Y0022000D01*
X0256000Y0034500D01*
X0255363Y0034451D02*
X0176051Y0034451D01*
X0175053Y0033452D02*
X0251385Y0033452D01*
X0249494Y0032454D02*
X0174054Y0032454D01*
X0173056Y0031455D02*
X0248139Y0031455D01*
X0247072Y0030457D02*
X0172057Y0030457D01*
X0171058Y0029458D02*
X0246214Y0029458D01*
X0245515Y0028460D02*
X0170060Y0028460D01*
X0169061Y0027461D02*
X0244946Y0027461D01*
X0244485Y0026463D02*
X0168063Y0026463D01*
X0167064Y0025464D02*
X0244118Y0025464D01*
X0243835Y0024466D02*
X0166066Y0024466D01*
X0165067Y0023467D02*
X0243637Y0023467D01*
X0243533Y0022469D02*
X0164069Y0022469D01*
X0163070Y0021470D02*
X0256000Y0021470D01*
X0256000Y0021000D02*
X0256000Y0022000D01*
X0257000Y0022000D01*
X0257000Y0021000D01*
X0269500Y0021000D01*
X0269500Y0020861D01*
X0269375Y0019590D01*
X0269126Y0018337D01*
X0268755Y0017115D01*
X0268266Y0015935D01*
X0267664Y0014809D01*
X0266954Y0013747D01*
X0266144Y0012759D01*
X0265241Y0011856D01*
X0264253Y0011046D01*
X0263191Y0010336D01*
X0262065Y0009734D01*
X0260885Y0009245D01*
X0259663Y0008874D01*
X0258410Y0008625D01*
X0257139Y0008500D01*
X0257000Y0008500D01*
X0257000Y0021000D01*
X0256000Y0021000D01*
X0256000Y0008500D01*
X0255861Y0008500D01*
X0254590Y0008625D01*
X0253337Y0008874D01*
X0252115Y0009245D01*
X0250935Y0009734D01*
X0249809Y0010336D01*
X0248747Y0011046D01*
X0247759Y0011856D01*
X0246856Y0012759D01*
X0246046Y0013747D01*
X0245336Y0014809D01*
X0244734Y0015935D01*
X0244245Y0017115D01*
X0243874Y0018337D01*
X0243625Y0019590D01*
X0243500Y0020861D01*
X0243500Y0021000D01*
X0256000Y0021000D01*
X0256000Y0020472D02*
X0257000Y0020472D01*
X0257000Y0021470D02*
X0274400Y0021470D01*
X0274400Y0020472D02*
X0269462Y0020472D01*
X0269352Y0019473D02*
X0274400Y0019473D01*
X0274400Y0018475D02*
X0269153Y0018475D01*
X0268864Y0017476D02*
X0274400Y0017476D01*
X0274400Y0016478D02*
X0268491Y0016478D01*
X0268022Y0015479D02*
X0274400Y0015479D01*
X0274400Y0014481D02*
X0267445Y0014481D01*
X0266737Y0013482D02*
X0274400Y0013482D01*
X0274400Y0012484D02*
X0265868Y0012484D01*
X0264789Y0011485D02*
X0274400Y0011485D01*
X0274400Y0010487D02*
X0263417Y0010487D01*
X0261471Y0009488D02*
X0274400Y0009488D01*
X0274400Y0008490D02*
X0003600Y0008490D01*
X0003600Y0009488D02*
X0016529Y0009488D01*
X0017115Y0009245D02*
X0015935Y0009734D01*
X0014809Y0010336D01*
X0013747Y0011046D01*
X0012759Y0011856D01*
X0011856Y0012759D01*
X0011046Y0013747D01*
X0010336Y0014809D01*
X0009734Y0015935D01*
X0009245Y0017115D01*
X0008874Y0018337D01*
X0008625Y0019590D01*
X0008500Y0020861D01*
X0008500Y0021000D01*
X0021000Y0021000D01*
X0022000Y0021000D01*
X0022000Y0022000D01*
X0034500Y0022000D01*
X0034500Y0022139D01*
X0034375Y0023410D01*
X0034126Y0024663D01*
X0033755Y0025885D01*
X0033266Y0027065D01*
X0032664Y0028191D01*
X0031954Y0029253D01*
X0031144Y0030241D01*
X0030241Y0031144D01*
X0029253Y0031954D01*
X0028191Y0032664D01*
X0027065Y0033266D01*
X0025885Y0033755D01*
X0024663Y0034126D01*
X0023410Y0034375D01*
X0022139Y0034500D01*
X0022000Y0034500D01*
X0022000Y0022000D01*
X0021000Y0022000D01*
X0021000Y0034500D01*
X0020861Y0034500D01*
X0019590Y0034375D01*
X0018337Y0034126D01*
X0017115Y0033755D01*
X0015935Y0033266D01*
X0014809Y0032664D01*
X0013747Y0031954D01*
X0012759Y0031144D01*
X0011856Y0030241D01*
X0011046Y0029253D01*
X0010336Y0028191D01*
X0009734Y0027065D01*
X0009245Y0025885D01*
X0008874Y0024663D01*
X0008625Y0023410D01*
X0008500Y0022139D01*
X0008500Y0022000D01*
X0021000Y0022000D01*
X0021000Y0021000D01*
X0021000Y0008500D01*
X0020861Y0008500D01*
X0019590Y0008625D01*
X0018337Y0008874D01*
X0017115Y0009245D01*
X0014583Y0010487D02*
X0003600Y0010487D01*
X0003600Y0011485D02*
X0013211Y0011485D01*
X0012132Y0012484D02*
X0003600Y0012484D01*
X0003600Y0013482D02*
X0011263Y0013482D01*
X0010555Y0014481D02*
X0003600Y0014481D01*
X0003600Y0015479D02*
X0009978Y0015479D01*
X0009509Y0016478D02*
X0003600Y0016478D01*
X0003600Y0017476D02*
X0009136Y0017476D01*
X0008847Y0018475D02*
X0003600Y0018475D01*
X0003600Y0019473D02*
X0008648Y0019473D01*
X0008538Y0020472D02*
X0003600Y0020472D01*
X0003600Y0021470D02*
X0021000Y0021470D01*
X0021000Y0020472D02*
X0022000Y0020472D01*
X0022000Y0021000D02*
X0022000Y0008500D01*
X0022139Y0008500D01*
X0023410Y0008625D01*
X0024663Y0008874D01*
X0025885Y0009245D01*
X0027065Y0009734D01*
X0028191Y0010336D01*
X0029253Y0011046D01*
X0030241Y0011856D01*
X0031144Y0012759D01*
X0031954Y0013747D01*
X0032664Y0014809D01*
X0033266Y0015935D01*
X0033755Y0017115D01*
X0034126Y0018337D01*
X0034375Y0019590D01*
X0034500Y0020861D01*
X0034500Y0021000D01*
X0022000Y0021000D01*
X0022000Y0021470D02*
X0063370Y0021470D01*
X0063395Y0021452D02*
X0064268Y0021007D01*
X0065200Y0020704D01*
X0066157Y0020553D01*
X0066157Y0031000D01*
X0060433Y0031000D01*
X0060433Y0026286D01*
X0060586Y0025318D01*
X0060889Y0024386D01*
X0061334Y0023513D01*
X0061910Y0022721D01*
X0062603Y0022028D01*
X0063395Y0021452D01*
X0062162Y0022469D02*
X0034467Y0022469D01*
X0034363Y0023467D02*
X0061367Y0023467D01*
X0060863Y0024466D02*
X0034165Y0024466D01*
X0033882Y0025464D02*
X0060563Y0025464D01*
X0060433Y0026463D02*
X0033515Y0026463D01*
X0033054Y0027461D02*
X0060433Y0027461D01*
X0060433Y0028460D02*
X0032485Y0028460D01*
X0031786Y0029458D02*
X0060433Y0029458D01*
X0060433Y0030457D02*
X0030928Y0030457D01*
X0029861Y0031455D02*
X0066157Y0031455D01*
X0066157Y0031000D02*
X0066157Y0032000D01*
X0060433Y0032000D01*
X0060433Y0036714D01*
X0060586Y0037682D01*
X0060889Y0038614D01*
X0061334Y0039487D01*
X0061910Y0040279D01*
X0062603Y0040972D01*
X0063395Y0041548D01*
X0064268Y0041993D01*
X0065200Y0042296D01*
X0066157Y0042447D01*
X0066157Y0032000D01*
X0067157Y0032000D01*
X0067157Y0042447D01*
X0068115Y0042296D01*
X0069047Y0041993D01*
X0069920Y0041548D01*
X0070712Y0040972D01*
X0071405Y0040279D01*
X0071981Y0039487D01*
X0072426Y0038614D01*
X0072729Y0037682D01*
X0072882Y0036714D01*
X0072882Y0032000D01*
X0067158Y0032000D01*
X0067158Y0031000D01*
X0072882Y0031000D01*
X0072882Y0026286D01*
X0072729Y0025318D01*
X0072426Y0024386D01*
X0071981Y0023513D01*
X0071405Y0022721D01*
X0070712Y0022028D01*
X0069920Y0021452D01*
X0069047Y0021007D01*
X0068115Y0020704D01*
X0067157Y0020553D01*
X0067157Y0031000D01*
X0066157Y0031000D01*
X0066157Y0030457D02*
X0067157Y0030457D01*
X0067158Y0031455D02*
X0074643Y0031455D01*
X0074643Y0030457D02*
X0072882Y0030457D01*
X0072882Y0029458D02*
X0074777Y0029458D01*
X0074643Y0029960D02*
X0074643Y0044802D01*
X0074643Y0047883D01*
X0075440Y0050859D01*
X0076980Y0053526D01*
X0082138Y0058684D01*
X0084316Y0060862D01*
X0086984Y0062403D01*
X0089960Y0063200D01*
X0117804Y0063200D01*
X0120780Y0062403D01*
X0123448Y0060862D01*
X0125626Y0058684D01*
X0127166Y0056016D01*
X0127964Y0053040D01*
X0127964Y0049960D01*
X0127166Y0046984D01*
X0125626Y0044316D01*
X0123448Y0042138D01*
X0120780Y0040597D01*
X0117804Y0039800D01*
X0098043Y0039800D01*
X0098043Y0029960D01*
X0097245Y0026984D01*
X0095705Y0024316D01*
X0093526Y0022138D01*
X0090859Y0020597D01*
X0087883Y0019800D01*
X0084802Y0019800D01*
X0081826Y0020597D01*
X0079159Y0022138D01*
X0076980Y0024316D01*
X0075440Y0026984D01*
X0074643Y0029960D01*
X0075044Y0028460D02*
X0072882Y0028460D01*
X0072882Y0027461D02*
X0075312Y0027461D01*
X0075741Y0026463D02*
X0072882Y0026463D01*
X0072752Y0025464D02*
X0076317Y0025464D01*
X0076894Y0024466D02*
X0072452Y0024466D01*
X0071948Y0023467D02*
X0077829Y0023467D01*
X0078827Y0022469D02*
X0071153Y0022469D01*
X0069945Y0021470D02*
X0080315Y0021470D01*
X0082295Y0020472D02*
X0034462Y0020472D01*
X0034352Y0019473D02*
X0145438Y0019473D01*
X0145438Y0018475D02*
X0034153Y0018475D01*
X0033864Y0017476D02*
X0145438Y0017476D01*
X0145568Y0016478D02*
X0033491Y0016478D01*
X0033022Y0015479D02*
X0145982Y0015479D01*
X0146395Y0014481D02*
X0032445Y0014481D01*
X0031737Y0013482D02*
X0146977Y0013482D01*
X0147975Y0012484D02*
X0030868Y0012484D01*
X0029789Y0011485D02*
X0148974Y0011485D01*
X0151341Y0010487D02*
X0028417Y0010487D01*
X0026471Y0009488D02*
X0251529Y0009488D01*
X0249583Y0010487D02*
X0155990Y0010487D01*
X0158357Y0011485D02*
X0248211Y0011485D01*
X0247132Y0012484D02*
X0159355Y0012484D01*
X0160354Y0013482D02*
X0246263Y0013482D01*
X0245555Y0014481D02*
X0160935Y0014481D01*
X0161349Y0015479D02*
X0244978Y0015479D01*
X0244509Y0016478D02*
X0161762Y0016478D01*
X0161893Y0017476D02*
X0244136Y0017476D01*
X0243847Y0018475D02*
X0161893Y0018475D01*
X0161893Y0019473D02*
X0243648Y0019473D01*
X0243538Y0020472D02*
X0162072Y0020472D01*
X0156334Y0027461D02*
X0097373Y0027461D01*
X0097641Y0028460D02*
X0157332Y0028460D01*
X0158331Y0029458D02*
X0097908Y0029458D01*
X0098043Y0030457D02*
X0159329Y0030457D01*
X0160328Y0031455D02*
X0098043Y0031455D01*
X0098043Y0032454D02*
X0161326Y0032454D01*
X0162325Y0033452D02*
X0098043Y0033452D01*
X0098043Y0034451D02*
X0163323Y0034451D01*
X0164322Y0035449D02*
X0098043Y0035449D01*
X0098043Y0036448D02*
X0165320Y0036448D01*
X0166319Y0037446D02*
X0098043Y0037446D01*
X0098043Y0038445D02*
X0167317Y0038445D01*
X0168316Y0039443D02*
X0098043Y0039443D01*
X0096944Y0026463D02*
X0151561Y0026463D01*
X0149150Y0025464D02*
X0096368Y0025464D01*
X0095791Y0024466D02*
X0148066Y0024466D01*
X0147068Y0023467D02*
X0094856Y0023467D01*
X0093858Y0022469D02*
X0146433Y0022469D01*
X0146020Y0021470D02*
X0092370Y0021470D01*
X0090390Y0020472D02*
X0145606Y0020472D01*
X0169314Y0040442D02*
X0120200Y0040442D01*
X0122240Y0041440D02*
X0170313Y0041440D01*
X0171311Y0042439D02*
X0123749Y0042439D01*
X0124748Y0043437D02*
X0153205Y0043437D01*
X0153604Y0043272D02*
X0156877Y0043272D01*
X0159901Y0044525D01*
X0162215Y0046839D01*
X0163468Y0049863D01*
X0163468Y0053137D01*
X0162215Y0056161D01*
X0159901Y0058475D01*
X0156877Y0059728D01*
X0153604Y0059728D01*
X0150580Y0058475D01*
X0148265Y0056161D01*
X0147013Y0053137D01*
X0147013Y0049863D01*
X0148265Y0046839D01*
X0150580Y0044525D01*
X0153604Y0043272D01*
X0150795Y0044436D02*
X0125695Y0044436D01*
X0126272Y0045434D02*
X0149670Y0045434D01*
X0148672Y0046433D02*
X0126848Y0046433D01*
X0127286Y0047432D02*
X0148020Y0047432D01*
X0147606Y0048430D02*
X0127554Y0048430D01*
X0127821Y0049429D02*
X0147193Y0049429D01*
X0147013Y0050427D02*
X0127964Y0050427D01*
X0127964Y0051426D02*
X0147013Y0051426D01*
X0147013Y0052424D02*
X0127964Y0052424D01*
X0127861Y0053423D02*
X0147131Y0053423D01*
X0147545Y0054421D02*
X0127594Y0054421D01*
X0127326Y0055420D02*
X0147958Y0055420D01*
X0148523Y0056418D02*
X0126934Y0056418D01*
X0126358Y0057417D02*
X0149521Y0057417D01*
X0150520Y0058415D02*
X0125781Y0058415D01*
X0124896Y0059414D02*
X0152846Y0059414D01*
X0157635Y0059414D02*
X0172459Y0059414D01*
X0173457Y0058415D02*
X0159961Y0058415D01*
X0160959Y0057417D02*
X0174456Y0057417D01*
X0175454Y0056418D02*
X0161958Y0056418D01*
X0162522Y0055420D02*
X0175674Y0055420D01*
X0175406Y0054421D02*
X0162936Y0054421D01*
X0163349Y0053423D02*
X0175139Y0053423D01*
X0175036Y0052424D02*
X0163468Y0052424D01*
X0163468Y0051426D02*
X0175036Y0051426D01*
X0175036Y0050427D02*
X0163468Y0050427D01*
X0163288Y0049429D02*
X0175179Y0049429D01*
X0175446Y0048430D02*
X0162874Y0048430D01*
X0162460Y0047432D02*
X0175714Y0047432D01*
X0175305Y0046433D02*
X0161809Y0046433D01*
X0160810Y0045434D02*
X0174307Y0045434D01*
X0173308Y0044436D02*
X0159686Y0044436D01*
X0157275Y0043437D02*
X0172310Y0043437D01*
X0171460Y0060412D02*
X0123898Y0060412D01*
X0122498Y0061411D02*
X0170462Y0061411D01*
X0169463Y0062409D02*
X0120755Y0062409D01*
X0146495Y0080382D02*
X0091077Y0080382D01*
X0090079Y0079384D02*
X0147217Y0079384D01*
X0148215Y0078385D02*
X0089080Y0078385D01*
X0088082Y0077387D02*
X0149509Y0077387D01*
X0151920Y0076388D02*
X0087083Y0076388D01*
X0090264Y0072394D02*
X0082678Y0072394D01*
X0078984Y0072394D02*
X0075835Y0072394D01*
X0075835Y0073047D02*
X0075835Y0074532D01*
X0075732Y0074914D01*
X0075535Y0075256D01*
X0075256Y0075535D01*
X0074914Y0075732D01*
X0074532Y0075835D01*
X0072850Y0075835D01*
X0072850Y0073047D01*
X0072276Y0073047D01*
X0072276Y0075835D01*
X0070594Y0075835D01*
X0070212Y0075732D01*
X0069870Y0075535D01*
X0069591Y0075256D01*
X0069394Y0074914D01*
X0069291Y0074532D01*
X0069291Y0073047D01*
X0072276Y0073047D01*
X0072276Y0072472D01*
X0072850Y0072472D01*
X0072850Y0073047D01*
X0075835Y0073047D01*
X0075835Y0073393D02*
X0077574Y0073393D01*
X0076833Y0074391D02*
X0075835Y0074391D01*
X0075401Y0075390D02*
X0076420Y0075390D01*
X0076331Y0076388D02*
X0053800Y0076388D01*
X0053800Y0077387D02*
X0069666Y0077387D01*
X0069091Y0078385D02*
X0053800Y0078385D01*
X0053800Y0079384D02*
X0069091Y0079384D01*
X0069091Y0080382D02*
X0053800Y0080382D01*
X0053800Y0081381D02*
X0069091Y0081381D01*
X0069091Y0082379D02*
X0053800Y0082379D01*
X0053800Y0083378D02*
X0069950Y0083378D01*
X0070263Y0084376D02*
X0053800Y0084376D01*
X0053800Y0085375D02*
X0070263Y0085375D01*
X0070263Y0086373D02*
X0053800Y0086373D01*
X0053800Y0087372D02*
X0070263Y0087372D01*
X0070263Y0088370D02*
X0053800Y0088370D01*
X0053800Y0089369D02*
X0070263Y0089369D01*
X0070263Y0090368D02*
X0053800Y0090368D01*
X0053800Y0091366D02*
X0062532Y0091366D01*
X0061988Y0092365D02*
X0053800Y0092365D01*
X0053800Y0093363D02*
X0061988Y0093363D01*
X0061988Y0094984D02*
X0065169Y0094984D01*
X0065169Y0097968D01*
X0063291Y0097968D01*
X0062909Y0097866D01*
X0062567Y0097669D01*
X0062288Y0097390D01*
X0062090Y0097047D01*
X0061988Y0096666D01*
X0061988Y0094984D01*
X0061988Y0095360D02*
X0053800Y0095360D01*
X0053800Y0094362D02*
X0065169Y0094362D01*
X0065169Y0095360D02*
X0066138Y0095360D01*
X0066138Y0096359D02*
X0065169Y0096359D01*
X0065169Y0097357D02*
X0066138Y0097357D01*
X0062269Y0097357D02*
X0053800Y0097357D01*
X0053800Y0096359D02*
X0061988Y0096359D01*
X0065169Y0093363D02*
X0066138Y0093363D01*
X0066138Y0092365D02*
X0065169Y0092365D01*
X0065169Y0091366D02*
X0066138Y0091366D01*
X0068775Y0091366D02*
X0068942Y0091366D01*
X0074863Y0090368D02*
X0147826Y0090368D01*
X0148825Y0091366D02*
X0093750Y0091366D01*
X0088169Y0089369D02*
X0074863Y0089369D01*
X0074863Y0088370D02*
X0086337Y0088370D01*
X0085339Y0087372D02*
X0074863Y0087372D01*
X0074863Y0086373D02*
X0084340Y0086373D01*
X0083342Y0085375D02*
X0074863Y0085375D01*
X0074863Y0084376D02*
X0082343Y0084376D01*
X0081345Y0083378D02*
X0075176Y0083378D01*
X0076035Y0082379D02*
X0080346Y0082379D01*
X0079348Y0081381D02*
X0076035Y0081381D01*
X0076035Y0080382D02*
X0078349Y0080382D01*
X0077351Y0079384D02*
X0076035Y0079384D01*
X0076035Y0078385D02*
X0076741Y0078385D01*
X0076331Y0077387D02*
X0075460Y0077387D01*
X0072850Y0075390D02*
X0072276Y0075390D01*
X0072276Y0074391D02*
X0072850Y0074391D01*
X0072850Y0073393D02*
X0072276Y0073393D01*
X0072276Y0072472D02*
X0069291Y0072472D01*
X0069291Y0070988D01*
X0069394Y0070606D01*
X0069591Y0070264D01*
X0069870Y0069985D01*
X0070212Y0069787D01*
X0070594Y0069685D01*
X0072276Y0069685D01*
X0072276Y0072472D01*
X0072276Y0072394D02*
X0072850Y0072394D01*
X0072850Y0071396D02*
X0072276Y0071396D01*
X0072276Y0070397D02*
X0072850Y0070397D01*
X0069514Y0070397D02*
X0048650Y0070397D01*
X0049648Y0071396D02*
X0069291Y0071396D01*
X0069291Y0072394D02*
X0050647Y0072394D01*
X0051645Y0073393D02*
X0069291Y0073393D01*
X0069291Y0074391D02*
X0052644Y0074391D01*
X0053643Y0075390D02*
X0069725Y0075390D01*
X0086906Y0065405D02*
X0003600Y0065405D01*
X0003600Y0066403D02*
X0023433Y0066403D01*
X0022261Y0067402D02*
X0003600Y0067402D01*
X0003600Y0068400D02*
X0021301Y0068400D01*
X0020888Y0069399D02*
X0003600Y0069399D01*
X0003600Y0070397D02*
X0020474Y0070397D01*
X0020351Y0071396D02*
X0003600Y0071396D01*
X0003600Y0072394D02*
X0020351Y0072394D01*
X0020410Y0073393D02*
X0003600Y0073393D01*
X0003600Y0074391D02*
X0020824Y0074391D01*
X0021237Y0075390D02*
X0003600Y0075390D01*
X0003600Y0076388D02*
X0022106Y0076388D01*
X0023105Y0077387D02*
X0003600Y0077387D01*
X0003600Y0078385D02*
X0025470Y0078385D01*
X0025155Y0085375D02*
X0003600Y0085375D01*
X0003600Y0086373D02*
X0022974Y0086373D01*
X0021976Y0087372D02*
X0003600Y0087372D01*
X0003600Y0088370D02*
X0021183Y0088370D01*
X0020770Y0089369D02*
X0003600Y0089369D01*
X0003600Y0090368D02*
X0020356Y0090368D01*
X0020351Y0091366D02*
X0003600Y0091366D01*
X0003600Y0092365D02*
X0020351Y0092365D01*
X0020528Y0093363D02*
X0003600Y0093363D01*
X0003600Y0094362D02*
X0020386Y0094362D01*
X0019387Y0095360D02*
X0003600Y0095360D01*
X0003600Y0096359D02*
X0018389Y0096359D01*
X0017390Y0097357D02*
X0003600Y0097357D01*
X0003600Y0098356D02*
X0016392Y0098356D01*
X0015393Y0099354D02*
X0003600Y0099354D01*
X0003600Y0100353D02*
X0014395Y0100353D01*
X0014200Y0101351D02*
X0003600Y0101351D01*
X0003600Y0102350D02*
X0014200Y0102350D01*
X0014200Y0103348D02*
X0003600Y0103348D01*
X0003600Y0104347D02*
X0014200Y0104347D01*
X0014200Y0105345D02*
X0003600Y0105345D01*
X0003600Y0106344D02*
X0014200Y0106344D01*
X0014200Y0107342D02*
X0003600Y0107342D01*
X0003600Y0108341D02*
X0014200Y0108341D01*
X0014200Y0109339D02*
X0003600Y0109339D01*
X0003600Y0110338D02*
X0014200Y0110338D01*
X0014200Y0111336D02*
X0003600Y0111336D01*
X0003600Y0112335D02*
X0014200Y0112335D01*
X0014200Y0113333D02*
X0003600Y0113333D01*
X0003600Y0114332D02*
X0014200Y0114332D01*
X0014200Y0115330D02*
X0003600Y0115330D01*
X0003600Y0116329D02*
X0014200Y0116329D01*
X0014200Y0117327D02*
X0003600Y0117327D01*
X0003600Y0118326D02*
X0014200Y0118326D01*
X0014200Y0119324D02*
X0003600Y0119324D01*
X0003600Y0120323D02*
X0014200Y0120323D01*
X0014200Y0121321D02*
X0003600Y0121321D01*
X0003600Y0122320D02*
X0014200Y0122320D01*
X0014200Y0123318D02*
X0003600Y0123318D01*
X0003600Y0124317D02*
X0014200Y0124317D01*
X0014200Y0125315D02*
X0003600Y0125315D01*
X0003600Y0126314D02*
X0014200Y0126314D01*
X0014200Y0127312D02*
X0003600Y0127312D01*
X0003600Y0128311D02*
X0014200Y0128311D01*
X0014200Y0129309D02*
X0003600Y0129309D01*
X0003600Y0130308D02*
X0014200Y0130308D01*
X0014200Y0131306D02*
X0003600Y0131306D01*
X0003600Y0132305D02*
X0014200Y0132305D01*
X0014200Y0133303D02*
X0003600Y0133303D01*
X0003600Y0134302D02*
X0014200Y0134302D01*
X0014200Y0135301D02*
X0003600Y0135301D01*
X0003600Y0136299D02*
X0014200Y0136299D01*
X0014200Y0137298D02*
X0003600Y0137298D01*
X0003600Y0138296D02*
X0014200Y0138296D01*
X0014200Y0139295D02*
X0003600Y0139295D01*
X0003600Y0140293D02*
X0014200Y0140293D01*
X0014200Y0141292D02*
X0003600Y0141292D01*
X0003600Y0142290D02*
X0014200Y0142290D01*
X0014200Y0143289D02*
X0003600Y0143289D01*
X0003600Y0144287D02*
X0014200Y0144287D01*
X0014200Y0145286D02*
X0003600Y0145286D01*
X0003600Y0146284D02*
X0014200Y0146284D01*
X0014200Y0147283D02*
X0003600Y0147283D01*
X0003600Y0148281D02*
X0014200Y0148281D01*
X0014200Y0149280D02*
X0003600Y0149280D01*
X0003600Y0150278D02*
X0014200Y0150278D01*
X0014200Y0151277D02*
X0003600Y0151277D01*
X0003600Y0152275D02*
X0014200Y0152275D01*
X0014200Y0153274D02*
X0003600Y0153274D01*
X0003600Y0154272D02*
X0014200Y0154272D01*
X0014200Y0155271D02*
X0003600Y0155271D01*
X0003600Y0156269D02*
X0014200Y0156269D01*
X0014200Y0157268D02*
X0003600Y0157268D01*
X0003600Y0158266D02*
X0014200Y0158266D01*
X0014200Y0159265D02*
X0003600Y0159265D01*
X0003600Y0160263D02*
X0014200Y0160263D01*
X0014200Y0161262D02*
X0003600Y0161262D01*
X0003600Y0162260D02*
X0014200Y0162260D01*
X0015006Y0163259D02*
X0003600Y0163259D01*
X0003600Y0164257D02*
X0016005Y0164257D01*
X0017003Y0165256D02*
X0003600Y0165256D01*
X0003600Y0166254D02*
X0018002Y0166254D01*
X0019000Y0167253D02*
X0003600Y0167253D01*
X0003600Y0168251D02*
X0019999Y0168251D01*
X0020896Y0169250D02*
X0003600Y0169250D01*
X0003600Y0170248D02*
X0021309Y0170248D01*
X0022280Y0171247D02*
X0003600Y0171247D01*
X0003600Y0172245D02*
X0023478Y0172245D01*
X0025318Y0180271D02*
X0024386Y0180574D01*
X0023513Y0181019D01*
X0022721Y0181595D01*
X0022028Y0182288D01*
X0021452Y0183080D01*
X0021007Y0183953D01*
X0020704Y0184885D01*
X0020553Y0185843D01*
X0031000Y0185843D01*
X0031000Y0186842D01*
X0020553Y0186842D01*
X0020704Y0187800D01*
X0021007Y0188732D01*
X0021452Y0189605D01*
X0022028Y0190397D01*
X0022721Y0191090D01*
X0023513Y0191666D01*
X0024386Y0192111D01*
X0025318Y0192414D01*
X0026286Y0192567D01*
X0031000Y0192567D01*
X0031000Y0186843D01*
X0032000Y0186843D01*
X0032000Y0192567D01*
X0036714Y0192567D01*
X0037682Y0192414D01*
X0038614Y0192111D01*
X0039487Y0191666D01*
X0040279Y0191090D01*
X0040972Y0190397D01*
X0041548Y0189605D01*
X0041993Y0188732D01*
X0042296Y0187800D01*
X0042447Y0186842D01*
X0032000Y0186842D01*
X0032000Y0185843D01*
X0042447Y0185843D01*
X0042296Y0184885D01*
X0041993Y0183953D01*
X0041548Y0183080D01*
X0040972Y0182288D01*
X0040279Y0181595D01*
X0039487Y0181019D01*
X0038614Y0180574D01*
X0037682Y0180271D01*
X0036714Y0180118D01*
X0032000Y0180118D01*
X0032000Y0185842D01*
X0031000Y0185842D01*
X0031000Y0180118D01*
X0026286Y0180118D01*
X0025318Y0180271D01*
X0025557Y0180234D02*
X0003600Y0180234D01*
X0003600Y0181232D02*
X0023220Y0181232D01*
X0022085Y0182231D02*
X0003600Y0182231D01*
X0003600Y0183229D02*
X0021376Y0183229D01*
X0020918Y0184228D02*
X0003600Y0184228D01*
X0003600Y0185226D02*
X0020650Y0185226D01*
X0020613Y0187223D02*
X0003600Y0187223D01*
X0003600Y0186225D02*
X0031000Y0186225D01*
X0031000Y0187223D02*
X0032000Y0187223D01*
X0032000Y0186225D02*
X0049200Y0186225D01*
X0049200Y0187223D02*
X0042387Y0187223D01*
X0042159Y0188222D02*
X0049200Y0188222D01*
X0049200Y0189220D02*
X0041744Y0189220D01*
X0041102Y0190219D02*
X0049200Y0190219D01*
X0049200Y0191217D02*
X0040105Y0191217D01*
X0038291Y0192216D02*
X0049200Y0192216D01*
X0049200Y0193214D02*
X0003600Y0193214D01*
X0003600Y0192216D02*
X0024709Y0192216D01*
X0022895Y0191217D02*
X0003600Y0191217D01*
X0003600Y0190219D02*
X0021898Y0190219D01*
X0021256Y0189220D02*
X0003600Y0189220D01*
X0003600Y0188222D02*
X0020841Y0188222D01*
X0031000Y0188222D02*
X0032000Y0188222D01*
X0032000Y0189220D02*
X0031000Y0189220D01*
X0031000Y0190219D02*
X0032000Y0190219D01*
X0032000Y0191217D02*
X0031000Y0191217D01*
X0031000Y0192216D02*
X0032000Y0192216D01*
X0032000Y0185226D02*
X0031000Y0185226D01*
X0031000Y0184228D02*
X0032000Y0184228D01*
X0032000Y0183229D02*
X0031000Y0183229D01*
X0031000Y0182231D02*
X0032000Y0182231D01*
X0032000Y0181232D02*
X0031000Y0181232D01*
X0031000Y0180234D02*
X0032000Y0180234D01*
X0037443Y0180234D02*
X0049200Y0180234D01*
X0049200Y0181232D02*
X0039780Y0181232D01*
X0040915Y0182231D02*
X0049200Y0182231D01*
X0049200Y0183229D02*
X0041624Y0183229D01*
X0042082Y0184228D02*
X0049200Y0184228D01*
X0049200Y0185226D02*
X0042350Y0185226D01*
X0049200Y0179235D02*
X0003600Y0179235D01*
X0003600Y0178237D02*
X0049200Y0178237D01*
X0048985Y0177238D02*
X0003600Y0177238D01*
X0003600Y0176239D02*
X0047987Y0176239D01*
X0046988Y0175241D02*
X0003600Y0175241D01*
X0003600Y0174242D02*
X0045990Y0174242D01*
X0044991Y0173244D02*
X0003600Y0173244D01*
X0018800Y0160263D02*
X0025425Y0160263D01*
X0023086Y0161262D02*
X0019514Y0161262D01*
X0020513Y0162260D02*
X0022087Y0162260D01*
X0018800Y0159265D02*
X0059200Y0159265D01*
X0059200Y0160263D02*
X0037575Y0160263D01*
X0039914Y0161262D02*
X0059200Y0161262D01*
X0059200Y0162260D02*
X0040913Y0162260D01*
X0041770Y0163259D02*
X0059200Y0163259D01*
X0059200Y0164257D02*
X0042184Y0164257D01*
X0043509Y0165256D02*
X0059200Y0165256D01*
X0059200Y0166254D02*
X0044507Y0166254D01*
X0045506Y0167253D02*
X0059200Y0167253D01*
X0059200Y0168251D02*
X0046504Y0168251D01*
X0047503Y0169250D02*
X0059200Y0169250D01*
X0059200Y0170248D02*
X0048501Y0170248D01*
X0049500Y0171247D02*
X0059200Y0171247D01*
X0059200Y0172245D02*
X0050498Y0172245D01*
X0051497Y0173244D02*
X0059200Y0173244D01*
X0059200Y0174242D02*
X0052495Y0174242D01*
X0053494Y0175241D02*
X0059200Y0175241D01*
X0059200Y0176239D02*
X0053800Y0176239D01*
X0053800Y0177238D02*
X0059200Y0177238D01*
X0059200Y0178237D02*
X0053800Y0178237D01*
X0053800Y0179235D02*
X0059200Y0179235D01*
X0059200Y0180234D02*
X0053800Y0180234D01*
X0053800Y0181232D02*
X0059200Y0181232D01*
X0059200Y0182231D02*
X0053800Y0182231D01*
X0053800Y0183229D02*
X0059976Y0183229D01*
X0060975Y0184228D02*
X0053800Y0184228D01*
X0053800Y0185226D02*
X0061973Y0185226D01*
X0062972Y0186225D02*
X0053800Y0186225D01*
X0053800Y0187223D02*
X0063970Y0187223D01*
X0064969Y0188222D02*
X0053800Y0188222D01*
X0053800Y0189220D02*
X0065967Y0189220D01*
X0066966Y0190219D02*
X0053800Y0190219D01*
X0053800Y0191217D02*
X0067964Y0191217D01*
X0068963Y0192216D02*
X0053800Y0192216D01*
X0053800Y0193214D02*
X0069961Y0193214D01*
X0071474Y0188222D02*
X0072531Y0188222D01*
X0072531Y0186225D02*
X0069477Y0186225D01*
X0070476Y0187223D02*
X0075516Y0187223D01*
X0076484Y0187223D02*
X0079831Y0187223D01*
X0079468Y0186862D02*
X0076484Y0186862D01*
X0076484Y0187831D01*
X0079468Y0187831D01*
X0079468Y0189200D01*
X0079831Y0189200D01*
X0079831Y0184477D01*
X0080308Y0184000D01*
X0079831Y0183523D01*
X0079831Y0182854D01*
X0079668Y0182854D01*
X0079668Y0183523D01*
X0079050Y0184141D01*
X0079169Y0184260D01*
X0079366Y0184602D01*
X0079468Y0184984D01*
X0079468Y0186862D01*
X0079468Y0186225D02*
X0079831Y0186225D01*
X0079831Y0185226D02*
X0079468Y0185226D01*
X0079136Y0184228D02*
X0080081Y0184228D01*
X0079831Y0183229D02*
X0079668Y0183229D01*
X0076000Y0180654D02*
X0083500Y0180654D01*
X0087168Y0180234D02*
X0154514Y0180234D01*
X0153515Y0181232D02*
X0087168Y0181232D01*
X0087168Y0182231D02*
X0152517Y0182231D01*
X0151518Y0183229D02*
X0102756Y0183229D01*
X0102591Y0183134D02*
X0102933Y0183331D01*
X0103212Y0183610D01*
X0103410Y0183953D01*
X0103512Y0184334D01*
X0103512Y0186016D01*
X0100331Y0186016D01*
X0100331Y0183031D01*
X0102209Y0183031D01*
X0102591Y0183134D01*
X0103483Y0184228D02*
X0108520Y0184228D01*
X0107521Y0185226D02*
X0103512Y0185226D01*
X0103512Y0187223D02*
X0105524Y0187223D01*
X0104526Y0188222D02*
X0103512Y0188222D01*
X0103700Y0189220D02*
X0103310Y0189220D01*
X0103700Y0190219D02*
X0095500Y0190219D01*
X0098371Y0191217D02*
X0103700Y0191217D01*
X0103700Y0192216D02*
X0099250Y0192216D01*
X0099250Y0193214D02*
X0103700Y0193214D01*
X0103700Y0194213D02*
X0099250Y0194213D01*
X0099250Y0195211D02*
X0103700Y0195211D01*
X0103700Y0196210D02*
X0098944Y0196210D01*
X0099250Y0197208D02*
X0103700Y0197208D01*
X0103700Y0198207D02*
X0099250Y0198207D01*
X0099250Y0199205D02*
X0103700Y0199205D01*
X0103700Y0200204D02*
X0099250Y0200204D01*
X0098952Y0201202D02*
X0103700Y0201202D01*
X0103700Y0202201D02*
X0099250Y0202201D01*
X0099250Y0203199D02*
X0103700Y0203199D01*
X0103700Y0204198D02*
X0099250Y0204198D01*
X0099250Y0205196D02*
X0103700Y0205196D01*
X0103700Y0206195D02*
X0098959Y0206195D01*
X0099250Y0207193D02*
X0103700Y0207193D01*
X0104439Y0208192D02*
X0099250Y0208192D01*
X0099250Y0209190D02*
X0105438Y0209190D01*
X0106436Y0210189D02*
X0099250Y0210189D01*
X0098967Y0211187D02*
X0107435Y0211187D01*
X0106821Y0213184D02*
X0087168Y0213184D01*
X0087168Y0214183D02*
X0106029Y0214183D01*
X0105988Y0215181D02*
X0087168Y0215181D01*
X0087168Y0216180D02*
X0109169Y0216180D01*
X0109169Y0216984D02*
X0105988Y0216984D01*
X0105988Y0218666D01*
X0106090Y0219047D01*
X0106288Y0219390D01*
X0106567Y0219669D01*
X0106909Y0219866D01*
X0107291Y0219968D01*
X0109169Y0219968D01*
X0109169Y0216984D01*
X0109169Y0217178D02*
X0110138Y0217178D01*
X0110138Y0218177D02*
X0109169Y0218177D01*
X0109169Y0219175D02*
X0110138Y0219175D01*
X0106164Y0219175D02*
X0086867Y0219175D01*
X0087168Y0218177D02*
X0105988Y0218177D01*
X0105988Y0217178D02*
X0087168Y0217178D01*
X0087168Y0220174D02*
X0244030Y0220174D01*
X0243874Y0219663D02*
X0243625Y0218410D01*
X0243500Y0217139D01*
X0243500Y0217000D01*
X0256000Y0217000D01*
X0256000Y0229500D01*
X0255861Y0229500D01*
X0254590Y0229375D01*
X0253337Y0229126D01*
X0252115Y0228755D01*
X0250935Y0228266D01*
X0249809Y0227664D01*
X0248747Y0226954D01*
X0247759Y0226144D01*
X0246856Y0225241D01*
X0246046Y0224253D01*
X0245336Y0223191D01*
X0244734Y0222065D01*
X0244245Y0220885D01*
X0243874Y0219663D01*
X0243778Y0219175D02*
X0120209Y0219175D01*
X0120212Y0218177D02*
X0243602Y0218177D01*
X0243504Y0217178D02*
X0120212Y0217178D01*
X0120921Y0216180D02*
X0256000Y0216180D01*
X0256000Y0216000D02*
X0243500Y0216000D01*
X0243500Y0215861D01*
X0243625Y0214590D01*
X0243874Y0213337D01*
X0244245Y0212115D01*
X0244734Y0210935D01*
X0245336Y0209809D01*
X0246046Y0208747D01*
X0246856Y0207759D01*
X0247759Y0206856D01*
X0248747Y0206046D01*
X0249809Y0205336D01*
X0250935Y0204734D01*
X0252115Y0204245D01*
X0253337Y0203874D01*
X0254590Y0203625D01*
X0255861Y0203500D01*
X0256000Y0203500D01*
X0256000Y0216000D01*
X0257000Y0216000D01*
X0257000Y0217000D01*
X0269500Y0217000D01*
X0269500Y0217139D01*
X0269375Y0218410D01*
X0269126Y0219663D01*
X0268755Y0220885D01*
X0268266Y0222065D01*
X0267664Y0223191D01*
X0266954Y0224253D01*
X0266144Y0225241D01*
X0265241Y0226144D01*
X0264253Y0226954D01*
X0263191Y0227664D01*
X0262065Y0228266D01*
X0260885Y0228755D01*
X0259663Y0229126D01*
X0258410Y0229375D01*
X0257139Y0229500D01*
X0257000Y0229500D01*
X0257000Y0217000D01*
X0256000Y0217000D01*
X0256000Y0216000D01*
X0256000Y0215181D02*
X0257000Y0215181D01*
X0257000Y0216000D02*
X0257000Y0203500D01*
X0257139Y0203500D01*
X0258410Y0203625D01*
X0259663Y0203874D01*
X0260885Y0204245D01*
X0262065Y0204734D01*
X0263191Y0205336D01*
X0264253Y0206046D01*
X0265241Y0206856D01*
X0266144Y0207759D01*
X0266954Y0208747D01*
X0267664Y0209809D01*
X0268266Y0210935D01*
X0268755Y0212115D01*
X0269126Y0213337D01*
X0269375Y0214590D01*
X0269500Y0215861D01*
X0269500Y0216000D01*
X0257000Y0216000D01*
X0257000Y0216180D02*
X0274400Y0216180D01*
X0274400Y0217178D02*
X0269496Y0217178D01*
X0269398Y0218177D02*
X0274400Y0218177D01*
X0274400Y0219175D02*
X0269222Y0219175D01*
X0268970Y0220174D02*
X0274400Y0220174D01*
X0274400Y0221172D02*
X0268636Y0221172D01*
X0268209Y0222171D02*
X0274400Y0222171D01*
X0274400Y0223170D02*
X0267676Y0223170D01*
X0267011Y0224168D02*
X0274400Y0224168D01*
X0274400Y0225167D02*
X0266205Y0225167D01*
X0265215Y0226165D02*
X0274400Y0226165D01*
X0274400Y0227164D02*
X0263940Y0227164D01*
X0262259Y0228162D02*
X0274400Y0228162D01*
X0274400Y0229161D02*
X0259487Y0229161D01*
X0257000Y0229161D02*
X0256000Y0229161D01*
X0256000Y0228162D02*
X0257000Y0228162D01*
X0257000Y0227164D02*
X0256000Y0227164D01*
X0256000Y0226165D02*
X0257000Y0226165D01*
X0257000Y0225167D02*
X0256000Y0225167D01*
X0256000Y0224168D02*
X0257000Y0224168D01*
X0257000Y0223170D02*
X0256000Y0223170D01*
X0256000Y0222171D02*
X0257000Y0222171D01*
X0257000Y0221172D02*
X0256000Y0221172D01*
X0256000Y0220174D02*
X0257000Y0220174D01*
X0257000Y0219175D02*
X0256000Y0219175D01*
X0256000Y0218177D02*
X0257000Y0218177D01*
X0257000Y0217178D02*
X0256000Y0217178D01*
X0256000Y0214183D02*
X0257000Y0214183D01*
X0257000Y0213184D02*
X0256000Y0213184D01*
X0256000Y0212186D02*
X0257000Y0212186D01*
X0257000Y0211187D02*
X0256000Y0211187D01*
X0256000Y0210189D02*
X0257000Y0210189D01*
X0257000Y0209190D02*
X0256000Y0209190D01*
X0256000Y0208192D02*
X0257000Y0208192D01*
X0257000Y0207193D02*
X0256000Y0207193D01*
X0256000Y0206195D02*
X0257000Y0206195D01*
X0257000Y0205196D02*
X0256000Y0205196D01*
X0256000Y0204198D02*
X0257000Y0204198D01*
X0260729Y0204198D02*
X0274400Y0204198D01*
X0274400Y0205196D02*
X0262930Y0205196D01*
X0264435Y0206195D02*
X0274400Y0206195D01*
X0274400Y0207193D02*
X0265578Y0207193D01*
X0266499Y0208192D02*
X0274400Y0208192D01*
X0274400Y0209190D02*
X0267251Y0209190D01*
X0267867Y0210189D02*
X0274400Y0210189D01*
X0274400Y0211187D02*
X0268371Y0211187D01*
X0268776Y0212186D02*
X0274400Y0212186D01*
X0274400Y0213184D02*
X0269079Y0213184D01*
X0269294Y0214183D02*
X0274400Y0214183D01*
X0274400Y0215181D02*
X0269433Y0215181D01*
X0274400Y0203199D02*
X0163902Y0203199D01*
X0164900Y0202201D02*
X0274400Y0202201D01*
X0274400Y0201202D02*
X0165899Y0201202D01*
X0166897Y0200204D02*
X0274400Y0200204D01*
X0274400Y0199205D02*
X0167896Y0199205D01*
X0168894Y0198207D02*
X0274400Y0198207D01*
X0274400Y0197208D02*
X0169893Y0197208D01*
X0170891Y0196210D02*
X0274400Y0196210D01*
X0274400Y0195211D02*
X0171890Y0195211D01*
X0172889Y0194213D02*
X0274400Y0194213D01*
X0274400Y0193214D02*
X0173887Y0193214D01*
X0174886Y0192216D02*
X0274400Y0192216D01*
X0274400Y0191217D02*
X0175884Y0191217D01*
X0176883Y0190219D02*
X0274400Y0190219D01*
X0274400Y0189220D02*
X0177881Y0189220D01*
X0178880Y0188222D02*
X0274400Y0188222D01*
X0274400Y0187223D02*
X0221205Y0187223D01*
X0221468Y0186225D02*
X0274400Y0186225D01*
X0274400Y0185226D02*
X0227809Y0185226D01*
X0228808Y0184228D02*
X0242203Y0184228D01*
X0242354Y0184315D02*
X0242012Y0184118D01*
X0241733Y0183838D01*
X0241535Y0183496D01*
X0241433Y0183115D01*
X0241433Y0178726D01*
X0244073Y0178726D01*
X0244073Y0178447D01*
X0244352Y0178447D01*
X0244352Y0172756D01*
X0245690Y0172756D01*
X0246071Y0172858D01*
X0246413Y0173056D01*
X0246692Y0173335D01*
X0246890Y0173677D01*
X0246992Y0174058D01*
X0246992Y0178447D01*
X0244352Y0178447D01*
X0244352Y0178726D01*
X0246992Y0178726D01*
X0246992Y0183115D01*
X0246890Y0183496D01*
X0246692Y0183838D01*
X0246413Y0184118D01*
X0246071Y0184315D01*
X0245690Y0184417D01*
X0244352Y0184417D01*
X0244352Y0178726D01*
X0244073Y0178726D01*
X0244073Y0184417D01*
X0242736Y0184417D01*
X0242354Y0184315D01*
X0241464Y0183229D02*
X0229642Y0183229D01*
X0229905Y0182231D02*
X0241433Y0182231D01*
X0241433Y0181232D02*
X0231152Y0181232D01*
X0231168Y0180234D02*
X0241433Y0180234D01*
X0241433Y0179235D02*
X0231168Y0179235D01*
X0231168Y0178237D02*
X0241433Y0178237D01*
X0241433Y0178447D02*
X0241433Y0174058D01*
X0241535Y0173677D01*
X0241733Y0173335D01*
X0242012Y0173056D01*
X0242354Y0172858D01*
X0242736Y0172756D01*
X0244073Y0172756D01*
X0244073Y0178447D01*
X0241433Y0178447D01*
X0241433Y0177238D02*
X0231168Y0177238D01*
X0231168Y0176239D02*
X0241433Y0176239D01*
X0241433Y0175241D02*
X0230933Y0175241D01*
X0231168Y0174242D02*
X0241433Y0174242D01*
X0241824Y0173244D02*
X0231168Y0173244D01*
X0231168Y0172245D02*
X0274400Y0172245D01*
X0274400Y0171247D02*
X0231168Y0171247D01*
X0231168Y0170248D02*
X0274400Y0170248D01*
X0274400Y0169250D02*
X0246997Y0169250D01*
X0247192Y0168251D02*
X0274400Y0168251D01*
X0274400Y0167253D02*
X0247192Y0167253D01*
X0247192Y0166254D02*
X0274400Y0166254D01*
X0274400Y0165256D02*
X0247272Y0165256D01*
X0247513Y0164257D02*
X0274400Y0164257D01*
X0274400Y0163259D02*
X0247513Y0163259D01*
X0247513Y0162260D02*
X0274400Y0162260D01*
X0274400Y0161262D02*
X0247513Y0161262D01*
X0247513Y0160263D02*
X0274400Y0160263D01*
X0274400Y0159265D02*
X0247513Y0159265D01*
X0247513Y0158266D02*
X0274400Y0158266D01*
X0274400Y0157268D02*
X0247513Y0157268D01*
X0247513Y0156269D02*
X0274400Y0156269D01*
X0274400Y0155271D02*
X0247513Y0155271D01*
X0240913Y0155271D02*
X0224400Y0155271D01*
X0224400Y0156269D02*
X0240913Y0156269D01*
X0240913Y0157268D02*
X0224400Y0157268D01*
X0224400Y0158266D02*
X0240913Y0158266D01*
X0240913Y0159265D02*
X0224400Y0159265D01*
X0224400Y0160263D02*
X0240913Y0160263D01*
X0240913Y0161262D02*
X0224400Y0161262D01*
X0224400Y0162260D02*
X0240913Y0162260D01*
X0240913Y0163259D02*
X0224400Y0163259D01*
X0224400Y0164257D02*
X0240913Y0164257D01*
X0241153Y0165256D02*
X0224400Y0165256D01*
X0224400Y0166254D02*
X0241233Y0166254D01*
X0241233Y0167253D02*
X0224400Y0167253D01*
X0218600Y0167253D02*
X0215836Y0167253D01*
X0215792Y0167530D02*
X0215578Y0168189D01*
X0215263Y0168806D01*
X0214856Y0169366D01*
X0214366Y0169856D01*
X0213806Y0170263D01*
X0213189Y0170578D01*
X0212530Y0170792D01*
X0211950Y0170884D01*
X0211950Y0166950D01*
X0211050Y0166950D01*
X0211050Y0170884D01*
X0210470Y0170792D01*
X0209811Y0170578D01*
X0209194Y0170263D01*
X0208634Y0169856D01*
X0208144Y0169366D01*
X0207737Y0168806D01*
X0207422Y0168189D01*
X0207208Y0167530D01*
X0207116Y0166950D01*
X0211050Y0166950D01*
X0211050Y0166050D01*
X0207116Y0166050D01*
X0207208Y0165470D01*
X0207422Y0164811D01*
X0207737Y0164194D01*
X0208144Y0163634D01*
X0208634Y0163144D01*
X0209194Y0162737D01*
X0209811Y0162422D01*
X0210470Y0162208D01*
X0211050Y0162116D01*
X0211050Y0166050D01*
X0211950Y0166050D01*
X0211950Y0166950D01*
X0215884Y0166950D01*
X0215792Y0167530D01*
X0215546Y0168251D02*
X0218600Y0168251D01*
X0218600Y0169250D02*
X0214941Y0169250D01*
X0213826Y0170248D02*
X0218600Y0170248D01*
X0217652Y0171247D02*
X0173800Y0171247D01*
X0173800Y0172245D02*
X0216653Y0172245D01*
X0215655Y0173244D02*
X0173800Y0173244D01*
X0173800Y0174242D02*
X0184656Y0174242D01*
X0183658Y0175241D02*
X0173800Y0175241D01*
X0173800Y0176239D02*
X0182659Y0176239D01*
X0181661Y0177238D02*
X0173800Y0177238D01*
X0173016Y0178237D02*
X0180662Y0178237D01*
X0179664Y0179235D02*
X0172018Y0179235D01*
X0171019Y0180234D02*
X0178665Y0180234D01*
X0177667Y0181232D02*
X0170021Y0181232D01*
X0169022Y0182231D02*
X0176668Y0182231D01*
X0175670Y0183229D02*
X0168024Y0183229D01*
X0167025Y0184228D02*
X0174671Y0184228D01*
X0173673Y0185226D02*
X0166027Y0185226D01*
X0165028Y0186225D02*
X0172674Y0186225D01*
X0171676Y0187223D02*
X0164030Y0187223D01*
X0163031Y0188222D02*
X0170677Y0188222D01*
X0169679Y0189220D02*
X0162033Y0189220D01*
X0161034Y0190219D02*
X0168680Y0190219D01*
X0167682Y0191217D02*
X0160036Y0191217D01*
X0159037Y0192216D02*
X0166683Y0192216D01*
X0165685Y0193214D02*
X0158038Y0193214D01*
X0157040Y0194213D02*
X0164686Y0194213D01*
X0163688Y0195211D02*
X0156041Y0195211D01*
X0155043Y0196210D02*
X0162689Y0196210D01*
X0161691Y0197208D02*
X0119540Y0197208D01*
X0119650Y0198207D02*
X0160692Y0198207D01*
X0159694Y0199205D02*
X0119650Y0199205D01*
X0119650Y0200204D02*
X0158695Y0200204D01*
X0162903Y0204198D02*
X0252271Y0204198D01*
X0250070Y0205196D02*
X0161905Y0205196D01*
X0160355Y0206195D02*
X0248565Y0206195D01*
X0247422Y0207193D02*
X0124400Y0207193D01*
X0124400Y0208192D02*
X0246501Y0208192D01*
X0245749Y0209190D02*
X0124400Y0209190D01*
X0124400Y0210189D02*
X0245133Y0210189D01*
X0244629Y0211187D02*
X0124400Y0211187D01*
X0124355Y0212186D02*
X0244224Y0212186D01*
X0243921Y0213184D02*
X0123917Y0213184D01*
X0122918Y0214183D02*
X0243706Y0214183D01*
X0243567Y0215181D02*
X0121920Y0215181D01*
X0116713Y0212186D02*
X0086570Y0212186D01*
X0085800Y0211187D02*
X0087433Y0211187D01*
X0087150Y0210189D02*
X0085800Y0210189D01*
X0085800Y0209190D02*
X0087150Y0209190D01*
X0087150Y0208192D02*
X0086236Y0208192D01*
X0086909Y0207193D02*
X0087150Y0207193D01*
X0084677Y0204000D02*
X0083437Y0205240D01*
X0084677Y0204000D02*
X0093200Y0204000D01*
X0093200Y0199000D02*
X0084677Y0199000D01*
X0083437Y0197760D01*
X0083500Y0197697D01*
X0083500Y0196500D01*
X0081200Y0194213D02*
X0053800Y0194213D01*
X0053800Y0195211D02*
X0080235Y0195211D01*
X0079965Y0196210D02*
X0054462Y0196210D01*
X0055461Y0197208D02*
X0079965Y0197208D01*
X0079965Y0198207D02*
X0056459Y0198207D01*
X0057458Y0199205D02*
X0072081Y0199205D01*
X0072000Y0199346D02*
X0072197Y0199004D01*
X0072477Y0198725D01*
X0072819Y0198527D01*
X0073200Y0198425D01*
X0074882Y0198425D01*
X0074882Y0201213D01*
X0071898Y0201213D01*
X0071898Y0199728D01*
X0072000Y0199346D01*
X0071898Y0200204D02*
X0058456Y0200204D01*
X0059455Y0201202D02*
X0071898Y0201202D01*
X0071898Y0201787D02*
X0071898Y0203272D01*
X0072000Y0203654D01*
X0072197Y0203996D01*
X0072477Y0204275D01*
X0072819Y0204473D01*
X0073200Y0204575D01*
X0074882Y0204575D01*
X0074882Y0201787D01*
X0074882Y0201213D01*
X0075457Y0201213D01*
X0075457Y0201787D01*
X0078441Y0201787D01*
X0078441Y0203272D01*
X0078339Y0203654D01*
X0078141Y0203996D01*
X0077862Y0204275D01*
X0077520Y0204473D01*
X0077138Y0204575D01*
X0075457Y0204575D01*
X0075457Y0201787D01*
X0074882Y0201787D01*
X0071898Y0201787D01*
X0071898Y0202201D02*
X0060453Y0202201D01*
X0061452Y0203199D02*
X0071898Y0203199D01*
X0072399Y0204198D02*
X0062450Y0204198D01*
X0063449Y0205196D02*
X0079965Y0205196D01*
X0079965Y0204198D02*
X0077939Y0204198D01*
X0078441Y0203199D02*
X0079965Y0203199D01*
X0080726Y0202201D02*
X0078441Y0202201D01*
X0078441Y0201213D02*
X0075457Y0201213D01*
X0075457Y0198425D01*
X0077138Y0198425D01*
X0077520Y0198527D01*
X0077862Y0198725D01*
X0078141Y0199004D01*
X0078339Y0199346D01*
X0078441Y0199728D01*
X0078441Y0201213D01*
X0078441Y0201202D02*
X0087448Y0201202D01*
X0087456Y0196210D02*
X0086909Y0196210D01*
X0087150Y0195211D02*
X0086639Y0195211D01*
X0087150Y0194213D02*
X0085800Y0194213D01*
X0085800Y0193214D02*
X0087150Y0193214D01*
X0087150Y0192216D02*
X0085800Y0192216D01*
X0085800Y0191217D02*
X0088029Y0191217D01*
X0087166Y0190219D02*
X0090900Y0190219D01*
X0089336Y0189220D02*
X0087168Y0189220D01*
X0087168Y0188222D02*
X0089288Y0188222D01*
X0089288Y0187223D02*
X0087168Y0187223D01*
X0087168Y0186225D02*
X0089288Y0186225D01*
X0089288Y0185226D02*
X0087168Y0185226D01*
X0086919Y0184228D02*
X0089288Y0184228D01*
X0089886Y0183229D02*
X0087168Y0183229D01*
X0087168Y0179235D02*
X0155512Y0179235D01*
X0156511Y0178237D02*
X0087168Y0178237D01*
X0086622Y0177238D02*
X0157509Y0177238D01*
X0158508Y0176239D02*
X0063800Y0176239D01*
X0063800Y0175241D02*
X0159200Y0175241D01*
X0159200Y0174242D02*
X0063800Y0174242D01*
X0063800Y0173244D02*
X0159200Y0173244D01*
X0159200Y0172245D02*
X0063800Y0172245D01*
X0063800Y0171247D02*
X0159200Y0171247D01*
X0158743Y0170248D02*
X0154257Y0170248D01*
X0154106Y0170400D02*
X0152415Y0171100D01*
X0150585Y0171100D01*
X0148894Y0170400D01*
X0147600Y0169106D01*
X0146900Y0167415D01*
X0146900Y0165585D01*
X0147600Y0163894D01*
X0148894Y0162600D01*
X0150585Y0161900D01*
X0152415Y0161900D01*
X0154106Y0162600D01*
X0155400Y0163894D01*
X0156100Y0165585D01*
X0156100Y0167415D01*
X0155400Y0169106D01*
X0154106Y0170400D01*
X0155255Y0169250D02*
X0157745Y0169250D01*
X0157246Y0168251D02*
X0155754Y0168251D01*
X0156100Y0167253D02*
X0156900Y0167253D01*
X0156900Y0166254D02*
X0156100Y0166254D01*
X0155964Y0165256D02*
X0157036Y0165256D01*
X0157450Y0164257D02*
X0155550Y0164257D01*
X0154764Y0163259D02*
X0158236Y0163259D01*
X0159715Y0162260D02*
X0153285Y0162260D01*
X0149715Y0162260D02*
X0143285Y0162260D01*
X0144106Y0162600D02*
X0145400Y0163894D01*
X0146100Y0165585D01*
X0146100Y0167415D01*
X0145400Y0169106D01*
X0144106Y0170400D01*
X0142415Y0171100D01*
X0140585Y0171100D01*
X0138894Y0170400D01*
X0137600Y0169106D01*
X0136900Y0167415D01*
X0136900Y0165585D01*
X0137600Y0163894D01*
X0138894Y0162600D01*
X0140585Y0161900D01*
X0142415Y0161900D01*
X0144106Y0162600D01*
X0144764Y0163259D02*
X0148236Y0163259D01*
X0147450Y0164257D02*
X0145550Y0164257D01*
X0145964Y0165256D02*
X0147036Y0165256D01*
X0146900Y0166254D02*
X0146100Y0166254D01*
X0146100Y0167253D02*
X0146900Y0167253D01*
X0147246Y0168251D02*
X0145754Y0168251D01*
X0145255Y0169250D02*
X0147745Y0169250D01*
X0148743Y0170248D02*
X0144257Y0170248D01*
X0138743Y0170248D02*
X0134257Y0170248D01*
X0134106Y0170400D02*
X0132415Y0171100D01*
X0130585Y0171100D01*
X0128894Y0170400D01*
X0127600Y0169106D01*
X0126900Y0167415D01*
X0126900Y0165585D01*
X0127600Y0163894D01*
X0128894Y0162600D01*
X0130585Y0161900D01*
X0132415Y0161900D01*
X0134106Y0162600D01*
X0135400Y0163894D01*
X0136100Y0165585D01*
X0136100Y0167415D01*
X0135400Y0169106D01*
X0134106Y0170400D01*
X0135255Y0169250D02*
X0137745Y0169250D01*
X0137246Y0168251D02*
X0135754Y0168251D01*
X0136100Y0167253D02*
X0136900Y0167253D01*
X0136900Y0166254D02*
X0136100Y0166254D01*
X0135964Y0165256D02*
X0137036Y0165256D01*
X0137450Y0164257D02*
X0135550Y0164257D01*
X0134764Y0163259D02*
X0138236Y0163259D01*
X0139715Y0162260D02*
X0133285Y0162260D01*
X0129715Y0162260D02*
X0123285Y0162260D01*
X0124106Y0162600D02*
X0125400Y0163894D01*
X0126100Y0165585D01*
X0126100Y0167415D01*
X0125400Y0169106D01*
X0124106Y0170400D01*
X0122415Y0171100D01*
X0120585Y0171100D01*
X0118894Y0170400D01*
X0117600Y0169106D01*
X0116900Y0167415D01*
X0116900Y0165585D01*
X0117600Y0163894D01*
X0118894Y0162600D01*
X0120585Y0161900D01*
X0122415Y0161900D01*
X0124106Y0162600D01*
X0124764Y0163259D02*
X0128236Y0163259D01*
X0127450Y0164257D02*
X0125550Y0164257D01*
X0125964Y0165256D02*
X0127036Y0165256D01*
X0126900Y0166254D02*
X0126100Y0166254D01*
X0126100Y0167253D02*
X0126900Y0167253D01*
X0127246Y0168251D02*
X0125754Y0168251D01*
X0125255Y0169250D02*
X0127745Y0169250D01*
X0128743Y0170248D02*
X0124257Y0170248D01*
X0118743Y0170248D02*
X0114257Y0170248D01*
X0114106Y0170400D02*
X0112415Y0171100D01*
X0110585Y0171100D01*
X0108894Y0170400D01*
X0107600Y0169106D01*
X0106900Y0167415D01*
X0106900Y0165585D01*
X0107600Y0163894D01*
X0108894Y0162600D01*
X0110585Y0161900D01*
X0112415Y0161900D01*
X0114106Y0162600D01*
X0115400Y0163894D01*
X0116100Y0165585D01*
X0116100Y0167415D01*
X0115400Y0169106D01*
X0114106Y0170400D01*
X0115255Y0169250D02*
X0117745Y0169250D01*
X0117246Y0168251D02*
X0115754Y0168251D01*
X0116100Y0167253D02*
X0116900Y0167253D01*
X0116900Y0166254D02*
X0116100Y0166254D01*
X0115964Y0165256D02*
X0117036Y0165256D01*
X0117450Y0164257D02*
X0115550Y0164257D01*
X0114764Y0163259D02*
X0118236Y0163259D01*
X0119715Y0162260D02*
X0113285Y0162260D01*
X0109715Y0162260D02*
X0103285Y0162260D01*
X0104106Y0162600D02*
X0105400Y0163894D01*
X0106100Y0165585D01*
X0106100Y0167415D01*
X0105400Y0169106D01*
X0104106Y0170400D01*
X0102415Y0171100D01*
X0100585Y0171100D01*
X0098894Y0170400D01*
X0097600Y0169106D01*
X0096900Y0167415D01*
X0096900Y0165585D01*
X0097600Y0163894D01*
X0098894Y0162600D01*
X0100585Y0161900D01*
X0102415Y0161900D01*
X0104106Y0162600D01*
X0104764Y0163259D02*
X0108236Y0163259D01*
X0107450Y0164257D02*
X0105550Y0164257D01*
X0105964Y0165256D02*
X0107036Y0165256D01*
X0106900Y0166254D02*
X0106100Y0166254D01*
X0106100Y0167253D02*
X0106900Y0167253D01*
X0107246Y0168251D02*
X0105754Y0168251D01*
X0105255Y0169250D02*
X0107745Y0169250D01*
X0108743Y0170248D02*
X0104257Y0170248D01*
X0098743Y0170248D02*
X0094257Y0170248D01*
X0094106Y0170400D02*
X0092415Y0171100D01*
X0090585Y0171100D01*
X0088894Y0170400D01*
X0087600Y0169106D01*
X0086900Y0167415D01*
X0086900Y0165585D01*
X0087600Y0163894D01*
X0088894Y0162600D01*
X0090585Y0161900D01*
X0092415Y0161900D01*
X0094106Y0162600D01*
X0095400Y0163894D01*
X0096100Y0165585D01*
X0096100Y0167415D01*
X0095400Y0169106D01*
X0094106Y0170400D01*
X0095255Y0169250D02*
X0097745Y0169250D01*
X0097246Y0168251D02*
X0095754Y0168251D01*
X0096100Y0167253D02*
X0096900Y0167253D01*
X0096900Y0166254D02*
X0096100Y0166254D01*
X0095964Y0165256D02*
X0097036Y0165256D01*
X0097450Y0164257D02*
X0095550Y0164257D01*
X0094764Y0163259D02*
X0098236Y0163259D01*
X0099715Y0162260D02*
X0093285Y0162260D01*
X0089715Y0162260D02*
X0083285Y0162260D01*
X0084106Y0162600D02*
X0082415Y0161900D01*
X0080585Y0161900D01*
X0078894Y0162600D01*
X0077600Y0163894D01*
X0076900Y0165585D01*
X0076900Y0167415D01*
X0077600Y0169106D01*
X0078894Y0170400D01*
X0080585Y0171100D01*
X0082415Y0171100D01*
X0084106Y0170400D01*
X0085400Y0169106D01*
X0086100Y0167415D01*
X0086100Y0165585D01*
X0085400Y0163894D01*
X0084106Y0162600D01*
X0084764Y0163259D02*
X0088236Y0163259D01*
X0087450Y0164257D02*
X0085550Y0164257D01*
X0085964Y0165256D02*
X0087036Y0165256D01*
X0086900Y0166254D02*
X0086100Y0166254D01*
X0086100Y0167253D02*
X0086900Y0167253D01*
X0087246Y0168251D02*
X0085754Y0168251D01*
X0085255Y0169250D02*
X0087745Y0169250D01*
X0088743Y0170248D02*
X0084257Y0170248D01*
X0078743Y0170248D02*
X0063800Y0170248D01*
X0063800Y0169250D02*
X0077745Y0169250D01*
X0077246Y0168251D02*
X0063800Y0168251D01*
X0063800Y0167253D02*
X0076900Y0167253D01*
X0076900Y0166254D02*
X0063800Y0166254D01*
X0063800Y0165256D02*
X0077036Y0165256D01*
X0077450Y0164257D02*
X0063800Y0164257D01*
X0063800Y0163259D02*
X0078236Y0163259D01*
X0079715Y0162260D02*
X0063800Y0162260D01*
X0063800Y0161262D02*
X0218600Y0161262D01*
X0218600Y0162260D02*
X0212690Y0162260D01*
X0212530Y0162208D02*
X0213189Y0162422D01*
X0213806Y0162737D01*
X0214366Y0163144D01*
X0214856Y0163634D01*
X0215263Y0164194D01*
X0215578Y0164811D01*
X0215792Y0165470D01*
X0215884Y0166050D01*
X0211950Y0166050D01*
X0211950Y0162116D01*
X0212530Y0162208D01*
X0211950Y0162260D02*
X0211050Y0162260D01*
X0210310Y0162260D02*
X0203285Y0162260D01*
X0204106Y0162600D02*
X0205400Y0163894D01*
X0206100Y0165585D01*
X0206100Y0167415D01*
X0205400Y0169106D01*
X0204106Y0170400D01*
X0202415Y0171100D01*
X0200585Y0171100D01*
X0198894Y0170400D01*
X0197600Y0169106D01*
X0196900Y0167415D01*
X0196900Y0165585D01*
X0197600Y0163894D01*
X0198894Y0162600D01*
X0200585Y0161900D01*
X0202415Y0161900D01*
X0204106Y0162600D01*
X0204764Y0163259D02*
X0208519Y0163259D01*
X0207704Y0164257D02*
X0205550Y0164257D01*
X0205964Y0165256D02*
X0207278Y0165256D01*
X0206100Y0166254D02*
X0211050Y0166254D01*
X0211950Y0166254D02*
X0218600Y0166254D01*
X0218600Y0165256D02*
X0215722Y0165256D01*
X0215296Y0164257D02*
X0218600Y0164257D01*
X0218600Y0163259D02*
X0214481Y0163259D01*
X0211950Y0163259D02*
X0211050Y0163259D01*
X0211050Y0164257D02*
X0211950Y0164257D01*
X0211950Y0165256D02*
X0211050Y0165256D01*
X0211050Y0167253D02*
X0211950Y0167253D01*
X0211950Y0168251D02*
X0211050Y0168251D01*
X0211050Y0169250D02*
X0211950Y0169250D01*
X0211950Y0170248D02*
X0211050Y0170248D01*
X0209174Y0170248D02*
X0204257Y0170248D01*
X0205255Y0169250D02*
X0208059Y0169250D01*
X0207454Y0168251D02*
X0205754Y0168251D01*
X0206100Y0167253D02*
X0207164Y0167253D01*
X0198743Y0170248D02*
X0194257Y0170248D01*
X0194106Y0170400D02*
X0192415Y0171100D01*
X0190585Y0171100D01*
X0188894Y0170400D01*
X0187600Y0169106D01*
X0186900Y0167415D01*
X0186900Y0165585D01*
X0187600Y0163894D01*
X0188894Y0162600D01*
X0190585Y0161900D01*
X0192415Y0161900D01*
X0194106Y0162600D01*
X0195400Y0163894D01*
X0196100Y0165585D01*
X0196100Y0167415D01*
X0195400Y0169106D01*
X0194106Y0170400D01*
X0195255Y0169250D02*
X0197745Y0169250D01*
X0197246Y0168251D02*
X0195754Y0168251D01*
X0196100Y0167253D02*
X0196900Y0167253D01*
X0196900Y0166254D02*
X0196100Y0166254D01*
X0195964Y0165256D02*
X0197036Y0165256D01*
X0197450Y0164257D02*
X0195550Y0164257D01*
X0194764Y0163259D02*
X0198236Y0163259D01*
X0199715Y0162260D02*
X0193285Y0162260D01*
X0189715Y0162260D02*
X0183285Y0162260D01*
X0184106Y0162600D02*
X0182415Y0161900D01*
X0180585Y0161900D01*
X0178894Y0162600D01*
X0177600Y0163894D01*
X0176900Y0165585D01*
X0176900Y0167415D01*
X0177600Y0169106D01*
X0178894Y0170400D01*
X0180585Y0171100D01*
X0182415Y0171100D01*
X0184106Y0170400D01*
X0185400Y0169106D01*
X0186100Y0167415D01*
X0186100Y0165585D01*
X0185400Y0163894D01*
X0184106Y0162600D01*
X0184764Y0163259D02*
X0188236Y0163259D01*
X0187450Y0164257D02*
X0185550Y0164257D01*
X0185964Y0165256D02*
X0187036Y0165256D01*
X0186900Y0166254D02*
X0186100Y0166254D01*
X0186100Y0167253D02*
X0186900Y0167253D01*
X0187246Y0168251D02*
X0185754Y0168251D01*
X0185255Y0169250D02*
X0187745Y0169250D01*
X0188743Y0170248D02*
X0184257Y0170248D01*
X0178743Y0170248D02*
X0174257Y0170248D01*
X0175255Y0169250D02*
X0177745Y0169250D01*
X0177246Y0168251D02*
X0175754Y0168251D01*
X0176100Y0167253D02*
X0176900Y0167253D01*
X0176900Y0166254D02*
X0176100Y0166254D01*
X0175964Y0165256D02*
X0177036Y0165256D01*
X0177450Y0164257D02*
X0175550Y0164257D01*
X0174764Y0163259D02*
X0178236Y0163259D01*
X0179715Y0162260D02*
X0173285Y0162260D01*
X0169715Y0162260D02*
X0163285Y0162260D01*
X0164764Y0163259D02*
X0168236Y0163259D01*
X0167450Y0164257D02*
X0165550Y0164257D01*
X0165964Y0165256D02*
X0167036Y0165256D01*
X0166900Y0166254D02*
X0166100Y0166254D01*
X0166100Y0167253D02*
X0166900Y0167253D01*
X0167246Y0168251D02*
X0165754Y0168251D01*
X0165255Y0169250D02*
X0167745Y0169250D01*
X0168743Y0170248D02*
X0164257Y0170248D01*
X0163800Y0171247D02*
X0169200Y0171247D01*
X0169200Y0172245D02*
X0163800Y0172245D01*
X0163800Y0173244D02*
X0169200Y0173244D01*
X0169200Y0174242D02*
X0163800Y0174242D01*
X0163800Y0175241D02*
X0169200Y0175241D01*
X0168508Y0176239D02*
X0163800Y0176239D01*
X0163800Y0177238D02*
X0167509Y0177238D01*
X0166511Y0178237D02*
X0163016Y0178237D01*
X0162018Y0179235D02*
X0165512Y0179235D01*
X0164514Y0180234D02*
X0161019Y0180234D01*
X0160021Y0181232D02*
X0163515Y0181232D01*
X0162517Y0182231D02*
X0159022Y0182231D01*
X0158024Y0183229D02*
X0161518Y0183229D01*
X0160520Y0184228D02*
X0157025Y0184228D01*
X0156027Y0185226D02*
X0159521Y0185226D01*
X0158523Y0186225D02*
X0155028Y0186225D01*
X0154030Y0187223D02*
X0157524Y0187223D01*
X0156526Y0188222D02*
X0153031Y0188222D01*
X0154529Y0190219D02*
X0109034Y0190219D01*
X0108629Y0191217D02*
X0108300Y0191217D01*
X0110033Y0189220D02*
X0155527Y0189220D01*
X0153530Y0191217D02*
X0118971Y0191217D01*
X0106523Y0186225D02*
X0100331Y0186225D01*
X0100331Y0187223D02*
X0099362Y0187223D01*
X0099362Y0188222D02*
X0100331Y0188222D01*
X0100331Y0189220D02*
X0099362Y0189220D01*
X0099362Y0185226D02*
X0100331Y0185226D01*
X0100331Y0184228D02*
X0099362Y0184228D01*
X0099362Y0183229D02*
X0100331Y0183229D01*
X0096937Y0183229D02*
X0096421Y0183229D01*
X0080378Y0177238D02*
X0079122Y0177238D01*
X0079668Y0178237D02*
X0079831Y0178237D01*
X0072878Y0177238D02*
X0063800Y0177238D01*
X0063800Y0178237D02*
X0072331Y0178237D01*
X0072331Y0179235D02*
X0063800Y0179235D01*
X0063800Y0180234D02*
X0072331Y0180234D01*
X0072331Y0181232D02*
X0064485Y0181232D01*
X0065483Y0182231D02*
X0072331Y0182231D01*
X0072331Y0183229D02*
X0066482Y0183229D01*
X0067480Y0184228D02*
X0072864Y0184228D01*
X0072531Y0185226D02*
X0068479Y0185226D01*
X0079468Y0188222D02*
X0079831Y0188222D01*
X0079965Y0199205D02*
X0078257Y0199205D01*
X0078441Y0200204D02*
X0080130Y0200204D01*
X0075457Y0200204D02*
X0074882Y0200204D01*
X0074882Y0201202D02*
X0075457Y0201202D01*
X0075457Y0202201D02*
X0074882Y0202201D01*
X0074882Y0203199D02*
X0075457Y0203199D01*
X0075457Y0204198D02*
X0074882Y0204198D01*
X0074882Y0199205D02*
X0075457Y0199205D01*
X0079965Y0206195D02*
X0064448Y0206195D01*
X0065446Y0207193D02*
X0079965Y0207193D01*
X0080638Y0208192D02*
X0066445Y0208192D01*
X0067443Y0209190D02*
X0081200Y0209190D01*
X0079831Y0213800D02*
X0078968Y0213800D01*
X0078968Y0215169D01*
X0075984Y0215169D01*
X0075984Y0216138D01*
X0078968Y0216138D01*
X0078968Y0218016D01*
X0078866Y0218398D01*
X0078669Y0218740D01*
X0078550Y0218859D01*
X0079168Y0219477D01*
X0079168Y0220146D01*
X0079831Y0220146D01*
X0079831Y0219477D01*
X0080308Y0219000D01*
X0079831Y0218523D01*
X0079831Y0213800D01*
X0079831Y0214183D02*
X0078968Y0214183D01*
X0079831Y0215181D02*
X0075984Y0215181D01*
X0075016Y0215181D02*
X0034433Y0215181D01*
X0034375Y0214590D02*
X0034500Y0215861D01*
X0034500Y0216000D01*
X0022000Y0216000D01*
X0022000Y0217000D01*
X0034500Y0217000D01*
X0034500Y0217139D01*
X0034375Y0218410D01*
X0034126Y0219663D01*
X0033755Y0220885D01*
X0033266Y0222065D01*
X0032664Y0223191D01*
X0031954Y0224253D01*
X0031144Y0225241D01*
X0030241Y0226144D01*
X0029253Y0226954D01*
X0028191Y0227664D01*
X0027065Y0228266D01*
X0025885Y0228755D01*
X0024663Y0229126D01*
X0023410Y0229375D01*
X0022139Y0229500D01*
X0022000Y0229500D01*
X0022000Y0217000D01*
X0021000Y0217000D01*
X0021000Y0229500D01*
X0020861Y0229500D01*
X0019590Y0229375D01*
X0018337Y0229126D01*
X0017115Y0228755D01*
X0015935Y0228266D01*
X0014809Y0227664D01*
X0013747Y0226954D01*
X0012759Y0226144D01*
X0011856Y0225241D01*
X0011046Y0224253D01*
X0010336Y0223191D01*
X0009734Y0222065D01*
X0009245Y0220885D01*
X0008874Y0219663D01*
X0008625Y0218410D01*
X0008500Y0217139D01*
X0008500Y0217000D01*
X0021000Y0217000D01*
X0021000Y0216000D01*
X0022000Y0216000D01*
X0022000Y0203500D01*
X0022139Y0203500D01*
X0023410Y0203625D01*
X0024663Y0203874D01*
X0025885Y0204245D01*
X0027065Y0204734D01*
X0028191Y0205336D01*
X0029253Y0206046D01*
X0030241Y0206856D01*
X0031144Y0207759D01*
X0031954Y0208747D01*
X0032664Y0209809D01*
X0033266Y0210935D01*
X0033755Y0212115D01*
X0034126Y0213337D01*
X0034375Y0214590D01*
X0034294Y0214183D02*
X0072031Y0214183D01*
X0072031Y0216180D02*
X0022000Y0216180D01*
X0022000Y0217178D02*
X0021000Y0217178D01*
X0021000Y0216180D02*
X0003600Y0216180D01*
X0003600Y0217178D02*
X0008504Y0217178D01*
X0008602Y0218177D02*
X0003600Y0218177D01*
X0003600Y0219175D02*
X0008778Y0219175D01*
X0009030Y0220174D02*
X0003600Y0220174D01*
X0003600Y0221172D02*
X0009364Y0221172D01*
X0009791Y0222171D02*
X0003600Y0222171D01*
X0003600Y0223170D02*
X0010324Y0223170D01*
X0010989Y0224168D02*
X0003600Y0224168D01*
X0003600Y0225167D02*
X0011795Y0225167D01*
X0012785Y0226165D02*
X0003600Y0226165D01*
X0003600Y0227164D02*
X0014060Y0227164D01*
X0015741Y0228162D02*
X0003600Y0228162D01*
X0003600Y0229161D02*
X0018513Y0229161D01*
X0021000Y0229161D02*
X0022000Y0229161D01*
X0022000Y0228162D02*
X0021000Y0228162D01*
X0021000Y0227164D02*
X0022000Y0227164D01*
X0022000Y0226165D02*
X0021000Y0226165D01*
X0021000Y0225167D02*
X0022000Y0225167D01*
X0022000Y0224168D02*
X0021000Y0224168D01*
X0021000Y0223170D02*
X0022000Y0223170D01*
X0022000Y0222171D02*
X0021000Y0222171D01*
X0021000Y0221172D02*
X0022000Y0221172D01*
X0022000Y0220174D02*
X0021000Y0220174D01*
X0021000Y0219175D02*
X0022000Y0219175D01*
X0022000Y0218177D02*
X0021000Y0218177D01*
X0021000Y0216000D02*
X0008500Y0216000D01*
X0008500Y0215861D01*
X0008625Y0214590D01*
X0008874Y0213337D01*
X0009245Y0212115D01*
X0009734Y0210935D01*
X0010336Y0209809D01*
X0011046Y0208747D01*
X0011856Y0207759D01*
X0012759Y0206856D01*
X0013747Y0206046D01*
X0014809Y0205336D01*
X0015935Y0204734D01*
X0017115Y0204245D01*
X0018337Y0203874D01*
X0019590Y0203625D01*
X0020861Y0203500D01*
X0021000Y0203500D01*
X0021000Y0216000D01*
X0021000Y0215181D02*
X0022000Y0215181D01*
X0022000Y0214183D02*
X0021000Y0214183D01*
X0021000Y0213184D02*
X0022000Y0213184D01*
X0022000Y0212186D02*
X0021000Y0212186D01*
X0021000Y0211187D02*
X0022000Y0211187D01*
X0022000Y0210189D02*
X0021000Y0210189D01*
X0021000Y0209190D02*
X0022000Y0209190D01*
X0022000Y0208192D02*
X0021000Y0208192D01*
X0021000Y0207193D02*
X0022000Y0207193D01*
X0022000Y0206195D02*
X0021000Y0206195D01*
X0021000Y0205196D02*
X0022000Y0205196D01*
X0022000Y0204198D02*
X0021000Y0204198D01*
X0017271Y0204198D02*
X0003600Y0204198D01*
X0003600Y0205196D02*
X0015070Y0205196D01*
X0013565Y0206195D02*
X0003600Y0206195D01*
X0003600Y0207193D02*
X0012422Y0207193D01*
X0011501Y0208192D02*
X0003600Y0208192D01*
X0003600Y0209190D02*
X0010749Y0209190D01*
X0010133Y0210189D02*
X0003600Y0210189D01*
X0003600Y0211187D02*
X0009629Y0211187D01*
X0009224Y0212186D02*
X0003600Y0212186D01*
X0003600Y0213184D02*
X0008921Y0213184D01*
X0008706Y0214183D02*
X0003600Y0214183D01*
X0003600Y0215181D02*
X0008567Y0215181D01*
X0003600Y0203199D02*
X0054947Y0203199D01*
X0055945Y0204198D02*
X0025729Y0204198D01*
X0027930Y0205196D02*
X0056944Y0205196D01*
X0057942Y0206195D02*
X0029435Y0206195D01*
X0030578Y0207193D02*
X0058941Y0207193D01*
X0059939Y0208192D02*
X0031499Y0208192D01*
X0032251Y0209190D02*
X0060938Y0209190D01*
X0061936Y0210189D02*
X0032867Y0210189D01*
X0033371Y0211187D02*
X0062935Y0211187D01*
X0063933Y0212186D02*
X0033776Y0212186D01*
X0034079Y0213184D02*
X0064932Y0213184D01*
X0072031Y0217178D02*
X0034496Y0217178D01*
X0034398Y0218177D02*
X0072075Y0218177D01*
X0072133Y0219175D02*
X0034222Y0219175D01*
X0033970Y0220174D02*
X0071831Y0220174D01*
X0071831Y0221172D02*
X0033636Y0221172D01*
X0033209Y0222171D02*
X0071831Y0222171D01*
X0071831Y0223170D02*
X0032676Y0223170D01*
X0032011Y0224168D02*
X0071831Y0224168D01*
X0071831Y0225167D02*
X0031205Y0225167D01*
X0030215Y0226165D02*
X0072781Y0226165D01*
X0075500Y0222346D02*
X0083500Y0222346D01*
X0087168Y0222171D02*
X0244791Y0222171D01*
X0244364Y0221172D02*
X0087168Y0221172D01*
X0087168Y0223170D02*
X0245324Y0223170D01*
X0245989Y0224168D02*
X0087168Y0224168D01*
X0087168Y0225167D02*
X0246795Y0225167D01*
X0247785Y0226165D02*
X0086219Y0226165D01*
X0080781Y0226165D02*
X0078219Y0226165D01*
X0079168Y0225167D02*
X0079831Y0225167D01*
X0080133Y0219175D02*
X0078867Y0219175D01*
X0078925Y0218177D02*
X0079831Y0218177D01*
X0079831Y0217178D02*
X0078968Y0217178D01*
X0078968Y0216180D02*
X0079831Y0216180D01*
X0053948Y0202201D02*
X0003600Y0202201D01*
X0003600Y0201202D02*
X0052950Y0201202D01*
X0051951Y0200204D02*
X0003600Y0200204D01*
X0003600Y0199205D02*
X0050953Y0199205D01*
X0049954Y0198207D02*
X0003600Y0198207D01*
X0003600Y0197208D02*
X0049200Y0197208D01*
X0049200Y0196210D02*
X0003600Y0196210D01*
X0003600Y0195211D02*
X0049200Y0195211D01*
X0049200Y0194213D02*
X0003600Y0194213D01*
X0039522Y0172245D02*
X0043993Y0172245D01*
X0042994Y0171247D02*
X0040720Y0171247D01*
X0041691Y0170248D02*
X0041996Y0170248D01*
X0059200Y0158266D02*
X0018800Y0158266D01*
X0018800Y0157268D02*
X0059015Y0157268D01*
X0058017Y0156269D02*
X0018800Y0156269D01*
X0018800Y0155271D02*
X0057018Y0155271D01*
X0056020Y0154272D02*
X0018800Y0154272D01*
X0018800Y0153274D02*
X0025200Y0153274D01*
X0022993Y0152275D02*
X0018800Y0152275D01*
X0018800Y0151277D02*
X0021994Y0151277D01*
X0021191Y0150278D02*
X0018800Y0150278D01*
X0018800Y0149280D02*
X0020778Y0149280D01*
X0020364Y0148281D02*
X0018800Y0148281D01*
X0018800Y0147283D02*
X0020351Y0147283D01*
X0020351Y0146284D02*
X0018800Y0146284D01*
X0018800Y0145286D02*
X0020521Y0145286D01*
X0020934Y0144287D02*
X0018800Y0144287D01*
X0018800Y0143289D02*
X0021374Y0143289D01*
X0022372Y0142290D02*
X0018800Y0142290D01*
X0018800Y0141292D02*
X0023703Y0141292D01*
X0018800Y0140293D02*
X0029200Y0140293D01*
X0029200Y0139295D02*
X0018800Y0139295D01*
X0018800Y0138296D02*
X0029200Y0138296D01*
X0029200Y0137298D02*
X0018800Y0137298D01*
X0018800Y0136299D02*
X0029200Y0136299D01*
X0029200Y0135301D02*
X0018800Y0135301D01*
X0018800Y0134302D02*
X0029200Y0134302D01*
X0029200Y0133303D02*
X0018800Y0133303D01*
X0018800Y0132305D02*
X0029200Y0132305D01*
X0029200Y0131306D02*
X0018800Y0131306D01*
X0018800Y0130308D02*
X0029439Y0130308D01*
X0030438Y0129309D02*
X0018800Y0129309D01*
X0018800Y0128311D02*
X0031436Y0128311D01*
X0032435Y0127312D02*
X0018800Y0127312D01*
X0018800Y0126314D02*
X0033433Y0126314D01*
X0034432Y0125315D02*
X0018800Y0125315D01*
X0018800Y0124317D02*
X0035430Y0124317D01*
X0036943Y0129309D02*
X0208200Y0129309D01*
X0208200Y0128311D02*
X0047942Y0128311D01*
X0048800Y0127453D02*
X0048800Y0127453D01*
X0048940Y0127312D02*
X0208200Y0127312D01*
X0208200Y0126314D02*
X0049939Y0126314D01*
X0050937Y0125315D02*
X0208200Y0125315D01*
X0208200Y0124317D02*
X0051936Y0124317D01*
X0052934Y0123318D02*
X0208200Y0123318D01*
X0208200Y0122320D02*
X0053800Y0122320D01*
X0049200Y0120323D02*
X0018800Y0120323D01*
X0018800Y0121321D02*
X0048426Y0121321D01*
X0047427Y0122320D02*
X0018800Y0122320D01*
X0018800Y0123318D02*
X0046429Y0123318D01*
X0049200Y0119324D02*
X0018800Y0119324D01*
X0018800Y0118326D02*
X0049200Y0118326D01*
X0049200Y0117327D02*
X0037948Y0117327D01*
X0037682Y0117414D02*
X0036714Y0117567D01*
X0032000Y0117567D01*
X0032000Y0111843D01*
X0031000Y0111843D01*
X0031000Y0117567D01*
X0026286Y0117567D01*
X0025318Y0117414D01*
X0024386Y0117111D01*
X0023513Y0116666D01*
X0022721Y0116090D01*
X0022028Y0115397D01*
X0021452Y0114605D01*
X0021007Y0113732D01*
X0020704Y0112800D01*
X0020553Y0111842D01*
X0031000Y0111842D01*
X0031000Y0110843D01*
X0020553Y0110843D01*
X0020704Y0109885D01*
X0021007Y0108953D01*
X0021452Y0108080D01*
X0022028Y0107288D01*
X0022721Y0106595D01*
X0023513Y0106019D01*
X0024386Y0105574D01*
X0025318Y0105271D01*
X0026286Y0105118D01*
X0031000Y0105118D01*
X0031000Y0110842D01*
X0032000Y0110842D01*
X0032000Y0105118D01*
X0036714Y0105118D01*
X0037682Y0105271D01*
X0038614Y0105574D01*
X0039487Y0106019D01*
X0040279Y0106595D01*
X0040972Y0107288D01*
X0041548Y0108080D01*
X0041993Y0108953D01*
X0042296Y0109885D01*
X0042447Y0110843D01*
X0032000Y0110843D01*
X0032000Y0111842D01*
X0042447Y0111842D01*
X0042296Y0112800D01*
X0041993Y0113732D01*
X0041548Y0114605D01*
X0040972Y0115397D01*
X0040279Y0116090D01*
X0039487Y0116666D01*
X0038614Y0117111D01*
X0037682Y0117414D01*
X0039951Y0116329D02*
X0049200Y0116329D01*
X0049200Y0115330D02*
X0041021Y0115330D01*
X0041687Y0114332D02*
X0049200Y0114332D01*
X0049200Y0113333D02*
X0042122Y0113333D01*
X0042369Y0112335D02*
X0049200Y0112335D01*
X0049200Y0111336D02*
X0032000Y0111336D01*
X0032000Y0110338D02*
X0031000Y0110338D01*
X0031000Y0111336D02*
X0018800Y0111336D01*
X0018800Y0110338D02*
X0020633Y0110338D01*
X0020882Y0109339D02*
X0018800Y0109339D01*
X0018800Y0108341D02*
X0021319Y0108341D01*
X0021988Y0107342D02*
X0018800Y0107342D01*
X0018800Y0106344D02*
X0023066Y0106344D01*
X0025091Y0105345D02*
X0018800Y0105345D01*
X0018800Y0104347D02*
X0049200Y0104347D01*
X0049200Y0105345D02*
X0037909Y0105345D01*
X0039934Y0106344D02*
X0049200Y0106344D01*
X0049200Y0107342D02*
X0041012Y0107342D01*
X0041681Y0108341D02*
X0049200Y0108341D01*
X0049200Y0109339D02*
X0042118Y0109339D01*
X0042367Y0110338D02*
X0049200Y0110338D01*
X0049200Y0103348D02*
X0018800Y0103348D01*
X0018903Y0102350D02*
X0049200Y0102350D01*
X0049200Y0101351D02*
X0019902Y0101351D01*
X0020900Y0100353D02*
X0049200Y0100353D01*
X0049200Y0099354D02*
X0021899Y0099354D01*
X0022897Y0098356D02*
X0049200Y0098356D01*
X0049200Y0097357D02*
X0039252Y0097357D01*
X0040609Y0096359D02*
X0049200Y0096359D01*
X0049200Y0095360D02*
X0041607Y0095360D01*
X0042058Y0094362D02*
X0049200Y0094362D01*
X0049200Y0093363D02*
X0042472Y0093363D01*
X0042649Y0092365D02*
X0049200Y0092365D01*
X0049200Y0091366D02*
X0042649Y0091366D01*
X0042644Y0090368D02*
X0049200Y0090368D01*
X0049200Y0089369D02*
X0042230Y0089369D01*
X0041817Y0088370D02*
X0049200Y0088370D01*
X0049200Y0087372D02*
X0041024Y0087372D01*
X0040026Y0086373D02*
X0049200Y0086373D01*
X0049200Y0085375D02*
X0037845Y0085375D01*
X0037530Y0078385D02*
X0049200Y0078385D01*
X0049200Y0079384D02*
X0003600Y0079384D01*
X0003600Y0080382D02*
X0049200Y0080382D01*
X0049200Y0081381D02*
X0003600Y0081381D01*
X0003600Y0082379D02*
X0049200Y0082379D01*
X0049200Y0083378D02*
X0003600Y0083378D01*
X0003600Y0084376D02*
X0049200Y0084376D01*
X0049134Y0077387D02*
X0039895Y0077387D01*
X0040894Y0076388D02*
X0048136Y0076388D01*
X0047137Y0075390D02*
X0041763Y0075390D01*
X0042176Y0074391D02*
X0046139Y0074391D01*
X0053800Y0098356D02*
X0088046Y0098356D01*
X0088046Y0099354D02*
X0053800Y0099354D01*
X0053800Y0100353D02*
X0088046Y0100353D01*
X0088046Y0101351D02*
X0053800Y0101351D01*
X0032000Y0105345D02*
X0031000Y0105345D01*
X0031000Y0106344D02*
X0032000Y0106344D01*
X0032000Y0107342D02*
X0031000Y0107342D01*
X0031000Y0108341D02*
X0032000Y0108341D01*
X0032000Y0109339D02*
X0031000Y0109339D01*
X0031000Y0112335D02*
X0032000Y0112335D01*
X0032000Y0113333D02*
X0031000Y0113333D01*
X0031000Y0114332D02*
X0032000Y0114332D01*
X0032000Y0115330D02*
X0031000Y0115330D01*
X0031000Y0116329D02*
X0032000Y0116329D01*
X0032000Y0117327D02*
X0031000Y0117327D01*
X0025052Y0117327D02*
X0018800Y0117327D01*
X0018800Y0116329D02*
X0023049Y0116329D01*
X0021979Y0115330D02*
X0018800Y0115330D01*
X0018800Y0114332D02*
X0021313Y0114332D01*
X0020878Y0113333D02*
X0018800Y0113333D01*
X0018800Y0112335D02*
X0020631Y0112335D01*
X0035945Y0130308D02*
X0208200Y0130308D01*
X0208200Y0131306D02*
X0034946Y0131306D01*
X0033948Y0132305D02*
X0080172Y0132305D01*
X0080470Y0132208D02*
X0079811Y0132422D01*
X0079194Y0132737D01*
X0078634Y0133144D01*
X0078144Y0133634D01*
X0077737Y0134194D01*
X0077422Y0134811D01*
X0077208Y0135470D01*
X0077116Y0136050D01*
X0081050Y0136050D01*
X0081050Y0136950D01*
X0081050Y0140884D01*
X0080470Y0140792D01*
X0079811Y0140578D01*
X0079194Y0140263D01*
X0078634Y0139856D01*
X0078144Y0139366D01*
X0077737Y0138806D01*
X0077422Y0138189D01*
X0077208Y0137530D01*
X0077116Y0136950D01*
X0081050Y0136950D01*
X0081950Y0136950D01*
X0081950Y0140884D01*
X0082530Y0140792D01*
X0083189Y0140578D01*
X0083806Y0140263D01*
X0084366Y0139856D01*
X0084856Y0139366D01*
X0085263Y0138806D01*
X0085578Y0138189D01*
X0085792Y0137530D01*
X0085884Y0136950D01*
X0081950Y0136950D01*
X0081950Y0136050D01*
X0085884Y0136050D01*
X0085792Y0135470D01*
X0085578Y0134811D01*
X0085263Y0134194D01*
X0084856Y0133634D01*
X0084366Y0133144D01*
X0083806Y0132737D01*
X0083189Y0132422D01*
X0082530Y0132208D01*
X0081950Y0132116D01*
X0081950Y0136050D01*
X0081050Y0136050D01*
X0081050Y0132116D01*
X0080470Y0132208D01*
X0081050Y0132305D02*
X0081950Y0132305D01*
X0082828Y0132305D02*
X0208200Y0132305D01*
X0208200Y0133303D02*
X0084526Y0133303D01*
X0085318Y0134302D02*
X0208200Y0134302D01*
X0208200Y0135301D02*
X0085737Y0135301D01*
X0085829Y0137298D02*
X0208200Y0137298D01*
X0208200Y0138296D02*
X0085523Y0138296D01*
X0084908Y0139295D02*
X0208200Y0139295D01*
X0208200Y0140293D02*
X0083747Y0140293D01*
X0081950Y0140293D02*
X0081050Y0140293D01*
X0081050Y0139295D02*
X0081950Y0139295D01*
X0081950Y0138296D02*
X0081050Y0138296D01*
X0081050Y0137298D02*
X0081950Y0137298D01*
X0081950Y0136299D02*
X0208200Y0136299D01*
X0208200Y0141292D02*
X0039297Y0141292D01*
X0040628Y0142290D02*
X0079643Y0142290D01*
X0078894Y0142600D02*
X0080585Y0141900D01*
X0082415Y0141900D01*
X0084106Y0142600D01*
X0085400Y0143894D01*
X0086100Y0145585D01*
X0086100Y0147415D01*
X0085400Y0149106D01*
X0084106Y0150400D01*
X0082415Y0151100D01*
X0080585Y0151100D01*
X0078894Y0150400D01*
X0077600Y0149106D01*
X0076900Y0147415D01*
X0076900Y0145585D01*
X0077600Y0143894D01*
X0078894Y0142600D01*
X0078206Y0143289D02*
X0041626Y0143289D01*
X0042066Y0144287D02*
X0077438Y0144287D01*
X0077024Y0145286D02*
X0053538Y0145286D01*
X0054537Y0146284D02*
X0076900Y0146284D01*
X0076900Y0147283D02*
X0055535Y0147283D01*
X0056534Y0148281D02*
X0077259Y0148281D01*
X0077774Y0149280D02*
X0057532Y0149280D01*
X0058531Y0150278D02*
X0078773Y0150278D01*
X0079679Y0152275D02*
X0060528Y0152275D01*
X0059529Y0151277D02*
X0211610Y0151277D01*
X0212608Y0152275D02*
X0083321Y0152275D01*
X0084106Y0152600D02*
X0082415Y0151900D01*
X0080585Y0151900D01*
X0078894Y0152600D01*
X0077600Y0153894D01*
X0076900Y0155585D01*
X0076900Y0157415D01*
X0077600Y0159106D01*
X0078894Y0160400D01*
X0080585Y0161100D01*
X0082415Y0161100D01*
X0084106Y0160400D01*
X0085400Y0159106D01*
X0086100Y0157415D01*
X0086100Y0155585D01*
X0085400Y0153894D01*
X0084106Y0152600D01*
X0084779Y0153274D02*
X0213607Y0153274D01*
X0214605Y0154272D02*
X0085556Y0154272D01*
X0085970Y0155271D02*
X0218600Y0155271D01*
X0218600Y0156269D02*
X0086100Y0156269D01*
X0086100Y0157268D02*
X0218600Y0157268D01*
X0218600Y0158266D02*
X0085747Y0158266D01*
X0085241Y0159265D02*
X0218600Y0159265D01*
X0218600Y0160263D02*
X0084242Y0160263D01*
X0078758Y0160263D02*
X0063800Y0160263D01*
X0063800Y0159265D02*
X0077759Y0159265D01*
X0077253Y0158266D02*
X0063800Y0158266D01*
X0063800Y0157268D02*
X0076900Y0157268D01*
X0076900Y0156269D02*
X0063800Y0156269D01*
X0063523Y0155271D02*
X0077030Y0155271D01*
X0077444Y0154272D02*
X0062525Y0154272D01*
X0061526Y0153274D02*
X0078221Y0153274D01*
X0084227Y0150278D02*
X0210611Y0150278D01*
X0209613Y0149280D02*
X0085226Y0149280D01*
X0085741Y0148281D02*
X0208666Y0148281D01*
X0208252Y0147283D02*
X0086100Y0147283D01*
X0086100Y0146284D02*
X0208200Y0146284D01*
X0208200Y0145286D02*
X0085976Y0145286D01*
X0085562Y0144287D02*
X0208200Y0144287D01*
X0208200Y0143289D02*
X0084794Y0143289D01*
X0083357Y0142290D02*
X0208200Y0142290D01*
X0214800Y0142290D02*
X0217953Y0142290D01*
X0217953Y0141292D02*
X0214800Y0141292D01*
X0214800Y0140293D02*
X0217953Y0140293D01*
X0217953Y0139295D02*
X0214800Y0139295D01*
X0214800Y0138296D02*
X0217953Y0138296D01*
X0217953Y0137298D02*
X0214800Y0137298D01*
X0214800Y0143289D02*
X0217953Y0143289D01*
X0217953Y0144287D02*
X0214800Y0144287D01*
X0214953Y0145286D02*
X0217953Y0145286D01*
X0217953Y0146284D02*
X0215951Y0146284D01*
X0216950Y0147283D02*
X0218098Y0147283D01*
X0231157Y0135301D02*
X0232157Y0135301D01*
X0232157Y0134302D02*
X0231157Y0134302D01*
X0231157Y0133303D02*
X0232157Y0133303D01*
X0232157Y0132305D02*
X0231157Y0132305D01*
X0231157Y0131306D02*
X0232157Y0131306D01*
X0232157Y0130308D02*
X0231157Y0130308D01*
X0231157Y0129309D02*
X0232157Y0129309D01*
X0232157Y0128311D02*
X0231157Y0128311D01*
X0231157Y0127312D02*
X0232157Y0127312D01*
X0232157Y0126314D02*
X0231157Y0126314D01*
X0231157Y0125315D02*
X0232157Y0125315D01*
X0232157Y0124317D02*
X0231157Y0124317D01*
X0245362Y0137298D02*
X0274400Y0137298D01*
X0274400Y0138296D02*
X0245362Y0138296D01*
X0245362Y0139295D02*
X0274400Y0139295D01*
X0274400Y0140293D02*
X0245362Y0140293D01*
X0245362Y0141292D02*
X0274400Y0141292D01*
X0274400Y0142290D02*
X0265234Y0142290D01*
X0265247Y0143289D02*
X0274400Y0143289D01*
X0274400Y0144287D02*
X0265247Y0144287D01*
X0265247Y0145286D02*
X0274400Y0145286D01*
X0274400Y0146284D02*
X0265247Y0146284D01*
X0265247Y0147283D02*
X0274400Y0147283D01*
X0274400Y0148281D02*
X0264615Y0148281D01*
X0263275Y0149280D02*
X0274400Y0149280D01*
X0274400Y0150278D02*
X0262389Y0150278D01*
X0261390Y0151277D02*
X0274400Y0151277D01*
X0274400Y0152275D02*
X0260392Y0152275D01*
X0259393Y0153274D02*
X0274400Y0153274D01*
X0274400Y0154272D02*
X0258395Y0154272D01*
X0255548Y0147283D02*
X0245217Y0147283D01*
X0245362Y0146284D02*
X0255548Y0146284D01*
X0255548Y0145286D02*
X0245362Y0145286D01*
X0245362Y0144287D02*
X0255548Y0144287D01*
X0255548Y0143289D02*
X0245362Y0143289D01*
X0245362Y0142290D02*
X0255562Y0142290D01*
X0264636Y0130308D02*
X0274400Y0130308D01*
X0274400Y0129309D02*
X0265247Y0129309D01*
X0265247Y0128311D02*
X0274400Y0128311D01*
X0274400Y0127312D02*
X0265247Y0127312D01*
X0265247Y0126314D02*
X0274400Y0126314D01*
X0274400Y0125315D02*
X0265247Y0125315D01*
X0265213Y0124317D02*
X0274400Y0124317D01*
X0274400Y0123318D02*
X0262985Y0123318D01*
X0261987Y0122320D02*
X0274400Y0122320D01*
X0274400Y0121321D02*
X0260988Y0121321D01*
X0259990Y0120323D02*
X0274400Y0120323D01*
X0241233Y0168251D02*
X0230636Y0168251D01*
X0231168Y0169250D02*
X0241428Y0169250D01*
X0244073Y0173244D02*
X0244352Y0173244D01*
X0244352Y0174242D02*
X0244073Y0174242D01*
X0244073Y0175241D02*
X0244352Y0175241D01*
X0244352Y0176239D02*
X0244073Y0176239D01*
X0244073Y0177238D02*
X0244352Y0177238D01*
X0244352Y0178237D02*
X0244073Y0178237D01*
X0244073Y0179235D02*
X0244352Y0179235D01*
X0244352Y0180234D02*
X0244073Y0180234D01*
X0244073Y0181232D02*
X0244352Y0181232D01*
X0244352Y0182231D02*
X0244073Y0182231D01*
X0244073Y0183229D02*
X0244352Y0183229D01*
X0244352Y0184228D02*
X0244073Y0184228D01*
X0246223Y0184228D02*
X0274400Y0184228D01*
X0274400Y0183229D02*
X0246962Y0183229D01*
X0246992Y0182231D02*
X0274400Y0182231D01*
X0274400Y0181232D02*
X0246992Y0181232D01*
X0246992Y0180234D02*
X0274400Y0180234D01*
X0274400Y0179235D02*
X0246992Y0179235D01*
X0246992Y0178237D02*
X0274400Y0178237D01*
X0274400Y0177238D02*
X0246992Y0177238D01*
X0246992Y0176239D02*
X0274400Y0176239D01*
X0274400Y0175241D02*
X0246992Y0175241D01*
X0246992Y0174242D02*
X0274400Y0174242D01*
X0274400Y0173244D02*
X0246601Y0173244D01*
X0213343Y0180234D02*
X0209373Y0180234D01*
X0209457Y0181232D02*
X0213343Y0181232D01*
X0213343Y0182231D02*
X0209457Y0182231D01*
X0209457Y0184228D02*
X0213343Y0184228D01*
X0213343Y0185226D02*
X0209457Y0185226D01*
X0209457Y0186225D02*
X0213343Y0186225D01*
X0213606Y0187223D02*
X0209111Y0187223D01*
X0206094Y0187223D02*
X0205095Y0187223D01*
X0205095Y0186225D02*
X0206094Y0186225D01*
X0206094Y0185226D02*
X0205095Y0185226D01*
X0205095Y0184228D02*
X0206094Y0184228D01*
X0206095Y0183229D02*
X0213343Y0183229D01*
X0205094Y0183229D02*
X0183872Y0183229D01*
X0182874Y0184228D02*
X0201732Y0184228D01*
X0201732Y0185226D02*
X0181875Y0185226D01*
X0180877Y0186225D02*
X0201732Y0186225D01*
X0202078Y0187223D02*
X0179878Y0187223D01*
X0184871Y0182231D02*
X0201732Y0182231D01*
X0201732Y0181232D02*
X0185869Y0181232D01*
X0186868Y0180234D02*
X0201816Y0180234D01*
X0249060Y0227164D02*
X0028940Y0227164D01*
X0027259Y0228162D02*
X0250741Y0228162D01*
X0253513Y0229161D02*
X0024487Y0229161D01*
X0003600Y0230159D02*
X0274400Y0230159D01*
X0274400Y0231158D02*
X0003600Y0231158D01*
X0003600Y0232156D02*
X0274400Y0232156D01*
X0274400Y0233155D02*
X0003600Y0233155D01*
X0003600Y0234153D02*
X0274400Y0234153D01*
X0274400Y0234400D02*
X0274400Y0003600D01*
X0003600Y0003600D01*
X0003600Y0234400D01*
X0274400Y0234400D01*
X0113124Y0213184D02*
X0112486Y0213184D01*
X0110138Y0213184D02*
X0109169Y0213184D01*
X0109169Y0214183D02*
X0110138Y0214183D01*
X0110138Y0215181D02*
X0109169Y0215181D01*
X0055021Y0153274D02*
X0037800Y0153274D01*
X0040007Y0152275D02*
X0054023Y0152275D01*
X0053024Y0151277D02*
X0041006Y0151277D01*
X0041809Y0150278D02*
X0052026Y0150278D01*
X0051027Y0149280D02*
X0042222Y0149280D01*
X0033800Y0140293D02*
X0079253Y0140293D01*
X0078092Y0139295D02*
X0033800Y0139295D01*
X0033800Y0138296D02*
X0077477Y0138296D01*
X0077171Y0137298D02*
X0033800Y0137298D01*
X0033800Y0136299D02*
X0081050Y0136299D01*
X0081050Y0135301D02*
X0081950Y0135301D01*
X0081950Y0134302D02*
X0081050Y0134302D01*
X0081050Y0133303D02*
X0081950Y0133303D01*
X0078474Y0133303D02*
X0033800Y0133303D01*
X0033800Y0134302D02*
X0077682Y0134302D01*
X0077263Y0135301D02*
X0033800Y0135301D01*
X0076027Y0097357D02*
X0079973Y0097357D01*
X0080249Y0091366D02*
X0075750Y0091366D01*
X0087331Y0064406D02*
X0003600Y0064406D01*
X0003600Y0063408D02*
X0168465Y0063408D01*
X0175201Y0069399D02*
X0188089Y0069399D01*
X0189087Y0070397D02*
X0174203Y0070397D01*
X0173204Y0071396D02*
X0190086Y0071396D01*
X0191084Y0072394D02*
X0171437Y0072394D01*
X0176200Y0068400D02*
X0187090Y0068400D01*
X0186092Y0067402D02*
X0177198Y0067402D01*
X0178197Y0066403D02*
X0185093Y0066403D01*
X0184095Y0065405D02*
X0179195Y0065405D01*
X0180194Y0064406D02*
X0183096Y0064406D01*
X0182098Y0063408D02*
X0181192Y0063408D01*
X0256000Y0033452D02*
X0257000Y0033452D01*
X0257000Y0032454D02*
X0256000Y0032454D01*
X0256000Y0031455D02*
X0257000Y0031455D01*
X0257000Y0030457D02*
X0256000Y0030457D01*
X0256000Y0029458D02*
X0257000Y0029458D01*
X0257000Y0028460D02*
X0256000Y0028460D01*
X0256000Y0027461D02*
X0257000Y0027461D01*
X0257000Y0026463D02*
X0256000Y0026463D01*
X0256000Y0025464D02*
X0257000Y0025464D01*
X0257000Y0024466D02*
X0256000Y0024466D01*
X0256000Y0023467D02*
X0257000Y0023467D01*
X0257000Y0022469D02*
X0256000Y0022469D01*
X0256000Y0019473D02*
X0257000Y0019473D01*
X0257000Y0018475D02*
X0256000Y0018475D01*
X0256000Y0017476D02*
X0257000Y0017476D01*
X0257000Y0016478D02*
X0256000Y0016478D01*
X0256000Y0015479D02*
X0257000Y0015479D01*
X0257000Y0014481D02*
X0256000Y0014481D01*
X0256000Y0013482D02*
X0257000Y0013482D01*
X0257000Y0012484D02*
X0256000Y0012484D01*
X0256000Y0011485D02*
X0257000Y0011485D01*
X0257000Y0010487D02*
X0256000Y0010487D01*
X0256000Y0009488D02*
X0257000Y0009488D01*
X0274400Y0007491D02*
X0003600Y0007491D01*
X0003600Y0006493D02*
X0274400Y0006493D01*
X0274400Y0005494D02*
X0003600Y0005494D01*
X0003600Y0004496D02*
X0274400Y0004496D01*
X0274400Y0022469D02*
X0269467Y0022469D01*
X0269363Y0023467D02*
X0274400Y0023467D01*
X0274400Y0024466D02*
X0269165Y0024466D01*
X0268882Y0025464D02*
X0274400Y0025464D01*
X0274400Y0026463D02*
X0268515Y0026463D01*
X0268054Y0027461D02*
X0274400Y0027461D01*
X0274400Y0028460D02*
X0267485Y0028460D01*
X0266786Y0029458D02*
X0274400Y0029458D01*
X0274400Y0030457D02*
X0265928Y0030457D01*
X0264861Y0031455D02*
X0274400Y0031455D01*
X0274400Y0032454D02*
X0263506Y0032454D01*
X0261615Y0033452D02*
X0274400Y0033452D01*
X0087008Y0062409D02*
X0003600Y0062409D01*
X0003600Y0061411D02*
X0085266Y0061411D01*
X0083866Y0060412D02*
X0003600Y0060412D01*
X0003600Y0059414D02*
X0082867Y0059414D01*
X0081869Y0058415D02*
X0003600Y0058415D01*
X0003600Y0057417D02*
X0080870Y0057417D01*
X0079872Y0056418D02*
X0003600Y0056418D01*
X0003600Y0055420D02*
X0078873Y0055420D01*
X0077875Y0054421D02*
X0003600Y0054421D01*
X0003600Y0053423D02*
X0076920Y0053423D01*
X0076344Y0052424D02*
X0003600Y0052424D01*
X0003600Y0051426D02*
X0075767Y0051426D01*
X0075324Y0050427D02*
X0003600Y0050427D01*
X0003600Y0049429D02*
X0075057Y0049429D01*
X0074789Y0048430D02*
X0003600Y0048430D01*
X0003600Y0047432D02*
X0074643Y0047432D01*
X0074643Y0046433D02*
X0003600Y0046433D01*
X0003600Y0045434D02*
X0074643Y0045434D01*
X0074643Y0044436D02*
X0003600Y0044436D01*
X0003600Y0043437D02*
X0074643Y0043437D01*
X0074643Y0042439D02*
X0067209Y0042439D01*
X0067157Y0042439D02*
X0066157Y0042439D01*
X0066106Y0042439D02*
X0003600Y0042439D01*
X0003600Y0041440D02*
X0063247Y0041440D01*
X0062072Y0040442D02*
X0003600Y0040442D01*
X0003600Y0039443D02*
X0061312Y0039443D01*
X0060834Y0038445D02*
X0003600Y0038445D01*
X0003600Y0037446D02*
X0060549Y0037446D01*
X0060433Y0036448D02*
X0003600Y0036448D01*
X0003600Y0035449D02*
X0060433Y0035449D01*
X0060433Y0034451D02*
X0022637Y0034451D01*
X0022000Y0034451D02*
X0021000Y0034451D01*
X0020363Y0034451D02*
X0003600Y0034451D01*
X0003600Y0033452D02*
X0016385Y0033452D01*
X0014494Y0032454D02*
X0003600Y0032454D01*
X0003600Y0031455D02*
X0013139Y0031455D01*
X0012072Y0030457D02*
X0003600Y0030457D01*
X0003600Y0029458D02*
X0011214Y0029458D01*
X0010515Y0028460D02*
X0003600Y0028460D01*
X0003600Y0027461D02*
X0009946Y0027461D01*
X0009485Y0026463D02*
X0003600Y0026463D01*
X0003600Y0025464D02*
X0009118Y0025464D01*
X0008835Y0024466D02*
X0003600Y0024466D01*
X0003600Y0023467D02*
X0008637Y0023467D01*
X0008533Y0022469D02*
X0003600Y0022469D01*
X0021000Y0022469D02*
X0022000Y0022469D01*
X0022000Y0023467D02*
X0021000Y0023467D01*
X0021000Y0024466D02*
X0022000Y0024466D01*
X0022000Y0025464D02*
X0021000Y0025464D01*
X0021000Y0026463D02*
X0022000Y0026463D01*
X0022000Y0027461D02*
X0021000Y0027461D01*
X0021000Y0028460D02*
X0022000Y0028460D01*
X0022000Y0029458D02*
X0021000Y0029458D01*
X0021000Y0030457D02*
X0022000Y0030457D01*
X0022000Y0031455D02*
X0021000Y0031455D01*
X0021000Y0032454D02*
X0022000Y0032454D01*
X0022000Y0033452D02*
X0021000Y0033452D01*
X0026615Y0033452D02*
X0060433Y0033452D01*
X0060433Y0032454D02*
X0028506Y0032454D01*
X0022000Y0019473D02*
X0021000Y0019473D01*
X0021000Y0018475D02*
X0022000Y0018475D01*
X0022000Y0017476D02*
X0021000Y0017476D01*
X0021000Y0016478D02*
X0022000Y0016478D01*
X0022000Y0015479D02*
X0021000Y0015479D01*
X0021000Y0014481D02*
X0022000Y0014481D01*
X0022000Y0013482D02*
X0021000Y0013482D01*
X0021000Y0012484D02*
X0022000Y0012484D01*
X0022000Y0011485D02*
X0021000Y0011485D01*
X0021000Y0010487D02*
X0022000Y0010487D01*
X0022000Y0009488D02*
X0021000Y0009488D01*
X0066157Y0021470D02*
X0067157Y0021470D01*
X0067157Y0022469D02*
X0066157Y0022469D01*
X0066157Y0023467D02*
X0067157Y0023467D01*
X0067157Y0024466D02*
X0066157Y0024466D01*
X0066157Y0025464D02*
X0067157Y0025464D01*
X0067157Y0026463D02*
X0066157Y0026463D01*
X0066157Y0027461D02*
X0067157Y0027461D01*
X0067157Y0028460D02*
X0066157Y0028460D01*
X0066157Y0029458D02*
X0067157Y0029458D01*
X0067157Y0032454D02*
X0066157Y0032454D01*
X0066157Y0033452D02*
X0067157Y0033452D01*
X0067157Y0034451D02*
X0066157Y0034451D01*
X0066157Y0035449D02*
X0067157Y0035449D01*
X0067157Y0036448D02*
X0066157Y0036448D01*
X0066157Y0037446D02*
X0067157Y0037446D01*
X0067157Y0038445D02*
X0066157Y0038445D01*
X0066157Y0039443D02*
X0067157Y0039443D01*
X0067157Y0040442D02*
X0066157Y0040442D01*
X0066157Y0041440D02*
X0067157Y0041440D01*
X0070068Y0041440D02*
X0074643Y0041440D01*
X0074643Y0040442D02*
X0071243Y0040442D01*
X0072003Y0039443D02*
X0074643Y0039443D01*
X0074643Y0038445D02*
X0072481Y0038445D01*
X0072766Y0037446D02*
X0074643Y0037446D01*
X0074643Y0036448D02*
X0072882Y0036448D01*
X0072882Y0035449D02*
X0074643Y0035449D01*
X0074643Y0034451D02*
X0072882Y0034451D01*
X0072882Y0033452D02*
X0074643Y0033452D01*
X0074643Y0032454D02*
X0072882Y0032454D01*
D26*
X0046500Y0071500D02*
X0031972Y0071500D01*
X0031500Y0071972D01*
X0032972Y0071972D01*
X0032500Y0071500D01*
X0046500Y0071500D02*
X0051500Y0076500D01*
X0051500Y0121500D01*
X0046500Y0126500D01*
X0036500Y0126500D01*
X0031500Y0131500D01*
X0031500Y0146972D01*
X0051972Y0146972D01*
X0061500Y0156500D01*
X0061500Y0181500D01*
X0071500Y0191500D01*
X0083500Y0191500D01*
X0083500Y0187346D01*
X0083500Y0191500D02*
X0083500Y0196500D01*
X0083437Y0197760D02*
X0083197Y0198000D01*
X0083437Y0205240D02*
X0083500Y0205303D01*
X0083500Y0211500D01*
X0066500Y0211500D01*
X0051500Y0196500D01*
X0051500Y0176500D01*
X0041657Y0166657D01*
X0031500Y0166657D01*
X0021657Y0166657D01*
X0016500Y0161500D01*
X0016500Y0101500D01*
X0026500Y0091500D01*
X0031500Y0091500D01*
X0031500Y0091657D01*
X0031657Y0091500D01*
X0072346Y0094500D02*
X0072563Y0094283D01*
X0072563Y0080240D01*
X0072346Y0094500D02*
X0083654Y0094500D01*
X0090346Y0094500D02*
X0090346Y0105346D01*
X0091500Y0106500D01*
X0075500Y0094346D02*
X0072346Y0094500D01*
X0161500Y0166500D02*
X0161500Y0176500D01*
X0151500Y0186500D01*
X0109500Y0186500D01*
X0106000Y0190000D01*
X0106000Y0206500D01*
X0108500Y0209000D01*
X0113800Y0209000D01*
X0113800Y0204000D02*
X0114454Y0203346D01*
X0114300Y0194500D02*
X0153500Y0194500D01*
X0171500Y0176500D01*
X0171500Y0166500D01*
X0099846Y0182846D02*
X0098500Y0181500D01*
X0099846Y0182846D02*
X0099846Y0186500D01*
X0093200Y0186546D02*
X0093154Y0186500D01*
X0093200Y0186546D02*
X0093200Y0194000D01*
X0083500Y0211500D02*
X0083500Y0215654D01*
D27*
X0098500Y0226500D03*
X0123500Y0226500D03*
X0118500Y0181500D03*
X0098500Y0181500D03*
X0066500Y0201500D03*
X0066500Y0226500D03*
X0046500Y0226500D03*
X0141500Y0181500D03*
X0191500Y0186500D03*
X0261500Y0196500D03*
X0261500Y0171500D03*
X0226500Y0111500D03*
X0221500Y0091500D03*
X0181500Y0081500D03*
X0136500Y0036500D03*
X0116500Y0016500D03*
X0066500Y0066500D03*
X0046500Y0051500D03*
X0016500Y0051500D03*
X0046500Y0021500D03*
X0066500Y0121500D03*
X0066500Y0141500D03*
X0206500Y0016500D03*
X0226500Y0031500D03*
X0261500Y0106500D03*
D28*
X0227406Y0178441D02*
X0227406Y0182094D01*
X0226000Y0183500D01*
X0217406Y0183500D01*
X0114300Y0194500D02*
X0113800Y0194000D01*
D29*
X0211500Y0146500D02*
X0211500Y0106500D01*
X0236020Y0104787D02*
X0236020Y0076823D01*
X0236500Y0076343D01*
X0236020Y0104787D02*
X0236500Y0105268D01*
X0236500Y0106500D01*
X0241500Y0111500D01*
X0246500Y0111500D01*
X0260398Y0125398D01*
X0260398Y0127024D01*
X0260398Y0144976D02*
X0260398Y0147602D01*
X0256500Y0151500D01*
X0246500Y0151500D01*
X0244213Y0153787D01*
X0244213Y0164020D01*
X0246500Y0151500D02*
X0221500Y0151500D01*
X0216500Y0151500D01*
X0211500Y0146500D01*
D30*
X0221500Y0151500D02*
X0221500Y0171500D01*
X0221654Y0171654D01*
X0227500Y0171654D01*
X0221500Y0171500D02*
X0216500Y0176500D01*
X0186500Y0176500D01*
X0159654Y0203346D01*
X0121500Y0203346D01*
X0121500Y0211500D01*
X0116500Y0216500D01*
X0116346Y0216500D01*
X0114454Y0203346D02*
X0121500Y0203346D01*
X0227406Y0178441D02*
X0227500Y0178346D01*
D31*
X0153272Y0084965D02*
X0153665Y0084571D01*
X0153272Y0084965D02*
X0091500Y0084965D01*
X0089295Y0084965D01*
X0080831Y0076500D01*
X0091500Y0068035D02*
X0170201Y0068035D01*
X0186736Y0051500D01*
X0153665Y0018429D01*
D32*
X0186736Y0051500D02*
X0211579Y0076343D01*
X0236500Y0076343D01*
X0247000Y0076343D01*
X0116264Y0051500D02*
X0091500Y0051500D01*
X0086343Y0046343D01*
X0086343Y0031500D01*
M02*
