G75*
%MOIN*%
%OFA0B0*%
%FSLAX25Y25*%
%IPPOS*%
%LPD*%
%AMOC8*
5,1,8,0,0,1.08239X$1,22.5*
%
%ADD10C,0.00800*%
%ADD11C,0.06200*%
%ADD12C,0.23400*%
%ADD13C,0.09849*%
%ADD14C,0.13455*%
D10*
X0001500Y0001500D02*
X0276500Y0001500D01*
X0276500Y0236500D01*
X0001500Y0236500D01*
X0001500Y0001500D01*
D11*
X0081500Y0106500D03*
X0091500Y0106500D03*
X0101500Y0106500D03*
X0111500Y0106500D03*
X0121500Y0106500D03*
X0131500Y0106500D03*
X0141500Y0106500D03*
X0151500Y0106500D03*
X0161500Y0106500D03*
X0171500Y0106500D03*
X0181500Y0106500D03*
X0191500Y0106500D03*
X0201500Y0106500D03*
X0211500Y0106500D03*
X0211500Y0166500D03*
X0201500Y0166500D03*
X0191500Y0166500D03*
X0181500Y0166500D03*
X0171500Y0166500D03*
X0161500Y0166500D03*
X0151500Y0166500D03*
X0141500Y0166500D03*
X0131500Y0166500D03*
X0121500Y0166500D03*
X0111500Y0166500D03*
X0101500Y0166500D03*
X0091500Y0166500D03*
X0081500Y0166500D03*
X0081500Y0156500D03*
X0081500Y0146500D03*
X0081500Y0136500D03*
X0081500Y0116500D03*
D12*
X0021500Y0021500D03*
X0021500Y0216500D03*
X0256500Y0216500D03*
X0256500Y0021500D03*
D13*
X0251724Y0056657D02*
X0242276Y0056657D01*
X0242276Y0076343D02*
X0251724Y0076343D01*
X0086343Y0036224D02*
X0086343Y0026776D01*
X0066657Y0026776D02*
X0066657Y0036224D01*
X0036224Y0071972D02*
X0026776Y0071972D01*
X0026776Y0091657D02*
X0036224Y0091657D01*
X0036224Y0111343D02*
X0026776Y0111343D01*
X0026776Y0146972D02*
X0036224Y0146972D01*
X0036224Y0166657D02*
X0026776Y0166657D01*
X0026776Y0186343D02*
X0036224Y0186343D01*
D14*
X0153665Y0084571D03*
X0155240Y0051500D03*
X0186736Y0051500D03*
X0153665Y0018429D03*
X0116264Y0051500D03*
M02*
