G75*
%MOIN*%
%OFA0B0*%
%FSLAX25Y25*%
%IPPOS*%
%LPD*%
%AMOC8*
5,1,8,0,0,1.08239X$1,22.5*
%
%ADD10C,0.00800*%
%ADD11R,0.08700X0.02400*%
%ADD12R,0.03937X0.04331*%
%ADD13R,0.04331X0.03937*%
%ADD14R,0.03543X0.03150*%
%ADD15R,0.24409X0.21260*%
%ADD16R,0.06299X0.03937*%
%ADD17R,0.02559X0.08661*%
%ADD18R,0.08661X0.02559*%
%ADD19R,0.04724X0.05512*%
%ADD20R,0.05787X0.05000*%
D10*
X0001500Y0001500D02*
X0276500Y0001500D01*
X0276500Y0236500D01*
X0001500Y0236500D01*
X0001500Y0001500D01*
D11*
X0093200Y0194000D03*
X0093200Y0199000D03*
X0093200Y0204000D03*
X0093200Y0209000D03*
X0113800Y0209000D03*
X0113800Y0204000D03*
X0113800Y0199000D03*
X0113800Y0194000D03*
D12*
X0083500Y0187346D03*
X0083500Y0180654D03*
X0076000Y0180654D03*
X0076000Y0187346D03*
X0075500Y0215654D03*
X0075500Y0222346D03*
X0083500Y0222346D03*
X0083500Y0215654D03*
X0227500Y0178346D03*
X0227500Y0171654D03*
D13*
X0116346Y0216500D03*
X0109654Y0216500D03*
X0099846Y0186500D03*
X0093154Y0186500D03*
X0090346Y0094500D03*
X0083654Y0094500D03*
X0072346Y0094500D03*
X0065654Y0094500D03*
D14*
X0072563Y0080240D03*
X0072563Y0072760D03*
X0080831Y0076500D03*
X0083437Y0197760D03*
X0083437Y0205240D03*
X0075169Y0201500D03*
D15*
X0231657Y0136000D03*
D16*
X0260398Y0127024D03*
X0260398Y0144976D03*
D17*
X0244213Y0164020D03*
X0244213Y0178587D03*
D18*
X0250587Y0104787D03*
X0236020Y0104787D03*
D19*
X0217406Y0183500D03*
X0205594Y0183500D03*
D20*
X0091500Y0084965D03*
X0091500Y0068035D03*
M02*
